<?xml version="1.0" encoding="utf-8" standalone="no"?>
<!DOCTYPE svg PUBLIC "-//W3C//DTD SVG 1.1//EN"
  "http://www.w3.org/Graphics/SVG/1.1/DTD/svg11.dtd">
<svg xmlns:xlink="http://www.w3.org/1999/xlink" width="460.8pt" height="345.6pt" viewBox="0 0 460.8 345.6" xmlns="http://www.w3.org/2000/svg" version="1.1">
 <metadata>
  <rdf:RDF xmlns:dc="http://purl.org/dc/elements/1.1/" xmlns:cc="http://creativecommons.org/ns#" xmlns:rdf="http://www.w3.org/1999/02/22-rdf-syntax-ns#">
   <cc:Work>
    <dc:type rdf:resource="http://purl.org/dc/dcmitype/StillImage"/>
    <dc:date>2024-05-30T11:57:37.384171</dc:date>
    <dc:format>image/svg+xml</dc:format>
    <dc:creator>
     <cc:Agent>
      <dc:title>Matplotlib v3.7.1, https://matplotlib.org/</dc:title>
     </cc:Agent>
    </dc:creator>
   </cc:Work>
  </rdf:RDF>
 </metadata>
 <defs>
  <style type="text/css">*{stroke-linejoin: round; stroke-linecap: butt}</style>
 </defs>
 <g id="figure_1">
  <g id="patch_1">
   <path d="M 0 345.6 
L 460.8 345.6 
L 460.8 0 
L 0 0 
z
" style="fill: #ffffff"/>
  </g>
  <g id="axes_1">
   <g id="patch_2">
    <path d="M 57.6 307.584 
L 414.72 307.584 
L 414.72 41.472 
L 57.6 41.472 
z
" style="fill: #ffffff"/>
   </g>
   <g id="matplotlib.axis_1">
    <g id="xtick_1">
     <g id="line2d_1">
      <path d="M 73.832727 307.584 
L 73.832727 41.472 
" clip-path="url(#p9f9006a66b)" style="fill: none; stroke: #b0b0b0; stroke-width: 0.8; stroke-linecap: square"/>
     </g>
     <g id="line2d_2">
      <defs>
       <path id="m57e7ebbc2a" d="M 0 0 
L 0 3.5 
" style="stroke: #000000; stroke-width: 0.8"/>
      </defs>
      <g>
       <use xlink:href="#m57e7ebbc2a" x="73.832727" y="307.584" style="stroke: #000000; stroke-width: 0.8"/>
      </g>
     </g>
     <g id="text_1">
      <!-- 0 -->
      <g transform="translate(70.651477 322.182437) scale(0.1 -0.1)">
       <defs>
        <path id="DejaVuSans-30" d="M 2034 4250 
Q 1547 4250 1301 3770 
Q 1056 3291 1056 2328 
Q 1056 1369 1301 889 
Q 1547 409 2034 409 
Q 2525 409 2770 889 
Q 3016 1369 3016 2328 
Q 3016 3291 2770 3770 
Q 2525 4250 2034 4250 
z
M 2034 4750 
Q 2819 4750 3233 4129 
Q 3647 3509 3647 2328 
Q 3647 1150 3233 529 
Q 2819 -91 2034 -91 
Q 1250 -91 836 529 
Q 422 1150 422 2328 
Q 422 3509 836 4129 
Q 1250 4750 2034 4750 
z
" transform="scale(0.015625)"/>
       </defs>
       <use xlink:href="#DejaVuSans-30"/>
      </g>
     </g>
    </g>
    <g id="xtick_2">
     <g id="line2d_3">
      <path d="M 139.419504 307.584 
L 139.419504 41.472 
" clip-path="url(#p9f9006a66b)" style="fill: none; stroke: #b0b0b0; stroke-width: 0.8; stroke-linecap: square"/>
     </g>
     <g id="line2d_4">
      <g>
       <use xlink:href="#m57e7ebbc2a" x="139.419504" y="307.584" style="stroke: #000000; stroke-width: 0.8"/>
      </g>
     </g>
     <g id="text_2">
      <!-- 20 -->
      <g transform="translate(133.057004 322.182437) scale(0.1 -0.1)">
       <defs>
        <path id="DejaVuSans-32" d="M 1228 531 
L 3431 531 
L 3431 0 
L 469 0 
L 469 531 
Q 828 903 1448 1529 
Q 2069 2156 2228 2338 
Q 2531 2678 2651 2914 
Q 2772 3150 2772 3378 
Q 2772 3750 2511 3984 
Q 2250 4219 1831 4219 
Q 1534 4219 1204 4116 
Q 875 4013 500 3803 
L 500 4441 
Q 881 4594 1212 4672 
Q 1544 4750 1819 4750 
Q 2544 4750 2975 4387 
Q 3406 4025 3406 3419 
Q 3406 3131 3298 2873 
Q 3191 2616 2906 2266 
Q 2828 2175 2409 1742 
Q 1991 1309 1228 531 
z
" transform="scale(0.015625)"/>
       </defs>
       <use xlink:href="#DejaVuSans-32"/>
       <use xlink:href="#DejaVuSans-30" x="63.623047"/>
      </g>
     </g>
    </g>
    <g id="xtick_3">
     <g id="line2d_5">
      <path d="M 205.006281 307.584 
L 205.006281 41.472 
" clip-path="url(#p9f9006a66b)" style="fill: none; stroke: #b0b0b0; stroke-width: 0.8; stroke-linecap: square"/>
     </g>
     <g id="line2d_6">
      <g>
       <use xlink:href="#m57e7ebbc2a" x="205.006281" y="307.584" style="stroke: #000000; stroke-width: 0.8"/>
      </g>
     </g>
     <g id="text_3">
      <!-- 40 -->
      <g transform="translate(198.643781 322.182437) scale(0.1 -0.1)">
       <defs>
        <path id="DejaVuSans-34" d="M 2419 4116 
L 825 1625 
L 2419 1625 
L 2419 4116 
z
M 2253 4666 
L 3047 4666 
L 3047 1625 
L 3713 1625 
L 3713 1100 
L 3047 1100 
L 3047 0 
L 2419 0 
L 2419 1100 
L 313 1100 
L 313 1709 
L 2253 4666 
z
" transform="scale(0.015625)"/>
       </defs>
       <use xlink:href="#DejaVuSans-34"/>
       <use xlink:href="#DejaVuSans-30" x="63.623047"/>
      </g>
     </g>
    </g>
    <g id="xtick_4">
     <g id="line2d_7">
      <path d="M 270.593058 307.584 
L 270.593058 41.472 
" clip-path="url(#p9f9006a66b)" style="fill: none; stroke: #b0b0b0; stroke-width: 0.8; stroke-linecap: square"/>
     </g>
     <g id="line2d_8">
      <g>
       <use xlink:href="#m57e7ebbc2a" x="270.593058" y="307.584" style="stroke: #000000; stroke-width: 0.8"/>
      </g>
     </g>
     <g id="text_4">
      <!-- 60 -->
      <g transform="translate(264.230558 322.182437) scale(0.1 -0.1)">
       <defs>
        <path id="DejaVuSans-36" d="M 2113 2584 
Q 1688 2584 1439 2293 
Q 1191 2003 1191 1497 
Q 1191 994 1439 701 
Q 1688 409 2113 409 
Q 2538 409 2786 701 
Q 3034 994 3034 1497 
Q 3034 2003 2786 2293 
Q 2538 2584 2113 2584 
z
M 3366 4563 
L 3366 3988 
Q 3128 4100 2886 4159 
Q 2644 4219 2406 4219 
Q 1781 4219 1451 3797 
Q 1122 3375 1075 2522 
Q 1259 2794 1537 2939 
Q 1816 3084 2150 3084 
Q 2853 3084 3261 2657 
Q 3669 2231 3669 1497 
Q 3669 778 3244 343 
Q 2819 -91 2113 -91 
Q 1303 -91 875 529 
Q 447 1150 447 2328 
Q 447 3434 972 4092 
Q 1497 4750 2381 4750 
Q 2619 4750 2861 4703 
Q 3103 4656 3366 4563 
z
" transform="scale(0.015625)"/>
       </defs>
       <use xlink:href="#DejaVuSans-36"/>
       <use xlink:href="#DejaVuSans-30" x="63.623047"/>
      </g>
     </g>
    </g>
    <g id="xtick_5">
     <g id="line2d_9">
      <path d="M 336.179835 307.584 
L 336.179835 41.472 
" clip-path="url(#p9f9006a66b)" style="fill: none; stroke: #b0b0b0; stroke-width: 0.8; stroke-linecap: square"/>
     </g>
     <g id="line2d_10">
      <g>
       <use xlink:href="#m57e7ebbc2a" x="336.179835" y="307.584" style="stroke: #000000; stroke-width: 0.8"/>
      </g>
     </g>
     <g id="text_5">
      <!-- 80 -->
      <g transform="translate(329.817335 322.182437) scale(0.1 -0.1)">
       <defs>
        <path id="DejaVuSans-38" d="M 2034 2216 
Q 1584 2216 1326 1975 
Q 1069 1734 1069 1313 
Q 1069 891 1326 650 
Q 1584 409 2034 409 
Q 2484 409 2743 651 
Q 3003 894 3003 1313 
Q 3003 1734 2745 1975 
Q 2488 2216 2034 2216 
z
M 1403 2484 
Q 997 2584 770 2862 
Q 544 3141 544 3541 
Q 544 4100 942 4425 
Q 1341 4750 2034 4750 
Q 2731 4750 3128 4425 
Q 3525 4100 3525 3541 
Q 3525 3141 3298 2862 
Q 3072 2584 2669 2484 
Q 3125 2378 3379 2068 
Q 3634 1759 3634 1313 
Q 3634 634 3220 271 
Q 2806 -91 2034 -91 
Q 1263 -91 848 271 
Q 434 634 434 1313 
Q 434 1759 690 2068 
Q 947 2378 1403 2484 
z
M 1172 3481 
Q 1172 3119 1398 2916 
Q 1625 2713 2034 2713 
Q 2441 2713 2670 2916 
Q 2900 3119 2900 3481 
Q 2900 3844 2670 4047 
Q 2441 4250 2034 4250 
Q 1625 4250 1398 4047 
Q 1172 3844 1172 3481 
z
" transform="scale(0.015625)"/>
       </defs>
       <use xlink:href="#DejaVuSans-38"/>
       <use xlink:href="#DejaVuSans-30" x="63.623047"/>
      </g>
     </g>
    </g>
    <g id="xtick_6">
     <g id="line2d_11">
      <path d="M 401.766612 307.584 
L 401.766612 41.472 
" clip-path="url(#p9f9006a66b)" style="fill: none; stroke: #b0b0b0; stroke-width: 0.8; stroke-linecap: square"/>
     </g>
     <g id="line2d_12">
      <g>
       <use xlink:href="#m57e7ebbc2a" x="401.766612" y="307.584" style="stroke: #000000; stroke-width: 0.8"/>
      </g>
     </g>
     <g id="text_6">
      <!-- 100 -->
      <g transform="translate(392.222862 322.182437) scale(0.1 -0.1)">
       <defs>
        <path id="DejaVuSans-31" d="M 794 531 
L 1825 531 
L 1825 4091 
L 703 3866 
L 703 4441 
L 1819 4666 
L 2450 4666 
L 2450 531 
L 3481 531 
L 3481 0 
L 794 0 
L 794 531 
z
" transform="scale(0.015625)"/>
       </defs>
       <use xlink:href="#DejaVuSans-31"/>
       <use xlink:href="#DejaVuSans-30" x="63.623047"/>
       <use xlink:href="#DejaVuSans-30" x="127.246094"/>
      </g>
     </g>
    </g>
    <g id="text_7">
     <!-- T -->
     <g transform="translate(233.106094 335.860562) scale(0.1 -0.1)">
      <defs>
       <path id="DejaVuSans-54" d="M -19 4666 
L 3928 4666 
L 3928 4134 
L 2272 4134 
L 2272 0 
L 1638 0 
L 1638 4134 
L -19 4134 
L -19 4666 
z
" transform="scale(0.015625)"/>
      </defs>
      <use xlink:href="#DejaVuSans-54"/>
     </g>
    </g>
   </g>
   <g id="matplotlib.axis_2">
    <g id="ytick_1">
     <g id="line2d_13">
      <path d="M 57.6 302.855479 
L 414.72 302.855479 
" clip-path="url(#p9f9006a66b)" style="fill: none; stroke: #b0b0b0; stroke-width: 0.8; stroke-linecap: square"/>
     </g>
     <g id="line2d_14">
      <defs>
       <path id="mf99b15f63e" d="M 0 0 
L -3.5 0 
" style="stroke: #000000; stroke-width: 0.8"/>
      </defs>
      <g>
       <use xlink:href="#mf99b15f63e" x="57.6" y="302.855479" style="stroke: #000000; stroke-width: 0.8"/>
      </g>
     </g>
     <g id="text_8">
      <!-- −2 -->
      <g transform="translate(35.857813 306.654698) scale(0.1 -0.1)">
       <defs>
        <path id="DejaVuSans-2212" d="M 678 2272 
L 4684 2272 
L 4684 1741 
L 678 1741 
L 678 2272 
z
" transform="scale(0.015625)"/>
       </defs>
       <use xlink:href="#DejaVuSans-2212"/>
       <use xlink:href="#DejaVuSans-32" x="83.789062"/>
      </g>
     </g>
    </g>
    <g id="ytick_2">
     <g id="line2d_15">
      <path d="M 57.6 257.530483 
L 414.72 257.530483 
" clip-path="url(#p9f9006a66b)" style="fill: none; stroke: #b0b0b0; stroke-width: 0.8; stroke-linecap: square"/>
     </g>
     <g id="line2d_16">
      <g>
       <use xlink:href="#mf99b15f63e" x="57.6" y="257.530483" style="stroke: #000000; stroke-width: 0.8"/>
      </g>
     </g>
     <g id="text_9">
      <!-- 0 -->
      <g transform="translate(44.2375 261.329701) scale(0.1 -0.1)">
       <use xlink:href="#DejaVuSans-30"/>
      </g>
     </g>
    </g>
    <g id="ytick_3">
     <g id="line2d_17">
      <path d="M 57.6 212.205487 
L 414.72 212.205487 
" clip-path="url(#p9f9006a66b)" style="fill: none; stroke: #b0b0b0; stroke-width: 0.8; stroke-linecap: square"/>
     </g>
     <g id="line2d_18">
      <g>
       <use xlink:href="#mf99b15f63e" x="57.6" y="212.205487" style="stroke: #000000; stroke-width: 0.8"/>
      </g>
     </g>
     <g id="text_10">
      <!-- 2 -->
      <g transform="translate(44.2375 216.004705) scale(0.1 -0.1)">
       <use xlink:href="#DejaVuSans-32"/>
      </g>
     </g>
    </g>
    <g id="ytick_4">
     <g id="line2d_19">
      <path d="M 57.6 166.88049 
L 414.72 166.88049 
" clip-path="url(#p9f9006a66b)" style="fill: none; stroke: #b0b0b0; stroke-width: 0.8; stroke-linecap: square"/>
     </g>
     <g id="line2d_20">
      <g>
       <use xlink:href="#mf99b15f63e" x="57.6" y="166.88049" style="stroke: #000000; stroke-width: 0.8"/>
      </g>
     </g>
     <g id="text_11">
      <!-- 4 -->
      <g transform="translate(44.2375 170.679709) scale(0.1 -0.1)">
       <use xlink:href="#DejaVuSans-34"/>
      </g>
     </g>
    </g>
    <g id="ytick_5">
     <g id="line2d_21">
      <path d="M 57.6 121.555494 
L 414.72 121.555494 
" clip-path="url(#p9f9006a66b)" style="fill: none; stroke: #b0b0b0; stroke-width: 0.8; stroke-linecap: square"/>
     </g>
     <g id="line2d_22">
      <g>
       <use xlink:href="#mf99b15f63e" x="57.6" y="121.555494" style="stroke: #000000; stroke-width: 0.8"/>
      </g>
     </g>
     <g id="text_12">
      <!-- 6 -->
      <g transform="translate(44.2375 125.354713) scale(0.1 -0.1)">
       <use xlink:href="#DejaVuSans-36"/>
      </g>
     </g>
    </g>
    <g id="ytick_6">
     <g id="line2d_23">
      <path d="M 57.6 76.230498 
L 414.72 76.230498 
" clip-path="url(#p9f9006a66b)" style="fill: none; stroke: #b0b0b0; stroke-width: 0.8; stroke-linecap: square"/>
     </g>
     <g id="line2d_24">
      <g>
       <use xlink:href="#mf99b15f63e" x="57.6" y="76.230498" style="stroke: #000000; stroke-width: 0.8"/>
      </g>
     </g>
     <g id="text_13">
      <!-- 8 -->
      <g transform="translate(44.2375 80.029717) scale(0.1 -0.1)">
       <use xlink:href="#DejaVuSans-38"/>
      </g>
     </g>
    </g>
    <g id="text_14">
     <!-- X -->
     <g transform="translate(29.778125 177.953) rotate(-90) scale(0.1 -0.1)">
      <defs>
       <path id="DejaVuSans-58" d="M 403 4666 
L 1081 4666 
L 2241 2931 
L 3406 4666 
L 4084 4666 
L 2584 2425 
L 4184 0 
L 3506 0 
L 2194 1984 
L 872 0 
L 191 0 
L 1856 2491 
L 403 4666 
z
" transform="scale(0.015625)"/>
      </defs>
      <use xlink:href="#DejaVuSans-58"/>
     </g>
    </g>
   </g>
   <g id="line2d_25">
    <path d="M 73.832727 98.892996 
L 77.112066 108.406727 
L 80.391405 118.794551 
L 83.670744 145.136253 
L 86.950083 165.935985 
L 90.229421 196.602459 
L 93.50876 214.257072 
L 96.788099 218.938313 
L 100.067438 225.889223 
L 103.346777 232.091424 
L 106.626116 236.018154 
L 109.905455 231.167265 
L 113.184793 227.335495 
L 116.464132 224.192101 
L 119.743471 216.918795 
L 123.02281 222.093789 
L 126.302149 214.812378 
L 129.581488 207.618844 
L 132.860826 201.215952 
L 136.140165 201.313689 
L 139.419504 200.577268 
L 142.698843 207.157302 
L 145.978182 221.23131 
L 149.257521 220.49056 
L 152.53686 216.29463 
L 155.816198 224.178776 
L 159.095537 234.494227 
L 162.374876 233.272158 
L 165.654215 224.794309 
L 168.933554 216.736394 
L 172.212893 215.737214 
L 175.492231 224.255604 
L 178.77157 222.861173 
L 182.050909 236.272778 
L 185.330248 233.898306 
L 188.609587 240.281419 
L 191.888926 248.576826 
L 195.168264 257.299509 
L 198.447603 247.473428 
L 201.726942 256.473947 
L 205.006281 246.126694 
L 208.28562 235.554849 
L 211.564959 226.901294 
L 214.844298 217.246244 
L 218.123636 227.4122 
L 221.402975 225.654597 
L 224.682314 225.11446 
L 227.961653 228.850685 
L 231.240992 239.679931 
L 234.520331 237.188168 
L 237.799669 243.691667 
L 241.079008 238.319876 
L 244.358347 249.90123 
L 247.637686 251.529146 
L 250.917025 245.576752 
L 254.196364 244.647743 
L 257.475702 235.007887 
L 260.755041 241.150915 
L 264.03438 243.965553 
L 267.313719 249.224044 
L 270.593058 241.355055 
L 273.872397 236.116015 
L 277.151736 232.278345 
L 280.431074 240.714351 
L 283.710413 232.977697 
L 286.989752 230.707899 
L 290.269091 244.275922 
L 293.54843 249.495929 
L 296.827769 258.950313 
L 300.107107 247.921286 
L 303.386446 243.716141 
L 306.665785 239.154006 
L 309.945124 234.831251 
L 313.224463 243.792043 
L 316.503802 237.094563 
L 319.78314 235.200886 
L 323.062479 232.102608 
L 326.341818 222.425966 
L 329.621157 217.95147 
L 332.900496 222.378799 
L 336.179835 220.491712 
L 339.459174 225.056253 
L 342.738512 224.386238 
L 346.017851 235.490655 
L 349.29719 240.65786 
L 352.576529 243.246548 
L 355.855868 250.856779 
L 359.135207 260.488881 
L 362.414545 261.29216 
L 365.693884 255.081702 
L 368.973223 251.41 
L 372.252562 242.677139 
L 375.531901 234.817214 
L 378.81124 234.163931 
L 382.090579 225.739528 
L 385.369917 229.534318 
L 388.649256 228.096715 
L 391.928595 228.609485 
L 395.207934 223.69891 
L 398.487273 234.525533 
" clip-path="url(#p9f9006a66b)" style="fill: none; stroke: #000000; stroke-width: 1.5; stroke-linecap: square"/>
   </g>
   <g id="line2d_26">
    <path d="M 73.832727 98.892996 
L 77.112066 108.406727 
L 80.391405 117.325571 
L 83.670744 139.319425 
L 86.950083 160.406083 
L 90.229421 191.642328 
L 93.50876 209.897642 
L 96.788099 213.690885 
L 100.067438 217.589135 
L 103.346777 219.995743 
L 106.626116 218.589292 
L 109.905455 214.882342 
L 113.184793 214.916339 
L 116.464132 217.082118 
L 119.743471 213.649175 
L 123.02281 221.39841 
L 126.302149 216.0586 
L 129.581488 211.010717 
L 132.860826 205.463322 
L 136.140165 206.03784 
L 139.419504 205.876834 
L 142.698843 212.447486 
L 145.978182 226.317601 
L 149.257521 225.299365 
L 152.53686 220.459765 
L 155.816198 227.496501 
L 159.095537 236.766192 
L 162.374876 234.236881 
L 165.654215 224.781132 
L 168.933554 216.007324 
L 172.212893 214.303648 
L 175.492231 222.39832 
L 178.77157 221.339903 
L 182.050909 234.908278 
L 185.330248 232.522934 
L 188.609587 238.949002 
L 191.888926 247.351204 
L 195.168264 256.122578 
L 198.447603 246.349363 
L 201.726942 255.333712 
L 205.006281 244.860688 
L 208.28562 233.832382 
L 211.564959 224.381001 
L 214.844298 213.886999 
L 218.123636 223.338374 
L 221.402975 221.31184 
L 224.682314 221.408043 
L 227.961653 225.640152 
L 231.240992 237.207527 
L 234.520331 235.122888 
L 237.799669 241.993974 
L 241.079008 236.818212 
L 244.358347 248.421172 
L 247.637686 249.949124 
L 250.917025 243.494012 
L 254.196364 241.870857 
L 257.475702 231.516416 
L 260.755041 237.546284 
L 264.03438 240.438102 
L 267.313719 246.084964 
L 270.593058 237.706557 
L 273.872397 231.941686 
L 277.151736 227.530137 
L 280.431074 235.403504 
L 283.710413 227.758727 
L 286.989752 225.21873 
L 290.269091 239.193739 
L 293.54843 244.875712 
L 296.827769 254.665346 
L 300.107107 243.526841 
L 303.386446 238.662909 
L 306.665785 233.424761 
L 309.945124 228.272049 
L 313.224463 236.520888 
L 316.503802 228.766428 
L 319.78314 225.743338 
L 323.062479 221.637938 
L 326.341818 210.912068 
L 329.621157 205.752174 
L 332.900496 209.766367 
L 336.179835 208.983195 
L 339.459174 215.419719 
L 342.738512 215.215779 
L 346.017851 226.729633 
L 349.29719 232.266494 
L 352.576529 234.838684 
L 355.855868 242.385137 
L 359.135207 251.900559 
L 362.414545 252.363412 
L 365.693884 245.644506 
L 368.973223 241.556186 
L 372.252562 232.849865 
L 375.531901 225.194532 
L 378.81124 224.91799 
L 382.090579 218.022253 
L 385.369917 222.898304 
L 388.649256 222.110046 
L 391.928595 223.393578 
L 395.207934 219.179627 
L 398.487273 230.998792 
" clip-path="url(#p9f9006a66b)" style="fill: none; stroke: #ff0000; stroke-width: 1.5; stroke-linecap: square"/>
   </g>
   <g id="line2d_27">
    <path d="M 73.832727 53.568 
L 77.112066 90.339623 
L 80.391405 124.327667 
L 83.670744 149.392325 
L 86.950083 149.641852 
L 90.229421 141.170506 
L 93.50876 157.095604 
L 96.788099 171.031035 
L 100.067438 180.873295 
L 103.346777 179.190926 
L 106.626116 194.698189 
L 109.905455 199.147527 
L 113.184793 212.008193 
L 116.464132 226.173726 
L 119.743471 232.905061 
L 123.02281 236.120713 
L 126.302149 231.969459 
L 129.581488 241.309487 
L 132.860826 243.32642 
L 136.140165 238.910391 
L 139.419504 246.68781 
L 142.698843 249.355926 
L 145.978182 250.81126 
L 149.257521 260.580408 
L 152.53686 266.211674 
L 155.816198 272.821394 
L 159.095537 274.151525 
L 162.374876 267.310891 
L 165.654215 264.035545 
L 168.933554 265.472641 
L 172.212893 264.654145 
L 175.492231 252.792147 
L 178.77157 256.110736 
L 182.050909 263.072291 
L 185.330248 265.970638 
L 188.609587 261.089412 
L 191.888926 270.757035 
L 195.168264 280.609356 
L 198.447603 286.505226 
L 201.726942 293.079944 
L 205.006281 285.762712 
L 208.28562 277.872679 
L 211.564959 284.639606 
L 214.844298 268.874639 
L 218.123636 262.048731 
L 221.402975 251.616532 
L 224.682314 253.057389 
L 227.961653 245.735301 
L 231.240992 251.116585 
L 234.520331 244.980514 
L 237.799669 236.299485 
L 241.079008 242.402389 
L 244.358347 252.698319 
L 247.637686 246.432692 
L 250.917025 241.833068 
L 254.196364 246.06457 
L 257.475702 258.216403 
L 260.755041 261.306228 
L 264.03438 264.503687 
L 267.313719 254.375773 
L 270.593058 253.165574 
L 273.872397 251.987196 
L 277.151736 251.346343 
L 280.431074 258.93126 
L 283.710413 255.125388 
L 286.989752 262.037054 
L 290.269091 262.94522 
L 293.54843 261.72463 
L 296.827769 256.086186 
L 300.107107 246.616989 
L 303.386446 245.246563 
L 306.665785 237.222114 
L 309.945124 232.948406 
L 313.224463 241.524897 
L 316.503802 244.441951 
L 319.78314 247.686469 
L 323.062479 241.022156 
L 326.341818 250.590293 
L 329.621157 251.807462 
L 332.900496 264.126746 
L 336.179835 271.838766 
L 339.459174 258.552714 
L 342.738512 256.33236 
L 346.017851 253.985892 
L 349.29719 245.292695 
L 352.576529 243.727355 
L 355.855868 246.152017 
L 359.135207 243.446354 
L 362.414545 237.595427 
L 365.693884 248.420993 
L 368.973223 256.762546 
L 372.252562 259.208791 
L 375.531901 260.372717 
L 378.81124 270.655464 
L 382.090579 267.582174 
L 385.369917 263.167938 
L 388.649256 265.101788 
L 391.928595 265.007686 
L 395.207934 274.055497 
L 398.487273 262.25103 
" clip-path="url(#p9f9006a66b)" style="fill: none; stroke-dasharray: 5.55,2.4; stroke-dashoffset: 0; stroke: #000000; stroke-width: 1.5"/>
   </g>
   <g id="line2d_28">
    <path d="M 73.832727 53.568 
L 77.112066 85.990659 
L 80.391405 116.556886 
L 83.670744 141.922693 
L 86.950083 145.370659 
L 90.229421 141.932249 
L 93.50876 162.551903 
L 96.788099 180.867607 
L 100.067438 196.421843 
L 103.346777 204.580952 
L 106.626116 230.965259 
L 109.905455 245.795802 
L 113.184793 255.310336 
L 116.464132 263.097946 
L 119.743471 263.133197 
L 123.02281 260.614248 
L 126.302149 251.989699 
L 129.581488 257.395992 
L 132.860826 255.022717 
L 136.140165 248.235157 
L 139.419504 254.318755 
L 142.698843 255.421673 
L 145.978182 255.83039 
L 149.257521 265.077653 
L 152.53686 271.393441 
L 155.816198 278.648521 
L 159.095537 282.422583 
L 162.374876 276.028962 
L 165.654215 272.966691 
L 168.933554 274.165333 
L 172.212893 271.843961 
L 175.492231 258.612877 
L 178.77157 261.000341 
L 182.050909 265.988797 
L 185.330248 267.368459 
L 188.609587 262.115847 
L 191.888926 271.502646 
L 195.168264 281.080928 
L 198.447603 287.463519 
L 201.726942 295.488 
L 205.006281 290.217079 
L 208.28562 284.958969 
L 211.564959 293.286559 
L 214.844298 278.297745 
L 218.123636 271.874766 
L 221.402975 260.406178 
L 224.682314 260.30849 
L 227.961653 250.602378 
L 231.240992 254.216886 
L 234.520331 246.564816 
L 237.799669 236.490341 
L 241.079008 241.34881 
L 244.358347 248.953993 
L 247.637686 240.61806 
L 250.917025 235.031243 
L 254.196364 237.819554 
L 257.475702 248.22982 
L 260.755041 250.123452 
L 264.03438 253.577706 
L 267.313719 243.815782 
L 270.593058 242.786711 
L 273.872397 241.444513 
L 277.151736 240.770047 
L 280.431074 248.509476 
L 283.710413 244.325854 
L 286.989752 252.01827 
L 290.269091 253.279763 
L 293.54843 252.452644 
L 296.827769 247.068809 
L 300.107107 237.437986 
L 303.386446 235.826481 
L 306.665785 226.79752 
L 309.945124 221.582071 
L 313.224463 228.2521 
L 316.503802 229.503929 
L 319.78314 231.971065 
L 323.062479 225.156377 
L 326.341818 234.466066 
L 329.621157 236.49583 
L 332.900496 250.49811 
L 336.179835 259.300882 
L 339.459174 247.833839 
L 342.738512 247.455689 
L 346.017851 246.698876 
L 349.29719 238.247989 
L 352.576529 236.631999 
L 355.855868 238.094955 
L 359.135207 234.27129 
L 362.414545 227.224479 
L 365.693884 236.713424 
L 368.973223 243.196291 
L 372.252562 244.950105 
L 375.531901 246.738981 
L 378.81124 258.246607 
L 382.090579 255.959205 
L 385.369917 253.808799 
L 388.649256 257.298939 
L 391.928595 258.510351 
L 395.207934 268.647782 
L 398.487273 257.600605 
" clip-path="url(#p9f9006a66b)" style="fill: none; stroke-dasharray: 5.55,2.4; stroke-dashoffset: 0; stroke: #ff0000; stroke-width: 1.5"/>
   </g>
   <g id="patch_3">
    <path d="M 57.6 307.584 
L 57.6 41.472 
" style="fill: none; stroke: #000000; stroke-width: 0.8; stroke-linejoin: miter; stroke-linecap: square"/>
   </g>
   <g id="patch_4">
    <path d="M 414.72 307.584 
L 414.72 41.472 
" style="fill: none; stroke: #000000; stroke-width: 0.8; stroke-linejoin: miter; stroke-linecap: square"/>
   </g>
   <g id="patch_5">
    <path d="M 57.6 307.584 
L 414.72 307.584 
" style="fill: none; stroke: #000000; stroke-width: 0.8; stroke-linejoin: miter; stroke-linecap: square"/>
   </g>
   <g id="patch_6">
    <path d="M 57.6 41.472 
L 414.72 41.472 
" style="fill: none; stroke: #000000; stroke-width: 0.8; stroke-linejoin: miter; stroke-linecap: square"/>
   </g>
   <g id="legend_1">
    <g id="patch_7">
     <path d="M 392.72 67.472 
L 400.72 67.472 
Q 404.72 67.472 404.72 63.472 
L 404.72 55.472 
Q 404.72 51.472 400.72 51.472 
L 392.72 51.472 
Q 388.72 51.472 388.72 55.472 
L 388.72 63.472 
Q 388.72 67.472 392.72 67.472 
z
" style="fill: #ffffff; opacity: 0.8; stroke: #cccccc; stroke-linejoin: miter"/>
    </g>
   </g>
  </g>
 </g>
 <defs>
  <clipPath id="p9f9006a66b">
   <rect x="57.6" y="41.472" width="357.12" height="266.112"/>
  </clipPath>
 </defs>
</svg>
