<?xml version="1.0" encoding="utf-8" standalone="no"?>
<!DOCTYPE svg PUBLIC "-//W3C//DTD SVG 1.1//EN"
  "http://www.w3.org/Graphics/SVG/1.1/DTD/svg11.dtd">
<svg xmlns:xlink="http://www.w3.org/1999/xlink" width="460.8pt" height="345.6pt" viewBox="0 0 460.8 345.6" xmlns="http://www.w3.org/2000/svg" version="1.1">
 <metadata>
  <rdf:RDF xmlns:dc="http://purl.org/dc/elements/1.1/" xmlns:cc="http://creativecommons.org/ns#" xmlns:rdf="http://www.w3.org/1999/02/22-rdf-syntax-ns#">
   <cc:Work>
    <dc:type rdf:resource="http://purl.org/dc/dcmitype/StillImage"/>
    <dc:date>2024-05-25T06:48:56.792265</dc:date>
    <dc:format>image/svg+xml</dc:format>
    <dc:creator>
     <cc:Agent>
      <dc:title>Matplotlib v3.7.1, https://matplotlib.org/</dc:title>
     </cc:Agent>
    </dc:creator>
   </cc:Work>
  </rdf:RDF>
 </metadata>
 <defs>
  <style type="text/css">*{stroke-linejoin: round; stroke-linecap: butt}</style>
 </defs>
 <g id="figure_1">
  <g id="patch_1">
   <path d="M 0 345.6 
L 460.8 345.6 
L 460.8 0 
L 0 0 
z
" style="fill: #ffffff"/>
  </g>
  <g id="axes_1">
   <g id="patch_2">
    <path d="M 57.6 307.584 
L 414.72 307.584 
L 414.72 41.472 
L 57.6 41.472 
z
" style="fill: #ffffff"/>
   </g>
   <g id="matplotlib.axis_1">
    <g id="xtick_1">
     <g id="line2d_1">
      <path d="M 73.832727 307.584 
L 73.832727 41.472 
" clip-path="url(#p6dce36d40b)" style="fill: none; stroke: #b0b0b0; stroke-width: 0.8; stroke-linecap: square"/>
     </g>
     <g id="line2d_2">
      <defs>
       <path id="m570aba5353" d="M 0 0 
L 0 3.5 
" style="stroke: #000000; stroke-width: 0.8"/>
      </defs>
      <g>
       <use xlink:href="#m570aba5353" x="73.832727" y="307.584" style="stroke: #000000; stroke-width: 0.8"/>
      </g>
     </g>
     <g id="text_1">
      <!-- 0 -->
      <g transform="translate(70.651477 322.182437) scale(0.1 -0.1)">
       <defs>
        <path id="DejaVuSans-30" d="M 2034 4250 
Q 1547 4250 1301 3770 
Q 1056 3291 1056 2328 
Q 1056 1369 1301 889 
Q 1547 409 2034 409 
Q 2525 409 2770 889 
Q 3016 1369 3016 2328 
Q 3016 3291 2770 3770 
Q 2525 4250 2034 4250 
z
M 2034 4750 
Q 2819 4750 3233 4129 
Q 3647 3509 3647 2328 
Q 3647 1150 3233 529 
Q 2819 -91 2034 -91 
Q 1250 -91 836 529 
Q 422 1150 422 2328 
Q 422 3509 836 4129 
Q 1250 4750 2034 4750 
z
" transform="scale(0.015625)"/>
       </defs>
       <use xlink:href="#DejaVuSans-30"/>
      </g>
     </g>
    </g>
    <g id="xtick_2">
     <g id="line2d_3">
      <path d="M 139.419504 307.584 
L 139.419504 41.472 
" clip-path="url(#p6dce36d40b)" style="fill: none; stroke: #b0b0b0; stroke-width: 0.8; stroke-linecap: square"/>
     </g>
     <g id="line2d_4">
      <g>
       <use xlink:href="#m570aba5353" x="139.419504" y="307.584" style="stroke: #000000; stroke-width: 0.8"/>
      </g>
     </g>
     <g id="text_2">
      <!-- 20 -->
      <g transform="translate(133.057004 322.182437) scale(0.1 -0.1)">
       <defs>
        <path id="DejaVuSans-32" d="M 1228 531 
L 3431 531 
L 3431 0 
L 469 0 
L 469 531 
Q 828 903 1448 1529 
Q 2069 2156 2228 2338 
Q 2531 2678 2651 2914 
Q 2772 3150 2772 3378 
Q 2772 3750 2511 3984 
Q 2250 4219 1831 4219 
Q 1534 4219 1204 4116 
Q 875 4013 500 3803 
L 500 4441 
Q 881 4594 1212 4672 
Q 1544 4750 1819 4750 
Q 2544 4750 2975 4387 
Q 3406 4025 3406 3419 
Q 3406 3131 3298 2873 
Q 3191 2616 2906 2266 
Q 2828 2175 2409 1742 
Q 1991 1309 1228 531 
z
" transform="scale(0.015625)"/>
       </defs>
       <use xlink:href="#DejaVuSans-32"/>
       <use xlink:href="#DejaVuSans-30" x="63.623047"/>
      </g>
     </g>
    </g>
    <g id="xtick_3">
     <g id="line2d_5">
      <path d="M 205.006281 307.584 
L 205.006281 41.472 
" clip-path="url(#p6dce36d40b)" style="fill: none; stroke: #b0b0b0; stroke-width: 0.8; stroke-linecap: square"/>
     </g>
     <g id="line2d_6">
      <g>
       <use xlink:href="#m570aba5353" x="205.006281" y="307.584" style="stroke: #000000; stroke-width: 0.8"/>
      </g>
     </g>
     <g id="text_3">
      <!-- 40 -->
      <g transform="translate(198.643781 322.182437) scale(0.1 -0.1)">
       <defs>
        <path id="DejaVuSans-34" d="M 2419 4116 
L 825 1625 
L 2419 1625 
L 2419 4116 
z
M 2253 4666 
L 3047 4666 
L 3047 1625 
L 3713 1625 
L 3713 1100 
L 3047 1100 
L 3047 0 
L 2419 0 
L 2419 1100 
L 313 1100 
L 313 1709 
L 2253 4666 
z
" transform="scale(0.015625)"/>
       </defs>
       <use xlink:href="#DejaVuSans-34"/>
       <use xlink:href="#DejaVuSans-30" x="63.623047"/>
      </g>
     </g>
    </g>
    <g id="xtick_4">
     <g id="line2d_7">
      <path d="M 270.593058 307.584 
L 270.593058 41.472 
" clip-path="url(#p6dce36d40b)" style="fill: none; stroke: #b0b0b0; stroke-width: 0.8; stroke-linecap: square"/>
     </g>
     <g id="line2d_8">
      <g>
       <use xlink:href="#m570aba5353" x="270.593058" y="307.584" style="stroke: #000000; stroke-width: 0.8"/>
      </g>
     </g>
     <g id="text_4">
      <!-- 60 -->
      <g transform="translate(264.230558 322.182437) scale(0.1 -0.1)">
       <defs>
        <path id="DejaVuSans-36" d="M 2113 2584 
Q 1688 2584 1439 2293 
Q 1191 2003 1191 1497 
Q 1191 994 1439 701 
Q 1688 409 2113 409 
Q 2538 409 2786 701 
Q 3034 994 3034 1497 
Q 3034 2003 2786 2293 
Q 2538 2584 2113 2584 
z
M 3366 4563 
L 3366 3988 
Q 3128 4100 2886 4159 
Q 2644 4219 2406 4219 
Q 1781 4219 1451 3797 
Q 1122 3375 1075 2522 
Q 1259 2794 1537 2939 
Q 1816 3084 2150 3084 
Q 2853 3084 3261 2657 
Q 3669 2231 3669 1497 
Q 3669 778 3244 343 
Q 2819 -91 2113 -91 
Q 1303 -91 875 529 
Q 447 1150 447 2328 
Q 447 3434 972 4092 
Q 1497 4750 2381 4750 
Q 2619 4750 2861 4703 
Q 3103 4656 3366 4563 
z
" transform="scale(0.015625)"/>
       </defs>
       <use xlink:href="#DejaVuSans-36"/>
       <use xlink:href="#DejaVuSans-30" x="63.623047"/>
      </g>
     </g>
    </g>
    <g id="xtick_5">
     <g id="line2d_9">
      <path d="M 336.179835 307.584 
L 336.179835 41.472 
" clip-path="url(#p6dce36d40b)" style="fill: none; stroke: #b0b0b0; stroke-width: 0.8; stroke-linecap: square"/>
     </g>
     <g id="line2d_10">
      <g>
       <use xlink:href="#m570aba5353" x="336.179835" y="307.584" style="stroke: #000000; stroke-width: 0.8"/>
      </g>
     </g>
     <g id="text_5">
      <!-- 80 -->
      <g transform="translate(329.817335 322.182437) scale(0.1 -0.1)">
       <defs>
        <path id="DejaVuSans-38" d="M 2034 2216 
Q 1584 2216 1326 1975 
Q 1069 1734 1069 1313 
Q 1069 891 1326 650 
Q 1584 409 2034 409 
Q 2484 409 2743 651 
Q 3003 894 3003 1313 
Q 3003 1734 2745 1975 
Q 2488 2216 2034 2216 
z
M 1403 2484 
Q 997 2584 770 2862 
Q 544 3141 544 3541 
Q 544 4100 942 4425 
Q 1341 4750 2034 4750 
Q 2731 4750 3128 4425 
Q 3525 4100 3525 3541 
Q 3525 3141 3298 2862 
Q 3072 2584 2669 2484 
Q 3125 2378 3379 2068 
Q 3634 1759 3634 1313 
Q 3634 634 3220 271 
Q 2806 -91 2034 -91 
Q 1263 -91 848 271 
Q 434 634 434 1313 
Q 434 1759 690 2068 
Q 947 2378 1403 2484 
z
M 1172 3481 
Q 1172 3119 1398 2916 
Q 1625 2713 2034 2713 
Q 2441 2713 2670 2916 
Q 2900 3119 2900 3481 
Q 2900 3844 2670 4047 
Q 2441 4250 2034 4250 
Q 1625 4250 1398 4047 
Q 1172 3844 1172 3481 
z
" transform="scale(0.015625)"/>
       </defs>
       <use xlink:href="#DejaVuSans-38"/>
       <use xlink:href="#DejaVuSans-30" x="63.623047"/>
      </g>
     </g>
    </g>
    <g id="xtick_6">
     <g id="line2d_11">
      <path d="M 401.766612 307.584 
L 401.766612 41.472 
" clip-path="url(#p6dce36d40b)" style="fill: none; stroke: #b0b0b0; stroke-width: 0.8; stroke-linecap: square"/>
     </g>
     <g id="line2d_12">
      <g>
       <use xlink:href="#m570aba5353" x="401.766612" y="307.584" style="stroke: #000000; stroke-width: 0.8"/>
      </g>
     </g>
     <g id="text_6">
      <!-- 100 -->
      <g transform="translate(392.222862 322.182437) scale(0.1 -0.1)">
       <defs>
        <path id="DejaVuSans-31" d="M 794 531 
L 1825 531 
L 1825 4091 
L 703 3866 
L 703 4441 
L 1819 4666 
L 2450 4666 
L 2450 531 
L 3481 531 
L 3481 0 
L 794 0 
L 794 531 
z
" transform="scale(0.015625)"/>
       </defs>
       <use xlink:href="#DejaVuSans-31"/>
       <use xlink:href="#DejaVuSans-30" x="63.623047"/>
       <use xlink:href="#DejaVuSans-30" x="127.246094"/>
      </g>
     </g>
    </g>
    <g id="text_7">
     <!-- T -->
     <g transform="translate(233.106094 335.860562) scale(0.1 -0.1)">
      <defs>
       <path id="DejaVuSans-54" d="M -19 4666 
L 3928 4666 
L 3928 4134 
L 2272 4134 
L 2272 0 
L 1638 0 
L 1638 4134 
L -19 4134 
L -19 4666 
z
" transform="scale(0.015625)"/>
      </defs>
      <use xlink:href="#DejaVuSans-54"/>
     </g>
    </g>
   </g>
   <g id="matplotlib.axis_2">
    <g id="ytick_1">
     <g id="line2d_13">
      <path d="M 57.6 264.593287 
L 414.72 264.593287 
" clip-path="url(#p6dce36d40b)" style="fill: none; stroke: #b0b0b0; stroke-width: 0.8; stroke-linecap: square"/>
     </g>
     <g id="line2d_14">
      <defs>
       <path id="m8859c4e2e6" d="M 0 0 
L -3.5 0 
" style="stroke: #000000; stroke-width: 0.8"/>
      </defs>
      <g>
       <use xlink:href="#m8859c4e2e6" x="57.6" y="264.593287" style="stroke: #000000; stroke-width: 0.8"/>
      </g>
     </g>
     <g id="text_8">
      <!-- 0 -->
      <g transform="translate(44.2375 268.392506) scale(0.1 -0.1)">
       <use xlink:href="#DejaVuSans-30"/>
      </g>
     </g>
    </g>
    <g id="ytick_2">
     <g id="line2d_15">
      <path d="M 57.6 217.698779 
L 414.72 217.698779 
" clip-path="url(#p6dce36d40b)" style="fill: none; stroke: #b0b0b0; stroke-width: 0.8; stroke-linecap: square"/>
     </g>
     <g id="line2d_16">
      <g>
       <use xlink:href="#m8859c4e2e6" x="57.6" y="217.698779" style="stroke: #000000; stroke-width: 0.8"/>
      </g>
     </g>
     <g id="text_9">
      <!-- 2 -->
      <g transform="translate(44.2375 221.497998) scale(0.1 -0.1)">
       <use xlink:href="#DejaVuSans-32"/>
      </g>
     </g>
    </g>
    <g id="ytick_3">
     <g id="line2d_17">
      <path d="M 57.6 170.804271 
L 414.72 170.804271 
" clip-path="url(#p6dce36d40b)" style="fill: none; stroke: #b0b0b0; stroke-width: 0.8; stroke-linecap: square"/>
     </g>
     <g id="line2d_18">
      <g>
       <use xlink:href="#m8859c4e2e6" x="57.6" y="170.804271" style="stroke: #000000; stroke-width: 0.8"/>
      </g>
     </g>
     <g id="text_10">
      <!-- 4 -->
      <g transform="translate(44.2375 174.60349) scale(0.1 -0.1)">
       <use xlink:href="#DejaVuSans-34"/>
      </g>
     </g>
    </g>
    <g id="ytick_4">
     <g id="line2d_19">
      <path d="M 57.6 123.909762 
L 414.72 123.909762 
" clip-path="url(#p6dce36d40b)" style="fill: none; stroke: #b0b0b0; stroke-width: 0.8; stroke-linecap: square"/>
     </g>
     <g id="line2d_20">
      <g>
       <use xlink:href="#m8859c4e2e6" x="57.6" y="123.909762" style="stroke: #000000; stroke-width: 0.8"/>
      </g>
     </g>
     <g id="text_11">
      <!-- 6 -->
      <g transform="translate(44.2375 127.708981) scale(0.1 -0.1)">
       <use xlink:href="#DejaVuSans-36"/>
      </g>
     </g>
    </g>
    <g id="ytick_5">
     <g id="line2d_21">
      <path d="M 57.6 77.015254 
L 414.72 77.015254 
" clip-path="url(#p6dce36d40b)" style="fill: none; stroke: #b0b0b0; stroke-width: 0.8; stroke-linecap: square"/>
     </g>
     <g id="line2d_22">
      <g>
       <use xlink:href="#m8859c4e2e6" x="57.6" y="77.015254" style="stroke: #000000; stroke-width: 0.8"/>
      </g>
     </g>
     <g id="text_12">
      <!-- 8 -->
      <g transform="translate(44.2375 80.814473) scale(0.1 -0.1)">
       <use xlink:href="#DejaVuSans-38"/>
      </g>
     </g>
    </g>
    <g id="text_13">
     <!-- X -->
     <g transform="translate(38.157812 177.953) rotate(-90) scale(0.1 -0.1)">
      <defs>
       <path id="DejaVuSans-58" d="M 403 4666 
L 1081 4666 
L 2241 2931 
L 3406 4666 
L 4084 4666 
L 2584 2425 
L 4184 0 
L 3506 0 
L 2194 1984 
L 872 0 
L 191 0 
L 1856 2491 
L 403 4666 
z
" transform="scale(0.015625)"/>
      </defs>
      <use xlink:href="#DejaVuSans-58"/>
     </g>
    </g>
   </g>
   <g id="line2d_23">
    <path d="M 73.832727 100.462508 
L 77.112066 98.705203 
L 80.391405 95.998911 
L 83.670744 119.195521 
L 86.950083 148.282903 
L 90.229421 167.808022 
L 93.50876 195.578578 
L 96.788099 221.022923 
L 100.067438 226.189529 
L 103.346777 231.610412 
L 106.626116 235.525966 
L 109.905455 252.913966 
L 113.184793 253.418807 
L 116.464132 261.160408 
L 119.743471 255.9046 
L 123.02281 251.512297 
L 126.302149 255.901984 
L 129.581488 252.130911 
L 132.860826 243.066892 
L 136.140165 232.385105 
L 139.419504 225.545732 
L 142.698843 218.682679 
L 145.978182 225.293053 
L 149.257521 219.988971 
L 152.53686 221.620713 
L 155.816198 227.352622 
L 159.095537 220.010966 
L 162.374876 213.692823 
L 165.654215 217.083279 
L 168.933554 224.430586 
L 172.212893 219.446844 
L 175.492231 227.69635 
L 178.77157 222.798282 
L 182.050909 222.810296 
L 185.330248 228.208693 
L 188.609587 225.295606 
L 191.888926 227.525924 
L 195.168264 236.065684 
L 198.447603 249.532677 
L 201.726942 246.564092 
L 205.006281 253.553827 
L 208.28562 255.965087 
L 211.564959 263.085281 
L 214.844298 254.135551 
L 218.123636 242.737496 
L 221.402975 250.334611 
L 224.682314 245.73354 
L 227.961653 250.204161 
L 231.240992 252.97268 
L 234.520331 263.508046 
L 237.799669 257.109413 
L 241.079008 253.473074 
L 244.358347 250.22982 
L 247.637686 251.662075 
L 250.917025 259.146632 
L 254.196364 261.273307 
L 257.475702 266.671005 
L 260.755041 261.584911 
L 264.03438 265.612983 
L 267.313719 254.211133 
L 270.593058 256.892384 
L 273.872397 262.778028 
L 277.151736 267.751045 
L 280.431074 263.087797 
L 283.710413 260.223348 
L 286.989752 256.185462 
L 290.269091 262.266064 
L 293.54843 271.242976 
L 296.827769 263.748547 
L 300.107107 260.405441 
L 303.386446 256.38103 
L 306.665785 261.484065 
L 309.945124 252.455139 
L 313.224463 244.808684 
L 316.503802 253.825172 
L 319.78314 263.040512 
L 323.062479 267.776143 
L 326.341818 276.329685 
L 329.621157 270.374064 
L 332.900496 268.660256 
L 336.179835 264.494779 
L 339.459174 264.670178 
L 342.738512 275.976604 
L 346.017851 284.7989 
L 349.29719 286.61026 
L 352.576529 276.056676 
L 355.855868 272.800838 
L 359.135207 279.85549 
L 362.414545 265.874421 
L 365.693884 265.09459 
L 368.973223 267.532536 
L 372.252562 260.863589 
L 375.531901 268.430384 
L 378.81124 270.810394 
L 382.090579 267.55133 
L 385.369917 264.801097 
L 388.649256 259.535611 
L 391.928595 262.325149 
L 395.207934 259.619645 
L 398.487273 271.696641 
" clip-path="url(#p6dce36d40b)" style="fill: none; stroke: #000000; stroke-width: 1.5; stroke-linecap: square"/>
   </g>
   <g id="line2d_24">
    <path d="M 73.832727 100.462508 
L 77.112066 98.705203 
L 80.391405 95.490535 
L 83.670744 115.526595 
L 86.950083 142.500001 
L 90.229421 163.057452 
L 93.50876 191.260531 
L 96.788099 216.457846 
L 100.067438 218.660563 
L 103.346777 219.127931 
L 106.626116 214.831828 
L 109.905455 223.439431 
L 113.184793 220.186891 
L 116.464132 223.639069 
L 119.743471 221.256624 
L 123.02281 223.548925 
L 126.302149 234.930781 
L 129.581488 235.975673 
L 132.860826 229.455553 
L 136.140165 222.710858 
L 139.419504 219.823321 
L 142.698843 216.104077 
L 145.978182 224.233673 
L 149.257521 219.165616 
L 152.53686 220.368295 
L 155.816198 225.736683 
L 159.095537 218.308138 
L 162.374876 212.189931 
L 165.654215 216.06502 
L 168.933554 223.476618 
L 172.212893 218.533719 
L 175.492231 226.873988 
L 178.77157 222.046067 
L 182.050909 222.10105 
L 185.330248 227.54866 
L 188.609587 224.674135 
L 191.888926 226.809111 
L 195.168264 235.518435 
L 198.447603 249.239782 
L 201.726942 246.549411 
L 205.006281 253.570522 
L 208.28562 255.809436 
L 211.564959 262.492621 
L 214.844298 253.000874 
L 218.123636 240.84626 
L 221.402975 247.648083 
L 224.682314 242.24236 
L 227.961653 245.972785 
L 231.240992 248.593376 
L 234.520331 259.274656 
L 237.799669 253.341992 
L 241.079008 250.136726 
L 244.358347 246.623758 
L 247.637686 248.676271 
L 250.917025 257.075132 
L 254.196364 259.896377 
L 257.475702 265.946748 
L 260.755041 261.101837 
L 264.03438 265.132277 
L 267.313719 253.621667 
L 270.593058 256.177706 
L 273.872397 262.271837 
L 277.151736 267.468151 
L 280.431074 263.117729 
L 283.710413 260.579224 
L 286.989752 256.62304 
L 290.269091 262.623071 
L 293.54843 271.557462 
L 296.827769 264.06688 
L 300.107107 260.722642 
L 303.386446 256.671056 
L 306.665785 261.755338 
L 309.945124 252.752123 
L 313.224463 245.091694 
L 316.503802 254.069307 
L 319.78314 263.216741 
L 323.062479 267.846651 
L 326.341818 276.261162 
L 329.621157 270.006847 
L 332.900496 267.95907 
L 336.179835 263.48528 
L 339.459174 263.219282 
L 342.738512 274.383835 
L 346.017851 282.935076 
L 349.29719 284.294674 
L 352.576529 273.405925 
L 355.855868 269.388041 
L 359.135207 275.726933 
L 362.414545 260.657681 
L 365.693884 259.192248 
L 368.973223 260.956177 
L 372.252562 254.27642 
L 375.531901 261.639157 
L 378.81124 263.963215 
L 382.090579 260.981942 
L 385.369917 258.842232 
L 388.649256 254.358598 
L 391.928595 257.709064 
L 395.207934 255.308914 
L 398.487273 267.595476 
" clip-path="url(#p6dce36d40b)" style="fill: none; stroke: #ff0000; stroke-width: 1.5; stroke-linecap: square"/>
   </g>
   <g id="line2d_25">
    <path d="M 73.832727 53.568 
L 77.112066 84.741241 
L 80.391405 133.0608 
L 83.670744 135.472127 
L 86.950083 135.260206 
L 90.229421 148.529959 
L 93.50876 149.907334 
L 96.788099 159.121989 
L 100.067438 158.499611 
L 103.346777 169.115498 
L 106.626116 172.624977 
L 109.905455 181.918025 
L 113.184793 180.741763 
L 116.464132 195.248644 
L 119.743471 208.689998 
L 123.02281 220.563178 
L 126.302149 234.835163 
L 129.581488 244.614543 
L 132.860826 237.920359 
L 136.140165 232.011224 
L 139.419504 232.462653 
L 142.698843 247.408146 
L 145.978182 259.395293 
L 149.257521 273.807387 
L 152.53686 280.528585 
L 155.816198 271.057304 
L 159.095537 262.864527 
L 162.374876 253.197277 
L 165.654215 264.922982 
L 168.933554 268.621745 
L 172.212893 267.710763 
L 175.492231 274.338475 
L 178.77157 282.494192 
L 182.050909 273.480601 
L 185.330248 266.665898 
L 188.609587 270.452573 
L 191.888926 259.847756 
L 195.168264 252.292249 
L 198.447603 243.192379 
L 201.726942 253.206721 
L 205.006281 256.636745 
L 208.28562 246.679586 
L 211.564959 241.538065 
L 214.844298 245.042673 
L 218.123636 254.189512 
L 221.402975 256.295839 
L 224.682314 257.373265 
L 227.961653 264.669075 
L 231.240992 268.095868 
L 234.520331 271.535146 
L 237.799669 271.563366 
L 241.079008 262.667004 
L 244.358347 273.666146 
L 247.637686 279.131356 
L 250.917025 277.60444 
L 254.196364 279.600691 
L 257.475702 272.293462 
L 260.755041 266.375767 
L 264.03438 261.894117 
L 267.313719 261.054712 
L 270.593058 271.951512 
L 273.872397 272.712637 
L 277.151736 276.997084 
L 280.431074 280.563073 
L 283.710413 273.126849 
L 286.989752 261.150449 
L 290.269091 262.607538 
L 293.54843 271.176793 
L 296.827769 269.185813 
L 300.107107 266.809556 
L 303.386446 267.903738 
L 306.665785 275.897553 
L 309.945124 269.298567 
L 313.224463 269.259693 
L 316.503802 275.603641 
L 319.78314 281.993407 
L 323.062479 275.301891 
L 326.341818 276.97433 
L 329.621157 275.413566 
L 332.900496 272.378025 
L 336.179835 274.361586 
L 339.459174 267.86462 
L 342.738512 269.558873 
L 346.017851 272.89481 
L 349.29719 270.256862 
L 352.576529 276.143555 
L 355.855868 274.845228 
L 359.135207 284.434189 
L 362.414545 278.580077 
L 365.693884 285.51636 
L 368.973223 272.726275 
L 372.252562 278.580638 
L 375.531901 287.58798 
L 378.81124 277.768212 
L 382.090579 265.511913 
L 385.369917 255.571979 
L 388.649256 256.512915 
L 391.928595 259.003204 
L 395.207934 263.372685 
L 398.487273 264.240683 
" clip-path="url(#p6dce36d40b)" style="fill: none; stroke-dasharray: 5.55,2.4; stroke-dashoffset: 0; stroke: #000000; stroke-width: 1.5"/>
   </g>
   <g id="line2d_26">
    <path d="M 73.832727 53.568 
L 77.112066 81.239684 
L 80.391405 126.203119 
L 83.670744 129.458957 
L 86.950083 136.600548 
L 90.229421 153.425698 
L 93.50876 158.630044 
L 96.788099 171.97589 
L 100.067438 178.141079 
L 103.346777 197.037897 
L 106.626116 211.289369 
L 109.905455 233.412606 
L 113.184793 229.229968 
L 116.464132 243.438608 
L 119.743471 254.912244 
L 123.02281 262.898333 
L 126.302149 273.865872 
L 129.581488 279.219972 
L 132.860826 266.769508 
L 136.140165 256.466271 
L 139.419504 252.425578 
L 142.698843 263.005438 
L 145.978182 268.861555 
L 149.257521 279.719554 
L 152.53686 284.624429 
L 155.816198 275.169246 
L 159.095537 266.964355 
L 162.374876 257.181875 
L 165.654215 268.855305 
L 168.933554 270.356249 
L 172.212893 267.743704 
L 175.492231 274.510017 
L 178.77157 282.763228 
L 182.050909 273.816326 
L 185.330248 268.461158 
L 188.609587 273.502539 
L 191.888926 262.341831 
L 195.168264 254.367631 
L 198.447603 245.032688 
L 201.726942 253.518098 
L 205.006281 254.537866 
L 208.28562 243.280632 
L 211.564959 237.18492 
L 214.844298 238.715555 
L 218.123636 245.557816 
L 221.402975 246.225291 
L 224.682314 246.70576 
L 227.961653 253.883756 
L 231.240992 257.066673 
L 234.520331 260.958378 
L 237.799669 261.221281 
L 241.079008 253.168574 
L 244.358347 265.207564 
L 247.637686 270.747327 
L 250.917025 270.239516 
L 254.196364 273.560177 
L 257.475702 267.33526 
L 260.755041 262.420417 
L 264.03438 258.515996 
L 267.313719 257.604962 
L 270.593058 268.148544 
L 273.872397 268.420966 
L 277.151736 273.217753 
L 280.431074 277.289763 
L 283.710413 270.862865 
L 286.989752 260.281562 
L 290.269091 262.362056 
L 293.54843 270.33404 
L 296.827769 267.876985 
L 300.107107 265.916384 
L 303.386446 267.235727 
L 306.665785 275.226065 
L 309.945124 268.726669 
L 313.224463 269.601034 
L 316.503802 276.141441 
L 319.78314 282.735633 
L 323.062479 276.902848 
L 326.341818 280.087929 
L 329.621157 279.477024 
L 332.900496 277.49695 
L 336.179835 280.360564 
L 339.459174 274.330792 
L 342.738512 276.701889 
L 346.017851 280.371534 
L 349.29719 278.444868 
L 352.576529 285.506273 
L 355.855868 284.954173 
L 359.135207 295.488 
L 362.414545 288.496574 
L 365.693884 294.761852 
L 368.973223 280.558879 
L 372.252562 285.940993 
L 375.531901 292.909408 
L 378.81124 281.646154 
L 382.090579 269.081294 
L 385.369917 258.14702 
L 388.649256 257.107932 
L 391.928595 256.606796 
L 395.207934 258.101612 
L 398.487273 256.393769 
" clip-path="url(#p6dce36d40b)" style="fill: none; stroke-dasharray: 5.55,2.4; stroke-dashoffset: 0; stroke: #ff0000; stroke-width: 1.5"/>
   </g>
   <g id="patch_3">
    <path d="M 57.6 307.584 
L 57.6 41.472 
" style="fill: none; stroke: #000000; stroke-width: 0.8; stroke-linejoin: miter; stroke-linecap: square"/>
   </g>
   <g id="patch_4">
    <path d="M 414.72 307.584 
L 414.72 41.472 
" style="fill: none; stroke: #000000; stroke-width: 0.8; stroke-linejoin: miter; stroke-linecap: square"/>
   </g>
   <g id="patch_5">
    <path d="M 57.6 307.584 
L 414.72 307.584 
" style="fill: none; stroke: #000000; stroke-width: 0.8; stroke-linejoin: miter; stroke-linecap: square"/>
   </g>
   <g id="patch_6">
    <path d="M 57.6 41.472 
L 414.72 41.472 
" style="fill: none; stroke: #000000; stroke-width: 0.8; stroke-linejoin: miter; stroke-linecap: square"/>
   </g>
   <g id="legend_1">
    <g id="patch_7">
     <path d="M 392.72 67.472 
L 400.72 67.472 
Q 404.72 67.472 404.72 63.472 
L 404.72 55.472 
Q 404.72 51.472 400.72 51.472 
L 392.72 51.472 
Q 388.72 51.472 388.72 55.472 
L 388.72 63.472 
Q 388.72 67.472 392.72 67.472 
z
" style="fill: #ffffff; opacity: 0.8; stroke: #cccccc; stroke-linejoin: miter"/>
    </g>
   </g>
  </g>
 </g>
 <defs>
  <clipPath id="p6dce36d40b">
   <rect x="57.6" y="41.472" width="357.12" height="266.112"/>
  </clipPath>
 </defs>
</svg>
