<?xml version="1.0" encoding="utf-8" standalone="no"?>
<!DOCTYPE svg PUBLIC "-//W3C//DTD SVG 1.1//EN"
  "http://www.w3.org/Graphics/SVG/1.1/DTD/svg11.dtd">
<svg xmlns:xlink="http://www.w3.org/1999/xlink" width="460.8pt" height="345.6pt" viewBox="0 0 460.8 345.6" xmlns="http://www.w3.org/2000/svg" version="1.1">
 <metadata>
  <rdf:RDF xmlns:dc="http://purl.org/dc/elements/1.1/" xmlns:cc="http://creativecommons.org/ns#" xmlns:rdf="http://www.w3.org/1999/02/22-rdf-syntax-ns#">
   <cc:Work>
    <dc:type rdf:resource="http://purl.org/dc/dcmitype/StillImage"/>
    <dc:date>2024-05-30T11:57:39.601791</dc:date>
    <dc:format>image/svg+xml</dc:format>
    <dc:creator>
     <cc:Agent>
      <dc:title>Matplotlib v3.7.1, https://matplotlib.org/</dc:title>
     </cc:Agent>
    </dc:creator>
   </cc:Work>
  </rdf:RDF>
 </metadata>
 <defs>
  <style type="text/css">*{stroke-linejoin: round; stroke-linecap: butt}</style>
 </defs>
 <g id="figure_1">
  <g id="patch_1">
   <path d="M 0 345.6 
L 460.8 345.6 
L 460.8 0 
L 0 0 
z
" style="fill: #ffffff"/>
  </g>
  <g id="axes_1">
   <g id="patch_2">
    <path d="M 57.6 307.584 
L 414.72 307.584 
L 414.72 41.472 
L 57.6 41.472 
z
" style="fill: #ffffff"/>
   </g>
   <g id="matplotlib.axis_1">
    <g id="xtick_1">
     <g id="line2d_1">
      <path d="M 73.832727 307.584 
L 73.832727 41.472 
" clip-path="url(#pf2d56a1596)" style="fill: none; stroke: #b0b0b0; stroke-width: 0.8; stroke-linecap: square"/>
     </g>
     <g id="line2d_2">
      <defs>
       <path id="m0b185efae5" d="M 0 0 
L 0 3.5 
" style="stroke: #000000; stroke-width: 0.8"/>
      </defs>
      <g>
       <use xlink:href="#m0b185efae5" x="73.832727" y="307.584" style="stroke: #000000; stroke-width: 0.8"/>
      </g>
     </g>
     <g id="text_1">
      <!-- 0 -->
      <g transform="translate(70.651477 322.182437) scale(0.1 -0.1)">
       <defs>
        <path id="DejaVuSans-30" d="M 2034 4250 
Q 1547 4250 1301 3770 
Q 1056 3291 1056 2328 
Q 1056 1369 1301 889 
Q 1547 409 2034 409 
Q 2525 409 2770 889 
Q 3016 1369 3016 2328 
Q 3016 3291 2770 3770 
Q 2525 4250 2034 4250 
z
M 2034 4750 
Q 2819 4750 3233 4129 
Q 3647 3509 3647 2328 
Q 3647 1150 3233 529 
Q 2819 -91 2034 -91 
Q 1250 -91 836 529 
Q 422 1150 422 2328 
Q 422 3509 836 4129 
Q 1250 4750 2034 4750 
z
" transform="scale(0.015625)"/>
       </defs>
       <use xlink:href="#DejaVuSans-30"/>
      </g>
     </g>
    </g>
    <g id="xtick_2">
     <g id="line2d_3">
      <path d="M 139.419504 307.584 
L 139.419504 41.472 
" clip-path="url(#pf2d56a1596)" style="fill: none; stroke: #b0b0b0; stroke-width: 0.8; stroke-linecap: square"/>
     </g>
     <g id="line2d_4">
      <g>
       <use xlink:href="#m0b185efae5" x="139.419504" y="307.584" style="stroke: #000000; stroke-width: 0.8"/>
      </g>
     </g>
     <g id="text_2">
      <!-- 20 -->
      <g transform="translate(133.057004 322.182437) scale(0.1 -0.1)">
       <defs>
        <path id="DejaVuSans-32" d="M 1228 531 
L 3431 531 
L 3431 0 
L 469 0 
L 469 531 
Q 828 903 1448 1529 
Q 2069 2156 2228 2338 
Q 2531 2678 2651 2914 
Q 2772 3150 2772 3378 
Q 2772 3750 2511 3984 
Q 2250 4219 1831 4219 
Q 1534 4219 1204 4116 
Q 875 4013 500 3803 
L 500 4441 
Q 881 4594 1212 4672 
Q 1544 4750 1819 4750 
Q 2544 4750 2975 4387 
Q 3406 4025 3406 3419 
Q 3406 3131 3298 2873 
Q 3191 2616 2906 2266 
Q 2828 2175 2409 1742 
Q 1991 1309 1228 531 
z
" transform="scale(0.015625)"/>
       </defs>
       <use xlink:href="#DejaVuSans-32"/>
       <use xlink:href="#DejaVuSans-30" x="63.623047"/>
      </g>
     </g>
    </g>
    <g id="xtick_3">
     <g id="line2d_5">
      <path d="M 205.006281 307.584 
L 205.006281 41.472 
" clip-path="url(#pf2d56a1596)" style="fill: none; stroke: #b0b0b0; stroke-width: 0.8; stroke-linecap: square"/>
     </g>
     <g id="line2d_6">
      <g>
       <use xlink:href="#m0b185efae5" x="205.006281" y="307.584" style="stroke: #000000; stroke-width: 0.8"/>
      </g>
     </g>
     <g id="text_3">
      <!-- 40 -->
      <g transform="translate(198.643781 322.182437) scale(0.1 -0.1)">
       <defs>
        <path id="DejaVuSans-34" d="M 2419 4116 
L 825 1625 
L 2419 1625 
L 2419 4116 
z
M 2253 4666 
L 3047 4666 
L 3047 1625 
L 3713 1625 
L 3713 1100 
L 3047 1100 
L 3047 0 
L 2419 0 
L 2419 1100 
L 313 1100 
L 313 1709 
L 2253 4666 
z
" transform="scale(0.015625)"/>
       </defs>
       <use xlink:href="#DejaVuSans-34"/>
       <use xlink:href="#DejaVuSans-30" x="63.623047"/>
      </g>
     </g>
    </g>
    <g id="xtick_4">
     <g id="line2d_7">
      <path d="M 270.593058 307.584 
L 270.593058 41.472 
" clip-path="url(#pf2d56a1596)" style="fill: none; stroke: #b0b0b0; stroke-width: 0.8; stroke-linecap: square"/>
     </g>
     <g id="line2d_8">
      <g>
       <use xlink:href="#m0b185efae5" x="270.593058" y="307.584" style="stroke: #000000; stroke-width: 0.8"/>
      </g>
     </g>
     <g id="text_4">
      <!-- 60 -->
      <g transform="translate(264.230558 322.182437) scale(0.1 -0.1)">
       <defs>
        <path id="DejaVuSans-36" d="M 2113 2584 
Q 1688 2584 1439 2293 
Q 1191 2003 1191 1497 
Q 1191 994 1439 701 
Q 1688 409 2113 409 
Q 2538 409 2786 701 
Q 3034 994 3034 1497 
Q 3034 2003 2786 2293 
Q 2538 2584 2113 2584 
z
M 3366 4563 
L 3366 3988 
Q 3128 4100 2886 4159 
Q 2644 4219 2406 4219 
Q 1781 4219 1451 3797 
Q 1122 3375 1075 2522 
Q 1259 2794 1537 2939 
Q 1816 3084 2150 3084 
Q 2853 3084 3261 2657 
Q 3669 2231 3669 1497 
Q 3669 778 3244 343 
Q 2819 -91 2113 -91 
Q 1303 -91 875 529 
Q 447 1150 447 2328 
Q 447 3434 972 4092 
Q 1497 4750 2381 4750 
Q 2619 4750 2861 4703 
Q 3103 4656 3366 4563 
z
" transform="scale(0.015625)"/>
       </defs>
       <use xlink:href="#DejaVuSans-36"/>
       <use xlink:href="#DejaVuSans-30" x="63.623047"/>
      </g>
     </g>
    </g>
    <g id="xtick_5">
     <g id="line2d_9">
      <path d="M 336.179835 307.584 
L 336.179835 41.472 
" clip-path="url(#pf2d56a1596)" style="fill: none; stroke: #b0b0b0; stroke-width: 0.8; stroke-linecap: square"/>
     </g>
     <g id="line2d_10">
      <g>
       <use xlink:href="#m0b185efae5" x="336.179835" y="307.584" style="stroke: #000000; stroke-width: 0.8"/>
      </g>
     </g>
     <g id="text_5">
      <!-- 80 -->
      <g transform="translate(329.817335 322.182437) scale(0.1 -0.1)">
       <defs>
        <path id="DejaVuSans-38" d="M 2034 2216 
Q 1584 2216 1326 1975 
Q 1069 1734 1069 1313 
Q 1069 891 1326 650 
Q 1584 409 2034 409 
Q 2484 409 2743 651 
Q 3003 894 3003 1313 
Q 3003 1734 2745 1975 
Q 2488 2216 2034 2216 
z
M 1403 2484 
Q 997 2584 770 2862 
Q 544 3141 544 3541 
Q 544 4100 942 4425 
Q 1341 4750 2034 4750 
Q 2731 4750 3128 4425 
Q 3525 4100 3525 3541 
Q 3525 3141 3298 2862 
Q 3072 2584 2669 2484 
Q 3125 2378 3379 2068 
Q 3634 1759 3634 1313 
Q 3634 634 3220 271 
Q 2806 -91 2034 -91 
Q 1263 -91 848 271 
Q 434 634 434 1313 
Q 434 1759 690 2068 
Q 947 2378 1403 2484 
z
M 1172 3481 
Q 1172 3119 1398 2916 
Q 1625 2713 2034 2713 
Q 2441 2713 2670 2916 
Q 2900 3119 2900 3481 
Q 2900 3844 2670 4047 
Q 2441 4250 2034 4250 
Q 1625 4250 1398 4047 
Q 1172 3844 1172 3481 
z
" transform="scale(0.015625)"/>
       </defs>
       <use xlink:href="#DejaVuSans-38"/>
       <use xlink:href="#DejaVuSans-30" x="63.623047"/>
      </g>
     </g>
    </g>
    <g id="xtick_6">
     <g id="line2d_11">
      <path d="M 401.766612 307.584 
L 401.766612 41.472 
" clip-path="url(#pf2d56a1596)" style="fill: none; stroke: #b0b0b0; stroke-width: 0.8; stroke-linecap: square"/>
     </g>
     <g id="line2d_12">
      <g>
       <use xlink:href="#m0b185efae5" x="401.766612" y="307.584" style="stroke: #000000; stroke-width: 0.8"/>
      </g>
     </g>
     <g id="text_6">
      <!-- 100 -->
      <g transform="translate(392.222862 322.182437) scale(0.1 -0.1)">
       <defs>
        <path id="DejaVuSans-31" d="M 794 531 
L 1825 531 
L 1825 4091 
L 703 3866 
L 703 4441 
L 1819 4666 
L 2450 4666 
L 2450 531 
L 3481 531 
L 3481 0 
L 794 0 
L 794 531 
z
" transform="scale(0.015625)"/>
       </defs>
       <use xlink:href="#DejaVuSans-31"/>
       <use xlink:href="#DejaVuSans-30" x="63.623047"/>
       <use xlink:href="#DejaVuSans-30" x="127.246094"/>
      </g>
     </g>
    </g>
    <g id="text_7">
     <!-- T -->
     <g transform="translate(233.106094 335.860562) scale(0.1 -0.1)">
      <defs>
       <path id="DejaVuSans-54" d="M -19 4666 
L 3928 4666 
L 3928 4134 
L 2272 4134 
L 2272 0 
L 1638 0 
L 1638 4134 
L -19 4134 
L -19 4666 
z
" transform="scale(0.015625)"/>
      </defs>
      <use xlink:href="#DejaVuSans-54"/>
     </g>
    </g>
   </g>
   <g id="matplotlib.axis_2">
    <g id="ytick_1">
     <g id="line2d_13">
      <path d="M 57.6 266.162426 
L 414.72 266.162426 
" clip-path="url(#pf2d56a1596)" style="fill: none; stroke: #b0b0b0; stroke-width: 0.8; stroke-linecap: square"/>
     </g>
     <g id="line2d_14">
      <defs>
       <path id="m23097b8c25" d="M 0 0 
L -3.5 0 
" style="stroke: #000000; stroke-width: 0.8"/>
      </defs>
      <g>
       <use xlink:href="#m23097b8c25" x="57.6" y="266.162426" style="stroke: #000000; stroke-width: 0.8"/>
      </g>
     </g>
     <g id="text_8">
      <!-- 0 -->
      <g transform="translate(44.2375 269.961645) scale(0.1 -0.1)">
       <use xlink:href="#DejaVuSans-30"/>
      </g>
     </g>
    </g>
    <g id="ytick_2">
     <g id="line2d_15">
      <path d="M 57.6 218.91922 
L 414.72 218.91922 
" clip-path="url(#pf2d56a1596)" style="fill: none; stroke: #b0b0b0; stroke-width: 0.8; stroke-linecap: square"/>
     </g>
     <g id="line2d_16">
      <g>
       <use xlink:href="#m23097b8c25" x="57.6" y="218.91922" style="stroke: #000000; stroke-width: 0.8"/>
      </g>
     </g>
     <g id="text_9">
      <!-- 2 -->
      <g transform="translate(44.2375 222.718439) scale(0.1 -0.1)">
       <use xlink:href="#DejaVuSans-32"/>
      </g>
     </g>
    </g>
    <g id="ytick_3">
     <g id="line2d_17">
      <path d="M 57.6 171.676014 
L 414.72 171.676014 
" clip-path="url(#pf2d56a1596)" style="fill: none; stroke: #b0b0b0; stroke-width: 0.8; stroke-linecap: square"/>
     </g>
     <g id="line2d_18">
      <g>
       <use xlink:href="#m23097b8c25" x="57.6" y="171.676014" style="stroke: #000000; stroke-width: 0.8"/>
      </g>
     </g>
     <g id="text_10">
      <!-- 4 -->
      <g transform="translate(44.2375 175.475233) scale(0.1 -0.1)">
       <use xlink:href="#DejaVuSans-34"/>
      </g>
     </g>
    </g>
    <g id="ytick_4">
     <g id="line2d_19">
      <path d="M 57.6 124.432809 
L 414.72 124.432809 
" clip-path="url(#pf2d56a1596)" style="fill: none; stroke: #b0b0b0; stroke-width: 0.8; stroke-linecap: square"/>
     </g>
     <g id="line2d_20">
      <g>
       <use xlink:href="#m23097b8c25" x="57.6" y="124.432809" style="stroke: #000000; stroke-width: 0.8"/>
      </g>
     </g>
     <g id="text_11">
      <!-- 6 -->
      <g transform="translate(44.2375 128.232027) scale(0.1 -0.1)">
       <use xlink:href="#DejaVuSans-36"/>
      </g>
     </g>
    </g>
    <g id="ytick_5">
     <g id="line2d_21">
      <path d="M 57.6 77.189603 
L 414.72 77.189603 
" clip-path="url(#pf2d56a1596)" style="fill: none; stroke: #b0b0b0; stroke-width: 0.8; stroke-linecap: square"/>
     </g>
     <g id="line2d_22">
      <g>
       <use xlink:href="#m23097b8c25" x="57.6" y="77.189603" style="stroke: #000000; stroke-width: 0.8"/>
      </g>
     </g>
     <g id="text_12">
      <!-- 8 -->
      <g transform="translate(44.2375 80.988822) scale(0.1 -0.1)">
       <use xlink:href="#DejaVuSans-38"/>
      </g>
     </g>
    </g>
    <g id="text_13">
     <!-- X -->
     <g transform="translate(38.157812 177.953) rotate(-90) scale(0.1 -0.1)">
      <defs>
       <path id="DejaVuSans-58" d="M 403 4666 
L 1081 4666 
L 2241 2931 
L 3406 4666 
L 4084 4666 
L 2584 2425 
L 4184 0 
L 3506 0 
L 2194 1984 
L 872 0 
L 191 0 
L 1856 2491 
L 403 4666 
z
" transform="scale(0.015625)"/>
      </defs>
      <use xlink:href="#DejaVuSans-58"/>
     </g>
    </g>
   </g>
   <g id="line2d_23">
    <path d="M 73.832727 100.811206 
L 77.112066 99.040834 
L 80.391405 96.314418 
L 83.670744 119.683513 
L 86.950083 148.987182 
L 90.229421 168.657486 
L 93.50876 196.634538 
L 96.788099 222.268082 
L 100.067438 227.473106 
L 103.346777 232.934297 
L 106.626116 236.878967 
L 109.905455 254.39626 
L 113.184793 254.904854 
L 116.464132 262.704021 
L 119.743471 257.409132 
L 123.02281 252.984168 
L 126.302149 257.406496 
L 129.581488 253.607382 
L 132.860826 244.475965 
L 136.140165 233.714751 
L 139.419504 226.824521 
L 142.698843 219.910436 
L 145.978182 226.569964 
L 149.257521 221.226442 
L 152.53686 222.870317 
L 155.816198 228.644847 
L 159.095537 221.248601 
L 162.374876 214.883477 
L 165.654215 218.299144 
L 168.933554 225.701084 
L 172.212893 220.680284 
L 175.492231 228.991131 
L 178.77157 224.056642 
L 182.050909 224.068745 
L 185.330248 229.507283 
L 188.609587 226.572536 
L 191.888926 228.819438 
L 195.168264 237.422698 
L 198.447603 250.989828 
L 201.726942 247.99917 
L 205.006281 255.040879 
L 208.28562 257.470069 
L 211.564959 264.643207 
L 214.844298 255.626928 
L 218.123636 244.14412 
L 221.402975 251.797725 
L 224.682314 247.162442 
L 227.961653 251.666306 
L 231.240992 254.45541 
L 234.520331 265.069115 
L 237.799669 258.622903 
L 241.079008 254.959525 
L 244.358347 251.692155 
L 247.637686 253.13506 
L 250.917025 260.675271 
L 254.196364 262.817759 
L 257.475702 268.255593 
L 260.755041 263.13168 
L 264.03438 267.189704 
L 267.313719 255.703072 
L 270.593058 258.40426 
L 273.872397 264.333669 
L 277.151736 269.343665 
L 280.431074 264.645741 
L 283.710413 261.759992 
L 286.989752 257.692082 
L 290.269091 263.817898 
L 293.54843 272.86156 
L 296.827769 265.311404 
L 300.107107 261.94344 
L 303.386446 257.889104 
L 306.665785 263.030084 
L 309.945124 253.934021 
L 313.224463 246.230709 
L 316.503802 255.314241 
L 319.78314 264.598105 
L 323.062479 269.368949 
L 326.341818 277.986093 
L 329.621157 271.986187 
L 332.900496 270.259636 
L 336.179835 266.063185 
L 339.459174 266.239889 
L 342.738512 277.630387 
L 346.017851 286.518283 
L 349.29719 288.343112 
L 352.576529 277.711054 
L 355.855868 274.431006 
L 359.135207 281.538115 
L 362.414545 267.453086 
L 365.693884 266.667457 
L 368.973223 269.12353 
L 372.252562 262.404995 
L 375.531901 270.028055 
L 378.81124 272.425762 
L 382.090579 269.142464 
L 385.369917 266.371781 
L 388.649256 261.067141 
L 391.928595 263.877423 
L 395.207934 261.151801 
L 398.487273 273.318599 
" clip-path="url(#pf2d56a1596)" style="fill: none; stroke: #000000; stroke-width: 1.5; stroke-linecap: square"/>
   </g>
   <g id="line2d_24">
    <path d="M 73.832727 100.811206 
L 77.112066 99.040834 
L 80.391405 95.731377 
L 83.670744 114.810942 
L 86.950083 141.304098 
L 90.229421 161.601449 
L 93.50876 190.326024 
L 96.788099 216.347266 
L 100.067438 220.152807 
L 103.346777 222.807508 
L 106.626116 220.716078 
L 109.905455 230.579211 
L 113.184793 225.632587 
L 116.464132 228.609549 
L 119.743471 227.256909 
L 123.02281 229.566712 
L 126.302149 240.547569 
L 129.581488 240.873874 
L 132.860826 233.720716 
L 136.140165 226.528341 
L 139.419504 223.657464 
L 142.698843 220.161004 
L 145.978182 228.023758 
L 149.257521 222.246255 
L 152.53686 222.253869 
L 155.816198 226.35301 
L 159.095537 217.856254 
L 162.374876 211.298358 
L 165.654215 215.70526 
L 168.933554 222.678331 
L 172.212893 217.160561 
L 175.492231 225.251825 
L 178.77157 219.664517 
L 182.050909 218.706504 
L 185.330248 223.582676 
L 188.609587 220.525623 
L 191.888926 222.167831 
L 195.168264 231.368244 
L 198.447603 246.275153 
L 201.726942 245.242866 
L 205.006281 253.204607 
L 208.28562 256.14192 
L 211.564959 264.598053 
L 214.844298 257.063384 
L 218.123636 246.710741 
L 221.402975 254.655533 
L 224.682314 250.108917 
L 227.961653 254.610506 
L 231.240992 256.822503 
L 234.520331 266.62882 
L 237.799669 259.063483 
L 241.079008 254.461461 
L 244.358347 251.093888 
L 247.637686 251.732078 
L 250.917025 258.529205 
L 254.196364 260.119538 
L 257.475702 264.973274 
L 260.755041 259.612568 
L 264.03438 263.766596 
L 267.313719 252.650299 
L 270.593058 255.74494 
L 273.872397 261.638535 
L 277.151736 266.727022 
L 280.431074 262.058843 
L 283.710413 259.189218 
L 286.989752 255.229205 
L 290.269091 261.674947 
L 293.54843 270.973079 
L 296.827769 263.560367 
L 300.107107 260.372866 
L 303.386446 256.479233 
L 306.665785 261.776064 
L 309.945124 252.943086 
L 313.224463 245.38788 
L 316.503802 254.601462 
L 319.78314 264.139365 
L 323.062479 269.292057 
L 326.341818 278.113451 
L 329.621157 272.284433 
L 332.900496 270.68775 
L 336.179835 266.546601 
L 339.459174 266.802932 
L 342.738512 278.15592 
L 346.017851 287.042818 
L 349.29719 288.958945 
L 352.576529 278.349312 
L 355.855868 275.297095 
L 359.135207 282.579838 
L 362.414545 268.940215 
L 365.693884 268.397637 
L 368.973223 271.138555 
L 372.252562 264.361854 
L 375.531901 271.981846 
L 378.81124 274.472658 
L 382.090579 271.129413 
L 385.369917 268.159085 
L 388.649256 262.678061 
L 391.928595 265.252082 
L 395.207934 262.192682 
L 398.487273 274.064802 
" clip-path="url(#pf2d56a1596)" style="fill: none; stroke: #ff0000; stroke-width: 1.5; stroke-linecap: square"/>
   </g>
   <g id="line2d_25">
    <path d="M 73.832727 53.568 
L 77.112066 84.973038 
L 80.391405 133.651892 
L 83.670744 136.081149 
L 86.950083 135.867652 
L 90.229421 149.236076 
L 93.50876 150.623692 
L 96.788099 159.906866 
L 100.067438 159.27986 
L 103.346777 169.974684 
L 106.626116 173.510259 
L 109.905455 182.872408 
L 113.184793 181.6874 
L 116.464132 196.302151 
L 119.743471 209.843452 
L 123.02281 221.804918 
L 126.302149 236.183026 
L 129.581488 246.035125 
L 132.860826 239.291164 
L 136.140165 233.33809 
L 139.419504 233.792875 
L 142.698843 248.8495 
L 145.978182 260.925781 
L 149.257521 275.44504 
L 152.53686 282.216215 
L 155.816198 272.674507 
L 159.095537 264.420811 
L 162.374876 254.681678 
L 165.654215 266.494572 
L 168.933554 270.220839 
L 172.212893 269.303083 
L 175.492231 275.980077 
L 178.77157 284.196437 
L 182.050909 275.115824 
L 185.330248 268.250448 
L 188.609587 272.06528 
L 191.888926 261.381608 
L 195.168264 253.76992 
L 198.447603 244.602385 
L 201.726942 254.691192 
L 205.006281 258.146721 
L 208.28562 248.115522 
L 211.564959 242.93577 
L 214.844298 246.466438 
L 218.123636 255.68129 
L 221.402975 257.803279 
L 224.682314 258.888717 
L 227.961653 266.238777 
L 231.240992 269.691051 
L 234.520331 273.155903 
L 237.799669 273.184332 
L 241.079008 264.221819 
L 244.358347 275.302749 
L 247.637686 280.808596 
L 250.917025 279.270327 
L 254.196364 281.281421 
L 257.475702 273.919858 
L 260.755041 267.95816 
L 264.03438 263.443186 
L 267.313719 262.597539 
L 270.593058 273.575365 
L 273.872397 274.34215 
L 277.151736 278.658454 
L 280.431074 282.25096 
L 283.710413 274.759441 
L 286.989752 262.693988 
L 290.269091 264.161911 
L 293.54843 272.794885 
L 296.827769 270.7891 
L 300.107107 268.395174 
L 303.386446 269.497493 
L 306.665785 277.550747 
L 309.945124 270.902694 
L 313.224463 270.86353 
L 316.503802 277.25465 
L 319.78314 283.69193 
L 323.062479 276.950657 
L 326.341818 278.635532 
L 329.621157 277.063162 
L 332.900496 274.005049 
L 336.179835 276.003359 
L 339.459174 269.458083 
L 342.738512 271.164934 
L 346.017851 274.525677 
L 349.29719 271.868113 
L 352.576529 277.798579 
L 355.855868 276.490598 
L 359.135207 286.15086 
L 362.414545 280.253219 
L 365.693884 287.241078 
L 368.973223 274.355888 
L 372.252562 280.253784 
L 375.531901 289.328103 
L 378.81124 279.435317 
L 382.090579 267.087883 
L 385.369917 257.074038 
L 388.649256 258.02197 
L 391.928595 260.530776 
L 395.207934 264.932748 
L 398.487273 265.8072 
" clip-path="url(#pf2d56a1596)" style="fill: none; stroke-dasharray: 5.55,2.4; stroke-dashoffset: 0; stroke: #000000; stroke-width: 1.5"/>
   </g>
   <g id="line2d_26">
    <path d="M 73.832727 53.568 
L 77.112066 80.44002 
L 80.391405 124.705974 
L 83.670744 128.386667 
L 86.950083 135.472984 
L 90.229421 151.970242 
L 93.50876 156.103154 
L 96.788099 168.271537 
L 100.067438 172.820162 
L 103.346777 189.961353 
L 106.626116 201.776709 
L 109.905455 221.026498 
L 113.184793 229.727131 
L 116.464132 257.313855 
L 119.743471 265.655847 
L 123.02281 270.626892 
L 126.302149 279.261629 
L 129.581488 283.026001 
L 132.860826 272.371361 
L 136.140165 263.33958 
L 139.419504 260.189579 
L 142.698843 271.568078 
L 145.978182 277.957917 
L 149.257521 289.657403 
L 152.53686 295.488 
L 155.816198 286.975231 
L 159.095537 279.179177 
L 162.374876 269.124379 
L 165.654215 280.464177 
L 168.933554 281.840385 
L 172.212893 279.392314 
L 175.492231 286.089938 
L 178.77157 294.754861 
L 182.050909 286.202136 
L 185.330248 280.731875 
L 188.609587 285.83506 
L 191.888926 274.558183 
L 195.168264 266.530346 
L 198.447603 257.759463 
L 201.726942 267.77841 
L 205.006281 269.742371 
L 208.28562 259.640326 
L 211.564959 254.977738 
L 214.844298 258.281004 
L 218.123636 266.328969 
L 221.402975 267.151399 
L 224.682314 268.263359 
L 227.961653 275.679237 
L 231.240992 279.458337 
L 234.520331 284.218389 
L 237.799669 283.649426 
L 241.079008 274.11145 
L 244.358347 284.409048 
L 247.637686 288.195657 
L 250.917025 286.152473 
L 254.196364 288.340731 
L 257.475702 280.999598 
L 260.755041 275.218817 
L 264.03438 270.265793 
L 267.313719 268.579628 
L 270.593058 277.998816 
L 273.872397 277.149968 
L 277.151736 281.071135 
L 280.431074 284.358615 
L 283.710413 276.928162 
L 286.989752 265.324912 
L 290.269091 266.572815 
L 293.54843 273.834689 
L 296.827769 270.598749 
L 300.107107 267.837284 
L 303.386446 268.401525 
L 306.665785 275.702603 
L 309.945124 268.359823 
L 313.224463 268.578718 
L 316.503802 274.623702 
L 319.78314 280.61487 
L 323.062479 273.967456 
L 326.341818 276.357648 
L 329.621157 274.75786 
L 332.900496 271.895748 
L 336.179835 273.949375 
L 339.459174 267.195099 
L 342.738512 268.87753 
L 346.017851 271.45358 
L 349.29719 268.041004 
L 352.576529 273.44556 
L 355.855868 271.783266 
L 359.135207 281.458219 
L 362.414545 275.541602 
L 365.693884 283.548278 
L 368.973223 271.168612 
L 372.252562 278.160566 
L 375.531901 287.162451 
L 378.81124 277.794251 
L 382.090579 266.804934 
L 385.369917 257.102863 
L 388.649256 257.060897 
L 391.928595 257.604506 
L 395.207934 260.156511 
L 398.487273 259.52823 
" clip-path="url(#pf2d56a1596)" style="fill: none; stroke-dasharray: 5.55,2.4; stroke-dashoffset: 0; stroke: #ff0000; stroke-width: 1.5"/>
   </g>
   <g id="patch_3">
    <path d="M 57.6 307.584 
L 57.6 41.472 
" style="fill: none; stroke: #000000; stroke-width: 0.8; stroke-linejoin: miter; stroke-linecap: square"/>
   </g>
   <g id="patch_4">
    <path d="M 414.72 307.584 
L 414.72 41.472 
" style="fill: none; stroke: #000000; stroke-width: 0.8; stroke-linejoin: miter; stroke-linecap: square"/>
   </g>
   <g id="patch_5">
    <path d="M 57.6 307.584 
L 414.72 307.584 
" style="fill: none; stroke: #000000; stroke-width: 0.8; stroke-linejoin: miter; stroke-linecap: square"/>
   </g>
   <g id="patch_6">
    <path d="M 57.6 41.472 
L 414.72 41.472 
" style="fill: none; stroke: #000000; stroke-width: 0.8; stroke-linejoin: miter; stroke-linecap: square"/>
   </g>
   <g id="legend_1">
    <g id="patch_7">
     <path d="M 392.72 67.472 
L 400.72 67.472 
Q 404.72 67.472 404.72 63.472 
L 404.72 55.472 
Q 404.72 51.472 400.72 51.472 
L 392.72 51.472 
Q 388.72 51.472 388.72 55.472 
L 388.72 63.472 
Q 388.72 67.472 392.72 67.472 
z
" style="fill: #ffffff; opacity: 0.8; stroke: #cccccc; stroke-linejoin: miter"/>
    </g>
   </g>
  </g>
 </g>
 <defs>
  <clipPath id="pf2d56a1596">
   <rect x="57.6" y="41.472" width="357.12" height="266.112"/>
  </clipPath>
 </defs>
</svg>
