<?xml version="1.0" encoding="utf-8" standalone="no"?>
<!DOCTYPE svg PUBLIC "-//W3C//DTD SVG 1.1//EN"
  "http://www.w3.org/Graphics/SVG/1.1/DTD/svg11.dtd">
<svg xmlns:xlink="http://www.w3.org/1999/xlink" width="460.8pt" height="345.6pt" viewBox="0 0 460.8 345.6" xmlns="http://www.w3.org/2000/svg" version="1.1">
 <metadata>
  <rdf:RDF xmlns:dc="http://purl.org/dc/elements/1.1/" xmlns:cc="http://creativecommons.org/ns#" xmlns:rdf="http://www.w3.org/1999/02/22-rdf-syntax-ns#">
   <cc:Work>
    <dc:type rdf:resource="http://purl.org/dc/dcmitype/StillImage"/>
    <dc:date>2024-05-25T06:48:57.154592</dc:date>
    <dc:format>image/svg+xml</dc:format>
    <dc:creator>
     <cc:Agent>
      <dc:title>Matplotlib v3.7.1, https://matplotlib.org/</dc:title>
     </cc:Agent>
    </dc:creator>
   </cc:Work>
  </rdf:RDF>
 </metadata>
 <defs>
  <style type="text/css">*{stroke-linejoin: round; stroke-linecap: butt}</style>
 </defs>
 <g id="figure_1">
  <g id="patch_1">
   <path d="M 0 345.6 
L 460.8 345.6 
L 460.8 0 
L 0 0 
z
" style="fill: #ffffff"/>
  </g>
  <g id="axes_1">
   <g id="patch_2">
    <path d="M 57.6 307.584 
L 414.72 307.584 
L 414.72 41.472 
L 57.6 41.472 
z
" style="fill: #ffffff"/>
   </g>
   <g id="matplotlib.axis_1">
    <g id="xtick_1">
     <g id="line2d_1">
      <path d="M 73.832727 307.584 
L 73.832727 41.472 
" clip-path="url(#pe9196763bc)" style="fill: none; stroke: #b0b0b0; stroke-width: 0.8; stroke-linecap: square"/>
     </g>
     <g id="line2d_2">
      <defs>
       <path id="mac691e20fc" d="M 0 0 
L 0 3.5 
" style="stroke: #000000; stroke-width: 0.8"/>
      </defs>
      <g>
       <use xlink:href="#mac691e20fc" x="73.832727" y="307.584" style="stroke: #000000; stroke-width: 0.8"/>
      </g>
     </g>
     <g id="text_1">
      <!-- 0 -->
      <g transform="translate(70.651477 322.182437) scale(0.1 -0.1)">
       <defs>
        <path id="DejaVuSans-30" d="M 2034 4250 
Q 1547 4250 1301 3770 
Q 1056 3291 1056 2328 
Q 1056 1369 1301 889 
Q 1547 409 2034 409 
Q 2525 409 2770 889 
Q 3016 1369 3016 2328 
Q 3016 3291 2770 3770 
Q 2525 4250 2034 4250 
z
M 2034 4750 
Q 2819 4750 3233 4129 
Q 3647 3509 3647 2328 
Q 3647 1150 3233 529 
Q 2819 -91 2034 -91 
Q 1250 -91 836 529 
Q 422 1150 422 2328 
Q 422 3509 836 4129 
Q 1250 4750 2034 4750 
z
" transform="scale(0.015625)"/>
       </defs>
       <use xlink:href="#DejaVuSans-30"/>
      </g>
     </g>
    </g>
    <g id="xtick_2">
     <g id="line2d_3">
      <path d="M 139.419504 307.584 
L 139.419504 41.472 
" clip-path="url(#pe9196763bc)" style="fill: none; stroke: #b0b0b0; stroke-width: 0.8; stroke-linecap: square"/>
     </g>
     <g id="line2d_4">
      <g>
       <use xlink:href="#mac691e20fc" x="139.419504" y="307.584" style="stroke: #000000; stroke-width: 0.8"/>
      </g>
     </g>
     <g id="text_2">
      <!-- 20 -->
      <g transform="translate(133.057004 322.182437) scale(0.1 -0.1)">
       <defs>
        <path id="DejaVuSans-32" d="M 1228 531 
L 3431 531 
L 3431 0 
L 469 0 
L 469 531 
Q 828 903 1448 1529 
Q 2069 2156 2228 2338 
Q 2531 2678 2651 2914 
Q 2772 3150 2772 3378 
Q 2772 3750 2511 3984 
Q 2250 4219 1831 4219 
Q 1534 4219 1204 4116 
Q 875 4013 500 3803 
L 500 4441 
Q 881 4594 1212 4672 
Q 1544 4750 1819 4750 
Q 2544 4750 2975 4387 
Q 3406 4025 3406 3419 
Q 3406 3131 3298 2873 
Q 3191 2616 2906 2266 
Q 2828 2175 2409 1742 
Q 1991 1309 1228 531 
z
" transform="scale(0.015625)"/>
       </defs>
       <use xlink:href="#DejaVuSans-32"/>
       <use xlink:href="#DejaVuSans-30" x="63.623047"/>
      </g>
     </g>
    </g>
    <g id="xtick_3">
     <g id="line2d_5">
      <path d="M 205.006281 307.584 
L 205.006281 41.472 
" clip-path="url(#pe9196763bc)" style="fill: none; stroke: #b0b0b0; stroke-width: 0.8; stroke-linecap: square"/>
     </g>
     <g id="line2d_6">
      <g>
       <use xlink:href="#mac691e20fc" x="205.006281" y="307.584" style="stroke: #000000; stroke-width: 0.8"/>
      </g>
     </g>
     <g id="text_3">
      <!-- 40 -->
      <g transform="translate(198.643781 322.182437) scale(0.1 -0.1)">
       <defs>
        <path id="DejaVuSans-34" d="M 2419 4116 
L 825 1625 
L 2419 1625 
L 2419 4116 
z
M 2253 4666 
L 3047 4666 
L 3047 1625 
L 3713 1625 
L 3713 1100 
L 3047 1100 
L 3047 0 
L 2419 0 
L 2419 1100 
L 313 1100 
L 313 1709 
L 2253 4666 
z
" transform="scale(0.015625)"/>
       </defs>
       <use xlink:href="#DejaVuSans-34"/>
       <use xlink:href="#DejaVuSans-30" x="63.623047"/>
      </g>
     </g>
    </g>
    <g id="xtick_4">
     <g id="line2d_7">
      <path d="M 270.593058 307.584 
L 270.593058 41.472 
" clip-path="url(#pe9196763bc)" style="fill: none; stroke: #b0b0b0; stroke-width: 0.8; stroke-linecap: square"/>
     </g>
     <g id="line2d_8">
      <g>
       <use xlink:href="#mac691e20fc" x="270.593058" y="307.584" style="stroke: #000000; stroke-width: 0.8"/>
      </g>
     </g>
     <g id="text_4">
      <!-- 60 -->
      <g transform="translate(264.230558 322.182437) scale(0.1 -0.1)">
       <defs>
        <path id="DejaVuSans-36" d="M 2113 2584 
Q 1688 2584 1439 2293 
Q 1191 2003 1191 1497 
Q 1191 994 1439 701 
Q 1688 409 2113 409 
Q 2538 409 2786 701 
Q 3034 994 3034 1497 
Q 3034 2003 2786 2293 
Q 2538 2584 2113 2584 
z
M 3366 4563 
L 3366 3988 
Q 3128 4100 2886 4159 
Q 2644 4219 2406 4219 
Q 1781 4219 1451 3797 
Q 1122 3375 1075 2522 
Q 1259 2794 1537 2939 
Q 1816 3084 2150 3084 
Q 2853 3084 3261 2657 
Q 3669 2231 3669 1497 
Q 3669 778 3244 343 
Q 2819 -91 2113 -91 
Q 1303 -91 875 529 
Q 447 1150 447 2328 
Q 447 3434 972 4092 
Q 1497 4750 2381 4750 
Q 2619 4750 2861 4703 
Q 3103 4656 3366 4563 
z
" transform="scale(0.015625)"/>
       </defs>
       <use xlink:href="#DejaVuSans-36"/>
       <use xlink:href="#DejaVuSans-30" x="63.623047"/>
      </g>
     </g>
    </g>
    <g id="xtick_5">
     <g id="line2d_9">
      <path d="M 336.179835 307.584 
L 336.179835 41.472 
" clip-path="url(#pe9196763bc)" style="fill: none; stroke: #b0b0b0; stroke-width: 0.8; stroke-linecap: square"/>
     </g>
     <g id="line2d_10">
      <g>
       <use xlink:href="#mac691e20fc" x="336.179835" y="307.584" style="stroke: #000000; stroke-width: 0.8"/>
      </g>
     </g>
     <g id="text_5">
      <!-- 80 -->
      <g transform="translate(329.817335 322.182437) scale(0.1 -0.1)">
       <defs>
        <path id="DejaVuSans-38" d="M 2034 2216 
Q 1584 2216 1326 1975 
Q 1069 1734 1069 1313 
Q 1069 891 1326 650 
Q 1584 409 2034 409 
Q 2484 409 2743 651 
Q 3003 894 3003 1313 
Q 3003 1734 2745 1975 
Q 2488 2216 2034 2216 
z
M 1403 2484 
Q 997 2584 770 2862 
Q 544 3141 544 3541 
Q 544 4100 942 4425 
Q 1341 4750 2034 4750 
Q 2731 4750 3128 4425 
Q 3525 4100 3525 3541 
Q 3525 3141 3298 2862 
Q 3072 2584 2669 2484 
Q 3125 2378 3379 2068 
Q 3634 1759 3634 1313 
Q 3634 634 3220 271 
Q 2806 -91 2034 -91 
Q 1263 -91 848 271 
Q 434 634 434 1313 
Q 434 1759 690 2068 
Q 947 2378 1403 2484 
z
M 1172 3481 
Q 1172 3119 1398 2916 
Q 1625 2713 2034 2713 
Q 2441 2713 2670 2916 
Q 2900 3119 2900 3481 
Q 2900 3844 2670 4047 
Q 2441 4250 2034 4250 
Q 1625 4250 1398 4047 
Q 1172 3844 1172 3481 
z
" transform="scale(0.015625)"/>
       </defs>
       <use xlink:href="#DejaVuSans-38"/>
       <use xlink:href="#DejaVuSans-30" x="63.623047"/>
      </g>
     </g>
    </g>
    <g id="xtick_6">
     <g id="line2d_11">
      <path d="M 401.766612 307.584 
L 401.766612 41.472 
" clip-path="url(#pe9196763bc)" style="fill: none; stroke: #b0b0b0; stroke-width: 0.8; stroke-linecap: square"/>
     </g>
     <g id="line2d_12">
      <g>
       <use xlink:href="#mac691e20fc" x="401.766612" y="307.584" style="stroke: #000000; stroke-width: 0.8"/>
      </g>
     </g>
     <g id="text_6">
      <!-- 100 -->
      <g transform="translate(392.222862 322.182437) scale(0.1 -0.1)">
       <defs>
        <path id="DejaVuSans-31" d="M 794 531 
L 1825 531 
L 1825 4091 
L 703 3866 
L 703 4441 
L 1819 4666 
L 2450 4666 
L 2450 531 
L 3481 531 
L 3481 0 
L 794 0 
L 794 531 
z
" transform="scale(0.015625)"/>
       </defs>
       <use xlink:href="#DejaVuSans-31"/>
       <use xlink:href="#DejaVuSans-30" x="63.623047"/>
       <use xlink:href="#DejaVuSans-30" x="127.246094"/>
      </g>
     </g>
    </g>
    <g id="text_7">
     <!-- T -->
     <g transform="translate(233.106094 335.860562) scale(0.1 -0.1)">
      <defs>
       <path id="DejaVuSans-54" d="M -19 4666 
L 3928 4666 
L 3928 4134 
L 2272 4134 
L 2272 0 
L 1638 0 
L 1638 4134 
L -19 4134 
L -19 4666 
z
" transform="scale(0.015625)"/>
      </defs>
      <use xlink:href="#DejaVuSans-54"/>
     </g>
    </g>
   </g>
   <g id="matplotlib.axis_2">
    <g id="ytick_1">
     <g id="line2d_13">
      <path d="M 57.6 293.922791 
L 414.72 293.922791 
" clip-path="url(#pe9196763bc)" style="fill: none; stroke: #b0b0b0; stroke-width: 0.8; stroke-linecap: square"/>
     </g>
     <g id="line2d_14">
      <defs>
       <path id="mafcecdea69" d="M 0 0 
L -3.5 0 
" style="stroke: #000000; stroke-width: 0.8"/>
      </defs>
      <g>
       <use xlink:href="#mafcecdea69" x="57.6" y="293.922791" style="stroke: #000000; stroke-width: 0.8"/>
      </g>
     </g>
     <g id="text_8">
      <!-- −2 -->
      <g transform="translate(35.857813 297.72201) scale(0.1 -0.1)">
       <defs>
        <path id="DejaVuSans-2212" d="M 678 2272 
L 4684 2272 
L 4684 1741 
L 678 1741 
L 678 2272 
z
" transform="scale(0.015625)"/>
       </defs>
       <use xlink:href="#DejaVuSans-2212"/>
       <use xlink:href="#DejaVuSans-32" x="83.789062"/>
      </g>
     </g>
    </g>
    <g id="ytick_2">
     <g id="line2d_15">
      <path d="M 57.6 250.22192 
L 414.72 250.22192 
" clip-path="url(#pe9196763bc)" style="fill: none; stroke: #b0b0b0; stroke-width: 0.8; stroke-linecap: square"/>
     </g>
     <g id="line2d_16">
      <g>
       <use xlink:href="#mafcecdea69" x="57.6" y="250.22192" style="stroke: #000000; stroke-width: 0.8"/>
      </g>
     </g>
     <g id="text_9">
      <!-- 0 -->
      <g transform="translate(44.2375 254.021139) scale(0.1 -0.1)">
       <use xlink:href="#DejaVuSans-30"/>
      </g>
     </g>
    </g>
    <g id="ytick_3">
     <g id="line2d_17">
      <path d="M 57.6 206.521049 
L 414.72 206.521049 
" clip-path="url(#pe9196763bc)" style="fill: none; stroke: #b0b0b0; stroke-width: 0.8; stroke-linecap: square"/>
     </g>
     <g id="line2d_18">
      <g>
       <use xlink:href="#mafcecdea69" x="57.6" y="206.521049" style="stroke: #000000; stroke-width: 0.8"/>
      </g>
     </g>
     <g id="text_10">
      <!-- 2 -->
      <g transform="translate(44.2375 210.320268) scale(0.1 -0.1)">
       <use xlink:href="#DejaVuSans-32"/>
      </g>
     </g>
    </g>
    <g id="ytick_4">
     <g id="line2d_19">
      <path d="M 57.6 162.820178 
L 414.72 162.820178 
" clip-path="url(#pe9196763bc)" style="fill: none; stroke: #b0b0b0; stroke-width: 0.8; stroke-linecap: square"/>
     </g>
     <g id="line2d_20">
      <g>
       <use xlink:href="#mafcecdea69" x="57.6" y="162.820178" style="stroke: #000000; stroke-width: 0.8"/>
      </g>
     </g>
     <g id="text_11">
      <!-- 4 -->
      <g transform="translate(44.2375 166.619397) scale(0.1 -0.1)">
       <use xlink:href="#DejaVuSans-34"/>
      </g>
     </g>
    </g>
    <g id="ytick_5">
     <g id="line2d_21">
      <path d="M 57.6 119.119307 
L 414.72 119.119307 
" clip-path="url(#pe9196763bc)" style="fill: none; stroke: #b0b0b0; stroke-width: 0.8; stroke-linecap: square"/>
     </g>
     <g id="line2d_22">
      <g>
       <use xlink:href="#mafcecdea69" x="57.6" y="119.119307" style="stroke: #000000; stroke-width: 0.8"/>
      </g>
     </g>
     <g id="text_12">
      <!-- 6 -->
      <g transform="translate(44.2375 122.918525) scale(0.1 -0.1)">
       <use xlink:href="#DejaVuSans-36"/>
      </g>
     </g>
    </g>
    <g id="ytick_6">
     <g id="line2d_23">
      <path d="M 57.6 75.418436 
L 414.72 75.418436 
" clip-path="url(#pe9196763bc)" style="fill: none; stroke: #b0b0b0; stroke-width: 0.8; stroke-linecap: square"/>
     </g>
     <g id="line2d_24">
      <g>
       <use xlink:href="#mafcecdea69" x="57.6" y="75.418436" style="stroke: #000000; stroke-width: 0.8"/>
      </g>
     </g>
     <g id="text_13">
      <!-- 8 -->
      <g transform="translate(44.2375 79.217654) scale(0.1 -0.1)">
       <use xlink:href="#DejaVuSans-38"/>
      </g>
     </g>
    </g>
    <g id="text_14">
     <!-- X -->
     <g transform="translate(29.778125 177.953) rotate(-90) scale(0.1 -0.1)">
      <defs>
       <path id="DejaVuSans-58" d="M 403 4666 
L 1081 4666 
L 2241 2931 
L 3406 4666 
L 4084 4666 
L 2584 2425 
L 4184 0 
L 3506 0 
L 2194 1984 
L 872 0 
L 191 0 
L 1856 2491 
L 403 4666 
z
" transform="scale(0.015625)"/>
      </defs>
      <use xlink:href="#DejaVuSans-58"/>
     </g>
    </g>
   </g>
   <g id="line2d_25">
    <path d="M 73.832727 97.268871 
L 77.112066 108.326954 
L 80.391405 108.617781 
L 83.670744 133.421495 
L 86.950083 164.847705 
L 90.229421 179.521575 
L 93.50876 206.007406 
L 96.788099 219.197305 
L 100.067438 226.889189 
L 103.346777 221.36372 
L 106.626116 218.533689 
L 109.905455 211.787432 
L 113.184793 210.86542 
L 116.464132 213.324903 
L 119.743471 217.195007 
L 123.02281 216.627187 
L 126.302149 222.112933 
L 129.581488 224.811458 
L 132.860826 219.482917 
L 136.140165 220.960544 
L 139.419504 226.457795 
L 142.698843 230.371784 
L 145.978182 238.195051 
L 149.257521 229.86431 
L 152.53686 236.332494 
L 155.816198 234.862239 
L 159.095537 243.182569 
L 162.374876 238.896518 
L 165.654215 236.716807 
L 168.933554 231.799516 
L 172.212893 237.90268 
L 175.492231 243.642881 
L 178.77157 241.164707 
L 182.050909 238.068723 
L 185.330248 245.600433 
L 188.609587 237.790079 
L 191.888926 230.328769 
L 195.168264 238.374886 
L 198.447603 243.999064 
L 201.726942 243.451616 
L 205.006281 245.38517 
L 208.28562 237.1116 
L 211.564959 229.659155 
L 214.844298 223.824737 
L 218.123636 228.029086 
L 221.402975 230.97128 
L 224.682314 223.012719 
L 227.961653 226.724992 
L 231.240992 220.22506 
L 234.520331 224.153341 
L 237.799669 220.904149 
L 241.079008 214.212002 
L 244.358347 207.943574 
L 247.637686 211.74206 
L 250.917025 206.804618 
L 254.196364 214.931626 
L 257.475702 214.959458 
L 260.755041 211.757375 
L 264.03438 217.294207 
L 267.313719 224.152383 
L 270.593058 237.073634 
L 273.872397 233.063901 
L 277.151736 225.575344 
L 280.431074 227.035303 
L 283.710413 222.10751 
L 286.989752 226.55163 
L 290.269091 234.852705 
L 293.54843 244.610712 
L 296.827769 255.281783 
L 300.107107 245.573069 
L 303.386446 255.908218 
L 306.665785 246.552623 
L 309.945124 239.016227 
L 313.224463 238.93558 
L 316.503802 247.217715 
L 319.78314 252.413104 
L 323.062479 248.736646 
L 326.341818 249.096854 
L 329.621157 240.754885 
L 332.900496 234.953064 
L 336.179835 225.701096 
L 339.459174 227.196127 
L 342.738512 222.938442 
L 346.017851 228.939618 
L 349.29719 238.301581 
L 352.576529 239.402193 
L 355.855868 246.23331 
L 359.135207 250.278279 
L 362.414545 254.470795 
L 365.693884 242.38645 
L 368.973223 245.420563 
L 372.252562 245.554899 
L 375.531901 255.693677 
L 378.81124 261.174975 
L 382.090579 260.030593 
L 385.369917 268.87848 
L 388.649256 268.026491 
L 391.928595 257.423863 
L 395.207934 255.885779 
L 398.487273 257.709781 
" clip-path="url(#pe9196763bc)" style="fill: none; stroke: #000000; stroke-width: 1.5; stroke-linecap: square"/>
   </g>
   <g id="line2d_26">
    <path d="M 73.832727 97.268871 
L 77.112066 108.326954 
L 80.391405 108.072508 
L 83.670744 128.968695 
L 86.950083 159.727897 
L 90.229421 174.86888 
L 93.50876 201.460171 
L 96.788099 212.589808 
L 100.067438 217.737093 
L 103.346777 212.34176 
L 106.626116 213.974718 
L 109.905455 210.898218 
L 113.184793 212.282806 
L 116.464132 216.684024 
L 119.743471 220.260128 
L 123.02281 219.249745 
L 126.302149 224.975692 
L 129.581488 226.95715 
L 132.860826 221.453153 
L 136.140165 222.129897 
L 139.419504 227.679179 
L 142.698843 231.524349 
L 145.978182 239.889077 
L 149.257521 232.166447 
L 152.53686 239.046714 
L 155.816198 237.90298 
L 159.095537 245.48556 
L 162.374876 240.524785 
L 165.654215 236.937556 
L 168.933554 230.69437 
L 172.212893 235.711454 
L 175.492231 240.822875 
L 178.77157 237.579625 
L 182.050909 233.778391 
L 185.330248 240.709123 
L 188.609587 231.326854 
L 191.888926 222.767033 
L 195.168264 230.425805 
L 198.447603 235.841333 
L 201.726942 235.990931 
L 205.006281 239.580958 
L 208.28562 232.834278 
L 211.564959 226.609122 
L 214.844298 221.355973 
L 218.123636 225.801819 
L 221.402975 229.04439 
L 224.682314 221.567696 
L 227.961653 225.839244 
L 231.240992 219.742675 
L 234.520331 223.797918 
L 237.799669 220.586331 
L 241.079008 213.829188 
L 244.358347 207.419275 
L 247.637686 210.857822 
L 250.917025 205.375945 
L 254.196364 212.701517 
L 257.475702 211.739619 
L 260.755041 207.72169 
L 264.03438 212.253342 
L 267.313719 219.118359 
L 270.593058 232.36782 
L 273.872397 228.705276 
L 277.151736 222.24178 
L 280.431074 223.953124 
L 283.710413 219.6608 
L 286.989752 225.005948 
L 290.269091 234.356754 
L 293.54843 244.746557 
L 296.827769 255.800792 
L 300.107107 245.714693 
L 303.386446 256.017768 
L 306.665785 247.202205 
L 309.945124 239.554046 
L 313.224463 238.648291 
L 316.503802 245.818323 
L 319.78314 249.881915 
L 323.062479 244.935596 
L 326.341818 243.783528 
L 329.621157 234.556575 
L 332.900496 228.010527 
L 336.179835 217.407698 
L 339.459174 217.437596 
L 342.738512 212.441888 
L 346.017851 218.521105 
L 349.29719 227.63074 
L 352.576529 228.732546 
L 355.855868 236.018661 
L 359.135207 240.074902 
L 362.414545 244.53192 
L 365.693884 233.047649 
L 368.973223 236.948156 
L 372.252562 238.111595 
L 375.531901 249.354139 
L 378.81124 255.535097 
L 382.090579 254.303504 
L 385.369917 262.687947 
L 388.649256 261.655259 
L 391.928595 250.624461 
L 395.207934 248.809584 
L 398.487273 250.304876 
" clip-path="url(#pe9196763bc)" style="fill: none; stroke: #ff0000; stroke-width: 1.5; stroke-linecap: square"/>
   </g>
   <g id="line2d_27">
    <path d="M 73.832727 53.568 
L 77.112066 83.248132 
L 80.391405 117.305902 
L 83.670744 138.590046 
L 86.950083 142.913365 
L 90.229421 154.068408 
L 93.50876 164.996229 
L 96.788099 182.651567 
L 100.067438 193.09978 
L 103.346777 206.26792 
L 106.626116 218.475071 
L 109.905455 226.694479 
L 113.184793 226.463069 
L 116.464132 243.741184 
L 119.743471 247.519633 
L 123.02281 240.577433 
L 126.302149 252.019831 
L 129.581488 246.332016 
L 132.860826 253.707504 
L 136.140165 244.389253 
L 139.419504 245.519815 
L 142.698843 238.917672 
L 145.978182 237.538886 
L 149.257521 239.052938 
L 152.53686 239.442883 
L 155.816198 251.454039 
L 159.095537 251.728787 
L 162.374876 260.622736 
L 165.654215 267.308304 
L 168.933554 274.984765 
L 172.212893 282.010184 
L 175.492231 280.129058 
L 178.77157 280.790195 
L 182.050909 281.33771 
L 185.330248 269.493091 
L 188.609587 255.861936 
L 191.888926 251.163974 
L 195.168264 252.557496 
L 198.447603 246.426998 
L 201.726942 235.600932 
L 205.006281 233.339531 
L 208.28562 230.630002 
L 211.564959 240.848128 
L 214.844298 252.72341 
L 218.123636 257.056419 
L 221.402975 267.111084 
L 224.682314 269.456891 
L 227.961653 268.464127 
L 231.240992 257.367069 
L 234.520331 251.98657 
L 237.799669 240.776371 
L 241.079008 232.265671 
L 244.358347 235.66909 
L 247.637686 240.144473 
L 250.917025 238.945133 
L 254.196364 237.873278 
L 257.475702 244.173351 
L 260.755041 242.492289 
L 264.03438 252.75641 
L 267.313719 255.62919 
L 270.593058 255.712108 
L 273.872397 262.956166 
L 277.151736 255.88448 
L 280.431074 259.922528 
L 283.710413 264.331004 
L 286.989752 268.714019 
L 290.269091 264.072881 
L 293.54843 261.317616 
L 296.827769 248.859106 
L 300.107107 254.346248 
L 303.386446 263.399967 
L 306.665785 255.081287 
L 309.945124 244.454037 
L 313.224463 236.690544 
L 316.503802 238.823458 
L 319.78314 240.39893 
L 323.062479 238.535822 
L 326.341818 248.623776 
L 329.621157 251.110005 
L 332.900496 244.930602 
L 336.179835 234.790837 
L 339.459174 226.556886 
L 342.738512 220.877782 
L 346.017851 223.957849 
L 349.29719 222.441688 
L 352.576529 217.876903 
L 355.855868 230.650068 
L 359.135207 227.265744 
L 362.414545 235.529316 
L 365.693884 242.873498 
L 368.973223 235.226089 
L 372.252562 240.212699 
L 375.531901 246.822719 
L 378.81124 254.598866 
L 382.090579 264.772857 
L 385.369917 261.252274 
L 388.649256 267.998945 
L 391.928595 277.522509 
L 395.207934 266.358845 
L 398.487273 254.658168 
" clip-path="url(#pe9196763bc)" style="fill: none; stroke-dasharray: 5.55,2.4; stroke-dashoffset: 0; stroke: #000000; stroke-width: 1.5"/>
   </g>
   <g id="line2d_28">
    <path d="M 73.832727 53.568 
L 77.112066 79.985041 
L 80.391405 110.964953 
L 83.670744 133.08677 
L 86.950083 141.768551 
L 90.229421 155.666881 
L 93.50876 171.978902 
L 96.788099 196.212469 
L 100.067438 216.728004 
L 103.346777 241.71676 
L 106.626116 247.700429 
L 109.905455 250.428242 
L 113.184793 245.179728 
L 116.464132 258.231238 
L 119.743471 258.006041 
L 123.02281 250.409855 
L 126.302149 261.215279 
L 129.581488 255.332804 
L 132.860826 263.356121 
L 136.140165 254.515208 
L 139.419504 255.971596 
L 142.698843 249.91748 
L 145.978182 248.589068 
L 149.257521 249.859963 
L 152.53686 249.486213 
L 155.816198 261.223552 
L 159.095537 261.358194 
L 162.374876 271.64613 
L 165.654215 277.02512 
L 168.933554 284.270039 
L 172.212893 291.535152 
L 175.492231 290.799108 
L 178.77157 293.214734 
L 182.050909 295.488 
L 185.330248 285.386375 
L 188.609587 273.17696 
L 191.888926 267.92524 
L 195.168264 266.830257 
L 198.447603 258.423552 
L 201.726942 246.085824 
L 205.006281 242.188517 
L 208.28562 236.946201 
L 211.564959 244.553344 
L 214.844298 253.093082 
L 218.123636 255.276357 
L 221.402975 264.569491 
L 224.682314 266.083935 
L 227.961653 265.847947 
L 231.240992 255.682338 
L 234.520331 251.292585 
L 237.799669 239.731917 
L 241.079008 230.926529 
L 244.358347 232.405057 
L 247.637686 234.420549 
L 250.917025 231.144115 
L 254.196364 228.376103 
L 257.475702 232.94997 
L 260.755041 230.059507 
L 264.03438 240.571377 
L 267.313719 243.700306 
L 270.593058 244.46175 
L 273.872397 251.912074 
L 277.151736 245.053981 
L 280.431074 250.519625 
L 283.710413 255.331714 
L 286.989752 260.15157 
L 290.269091 256.472925 
L 293.54843 254.456799 
L 296.827769 242.405078 
L 300.107107 247.689604 
L 303.386446 255.597943 
L 306.665785 246.358181 
L 309.945124 236.031766 
L 313.224463 227.946996 
L 316.503802 228.669921 
L 319.78314 227.960812 
L 323.062479 223.944804 
L 326.341818 232.322616 
L 329.621157 232.97021 
L 332.900496 226.639909 
L 336.179835 217.008865 
L 339.459174 208.696218 
L 342.738512 205.908455 
L 346.017851 210.714085 
L 349.29719 211.325475 
L 352.576529 208.897519 
L 355.855868 223.289689 
L 359.135207 221.640532 
L 362.414545 232.418682 
L 365.693884 241.994627 
L 368.973223 236.768418 
L 372.252562 244.992684 
L 375.531901 253.696857 
L 378.81124 264.049617 
L 382.090579 272.990665 
L 385.369917 268.661506 
L 388.649256 275.911235 
L 391.928595 285.317264 
L 395.207934 274.279333 
L 398.487273 263.805078 
" clip-path="url(#pe9196763bc)" style="fill: none; stroke-dasharray: 5.55,2.4; stroke-dashoffset: 0; stroke: #ff0000; stroke-width: 1.5"/>
   </g>
   <g id="patch_3">
    <path d="M 57.6 307.584 
L 57.6 41.472 
" style="fill: none; stroke: #000000; stroke-width: 0.8; stroke-linejoin: miter; stroke-linecap: square"/>
   </g>
   <g id="patch_4">
    <path d="M 414.72 307.584 
L 414.72 41.472 
" style="fill: none; stroke: #000000; stroke-width: 0.8; stroke-linejoin: miter; stroke-linecap: square"/>
   </g>
   <g id="patch_5">
    <path d="M 57.6 307.584 
L 414.72 307.584 
" style="fill: none; stroke: #000000; stroke-width: 0.8; stroke-linejoin: miter; stroke-linecap: square"/>
   </g>
   <g id="patch_6">
    <path d="M 57.6 41.472 
L 414.72 41.472 
" style="fill: none; stroke: #000000; stroke-width: 0.8; stroke-linejoin: miter; stroke-linecap: square"/>
   </g>
   <g id="legend_1">
    <g id="patch_7">
     <path d="M 392.72 67.472 
L 400.72 67.472 
Q 404.72 67.472 404.72 63.472 
L 404.72 55.472 
Q 404.72 51.472 400.72 51.472 
L 392.72 51.472 
Q 388.72 51.472 388.72 55.472 
L 388.72 63.472 
Q 388.72 67.472 392.72 67.472 
z
" style="fill: #ffffff; opacity: 0.8; stroke: #cccccc; stroke-linejoin: miter"/>
    </g>
   </g>
  </g>
 </g>
 <defs>
  <clipPath id="pe9196763bc">
   <rect x="57.6" y="41.472" width="357.12" height="266.112"/>
  </clipPath>
 </defs>
</svg>
