<?xml version="1.0" encoding="utf-8" standalone="no"?>
<!DOCTYPE svg PUBLIC "-//W3C//DTD SVG 1.1//EN"
  "http://www.w3.org/Graphics/SVG/1.1/DTD/svg11.dtd">
<svg xmlns:xlink="http://www.w3.org/1999/xlink" width="460.8pt" height="345.6pt" viewBox="0 0 460.8 345.6" xmlns="http://www.w3.org/2000/svg" version="1.1">
 <metadata>
  <rdf:RDF xmlns:dc="http://purl.org/dc/elements/1.1/" xmlns:cc="http://creativecommons.org/ns#" xmlns:rdf="http://www.w3.org/1999/02/22-rdf-syntax-ns#">
   <cc:Work>
    <dc:type rdf:resource="http://purl.org/dc/dcmitype/StillImage"/>
    <dc:date>2024-05-30T11:57:40.755227</dc:date>
    <dc:format>image/svg+xml</dc:format>
    <dc:creator>
     <cc:Agent>
      <dc:title>Matplotlib v3.7.1, https://matplotlib.org/</dc:title>
     </cc:Agent>
    </dc:creator>
   </cc:Work>
  </rdf:RDF>
 </metadata>
 <defs>
  <style type="text/css">*{stroke-linejoin: round; stroke-linecap: butt}</style>
 </defs>
 <g id="figure_1">
  <g id="patch_1">
   <path d="M 0 345.6 
L 460.8 345.6 
L 460.8 0 
L 0 0 
z
" style="fill: #ffffff"/>
  </g>
  <g id="axes_1">
   <g id="patch_2">
    <path d="M 57.6 307.584 
L 414.72 307.584 
L 414.72 41.472 
L 57.6 41.472 
z
" style="fill: #ffffff"/>
   </g>
   <g id="matplotlib.axis_1">
    <g id="xtick_1">
     <g id="line2d_1">
      <path d="M 73.832727 307.584 
L 73.832727 41.472 
" clip-path="url(#p6067901458)" style="fill: none; stroke: #b0b0b0; stroke-width: 0.8; stroke-linecap: square"/>
     </g>
     <g id="line2d_2">
      <defs>
       <path id="m583c56a824" d="M 0 0 
L 0 3.5 
" style="stroke: #000000; stroke-width: 0.8"/>
      </defs>
      <g>
       <use xlink:href="#m583c56a824" x="73.832727" y="307.584" style="stroke: #000000; stroke-width: 0.8"/>
      </g>
     </g>
     <g id="text_1">
      <!-- 0 -->
      <g transform="translate(70.651477 322.182437) scale(0.1 -0.1)">
       <defs>
        <path id="DejaVuSans-30" d="M 2034 4250 
Q 1547 4250 1301 3770 
Q 1056 3291 1056 2328 
Q 1056 1369 1301 889 
Q 1547 409 2034 409 
Q 2525 409 2770 889 
Q 3016 1369 3016 2328 
Q 3016 3291 2770 3770 
Q 2525 4250 2034 4250 
z
M 2034 4750 
Q 2819 4750 3233 4129 
Q 3647 3509 3647 2328 
Q 3647 1150 3233 529 
Q 2819 -91 2034 -91 
Q 1250 -91 836 529 
Q 422 1150 422 2328 
Q 422 3509 836 4129 
Q 1250 4750 2034 4750 
z
" transform="scale(0.015625)"/>
       </defs>
       <use xlink:href="#DejaVuSans-30"/>
      </g>
     </g>
    </g>
    <g id="xtick_2">
     <g id="line2d_3">
      <path d="M 139.419504 307.584 
L 139.419504 41.472 
" clip-path="url(#p6067901458)" style="fill: none; stroke: #b0b0b0; stroke-width: 0.8; stroke-linecap: square"/>
     </g>
     <g id="line2d_4">
      <g>
       <use xlink:href="#m583c56a824" x="139.419504" y="307.584" style="stroke: #000000; stroke-width: 0.8"/>
      </g>
     </g>
     <g id="text_2">
      <!-- 20 -->
      <g transform="translate(133.057004 322.182437) scale(0.1 -0.1)">
       <defs>
        <path id="DejaVuSans-32" d="M 1228 531 
L 3431 531 
L 3431 0 
L 469 0 
L 469 531 
Q 828 903 1448 1529 
Q 2069 2156 2228 2338 
Q 2531 2678 2651 2914 
Q 2772 3150 2772 3378 
Q 2772 3750 2511 3984 
Q 2250 4219 1831 4219 
Q 1534 4219 1204 4116 
Q 875 4013 500 3803 
L 500 4441 
Q 881 4594 1212 4672 
Q 1544 4750 1819 4750 
Q 2544 4750 2975 4387 
Q 3406 4025 3406 3419 
Q 3406 3131 3298 2873 
Q 3191 2616 2906 2266 
Q 2828 2175 2409 1742 
Q 1991 1309 1228 531 
z
" transform="scale(0.015625)"/>
       </defs>
       <use xlink:href="#DejaVuSans-32"/>
       <use xlink:href="#DejaVuSans-30" x="63.623047"/>
      </g>
     </g>
    </g>
    <g id="xtick_3">
     <g id="line2d_5">
      <path d="M 205.006281 307.584 
L 205.006281 41.472 
" clip-path="url(#p6067901458)" style="fill: none; stroke: #b0b0b0; stroke-width: 0.8; stroke-linecap: square"/>
     </g>
     <g id="line2d_6">
      <g>
       <use xlink:href="#m583c56a824" x="205.006281" y="307.584" style="stroke: #000000; stroke-width: 0.8"/>
      </g>
     </g>
     <g id="text_3">
      <!-- 40 -->
      <g transform="translate(198.643781 322.182437) scale(0.1 -0.1)">
       <defs>
        <path id="DejaVuSans-34" d="M 2419 4116 
L 825 1625 
L 2419 1625 
L 2419 4116 
z
M 2253 4666 
L 3047 4666 
L 3047 1625 
L 3713 1625 
L 3713 1100 
L 3047 1100 
L 3047 0 
L 2419 0 
L 2419 1100 
L 313 1100 
L 313 1709 
L 2253 4666 
z
" transform="scale(0.015625)"/>
       </defs>
       <use xlink:href="#DejaVuSans-34"/>
       <use xlink:href="#DejaVuSans-30" x="63.623047"/>
      </g>
     </g>
    </g>
    <g id="xtick_4">
     <g id="line2d_7">
      <path d="M 270.593058 307.584 
L 270.593058 41.472 
" clip-path="url(#p6067901458)" style="fill: none; stroke: #b0b0b0; stroke-width: 0.8; stroke-linecap: square"/>
     </g>
     <g id="line2d_8">
      <g>
       <use xlink:href="#m583c56a824" x="270.593058" y="307.584" style="stroke: #000000; stroke-width: 0.8"/>
      </g>
     </g>
     <g id="text_4">
      <!-- 60 -->
      <g transform="translate(264.230558 322.182437) scale(0.1 -0.1)">
       <defs>
        <path id="DejaVuSans-36" d="M 2113 2584 
Q 1688 2584 1439 2293 
Q 1191 2003 1191 1497 
Q 1191 994 1439 701 
Q 1688 409 2113 409 
Q 2538 409 2786 701 
Q 3034 994 3034 1497 
Q 3034 2003 2786 2293 
Q 2538 2584 2113 2584 
z
M 3366 4563 
L 3366 3988 
Q 3128 4100 2886 4159 
Q 2644 4219 2406 4219 
Q 1781 4219 1451 3797 
Q 1122 3375 1075 2522 
Q 1259 2794 1537 2939 
Q 1816 3084 2150 3084 
Q 2853 3084 3261 2657 
Q 3669 2231 3669 1497 
Q 3669 778 3244 343 
Q 2819 -91 2113 -91 
Q 1303 -91 875 529 
Q 447 1150 447 2328 
Q 447 3434 972 4092 
Q 1497 4750 2381 4750 
Q 2619 4750 2861 4703 
Q 3103 4656 3366 4563 
z
" transform="scale(0.015625)"/>
       </defs>
       <use xlink:href="#DejaVuSans-36"/>
       <use xlink:href="#DejaVuSans-30" x="63.623047"/>
      </g>
     </g>
    </g>
    <g id="xtick_5">
     <g id="line2d_9">
      <path d="M 336.179835 307.584 
L 336.179835 41.472 
" clip-path="url(#p6067901458)" style="fill: none; stroke: #b0b0b0; stroke-width: 0.8; stroke-linecap: square"/>
     </g>
     <g id="line2d_10">
      <g>
       <use xlink:href="#m583c56a824" x="336.179835" y="307.584" style="stroke: #000000; stroke-width: 0.8"/>
      </g>
     </g>
     <g id="text_5">
      <!-- 80 -->
      <g transform="translate(329.817335 322.182437) scale(0.1 -0.1)">
       <defs>
        <path id="DejaVuSans-38" d="M 2034 2216 
Q 1584 2216 1326 1975 
Q 1069 1734 1069 1313 
Q 1069 891 1326 650 
Q 1584 409 2034 409 
Q 2484 409 2743 651 
Q 3003 894 3003 1313 
Q 3003 1734 2745 1975 
Q 2488 2216 2034 2216 
z
M 1403 2484 
Q 997 2584 770 2862 
Q 544 3141 544 3541 
Q 544 4100 942 4425 
Q 1341 4750 2034 4750 
Q 2731 4750 3128 4425 
Q 3525 4100 3525 3541 
Q 3525 3141 3298 2862 
Q 3072 2584 2669 2484 
Q 3125 2378 3379 2068 
Q 3634 1759 3634 1313 
Q 3634 634 3220 271 
Q 2806 -91 2034 -91 
Q 1263 -91 848 271 
Q 434 634 434 1313 
Q 434 1759 690 2068 
Q 947 2378 1403 2484 
z
M 1172 3481 
Q 1172 3119 1398 2916 
Q 1625 2713 2034 2713 
Q 2441 2713 2670 2916 
Q 2900 3119 2900 3481 
Q 2900 3844 2670 4047 
Q 2441 4250 2034 4250 
Q 1625 4250 1398 4047 
Q 1172 3844 1172 3481 
z
" transform="scale(0.015625)"/>
       </defs>
       <use xlink:href="#DejaVuSans-38"/>
       <use xlink:href="#DejaVuSans-30" x="63.623047"/>
      </g>
     </g>
    </g>
    <g id="xtick_6">
     <g id="line2d_11">
      <path d="M 401.766612 307.584 
L 401.766612 41.472 
" clip-path="url(#p6067901458)" style="fill: none; stroke: #b0b0b0; stroke-width: 0.8; stroke-linecap: square"/>
     </g>
     <g id="line2d_12">
      <g>
       <use xlink:href="#m583c56a824" x="401.766612" y="307.584" style="stroke: #000000; stroke-width: 0.8"/>
      </g>
     </g>
     <g id="text_6">
      <!-- 100 -->
      <g transform="translate(392.222862 322.182437) scale(0.1 -0.1)">
       <defs>
        <path id="DejaVuSans-31" d="M 794 531 
L 1825 531 
L 1825 4091 
L 703 3866 
L 703 4441 
L 1819 4666 
L 2450 4666 
L 2450 531 
L 3481 531 
L 3481 0 
L 794 0 
L 794 531 
z
" transform="scale(0.015625)"/>
       </defs>
       <use xlink:href="#DejaVuSans-31"/>
       <use xlink:href="#DejaVuSans-30" x="63.623047"/>
       <use xlink:href="#DejaVuSans-30" x="127.246094"/>
      </g>
     </g>
    </g>
    <g id="text_7">
     <!-- T -->
     <g transform="translate(233.106094 335.860562) scale(0.1 -0.1)">
      <defs>
       <path id="DejaVuSans-54" d="M -19 4666 
L 3928 4666 
L 3928 4134 
L 2272 4134 
L 2272 0 
L 1638 0 
L 1638 4134 
L -19 4134 
L -19 4666 
z
" transform="scale(0.015625)"/>
      </defs>
      <use xlink:href="#DejaVuSans-54"/>
     </g>
    </g>
   </g>
   <g id="matplotlib.axis_2">
    <g id="ytick_1">
     <g id="line2d_13">
      <path d="M 57.6 289.782644 
L 414.72 289.782644 
" clip-path="url(#p6067901458)" style="fill: none; stroke: #b0b0b0; stroke-width: 0.8; stroke-linecap: square"/>
     </g>
     <g id="line2d_14">
      <defs>
       <path id="m2c4a8dd6fb" d="M 0 0 
L -3.5 0 
" style="stroke: #000000; stroke-width: 0.8"/>
      </defs>
      <g>
       <use xlink:href="#m2c4a8dd6fb" x="57.6" y="289.782644" style="stroke: #000000; stroke-width: 0.8"/>
      </g>
     </g>
     <g id="text_8">
      <!-- −2 -->
      <g transform="translate(35.857813 293.581863) scale(0.1 -0.1)">
       <defs>
        <path id="DejaVuSans-2212" d="M 678 2272 
L 4684 2272 
L 4684 1741 
L 678 1741 
L 678 2272 
z
" transform="scale(0.015625)"/>
       </defs>
       <use xlink:href="#DejaVuSans-2212"/>
       <use xlink:href="#DejaVuSans-32" x="83.789062"/>
      </g>
     </g>
    </g>
    <g id="ytick_2">
     <g id="line2d_15">
      <path d="M 57.6 246.834527 
L 414.72 246.834527 
" clip-path="url(#p6067901458)" style="fill: none; stroke: #b0b0b0; stroke-width: 0.8; stroke-linecap: square"/>
     </g>
     <g id="line2d_16">
      <g>
       <use xlink:href="#m2c4a8dd6fb" x="57.6" y="246.834527" style="stroke: #000000; stroke-width: 0.8"/>
      </g>
     </g>
     <g id="text_9">
      <!-- 0 -->
      <g transform="translate(44.2375 250.633746) scale(0.1 -0.1)">
       <use xlink:href="#DejaVuSans-30"/>
      </g>
     </g>
    </g>
    <g id="ytick_3">
     <g id="line2d_17">
      <path d="M 57.6 203.88641 
L 414.72 203.88641 
" clip-path="url(#p6067901458)" style="fill: none; stroke: #b0b0b0; stroke-width: 0.8; stroke-linecap: square"/>
     </g>
     <g id="line2d_18">
      <g>
       <use xlink:href="#m2c4a8dd6fb" x="57.6" y="203.88641" style="stroke: #000000; stroke-width: 0.8"/>
      </g>
     </g>
     <g id="text_10">
      <!-- 2 -->
      <g transform="translate(44.2375 207.685629) scale(0.1 -0.1)">
       <use xlink:href="#DejaVuSans-32"/>
      </g>
     </g>
    </g>
    <g id="ytick_4">
     <g id="line2d_19">
      <path d="M 57.6 160.938293 
L 414.72 160.938293 
" clip-path="url(#p6067901458)" style="fill: none; stroke: #b0b0b0; stroke-width: 0.8; stroke-linecap: square"/>
     </g>
     <g id="line2d_20">
      <g>
       <use xlink:href="#m2c4a8dd6fb" x="57.6" y="160.938293" style="stroke: #000000; stroke-width: 0.8"/>
      </g>
     </g>
     <g id="text_11">
      <!-- 4 -->
      <g transform="translate(44.2375 164.737511) scale(0.1 -0.1)">
       <use xlink:href="#DejaVuSans-34"/>
      </g>
     </g>
    </g>
    <g id="ytick_5">
     <g id="line2d_21">
      <path d="M 57.6 117.990176 
L 414.72 117.990176 
" clip-path="url(#p6067901458)" style="fill: none; stroke: #b0b0b0; stroke-width: 0.8; stroke-linecap: square"/>
     </g>
     <g id="line2d_22">
      <g>
       <use xlink:href="#m2c4a8dd6fb" x="57.6" y="117.990176" style="stroke: #000000; stroke-width: 0.8"/>
      </g>
     </g>
     <g id="text_12">
      <!-- 6 -->
      <g transform="translate(44.2375 121.789394) scale(0.1 -0.1)">
       <use xlink:href="#DejaVuSans-36"/>
      </g>
     </g>
    </g>
    <g id="ytick_6">
     <g id="line2d_23">
      <path d="M 57.6 75.042059 
L 414.72 75.042059 
" clip-path="url(#p6067901458)" style="fill: none; stroke: #b0b0b0; stroke-width: 0.8; stroke-linecap: square"/>
     </g>
     <g id="line2d_24">
      <g>
       <use xlink:href="#m2c4a8dd6fb" x="57.6" y="75.042059" style="stroke: #000000; stroke-width: 0.8"/>
      </g>
     </g>
     <g id="text_13">
      <!-- 8 -->
      <g transform="translate(44.2375 78.841277) scale(0.1 -0.1)">
       <use xlink:href="#DejaVuSans-38"/>
      </g>
     </g>
    </g>
    <g id="text_14">
     <!-- X -->
     <g transform="translate(29.778125 177.953) rotate(-90) scale(0.1 -0.1)">
      <defs>
       <path id="DejaVuSans-58" d="M 403 4666 
L 1081 4666 
L 2241 2931 
L 3406 4666 
L 4084 4666 
L 2584 2425 
L 4184 0 
L 3506 0 
L 2194 1984 
L 872 0 
L 191 0 
L 1856 2491 
L 403 4666 
z
" transform="scale(0.015625)"/>
      </defs>
      <use xlink:href="#DejaVuSans-58"/>
     </g>
    </g>
   </g>
   <g id="line2d_25">
    <path d="M 73.832727 96.516117 
L 77.112066 107.383723 
L 80.391405 107.66954 
L 83.670744 132.046007 
L 86.950083 162.930895 
L 90.229421 177.352006 
L 93.50876 203.381614 
L 96.788099 216.344315 
L 100.067438 223.903705 
L 103.346777 218.473414 
L 106.626116 215.69213 
L 109.905455 209.062079 
L 113.184793 208.155949 
L 116.464132 210.573067 
L 119.743471 214.376508 
L 123.02281 213.818468 
L 126.302149 219.209721 
L 129.581488 221.861764 
L 132.860826 216.625008 
L 136.140165 218.077183 
L 139.419504 223.479742 
L 142.698843 227.326312 
L 145.978182 235.014823 
L 149.257521 226.82758 
L 152.53686 233.184348 
L 155.816198 231.739419 
L 159.095537 239.91643 
L 162.374876 235.704207 
L 165.654215 233.562041 
L 168.933554 228.729451 
L 172.212893 234.727488 
L 175.492231 240.368812 
L 178.77157 237.933326 
L 182.050909 234.89067 
L 185.330248 242.292646 
L 188.609587 234.616826 
L 191.888926 227.284038 
L 195.168264 235.19156 
L 198.447603 240.718861 
L 201.726942 240.180842 
L 205.006281 242.081091 
L 208.28562 233.950034 
L 211.564959 226.625958 
L 214.844298 220.89204 
L 218.123636 225.023968 
L 221.402975 227.915482 
L 224.682314 220.094008 
L 227.961653 223.742337 
L 231.240992 217.354368 
L 234.520331 221.214984 
L 237.799669 218.021759 
L 241.079008 211.444885 
L 244.358347 205.284431 
L 247.637686 209.017489 
L 250.917025 204.165094 
L 254.196364 212.152113 
L 257.475702 212.179466 
L 260.755041 209.032539 
L 264.03438 214.473999 
L 267.313719 221.214041 
L 270.593058 233.912723 
L 273.872397 229.972057 
L 277.151736 222.612492 
L 280.431074 224.047303 
L 283.710413 219.204392 
L 286.989752 223.571962 
L 290.269091 231.730049 
L 293.54843 241.319973 
L 296.827769 251.807233 
L 300.107107 242.265753 
L 303.386446 252.422878 
L 306.665785 243.228434 
L 309.945124 235.821854 
L 313.224463 235.742596 
L 316.503802 243.88207 
L 319.78314 248.987968 
L 323.062479 245.374837 
L 326.341818 245.728841 
L 329.621157 237.530563 
L 332.900496 231.828679 
L 336.179835 222.736077 
L 339.459174 224.205357 
L 342.738512 220.021011 
L 346.017851 225.918816 
L 349.29719 235.119517 
L 352.576529 236.201171 
L 355.855868 242.914621 
L 359.135207 246.889916 
L 362.414545 251.010215 
L 365.693884 239.134024 
L 368.973223 242.115874 
L 372.252562 242.247896 
L 375.531901 252.212032 
L 378.81124 257.598914 
L 382.090579 256.474244 
L 385.369917 265.169725 
L 388.649256 264.332412 
L 391.928595 253.912416 
L 395.207934 252.400825 
L 398.487273 254.193408 
" clip-path="url(#p6067901458)" style="fill: none; stroke: #000000; stroke-width: 1.5; stroke-linecap: square"/>
   </g>
   <g id="line2d_26">
    <path d="M 73.832727 96.516117 
L 77.112066 107.383723 
L 80.391405 107.048362 
L 83.670744 126.395303 
L 86.950083 156.294256 
L 90.229421 171.17872 
L 93.50876 198.067428 
L 96.788099 210.58666 
L 100.067438 216.669643 
L 103.346777 210.705954 
L 106.626116 211.215005 
L 109.905455 207.734595 
L 113.184793 208.960325 
L 116.464132 213.071275 
L 119.743471 216.796516 
L 123.02281 215.948076 
L 126.302149 221.610275 
L 129.581488 223.606554 
L 132.860826 218.214076 
L 136.140165 218.80529 
L 139.419504 224.246014 
L 142.698843 227.970643 
L 145.978182 236.244533 
L 149.257521 228.731711 
L 152.53686 235.523781 
L 155.816198 234.432989 
L 159.095537 241.522187 
L 162.374876 236.27183 
L 165.654215 232.554782 
L 168.933554 226.211046 
L 172.212893 231.013269 
L 175.492231 236.101288 
L 178.77157 232.940289 
L 182.050909 229.328826 
L 185.330248 236.380055 
L 188.609587 226.884028 
L 191.888926 217.916209 
L 195.168264 224.954806 
L 198.447603 229.872155 
L 201.726942 229.894253 
L 205.006281 233.839437 
L 208.28562 227.756813 
L 211.564959 222.352241 
L 214.844298 217.513392 
L 218.123636 221.760017 
L 221.402975 224.75883 
L 224.682314 216.94381 
L 227.961653 220.690497 
L 231.240992 214.3168 
L 234.520331 218.278112 
L 237.799669 215.291155 
L 241.079008 209.237046 
L 244.358347 203.675096 
L 247.637686 207.704838 
L 250.917025 202.850657 
L 254.196364 210.57504 
L 257.475702 210.114017 
L 260.755041 206.545549 
L 264.03438 211.365201 
L 267.313719 218.212423 
L 270.593058 231.221986 
L 273.872397 227.586834 
L 277.151736 220.965516 
L 280.431074 222.630901 
L 283.710413 218.214872 
L 286.989752 223.131152 
L 290.269091 231.878746 
L 293.54843 241.785775 
L 296.827769 252.428108 
L 300.107107 242.764078 
L 303.386446 252.903523 
L 306.665785 243.877113 
L 309.945124 236.464216 
L 313.224463 236.181776 
L 316.503802 244.020038 
L 319.78314 248.738046 
L 323.062479 244.572601 
L 326.341818 244.134636 
L 329.621157 235.556441 
L 332.900496 229.549098 
L 336.179835 219.656528 
L 339.459174 220.012884 
L 342.738512 214.946982 
L 346.017851 220.400164 
L 349.29719 228.815734 
L 352.576529 229.409945 
L 355.855868 236.796715 
L 359.135207 239.126771 
L 362.414545 242.511168 
L 365.693884 228.607776 
L 368.973223 229.187496 
L 372.252562 227.843575 
L 375.531901 235.884753 
L 378.81124 239.382609 
L 382.090579 237.266274 
L 385.369917 247.080387 
L 388.649256 246.431901 
L 391.928595 237.766993 
L 395.207934 239.970024 
L 398.487273 242.564268 
" clip-path="url(#p6067901458)" style="fill: none; stroke: #ff0000; stroke-width: 1.5; stroke-linecap: square"/>
   </g>
   <g id="line2d_27">
    <path d="M 73.832727 53.568 
L 77.112066 82.736888 
L 80.391405 116.208007 
L 83.670744 137.125529 
L 86.950083 141.374377 
L 90.229421 152.337274 
L 93.50876 163.076861 
L 96.788099 180.428083 
L 100.067438 190.696325 
L 103.346777 203.637641 
L 106.626116 215.634522 
L 109.905455 223.71235 
L 113.184793 223.484925 
L 116.464132 240.465423 
L 119.743471 244.178788 
L 123.02281 237.356168 
L 126.302149 248.601468 
L 129.581488 243.011627 
L 132.860826 250.260071 
L 136.140165 241.102328 
L 139.419504 242.213416 
L 142.698843 235.724996 
L 145.978182 234.36996 
L 149.257521 235.857933 
L 152.53686 236.24116 
L 155.816198 248.045423 
L 159.095537 248.315438 
L 162.374876 257.056187 
L 165.654215 263.626595 
L 168.933554 271.170828 
L 172.212893 278.075233 
L 175.492231 276.22651 
L 178.77157 276.876259 
L 182.050909 277.414343 
L 185.330248 265.773749 
L 188.609587 252.377393 
L 191.888926 247.760354 
L 195.168264 249.129872 
L 198.447603 243.104973 
L 201.726942 232.465387 
L 205.006281 230.242939 
L 208.28562 227.580083 
L 211.564959 237.6222 
L 214.844298 249.292928 
L 218.123636 253.551301 
L 221.402975 263.432773 
L 224.682314 265.738173 
L 227.961653 264.762509 
L 231.240992 253.856599 
L 234.520331 248.568781 
L 237.799669 237.551679 
L 241.079008 229.187577 
L 244.358347 232.532372 
L 247.637686 236.930665 
L 250.917025 235.751985 
L 254.196364 234.698592 
L 257.475702 240.890146 
L 260.755041 239.23804 
L 264.03438 249.32536 
L 267.313719 252.148656 
L 270.593058 252.230146 
L 273.872397 259.349424 
L 277.151736 252.399549 
L 280.431074 256.36804 
L 283.710413 260.70058 
L 286.989752 265.008096 
L 290.269091 260.446903 
L 293.54843 257.739098 
L 296.827769 245.495188 
L 300.107107 250.887812 
L 303.386446 259.78558 
L 306.665785 251.610191 
L 309.945124 241.165997 
L 313.224463 233.53623 
L 316.503802 235.632405 
L 319.78314 237.180739 
L 323.062479 235.349724 
L 326.341818 245.263912 
L 329.621157 247.707315 
L 332.900496 241.634353 
L 336.179835 231.669246 
L 339.459174 223.577126 
L 342.738512 217.995846 
L 346.017851 221.022858 
L 349.29719 219.532813 
L 352.576529 215.046658 
L 355.855868 227.599803 
L 359.135207 224.273775 
L 362.414545 232.395005 
L 365.693884 239.612683 
L 368.973223 232.097002 
L 372.252562 236.997717 
L 375.531901 243.493877 
L 378.81124 251.13608 
L 382.090579 261.134822 
L 385.369917 257.674882 
L 388.649256 264.30534 
L 391.928595 273.664859 
L 395.207934 262.693491 
L 398.487273 251.19436 
" clip-path="url(#p6067901458)" style="fill: none; stroke-dasharray: 5.55,2.4; stroke-dashoffset: 0; stroke: #000000; stroke-width: 1.5"/>
   </g>
   <g id="line2d_28">
    <path d="M 73.832727 53.568 
L 77.112066 78.615987 
L 80.391405 108.14332 
L 83.670744 130.143733 
L 86.950083 138.255734 
L 90.229421 151.133423 
L 93.50876 165.838492 
L 96.788099 187.925858 
L 100.067438 206.263332 
L 103.346777 229.529471 
L 106.626116 237.163853 
L 109.905455 241.575658 
L 113.184793 238.006037 
L 116.464132 252.093758 
L 119.743471 252.853582 
L 123.02281 246.199426 
L 126.302149 257.547415 
L 129.581488 252.367024 
L 132.860826 260.800631 
L 136.140165 252.584794 
L 139.419504 254.422751 
L 142.698843 248.876031 
L 145.978182 247.977394 
L 149.257521 249.705906 
L 152.53686 249.678505 
L 155.816198 261.638017 
L 159.095537 262.170051 
L 162.374876 270.035782 
L 165.654215 275.626721 
L 168.933554 283.026098 
L 172.212893 290.469526 
L 175.492231 290.116442 
L 178.77157 292.843861 
L 182.050909 295.488 
L 185.330248 286.062002 
L 188.609587 274.420495 
L 191.888926 269.385215 
L 195.168264 268.181058 
L 198.447603 259.861599 
L 201.726942 247.738222 
L 205.006281 244.036191 
L 208.28562 239.139207 
L 211.564959 246.774674 
L 214.844298 255.036162 
L 218.123636 256.903396 
L 221.402975 265.895674 
L 224.682314 267.376474 
L 227.961653 266.999071 
L 231.240992 256.903812 
L 234.520331 252.308175 
L 237.799669 240.809347 
L 241.079008 232.153198 
L 244.358347 233.696433 
L 247.637686 235.573206 
L 250.917025 232.223785 
L 254.196364 229.369431 
L 257.475702 233.86834 
L 260.755041 230.890017 
L 264.03438 241.084302 
L 267.313719 243.952351 
L 270.593058 244.627513 
L 273.872397 252.091995 
L 277.151736 245.483446 
L 280.431074 250.815589 
L 283.710413 255.570471 
L 286.989752 260.303012 
L 290.269091 256.815668 
L 293.54843 255.042412 
L 296.827769 243.556862 
L 300.107107 249.301245 
L 303.386446 257.419954 
L 306.665785 248.934538 
L 309.945124 239.151247 
L 313.224463 231.388262 
L 316.503802 232.288527 
L 319.78314 231.85251 
L 323.062479 228.19311 
L 326.341818 236.55908 
L 329.621157 237.294598 
L 332.900496 230.908742 
L 336.179835 221.146324 
L 339.459174 212.774234 
L 342.738512 205.621155 
L 346.017851 205.940324 
L 349.29719 201.907615 
L 352.576529 194.794085 
L 355.855868 203.952235 
L 359.135207 197.788143 
L 362.414545 203.865683 
L 365.693884 209.137244 
L 368.973223 200.977661 
L 372.252562 205.598641 
L 375.531901 211.464937 
L 378.81124 218.637071 
L 382.090579 228.18758 
L 385.369917 224.679183 
L 388.649256 231.230947 
L 391.928595 239.811304 
L 395.207934 229.579552 
L 398.487273 220.245106 
" clip-path="url(#p6067901458)" style="fill: none; stroke-dasharray: 5.55,2.4; stroke-dashoffset: 0; stroke: #ff0000; stroke-width: 1.5"/>
   </g>
   <g id="patch_3">
    <path d="M 57.6 307.584 
L 57.6 41.472 
" style="fill: none; stroke: #000000; stroke-width: 0.8; stroke-linejoin: miter; stroke-linecap: square"/>
   </g>
   <g id="patch_4">
    <path d="M 414.72 307.584 
L 414.72 41.472 
" style="fill: none; stroke: #000000; stroke-width: 0.8; stroke-linejoin: miter; stroke-linecap: square"/>
   </g>
   <g id="patch_5">
    <path d="M 57.6 307.584 
L 414.72 307.584 
" style="fill: none; stroke: #000000; stroke-width: 0.8; stroke-linejoin: miter; stroke-linecap: square"/>
   </g>
   <g id="patch_6">
    <path d="M 57.6 41.472 
L 414.72 41.472 
" style="fill: none; stroke: #000000; stroke-width: 0.8; stroke-linejoin: miter; stroke-linecap: square"/>
   </g>
   <g id="legend_1">
    <g id="patch_7">
     <path d="M 392.72 67.472 
L 400.72 67.472 
Q 404.72 67.472 404.72 63.472 
L 404.72 55.472 
Q 404.72 51.472 400.72 51.472 
L 392.72 51.472 
Q 388.72 51.472 388.72 55.472 
L 388.72 63.472 
Q 388.72 67.472 392.72 67.472 
z
" style="fill: #ffffff; opacity: 0.8; stroke: #cccccc; stroke-linejoin: miter"/>
    </g>
   </g>
  </g>
 </g>
 <defs>
  <clipPath id="p6067901458">
   <rect x="57.6" y="41.472" width="357.12" height="266.112"/>
  </clipPath>
 </defs>
</svg>
