<?xml version="1.0" encoding="utf-8" standalone="no"?>
<!DOCTYPE svg PUBLIC "-//W3C//DTD SVG 1.1//EN"
  "http://www.w3.org/Graphics/SVG/1.1/DTD/svg11.dtd">
<svg xmlns:xlink="http://www.w3.org/1999/xlink" width="720pt" height="432pt" viewBox="0 0 720 432" xmlns="http://www.w3.org/2000/svg" version="1.1">
 <metadata>
  <rdf:RDF xmlns:dc="http://purl.org/dc/elements/1.1/" xmlns:cc="http://creativecommons.org/ns#" xmlns:rdf="http://www.w3.org/1999/02/22-rdf-syntax-ns#">
   <cc:Work>
    <dc:type rdf:resource="http://purl.org/dc/dcmitype/StillImage"/>
    <dc:date>2024-05-30T11:27:38.118956</dc:date>
    <dc:format>image/svg+xml</dc:format>
    <dc:creator>
     <cc:Agent>
      <dc:title>Matplotlib v3.7.1, https://matplotlib.org/</dc:title>
     </cc:Agent>
    </dc:creator>
   </cc:Work>
  </rdf:RDF>
 </metadata>
 <defs>
  <style type="text/css">*{stroke-linejoin: round; stroke-linecap: butt}</style>
 </defs>
 <g id="figure_1">
  <g id="patch_1">
   <path d="M 0 432 
L 720 432 
L 720 0 
L 0 0 
z
" style="fill: #ffffff"/>
  </g>
  <g id="axes_1">
   <g id="patch_2">
    <path d="M 90 384.48 
L 648 384.48 
L 648 51.84 
L 90 51.84 
z
" style="fill: #ffffff"/>
   </g>
   <g id="matplotlib.axis_1">
    <g id="xtick_1">
     <g id="line2d_1">
      <path d="M 261.498099 384.48 
L 261.498099 51.84 
" clip-path="url(#pfa01d6dee1)" style="fill: none; stroke: #b0b0b0; stroke-width: 0.8; stroke-linecap: square"/>
     </g>
     <g id="line2d_2">
      <defs>
       <path id="m72ff93a6cc" d="M 0 0 
L 0 3.5 
" style="stroke: #000000; stroke-width: 0.8"/>
      </defs>
      <g>
       <use xlink:href="#m72ff93a6cc" x="261.498099" y="384.48" style="stroke: #000000; stroke-width: 0.8"/>
      </g>
     </g>
     <g id="text_1">
      <!-- $\mathdefault{10^{-4}}$ -->
      <g transform="translate(249.748099 399.078438) scale(0.1 -0.1)">
       <defs>
        <path id="DejaVuSans-31" d="M 794 531 
L 1825 531 
L 1825 4091 
L 703 3866 
L 703 4441 
L 1819 4666 
L 2450 4666 
L 2450 531 
L 3481 531 
L 3481 0 
L 794 0 
L 794 531 
z
" transform="scale(0.015625)"/>
        <path id="DejaVuSans-30" d="M 2034 4250 
Q 1547 4250 1301 3770 
Q 1056 3291 1056 2328 
Q 1056 1369 1301 889 
Q 1547 409 2034 409 
Q 2525 409 2770 889 
Q 3016 1369 3016 2328 
Q 3016 3291 2770 3770 
Q 2525 4250 2034 4250 
z
M 2034 4750 
Q 2819 4750 3233 4129 
Q 3647 3509 3647 2328 
Q 3647 1150 3233 529 
Q 2819 -91 2034 -91 
Q 1250 -91 836 529 
Q 422 1150 422 2328 
Q 422 3509 836 4129 
Q 1250 4750 2034 4750 
z
" transform="scale(0.015625)"/>
        <path id="DejaVuSans-2212" d="M 678 2272 
L 4684 2272 
L 4684 1741 
L 678 1741 
L 678 2272 
z
" transform="scale(0.015625)"/>
        <path id="DejaVuSans-34" d="M 2419 4116 
L 825 1625 
L 2419 1625 
L 2419 4116 
z
M 2253 4666 
L 3047 4666 
L 3047 1625 
L 3713 1625 
L 3713 1100 
L 3047 1100 
L 3047 0 
L 2419 0 
L 2419 1100 
L 313 1100 
L 313 1709 
L 2253 4666 
z
" transform="scale(0.015625)"/>
       </defs>
       <use xlink:href="#DejaVuSans-31" transform="translate(0 0.684375)"/>
       <use xlink:href="#DejaVuSans-30" transform="translate(63.623047 0.684375)"/>
       <use xlink:href="#DejaVuSans-2212" transform="translate(128.203125 38.965625) scale(0.7)"/>
       <use xlink:href="#DejaVuSans-34" transform="translate(186.855469 38.965625) scale(0.7)"/>
      </g>
     </g>
    </g>
    <g id="xtick_2">
     <g id="line2d_3">
      <path d="M 442.067231 384.48 
L 442.067231 51.84 
" clip-path="url(#pfa01d6dee1)" style="fill: none; stroke: #b0b0b0; stroke-width: 0.8; stroke-linecap: square"/>
     </g>
     <g id="line2d_4">
      <g>
       <use xlink:href="#m72ff93a6cc" x="442.067231" y="384.48" style="stroke: #000000; stroke-width: 0.8"/>
      </g>
     </g>
     <g id="text_2">
      <!-- $\mathdefault{10^{-3}}$ -->
      <g transform="translate(430.317231 399.078438) scale(0.1 -0.1)">
       <defs>
        <path id="DejaVuSans-33" d="M 2597 2516 
Q 3050 2419 3304 2112 
Q 3559 1806 3559 1356 
Q 3559 666 3084 287 
Q 2609 -91 1734 -91 
Q 1441 -91 1130 -33 
Q 819 25 488 141 
L 488 750 
Q 750 597 1062 519 
Q 1375 441 1716 441 
Q 2309 441 2620 675 
Q 2931 909 2931 1356 
Q 2931 1769 2642 2001 
Q 2353 2234 1838 2234 
L 1294 2234 
L 1294 2753 
L 1863 2753 
Q 2328 2753 2575 2939 
Q 2822 3125 2822 3475 
Q 2822 3834 2567 4026 
Q 2313 4219 1838 4219 
Q 1578 4219 1281 4162 
Q 984 4106 628 3988 
L 628 4550 
Q 988 4650 1302 4700 
Q 1616 4750 1894 4750 
Q 2613 4750 3031 4423 
Q 3450 4097 3450 3541 
Q 3450 3153 3228 2886 
Q 3006 2619 2597 2516 
z
" transform="scale(0.015625)"/>
       </defs>
       <use xlink:href="#DejaVuSans-31" transform="translate(0 0.765625)"/>
       <use xlink:href="#DejaVuSans-30" transform="translate(63.623047 0.765625)"/>
       <use xlink:href="#DejaVuSans-2212" transform="translate(128.203125 39.046875) scale(0.7)"/>
       <use xlink:href="#DejaVuSans-33" transform="translate(186.855469 39.046875) scale(0.7)"/>
      </g>
     </g>
    </g>
    <g id="xtick_3">
     <g id="line2d_5">
      <path d="M 622.636364 384.48 
L 622.636364 51.84 
" clip-path="url(#pfa01d6dee1)" style="fill: none; stroke: #b0b0b0; stroke-width: 0.8; stroke-linecap: square"/>
     </g>
     <g id="line2d_6">
      <g>
       <use xlink:href="#m72ff93a6cc" x="622.636364" y="384.48" style="stroke: #000000; stroke-width: 0.8"/>
      </g>
     </g>
     <g id="text_3">
      <!-- $\mathdefault{10^{-2}}$ -->
      <g transform="translate(610.886364 399.078438) scale(0.1 -0.1)">
       <defs>
        <path id="DejaVuSans-32" d="M 1228 531 
L 3431 531 
L 3431 0 
L 469 0 
L 469 531 
Q 828 903 1448 1529 
Q 2069 2156 2228 2338 
Q 2531 2678 2651 2914 
Q 2772 3150 2772 3378 
Q 2772 3750 2511 3984 
Q 2250 4219 1831 4219 
Q 1534 4219 1204 4116 
Q 875 4013 500 3803 
L 500 4441 
Q 881 4594 1212 4672 
Q 1544 4750 1819 4750 
Q 2544 4750 2975 4387 
Q 3406 4025 3406 3419 
Q 3406 3131 3298 2873 
Q 3191 2616 2906 2266 
Q 2828 2175 2409 1742 
Q 1991 1309 1228 531 
z
" transform="scale(0.015625)"/>
       </defs>
       <use xlink:href="#DejaVuSans-31" transform="translate(0 0.765625)"/>
       <use xlink:href="#DejaVuSans-30" transform="translate(63.623047 0.765625)"/>
       <use xlink:href="#DejaVuSans-2212" transform="translate(128.203125 39.046875) scale(0.7)"/>
       <use xlink:href="#DejaVuSans-32" transform="translate(186.855469 39.046875) scale(0.7)"/>
      </g>
     </g>
    </g>
    <g id="xtick_4">
     <g id="line2d_7">
      <defs>
       <path id="mbc735fb9cb" d="M 0 0 
L 0 2 
" style="stroke: #000000; stroke-width: 0.6"/>
      </defs>
      <g>
       <use xlink:href="#mbc735fb9cb" x="135.285692" y="384.48" style="stroke: #000000; stroke-width: 0.6"/>
      </g>
     </g>
    </g>
    <g id="xtick_5">
     <g id="line2d_8">
      <g>
       <use xlink:href="#mbc735fb9cb" x="167.082338" y="384.48" style="stroke: #000000; stroke-width: 0.6"/>
      </g>
     </g>
    </g>
    <g id="xtick_6">
     <g id="line2d_9">
      <g>
       <use xlink:href="#mbc735fb9cb" x="189.642417" y="384.48" style="stroke: #000000; stroke-width: 0.6"/>
      </g>
     </g>
    </g>
    <g id="xtick_7">
     <g id="line2d_10">
      <g>
       <use xlink:href="#mbc735fb9cb" x="207.141374" y="384.48" style="stroke: #000000; stroke-width: 0.6"/>
      </g>
     </g>
    </g>
    <g id="xtick_8">
     <g id="line2d_11">
      <g>
       <use xlink:href="#mbc735fb9cb" x="221.439063" y="384.48" style="stroke: #000000; stroke-width: 0.6"/>
      </g>
     </g>
    </g>
    <g id="xtick_9">
     <g id="line2d_12">
      <g>
       <use xlink:href="#mbc735fb9cb" x="233.527587" y="384.48" style="stroke: #000000; stroke-width: 0.6"/>
      </g>
     </g>
    </g>
    <g id="xtick_10">
     <g id="line2d_13">
      <g>
       <use xlink:href="#mbc735fb9cb" x="243.999142" y="384.48" style="stroke: #000000; stroke-width: 0.6"/>
      </g>
     </g>
    </g>
    <g id="xtick_11">
     <g id="line2d_14">
      <g>
       <use xlink:href="#mbc735fb9cb" x="253.235709" y="384.48" style="stroke: #000000; stroke-width: 0.6"/>
      </g>
     </g>
    </g>
    <g id="xtick_12">
     <g id="line2d_15">
      <g>
       <use xlink:href="#mbc735fb9cb" x="315.854824" y="384.48" style="stroke: #000000; stroke-width: 0.6"/>
      </g>
     </g>
    </g>
    <g id="xtick_13">
     <g id="line2d_16">
      <g>
       <use xlink:href="#mbc735fb9cb" x="347.65147" y="384.48" style="stroke: #000000; stroke-width: 0.6"/>
      </g>
     </g>
    </g>
    <g id="xtick_14">
     <g id="line2d_17">
      <g>
       <use xlink:href="#mbc735fb9cb" x="370.211549" y="384.48" style="stroke: #000000; stroke-width: 0.6"/>
      </g>
     </g>
    </g>
    <g id="xtick_15">
     <g id="line2d_18">
      <g>
       <use xlink:href="#mbc735fb9cb" x="387.710506" y="384.48" style="stroke: #000000; stroke-width: 0.6"/>
      </g>
     </g>
    </g>
    <g id="xtick_16">
     <g id="line2d_19">
      <g>
       <use xlink:href="#mbc735fb9cb" x="402.008195" y="384.48" style="stroke: #000000; stroke-width: 0.6"/>
      </g>
     </g>
    </g>
    <g id="xtick_17">
     <g id="line2d_20">
      <g>
       <use xlink:href="#mbc735fb9cb" x="414.096719" y="384.48" style="stroke: #000000; stroke-width: 0.6"/>
      </g>
     </g>
    </g>
    <g id="xtick_18">
     <g id="line2d_21">
      <g>
       <use xlink:href="#mbc735fb9cb" x="424.568274" y="384.48" style="stroke: #000000; stroke-width: 0.6"/>
      </g>
     </g>
    </g>
    <g id="xtick_19">
     <g id="line2d_22">
      <g>
       <use xlink:href="#mbc735fb9cb" x="433.804841" y="384.48" style="stroke: #000000; stroke-width: 0.6"/>
      </g>
     </g>
    </g>
    <g id="xtick_20">
     <g id="line2d_23">
      <g>
       <use xlink:href="#mbc735fb9cb" x="496.423956" y="384.48" style="stroke: #000000; stroke-width: 0.6"/>
      </g>
     </g>
    </g>
    <g id="xtick_21">
     <g id="line2d_24">
      <g>
       <use xlink:href="#mbc735fb9cb" x="528.220602" y="384.48" style="stroke: #000000; stroke-width: 0.6"/>
      </g>
     </g>
    </g>
    <g id="xtick_22">
     <g id="line2d_25">
      <g>
       <use xlink:href="#mbc735fb9cb" x="550.780682" y="384.48" style="stroke: #000000; stroke-width: 0.6"/>
      </g>
     </g>
    </g>
    <g id="xtick_23">
     <g id="line2d_26">
      <g>
       <use xlink:href="#mbc735fb9cb" x="568.279639" y="384.48" style="stroke: #000000; stroke-width: 0.6"/>
      </g>
     </g>
    </g>
    <g id="xtick_24">
     <g id="line2d_27">
      <g>
       <use xlink:href="#mbc735fb9cb" x="582.577327" y="384.48" style="stroke: #000000; stroke-width: 0.6"/>
      </g>
     </g>
    </g>
    <g id="xtick_25">
     <g id="line2d_28">
      <g>
       <use xlink:href="#mbc735fb9cb" x="594.665851" y="384.48" style="stroke: #000000; stroke-width: 0.6"/>
      </g>
     </g>
    </g>
    <g id="xtick_26">
     <g id="line2d_29">
      <g>
       <use xlink:href="#mbc735fb9cb" x="605.137407" y="384.48" style="stroke: #000000; stroke-width: 0.6"/>
      </g>
     </g>
    </g>
    <g id="xtick_27">
     <g id="line2d_30">
      <g>
       <use xlink:href="#mbc735fb9cb" x="614.373973" y="384.48" style="stroke: #000000; stroke-width: 0.6"/>
      </g>
     </g>
    </g>
    <g id="text_4">
     <!-- Learning Rate -->
     <g transform="translate(334.240625 412.756563) scale(0.1 -0.1)">
      <defs>
       <path id="DejaVuSans-4c" d="M 628 4666 
L 1259 4666 
L 1259 531 
L 3531 531 
L 3531 0 
L 628 0 
L 628 4666 
z
" transform="scale(0.015625)"/>
       <path id="DejaVuSans-65" d="M 3597 1894 
L 3597 1613 
L 953 1613 
Q 991 1019 1311 708 
Q 1631 397 2203 397 
Q 2534 397 2845 478 
Q 3156 559 3463 722 
L 3463 178 
Q 3153 47 2828 -22 
Q 2503 -91 2169 -91 
Q 1331 -91 842 396 
Q 353 884 353 1716 
Q 353 2575 817 3079 
Q 1281 3584 2069 3584 
Q 2775 3584 3186 3129 
Q 3597 2675 3597 1894 
z
M 3022 2063 
Q 3016 2534 2758 2815 
Q 2500 3097 2075 3097 
Q 1594 3097 1305 2825 
Q 1016 2553 972 2059 
L 3022 2063 
z
" transform="scale(0.015625)"/>
       <path id="DejaVuSans-61" d="M 2194 1759 
Q 1497 1759 1228 1600 
Q 959 1441 959 1056 
Q 959 750 1161 570 
Q 1363 391 1709 391 
Q 2188 391 2477 730 
Q 2766 1069 2766 1631 
L 2766 1759 
L 2194 1759 
z
M 3341 1997 
L 3341 0 
L 2766 0 
L 2766 531 
Q 2569 213 2275 61 
Q 1981 -91 1556 -91 
Q 1019 -91 701 211 
Q 384 513 384 1019 
Q 384 1609 779 1909 
Q 1175 2209 1959 2209 
L 2766 2209 
L 2766 2266 
Q 2766 2663 2505 2880 
Q 2244 3097 1772 3097 
Q 1472 3097 1187 3025 
Q 903 2953 641 2809 
L 641 3341 
Q 956 3463 1253 3523 
Q 1550 3584 1831 3584 
Q 2591 3584 2966 3190 
Q 3341 2797 3341 1997 
z
" transform="scale(0.015625)"/>
       <path id="DejaVuSans-72" d="M 2631 2963 
Q 2534 3019 2420 3045 
Q 2306 3072 2169 3072 
Q 1681 3072 1420 2755 
Q 1159 2438 1159 1844 
L 1159 0 
L 581 0 
L 581 3500 
L 1159 3500 
L 1159 2956 
Q 1341 3275 1631 3429 
Q 1922 3584 2338 3584 
Q 2397 3584 2469 3576 
Q 2541 3569 2628 3553 
L 2631 2963 
z
" transform="scale(0.015625)"/>
       <path id="DejaVuSans-6e" d="M 3513 2113 
L 3513 0 
L 2938 0 
L 2938 2094 
Q 2938 2591 2744 2837 
Q 2550 3084 2163 3084 
Q 1697 3084 1428 2787 
Q 1159 2491 1159 1978 
L 1159 0 
L 581 0 
L 581 3500 
L 1159 3500 
L 1159 2956 
Q 1366 3272 1645 3428 
Q 1925 3584 2291 3584 
Q 2894 3584 3203 3211 
Q 3513 2838 3513 2113 
z
" transform="scale(0.015625)"/>
       <path id="DejaVuSans-69" d="M 603 3500 
L 1178 3500 
L 1178 0 
L 603 0 
L 603 3500 
z
M 603 4863 
L 1178 4863 
L 1178 4134 
L 603 4134 
L 603 4863 
z
" transform="scale(0.015625)"/>
       <path id="DejaVuSans-67" d="M 2906 1791 
Q 2906 2416 2648 2759 
Q 2391 3103 1925 3103 
Q 1463 3103 1205 2759 
Q 947 2416 947 1791 
Q 947 1169 1205 825 
Q 1463 481 1925 481 
Q 2391 481 2648 825 
Q 2906 1169 2906 1791 
z
M 3481 434 
Q 3481 -459 3084 -895 
Q 2688 -1331 1869 -1331 
Q 1566 -1331 1297 -1286 
Q 1028 -1241 775 -1147 
L 775 -588 
Q 1028 -725 1275 -790 
Q 1522 -856 1778 -856 
Q 2344 -856 2625 -561 
Q 2906 -266 2906 331 
L 2906 616 
Q 2728 306 2450 153 
Q 2172 0 1784 0 
Q 1141 0 747 490 
Q 353 981 353 1791 
Q 353 2603 747 3093 
Q 1141 3584 1784 3584 
Q 2172 3584 2450 3431 
Q 2728 3278 2906 2969 
L 2906 3500 
L 3481 3500 
L 3481 434 
z
" transform="scale(0.015625)"/>
       <path id="DejaVuSans-20" transform="scale(0.015625)"/>
       <path id="DejaVuSans-52" d="M 2841 2188 
Q 3044 2119 3236 1894 
Q 3428 1669 3622 1275 
L 4263 0 
L 3584 0 
L 2988 1197 
Q 2756 1666 2539 1819 
Q 2322 1972 1947 1972 
L 1259 1972 
L 1259 0 
L 628 0 
L 628 4666 
L 2053 4666 
Q 2853 4666 3247 4331 
Q 3641 3997 3641 3322 
Q 3641 2881 3436 2590 
Q 3231 2300 2841 2188 
z
M 1259 4147 
L 1259 2491 
L 2053 2491 
Q 2509 2491 2742 2702 
Q 2975 2913 2975 3322 
Q 2975 3731 2742 3939 
Q 2509 4147 2053 4147 
L 1259 4147 
z
" transform="scale(0.015625)"/>
       <path id="DejaVuSans-74" d="M 1172 4494 
L 1172 3500 
L 2356 3500 
L 2356 3053 
L 1172 3053 
L 1172 1153 
Q 1172 725 1289 603 
Q 1406 481 1766 481 
L 2356 481 
L 2356 0 
L 1766 0 
Q 1100 0 847 248 
Q 594 497 594 1153 
L 594 3053 
L 172 3053 
L 172 3500 
L 594 3500 
L 594 4494 
L 1172 4494 
z
" transform="scale(0.015625)"/>
      </defs>
      <use xlink:href="#DejaVuSans-4c"/>
      <use xlink:href="#DejaVuSans-65" x="53.962891"/>
      <use xlink:href="#DejaVuSans-61" x="115.486328"/>
      <use xlink:href="#DejaVuSans-72" x="176.765625"/>
      <use xlink:href="#DejaVuSans-6e" x="216.128906"/>
      <use xlink:href="#DejaVuSans-69" x="279.507812"/>
      <use xlink:href="#DejaVuSans-6e" x="307.291016"/>
      <use xlink:href="#DejaVuSans-67" x="370.669922"/>
      <use xlink:href="#DejaVuSans-20" x="434.146484"/>
      <use xlink:href="#DejaVuSans-52" x="465.933594"/>
      <use xlink:href="#DejaVuSans-61" x="533.166016"/>
      <use xlink:href="#DejaVuSans-74" x="594.445312"/>
      <use xlink:href="#DejaVuSans-65" x="633.654297"/>
     </g>
    </g>
   </g>
   <g id="matplotlib.axis_2">
    <g id="ytick_1">
     <g id="line2d_31">
      <path d="M 90 324.355189 
L 648 324.355189 
" clip-path="url(#pfa01d6dee1)" style="fill: none; stroke: #b0b0b0; stroke-width: 0.8; stroke-linecap: square"/>
     </g>
     <g id="line2d_32">
      <defs>
       <path id="m8f17ba1c54" d="M 0 0 
L -3.5 0 
" style="stroke: #000000; stroke-width: 0.8"/>
      </defs>
      <g>
       <use xlink:href="#m8f17ba1c54" x="90" y="324.355189" style="stroke: #000000; stroke-width: 0.8"/>
      </g>
     </g>
     <g id="text_5">
      <!-- 900 -->
      <g transform="translate(63.9125 328.154408) scale(0.1 -0.1)">
       <defs>
        <path id="DejaVuSans-39" d="M 703 97 
L 703 672 
Q 941 559 1184 500 
Q 1428 441 1663 441 
Q 2288 441 2617 861 
Q 2947 1281 2994 2138 
Q 2813 1869 2534 1725 
Q 2256 1581 1919 1581 
Q 1219 1581 811 2004 
Q 403 2428 403 3163 
Q 403 3881 828 4315 
Q 1253 4750 1959 4750 
Q 2769 4750 3195 4129 
Q 3622 3509 3622 2328 
Q 3622 1225 3098 567 
Q 2575 -91 1691 -91 
Q 1453 -91 1209 -44 
Q 966 3 703 97 
z
M 1959 2075 
Q 2384 2075 2632 2365 
Q 2881 2656 2881 3163 
Q 2881 3666 2632 3958 
Q 2384 4250 1959 4250 
Q 1534 4250 1286 3958 
Q 1038 3666 1038 3163 
Q 1038 2656 1286 2365 
Q 1534 2075 1959 2075 
z
" transform="scale(0.015625)"/>
       </defs>
       <use xlink:href="#DejaVuSans-39"/>
       <use xlink:href="#DejaVuSans-30" x="63.623047"/>
       <use xlink:href="#DejaVuSans-30" x="127.246094"/>
      </g>
     </g>
    </g>
    <g id="ytick_2">
     <g id="line2d_33">
      <path d="M 90 251.221419 
L 648 251.221419 
" clip-path="url(#pfa01d6dee1)" style="fill: none; stroke: #b0b0b0; stroke-width: 0.8; stroke-linecap: square"/>
     </g>
     <g id="line2d_34">
      <g>
       <use xlink:href="#m8f17ba1c54" x="90" y="251.221419" style="stroke: #000000; stroke-width: 0.8"/>
      </g>
     </g>
     <g id="text_6">
      <!-- 1000 -->
      <g transform="translate(57.55 255.020638) scale(0.1 -0.1)">
       <use xlink:href="#DejaVuSans-31"/>
       <use xlink:href="#DejaVuSans-30" x="63.623047"/>
       <use xlink:href="#DejaVuSans-30" x="127.246094"/>
       <use xlink:href="#DejaVuSans-30" x="190.869141"/>
      </g>
     </g>
    </g>
    <g id="ytick_3">
     <g id="line2d_35">
      <path d="M 90 178.087649 
L 648 178.087649 
" clip-path="url(#pfa01d6dee1)" style="fill: none; stroke: #b0b0b0; stroke-width: 0.8; stroke-linecap: square"/>
     </g>
     <g id="line2d_36">
      <g>
       <use xlink:href="#m8f17ba1c54" x="90" y="178.087649" style="stroke: #000000; stroke-width: 0.8"/>
      </g>
     </g>
     <g id="text_7">
      <!-- 1100 -->
      <g transform="translate(57.55 181.886868) scale(0.1 -0.1)">
       <use xlink:href="#DejaVuSans-31"/>
       <use xlink:href="#DejaVuSans-31" x="63.623047"/>
       <use xlink:href="#DejaVuSans-30" x="127.246094"/>
       <use xlink:href="#DejaVuSans-30" x="190.869141"/>
      </g>
     </g>
    </g>
    <g id="ytick_4">
     <g id="line2d_37">
      <path d="M 90 104.953879 
L 648 104.953879 
" clip-path="url(#pfa01d6dee1)" style="fill: none; stroke: #b0b0b0; stroke-width: 0.8; stroke-linecap: square"/>
     </g>
     <g id="line2d_38">
      <g>
       <use xlink:href="#m8f17ba1c54" x="90" y="104.953879" style="stroke: #000000; stroke-width: 0.8"/>
      </g>
     </g>
     <g id="text_8">
      <!-- 1200 -->
      <g transform="translate(57.55 108.753098) scale(0.1 -0.1)">
       <use xlink:href="#DejaVuSans-31"/>
       <use xlink:href="#DejaVuSans-32" x="63.623047"/>
       <use xlink:href="#DejaVuSans-30" x="127.246094"/>
       <use xlink:href="#DejaVuSans-30" x="190.869141"/>
      </g>
     </g>
    </g>
    <g id="text_9">
     <!-- Loss -->
     <g transform="translate(51.470312 229.127187) rotate(-90) scale(0.1 -0.1)">
      <defs>
       <path id="DejaVuSans-6f" d="M 1959 3097 
Q 1497 3097 1228 2736 
Q 959 2375 959 1747 
Q 959 1119 1226 758 
Q 1494 397 1959 397 
Q 2419 397 2687 759 
Q 2956 1122 2956 1747 
Q 2956 2369 2687 2733 
Q 2419 3097 1959 3097 
z
M 1959 3584 
Q 2709 3584 3137 3096 
Q 3566 2609 3566 1747 
Q 3566 888 3137 398 
Q 2709 -91 1959 -91 
Q 1206 -91 779 398 
Q 353 888 353 1747 
Q 353 2609 779 3096 
Q 1206 3584 1959 3584 
z
" transform="scale(0.015625)"/>
       <path id="DejaVuSans-73" d="M 2834 3397 
L 2834 2853 
Q 2591 2978 2328 3040 
Q 2066 3103 1784 3103 
Q 1356 3103 1142 2972 
Q 928 2841 928 2578 
Q 928 2378 1081 2264 
Q 1234 2150 1697 2047 
L 1894 2003 
Q 2506 1872 2764 1633 
Q 3022 1394 3022 966 
Q 3022 478 2636 193 
Q 2250 -91 1575 -91 
Q 1294 -91 989 -36 
Q 684 19 347 128 
L 347 722 
Q 666 556 975 473 
Q 1284 391 1588 391 
Q 1994 391 2212 530 
Q 2431 669 2431 922 
Q 2431 1156 2273 1281 
Q 2116 1406 1581 1522 
L 1381 1569 
Q 847 1681 609 1914 
Q 372 2147 372 2553 
Q 372 3047 722 3315 
Q 1072 3584 1716 3584 
Q 2034 3584 2315 3537 
Q 2597 3491 2834 3397 
z
" transform="scale(0.015625)"/>
      </defs>
      <use xlink:href="#DejaVuSans-4c"/>
      <use xlink:href="#DejaVuSans-6f" x="53.962891"/>
      <use xlink:href="#DejaVuSans-73" x="115.144531"/>
      <use xlink:href="#DejaVuSans-73" x="167.244141"/>
     </g>
    </g>
   </g>
   <g id="line2d_39">
    <path d="M 622.636364 71.847394 
L 622.152135 123.592572 
L 620.693433 66.96 
L 618.241904 135.22613 
L 614.765917 192.935752 
L 610.218884 194.443741 
L 604.536637 219.395299 
L 597.633534 200.069605 
L 589.396761 328.551748 
L 579.67792 216.186014 
L 568.280423 313.09145 
L 554.940054 281.261175 
L 539.293886 319.583288 
L 520.828195 298.210797 
L 498.785848 314.113397 
L 471.988373 301.13231 
L 438.456907 336.163552 
L 394.477487 284.897329 
L 331.710234 244.209424 
L 223.576268 265.508831 
L 622.636364 239.085633 
L 622.606129 273.230383 
L 622.5154 263.25865 
L 622.364108 265.441923 
L 622.152135 311.328377 
L 621.879318 341.415097 
L 621.545444 246.618979 
L 621.150252 244.131049 
L 620.693433 305.443705 
L 620.174627 245.160748 
L 619.593422 369.36 
L 618.949353 321.178794 
L 618.241904 267.887068 
L 617.470498 271.691221 
L 616.634503 252.328691 
L 615.733228 358.826928 
L 614.765917 317.474636 
L 613.73175 262.782889 
L 612.629841 284.34617 
L 611.45923 297.061501 
L 610.218884 306.277223 
L 608.90769 289.657972 
L 607.524455 289.068991 
L 606.067895 271.748485 
L 604.536637 295.437692 
L 602.929205 291.916483 
L 601.244024 274.612061 
L 599.479403 271.316765 
L 597.633534 274.088404 
L 595.704482 280.928163 
L 593.690175 282.901392 
L 591.588394 271.622233 
L 589.396761 249.657943 
L 587.11273 238.158747 
L 584.73357 269.041291 
L 582.256349 292.527574 
L 579.67792 242.475762 
L 576.994897 304.821724 
L 574.20364 262.978671 
L 571.300226 278.486784 
L 568.280423 299.310265 
L 565.139659 287.788767 
L 561.872991 295.616925 
L 558.475061 264.005473 
L 554.940054 254.309396 
L 551.261647 230.04117 
L 547.432951 199.434551 
L 543.446441 229.460985 
L 539.293886 296.599989 
L 534.96625 205.692202 
L 530.453594 230.6837 
L 525.744954 282.282166 
L 520.828195 245.144408 
L 515.689841 285.119666 
L 510.314876 235.641733 
L 504.686502 277.422452 
L 498.785848 226.755016 
L 492.591619 246.569197 
L 486.079662 300.644825 
L 479.222442 226.952606 
L 471.988373 258.839797 
L 464.340996 222.882018 
L 456.23792 300.633801 
L 447.629467 300.9952 
L 438.456907 262.944866 
L 428.650117 265.420156 
L 418.124438 246.808031 
L 406.77636 216.95492 
L 394.477487 217.628197 
L 381.065859 220.609132 
L 366.333143 255.513669 
L 350.005057 172.806655 
L 331.710234 261.190762 
L 310.928235 191.662416 
L 286.897323 235.274879 
L 258.437728 163.488793 
L 223.576268 218.132162 
L 178.625334 225.991294 
L 115.363636 209.364242 
" clip-path="url(#pfa01d6dee1)" style="fill: none; stroke: #1f77b4; stroke-width: 1.5; stroke-linecap: square"/>
    <defs>
     <path id="m9169e614fd" d="M 0 3 
C 0.795609 3 1.55874 2.683901 2.12132 2.12132 
C 2.683901 1.55874 3 0.795609 3 0 
C 3 -0.795609 2.683901 -1.55874 2.12132 -2.12132 
C 1.55874 -2.683901 0.795609 -3 0 -3 
C -0.795609 -3 -1.55874 -2.683901 -2.12132 -2.12132 
C -2.683901 -1.55874 -3 -0.795609 -3 0 
C -3 0.795609 -2.683901 1.55874 -2.12132 2.12132 
C -1.55874 2.683901 -0.795609 3 0 3 
z
" style="stroke: #1f77b4"/>
    </defs>
    <g clip-path="url(#pfa01d6dee1)">
     <use xlink:href="#m9169e614fd" x="622.636364" y="71.847394" style="fill: #1f77b4; stroke: #1f77b4"/>
     <use xlink:href="#m9169e614fd" x="622.152135" y="123.592572" style="fill: #1f77b4; stroke: #1f77b4"/>
     <use xlink:href="#m9169e614fd" x="620.693433" y="66.96" style="fill: #1f77b4; stroke: #1f77b4"/>
     <use xlink:href="#m9169e614fd" x="618.241904" y="135.22613" style="fill: #1f77b4; stroke: #1f77b4"/>
     <use xlink:href="#m9169e614fd" x="614.765917" y="192.935752" style="fill: #1f77b4; stroke: #1f77b4"/>
     <use xlink:href="#m9169e614fd" x="610.218884" y="194.443741" style="fill: #1f77b4; stroke: #1f77b4"/>
     <use xlink:href="#m9169e614fd" x="604.536637" y="219.395299" style="fill: #1f77b4; stroke: #1f77b4"/>
     <use xlink:href="#m9169e614fd" x="597.633534" y="200.069605" style="fill: #1f77b4; stroke: #1f77b4"/>
     <use xlink:href="#m9169e614fd" x="589.396761" y="328.551748" style="fill: #1f77b4; stroke: #1f77b4"/>
     <use xlink:href="#m9169e614fd" x="579.67792" y="216.186014" style="fill: #1f77b4; stroke: #1f77b4"/>
     <use xlink:href="#m9169e614fd" x="568.280423" y="313.09145" style="fill: #1f77b4; stroke: #1f77b4"/>
     <use xlink:href="#m9169e614fd" x="554.940054" y="281.261175" style="fill: #1f77b4; stroke: #1f77b4"/>
     <use xlink:href="#m9169e614fd" x="539.293886" y="319.583288" style="fill: #1f77b4; stroke: #1f77b4"/>
     <use xlink:href="#m9169e614fd" x="520.828195" y="298.210797" style="fill: #1f77b4; stroke: #1f77b4"/>
     <use xlink:href="#m9169e614fd" x="498.785848" y="314.113397" style="fill: #1f77b4; stroke: #1f77b4"/>
     <use xlink:href="#m9169e614fd" x="471.988373" y="301.13231" style="fill: #1f77b4; stroke: #1f77b4"/>
     <use xlink:href="#m9169e614fd" x="438.456907" y="336.163552" style="fill: #1f77b4; stroke: #1f77b4"/>
     <use xlink:href="#m9169e614fd" x="394.477487" y="284.897329" style="fill: #1f77b4; stroke: #1f77b4"/>
     <use xlink:href="#m9169e614fd" x="331.710234" y="244.209424" style="fill: #1f77b4; stroke: #1f77b4"/>
     <use xlink:href="#m9169e614fd" x="223.576268" y="265.508831" style="fill: #1f77b4; stroke: #1f77b4"/>
     <use xlink:href="#m9169e614fd" x="622.636364" y="239.085633" style="fill: #1f77b4; stroke: #1f77b4"/>
     <use xlink:href="#m9169e614fd" x="622.606129" y="273.230383" style="fill: #1f77b4; stroke: #1f77b4"/>
     <use xlink:href="#m9169e614fd" x="622.5154" y="263.25865" style="fill: #1f77b4; stroke: #1f77b4"/>
     <use xlink:href="#m9169e614fd" x="622.364108" y="265.441923" style="fill: #1f77b4; stroke: #1f77b4"/>
     <use xlink:href="#m9169e614fd" x="622.152135" y="311.328377" style="fill: #1f77b4; stroke: #1f77b4"/>
     <use xlink:href="#m9169e614fd" x="621.879318" y="341.415097" style="fill: #1f77b4; stroke: #1f77b4"/>
     <use xlink:href="#m9169e614fd" x="621.545444" y="246.618979" style="fill: #1f77b4; stroke: #1f77b4"/>
     <use xlink:href="#m9169e614fd" x="621.150252" y="244.131049" style="fill: #1f77b4; stroke: #1f77b4"/>
     <use xlink:href="#m9169e614fd" x="620.693433" y="305.443705" style="fill: #1f77b4; stroke: #1f77b4"/>
     <use xlink:href="#m9169e614fd" x="620.174627" y="245.160748" style="fill: #1f77b4; stroke: #1f77b4"/>
     <use xlink:href="#m9169e614fd" x="619.593422" y="369.36" style="fill: #1f77b4; stroke: #1f77b4"/>
     <use xlink:href="#m9169e614fd" x="618.949353" y="321.178794" style="fill: #1f77b4; stroke: #1f77b4"/>
     <use xlink:href="#m9169e614fd" x="618.241904" y="267.887068" style="fill: #1f77b4; stroke: #1f77b4"/>
     <use xlink:href="#m9169e614fd" x="617.470498" y="271.691221" style="fill: #1f77b4; stroke: #1f77b4"/>
     <use xlink:href="#m9169e614fd" x="616.634503" y="252.328691" style="fill: #1f77b4; stroke: #1f77b4"/>
     <use xlink:href="#m9169e614fd" x="615.733228" y="358.826928" style="fill: #1f77b4; stroke: #1f77b4"/>
     <use xlink:href="#m9169e614fd" x="614.765917" y="317.474636" style="fill: #1f77b4; stroke: #1f77b4"/>
     <use xlink:href="#m9169e614fd" x="613.73175" y="262.782889" style="fill: #1f77b4; stroke: #1f77b4"/>
     <use xlink:href="#m9169e614fd" x="612.629841" y="284.34617" style="fill: #1f77b4; stroke: #1f77b4"/>
     <use xlink:href="#m9169e614fd" x="611.45923" y="297.061501" style="fill: #1f77b4; stroke: #1f77b4"/>
     <use xlink:href="#m9169e614fd" x="610.218884" y="306.277223" style="fill: #1f77b4; stroke: #1f77b4"/>
     <use xlink:href="#m9169e614fd" x="608.90769" y="289.657972" style="fill: #1f77b4; stroke: #1f77b4"/>
     <use xlink:href="#m9169e614fd" x="607.524455" y="289.068991" style="fill: #1f77b4; stroke: #1f77b4"/>
     <use xlink:href="#m9169e614fd" x="606.067895" y="271.748485" style="fill: #1f77b4; stroke: #1f77b4"/>
     <use xlink:href="#m9169e614fd" x="604.536637" y="295.437692" style="fill: #1f77b4; stroke: #1f77b4"/>
     <use xlink:href="#m9169e614fd" x="602.929205" y="291.916483" style="fill: #1f77b4; stroke: #1f77b4"/>
     <use xlink:href="#m9169e614fd" x="601.244024" y="274.612061" style="fill: #1f77b4; stroke: #1f77b4"/>
     <use xlink:href="#m9169e614fd" x="599.479403" y="271.316765" style="fill: #1f77b4; stroke: #1f77b4"/>
     <use xlink:href="#m9169e614fd" x="597.633534" y="274.088404" style="fill: #1f77b4; stroke: #1f77b4"/>
     <use xlink:href="#m9169e614fd" x="595.704482" y="280.928163" style="fill: #1f77b4; stroke: #1f77b4"/>
     <use xlink:href="#m9169e614fd" x="593.690175" y="282.901392" style="fill: #1f77b4; stroke: #1f77b4"/>
     <use xlink:href="#m9169e614fd" x="591.588394" y="271.622233" style="fill: #1f77b4; stroke: #1f77b4"/>
     <use xlink:href="#m9169e614fd" x="589.396761" y="249.657943" style="fill: #1f77b4; stroke: #1f77b4"/>
     <use xlink:href="#m9169e614fd" x="587.11273" y="238.158747" style="fill: #1f77b4; stroke: #1f77b4"/>
     <use xlink:href="#m9169e614fd" x="584.73357" y="269.041291" style="fill: #1f77b4; stroke: #1f77b4"/>
     <use xlink:href="#m9169e614fd" x="582.256349" y="292.527574" style="fill: #1f77b4; stroke: #1f77b4"/>
     <use xlink:href="#m9169e614fd" x="579.67792" y="242.475762" style="fill: #1f77b4; stroke: #1f77b4"/>
     <use xlink:href="#m9169e614fd" x="576.994897" y="304.821724" style="fill: #1f77b4; stroke: #1f77b4"/>
     <use xlink:href="#m9169e614fd" x="574.20364" y="262.978671" style="fill: #1f77b4; stroke: #1f77b4"/>
     <use xlink:href="#m9169e614fd" x="571.300226" y="278.486784" style="fill: #1f77b4; stroke: #1f77b4"/>
     <use xlink:href="#m9169e614fd" x="568.280423" y="299.310265" style="fill: #1f77b4; stroke: #1f77b4"/>
     <use xlink:href="#m9169e614fd" x="565.139659" y="287.788767" style="fill: #1f77b4; stroke: #1f77b4"/>
     <use xlink:href="#m9169e614fd" x="561.872991" y="295.616925" style="fill: #1f77b4; stroke: #1f77b4"/>
     <use xlink:href="#m9169e614fd" x="558.475061" y="264.005473" style="fill: #1f77b4; stroke: #1f77b4"/>
     <use xlink:href="#m9169e614fd" x="554.940054" y="254.309396" style="fill: #1f77b4; stroke: #1f77b4"/>
     <use xlink:href="#m9169e614fd" x="551.261647" y="230.04117" style="fill: #1f77b4; stroke: #1f77b4"/>
     <use xlink:href="#m9169e614fd" x="547.432951" y="199.434551" style="fill: #1f77b4; stroke: #1f77b4"/>
     <use xlink:href="#m9169e614fd" x="543.446441" y="229.460985" style="fill: #1f77b4; stroke: #1f77b4"/>
     <use xlink:href="#m9169e614fd" x="539.293886" y="296.599989" style="fill: #1f77b4; stroke: #1f77b4"/>
     <use xlink:href="#m9169e614fd" x="534.96625" y="205.692202" style="fill: #1f77b4; stroke: #1f77b4"/>
     <use xlink:href="#m9169e614fd" x="530.453594" y="230.6837" style="fill: #1f77b4; stroke: #1f77b4"/>
     <use xlink:href="#m9169e614fd" x="525.744954" y="282.282166" style="fill: #1f77b4; stroke: #1f77b4"/>
     <use xlink:href="#m9169e614fd" x="520.828195" y="245.144408" style="fill: #1f77b4; stroke: #1f77b4"/>
     <use xlink:href="#m9169e614fd" x="515.689841" y="285.119666" style="fill: #1f77b4; stroke: #1f77b4"/>
     <use xlink:href="#m9169e614fd" x="510.314876" y="235.641733" style="fill: #1f77b4; stroke: #1f77b4"/>
     <use xlink:href="#m9169e614fd" x="504.686502" y="277.422452" style="fill: #1f77b4; stroke: #1f77b4"/>
     <use xlink:href="#m9169e614fd" x="498.785848" y="226.755016" style="fill: #1f77b4; stroke: #1f77b4"/>
     <use xlink:href="#m9169e614fd" x="492.591619" y="246.569197" style="fill: #1f77b4; stroke: #1f77b4"/>
     <use xlink:href="#m9169e614fd" x="486.079662" y="300.644825" style="fill: #1f77b4; stroke: #1f77b4"/>
     <use xlink:href="#m9169e614fd" x="479.222442" y="226.952606" style="fill: #1f77b4; stroke: #1f77b4"/>
     <use xlink:href="#m9169e614fd" x="471.988373" y="258.839797" style="fill: #1f77b4; stroke: #1f77b4"/>
     <use xlink:href="#m9169e614fd" x="464.340996" y="222.882018" style="fill: #1f77b4; stroke: #1f77b4"/>
     <use xlink:href="#m9169e614fd" x="456.23792" y="300.633801" style="fill: #1f77b4; stroke: #1f77b4"/>
     <use xlink:href="#m9169e614fd" x="447.629467" y="300.9952" style="fill: #1f77b4; stroke: #1f77b4"/>
     <use xlink:href="#m9169e614fd" x="438.456907" y="262.944866" style="fill: #1f77b4; stroke: #1f77b4"/>
     <use xlink:href="#m9169e614fd" x="428.650117" y="265.420156" style="fill: #1f77b4; stroke: #1f77b4"/>
     <use xlink:href="#m9169e614fd" x="418.124438" y="246.808031" style="fill: #1f77b4; stroke: #1f77b4"/>
     <use xlink:href="#m9169e614fd" x="406.77636" y="216.95492" style="fill: #1f77b4; stroke: #1f77b4"/>
     <use xlink:href="#m9169e614fd" x="394.477487" y="217.628197" style="fill: #1f77b4; stroke: #1f77b4"/>
     <use xlink:href="#m9169e614fd" x="381.065859" y="220.609132" style="fill: #1f77b4; stroke: #1f77b4"/>
     <use xlink:href="#m9169e614fd" x="366.333143" y="255.513669" style="fill: #1f77b4; stroke: #1f77b4"/>
     <use xlink:href="#m9169e614fd" x="350.005057" y="172.806655" style="fill: #1f77b4; stroke: #1f77b4"/>
     <use xlink:href="#m9169e614fd" x="331.710234" y="261.190762" style="fill: #1f77b4; stroke: #1f77b4"/>
     <use xlink:href="#m9169e614fd" x="310.928235" y="191.662416" style="fill: #1f77b4; stroke: #1f77b4"/>
     <use xlink:href="#m9169e614fd" x="286.897323" y="235.274879" style="fill: #1f77b4; stroke: #1f77b4"/>
     <use xlink:href="#m9169e614fd" x="258.437728" y="163.488793" style="fill: #1f77b4; stroke: #1f77b4"/>
     <use xlink:href="#m9169e614fd" x="223.576268" y="218.132162" style="fill: #1f77b4; stroke: #1f77b4"/>
     <use xlink:href="#m9169e614fd" x="178.625334" y="225.991294" style="fill: #1f77b4; stroke: #1f77b4"/>
     <use xlink:href="#m9169e614fd" x="115.363636" y="209.364242" style="fill: #1f77b4; stroke: #1f77b4"/>
    </g>
   </g>
   <g id="patch_3">
    <path d="M 90 384.48 
L 90 51.84 
" style="fill: none; stroke: #000000; stroke-width: 0.8; stroke-linejoin: miter; stroke-linecap: square"/>
   </g>
   <g id="patch_4">
    <path d="M 648 384.48 
L 648 51.84 
" style="fill: none; stroke: #000000; stroke-width: 0.8; stroke-linejoin: miter; stroke-linecap: square"/>
   </g>
   <g id="patch_5">
    <path d="M 90 384.48 
L 648 384.48 
" style="fill: none; stroke: #000000; stroke-width: 0.8; stroke-linejoin: miter; stroke-linecap: square"/>
   </g>
   <g id="patch_6">
    <path d="M 90 51.84 
L 648 51.84 
" style="fill: none; stroke: #000000; stroke-width: 0.8; stroke-linejoin: miter; stroke-linecap: square"/>
   </g>
   <g id="text_10">
    <!-- Loss vs. Learning Rate -->
    <g transform="translate(301.730625 45.84) scale(0.12 -0.12)">
     <defs>
      <path id="DejaVuSans-76" d="M 191 3500 
L 800 3500 
L 1894 563 
L 2988 3500 
L 3597 3500 
L 2284 0 
L 1503 0 
L 191 3500 
z
" transform="scale(0.015625)"/>
      <path id="DejaVuSans-2e" d="M 684 794 
L 1344 794 
L 1344 0 
L 684 0 
L 684 794 
z
" transform="scale(0.015625)"/>
     </defs>
     <use xlink:href="#DejaVuSans-4c"/>
     <use xlink:href="#DejaVuSans-6f" x="53.962891"/>
     <use xlink:href="#DejaVuSans-73" x="115.144531"/>
     <use xlink:href="#DejaVuSans-73" x="167.244141"/>
     <use xlink:href="#DejaVuSans-20" x="219.34375"/>
     <use xlink:href="#DejaVuSans-76" x="251.130859"/>
     <use xlink:href="#DejaVuSans-73" x="310.310547"/>
     <use xlink:href="#DejaVuSans-2e" x="362.410156"/>
     <use xlink:href="#DejaVuSans-20" x="394.197266"/>
     <use xlink:href="#DejaVuSans-4c" x="425.984375"/>
     <use xlink:href="#DejaVuSans-65" x="479.947266"/>
     <use xlink:href="#DejaVuSans-61" x="541.470703"/>
     <use xlink:href="#DejaVuSans-72" x="602.75"/>
     <use xlink:href="#DejaVuSans-6e" x="642.113281"/>
     <use xlink:href="#DejaVuSans-69" x="705.492188"/>
     <use xlink:href="#DejaVuSans-6e" x="733.275391"/>
     <use xlink:href="#DejaVuSans-67" x="796.654297"/>
     <use xlink:href="#DejaVuSans-20" x="860.130859"/>
     <use xlink:href="#DejaVuSans-52" x="891.917969"/>
     <use xlink:href="#DejaVuSans-61" x="959.150391"/>
     <use xlink:href="#DejaVuSans-74" x="1020.429688"/>
     <use xlink:href="#DejaVuSans-65" x="1059.638672"/>
    </g>
   </g>
  </g>
 </g>
 <defs>
  <clipPath id="pfa01d6dee1">
   <rect x="90" y="51.84" width="558" height="332.64"/>
  </clipPath>
 </defs>
</svg>
