<?xml version="1.0" encoding="utf-8" standalone="no"?>
<!DOCTYPE svg PUBLIC "-//W3C//DTD SVG 1.1//EN"
  "http://www.w3.org/Graphics/SVG/1.1/DTD/svg11.dtd">
<svg xmlns:xlink="http://www.w3.org/1999/xlink" width="460.8pt" height="345.6pt" viewBox="0 0 460.8 345.6" xmlns="http://www.w3.org/2000/svg" version="1.1">
 <metadata>
  <rdf:RDF xmlns:dc="http://purl.org/dc/elements/1.1/" xmlns:cc="http://creativecommons.org/ns#" xmlns:rdf="http://www.w3.org/1999/02/22-rdf-syntax-ns#">
   <cc:Work>
    <dc:type rdf:resource="http://purl.org/dc/dcmitype/StillImage"/>
    <dc:date>2024-06-05T10:59:52.009988</dc:date>
    <dc:format>image/svg+xml</dc:format>
    <dc:creator>
     <cc:Agent>
      <dc:title>Matplotlib v3.7.1, https://matplotlib.org/</dc:title>
     </cc:Agent>
    </dc:creator>
   </cc:Work>
  </rdf:RDF>
 </metadata>
 <defs>
  <style type="text/css">*{stroke-linejoin: round; stroke-linecap: butt}</style>
 </defs>
 <g id="figure_1">
  <g id="patch_1">
   <path d="M 0 345.6 
L 460.8 345.6 
L 460.8 0 
L 0 0 
z
" style="fill: #ffffff"/>
  </g>
  <g id="axes_1">
   <g id="patch_2">
    <path d="M 57.6 307.584 
L 414.72 307.584 
L 414.72 41.472 
L 57.6 41.472 
z
" style="fill: #ffffff"/>
   </g>
   <g id="matplotlib.axis_1">
    <g id="xtick_1">
     <g id="line2d_1">
      <path d="M 73.832727 307.584 
L 73.832727 41.472 
" clip-path="url(#p769ac61cd8)" style="fill: none; stroke: #b0b0b0; stroke-width: 0.8; stroke-linecap: square"/>
     </g>
     <g id="line2d_2">
      <defs>
       <path id="m1fc5a6a76e" d="M 0 0 
L 0 3.5 
" style="stroke: #000000; stroke-width: 0.8"/>
      </defs>
      <g>
       <use xlink:href="#m1fc5a6a76e" x="73.832727" y="307.584" style="stroke: #000000; stroke-width: 0.8"/>
      </g>
     </g>
     <g id="text_1">
      <!-- 0 -->
      <g transform="translate(70.651477 322.182437) scale(0.1 -0.1)">
       <defs>
        <path id="DejaVuSans-30" d="M 2034 4250 
Q 1547 4250 1301 3770 
Q 1056 3291 1056 2328 
Q 1056 1369 1301 889 
Q 1547 409 2034 409 
Q 2525 409 2770 889 
Q 3016 1369 3016 2328 
Q 3016 3291 2770 3770 
Q 2525 4250 2034 4250 
z
M 2034 4750 
Q 2819 4750 3233 4129 
Q 3647 3509 3647 2328 
Q 3647 1150 3233 529 
Q 2819 -91 2034 -91 
Q 1250 -91 836 529 
Q 422 1150 422 2328 
Q 422 3509 836 4129 
Q 1250 4750 2034 4750 
z
" transform="scale(0.015625)"/>
       </defs>
       <use xlink:href="#DejaVuSans-30"/>
      </g>
     </g>
    </g>
    <g id="xtick_2">
     <g id="line2d_3">
      <path d="M 139.419504 307.584 
L 139.419504 41.472 
" clip-path="url(#p769ac61cd8)" style="fill: none; stroke: #b0b0b0; stroke-width: 0.8; stroke-linecap: square"/>
     </g>
     <g id="line2d_4">
      <g>
       <use xlink:href="#m1fc5a6a76e" x="139.419504" y="307.584" style="stroke: #000000; stroke-width: 0.8"/>
      </g>
     </g>
     <g id="text_2">
      <!-- 20 -->
      <g transform="translate(133.057004 322.182437) scale(0.1 -0.1)">
       <defs>
        <path id="DejaVuSans-32" d="M 1228 531 
L 3431 531 
L 3431 0 
L 469 0 
L 469 531 
Q 828 903 1448 1529 
Q 2069 2156 2228 2338 
Q 2531 2678 2651 2914 
Q 2772 3150 2772 3378 
Q 2772 3750 2511 3984 
Q 2250 4219 1831 4219 
Q 1534 4219 1204 4116 
Q 875 4013 500 3803 
L 500 4441 
Q 881 4594 1212 4672 
Q 1544 4750 1819 4750 
Q 2544 4750 2975 4387 
Q 3406 4025 3406 3419 
Q 3406 3131 3298 2873 
Q 3191 2616 2906 2266 
Q 2828 2175 2409 1742 
Q 1991 1309 1228 531 
z
" transform="scale(0.015625)"/>
       </defs>
       <use xlink:href="#DejaVuSans-32"/>
       <use xlink:href="#DejaVuSans-30" x="63.623047"/>
      </g>
     </g>
    </g>
    <g id="xtick_3">
     <g id="line2d_5">
      <path d="M 205.006281 307.584 
L 205.006281 41.472 
" clip-path="url(#p769ac61cd8)" style="fill: none; stroke: #b0b0b0; stroke-width: 0.8; stroke-linecap: square"/>
     </g>
     <g id="line2d_6">
      <g>
       <use xlink:href="#m1fc5a6a76e" x="205.006281" y="307.584" style="stroke: #000000; stroke-width: 0.8"/>
      </g>
     </g>
     <g id="text_3">
      <!-- 40 -->
      <g transform="translate(198.643781 322.182437) scale(0.1 -0.1)">
       <defs>
        <path id="DejaVuSans-34" d="M 2419 4116 
L 825 1625 
L 2419 1625 
L 2419 4116 
z
M 2253 4666 
L 3047 4666 
L 3047 1625 
L 3713 1625 
L 3713 1100 
L 3047 1100 
L 3047 0 
L 2419 0 
L 2419 1100 
L 313 1100 
L 313 1709 
L 2253 4666 
z
" transform="scale(0.015625)"/>
       </defs>
       <use xlink:href="#DejaVuSans-34"/>
       <use xlink:href="#DejaVuSans-30" x="63.623047"/>
      </g>
     </g>
    </g>
    <g id="xtick_4">
     <g id="line2d_7">
      <path d="M 270.593058 307.584 
L 270.593058 41.472 
" clip-path="url(#p769ac61cd8)" style="fill: none; stroke: #b0b0b0; stroke-width: 0.8; stroke-linecap: square"/>
     </g>
     <g id="line2d_8">
      <g>
       <use xlink:href="#m1fc5a6a76e" x="270.593058" y="307.584" style="stroke: #000000; stroke-width: 0.8"/>
      </g>
     </g>
     <g id="text_4">
      <!-- 60 -->
      <g transform="translate(264.230558 322.182437) scale(0.1 -0.1)">
       <defs>
        <path id="DejaVuSans-36" d="M 2113 2584 
Q 1688 2584 1439 2293 
Q 1191 2003 1191 1497 
Q 1191 994 1439 701 
Q 1688 409 2113 409 
Q 2538 409 2786 701 
Q 3034 994 3034 1497 
Q 3034 2003 2786 2293 
Q 2538 2584 2113 2584 
z
M 3366 4563 
L 3366 3988 
Q 3128 4100 2886 4159 
Q 2644 4219 2406 4219 
Q 1781 4219 1451 3797 
Q 1122 3375 1075 2522 
Q 1259 2794 1537 2939 
Q 1816 3084 2150 3084 
Q 2853 3084 3261 2657 
Q 3669 2231 3669 1497 
Q 3669 778 3244 343 
Q 2819 -91 2113 -91 
Q 1303 -91 875 529 
Q 447 1150 447 2328 
Q 447 3434 972 4092 
Q 1497 4750 2381 4750 
Q 2619 4750 2861 4703 
Q 3103 4656 3366 4563 
z
" transform="scale(0.015625)"/>
       </defs>
       <use xlink:href="#DejaVuSans-36"/>
       <use xlink:href="#DejaVuSans-30" x="63.623047"/>
      </g>
     </g>
    </g>
    <g id="xtick_5">
     <g id="line2d_9">
      <path d="M 336.179835 307.584 
L 336.179835 41.472 
" clip-path="url(#p769ac61cd8)" style="fill: none; stroke: #b0b0b0; stroke-width: 0.8; stroke-linecap: square"/>
     </g>
     <g id="line2d_10">
      <g>
       <use xlink:href="#m1fc5a6a76e" x="336.179835" y="307.584" style="stroke: #000000; stroke-width: 0.8"/>
      </g>
     </g>
     <g id="text_5">
      <!-- 80 -->
      <g transform="translate(329.817335 322.182437) scale(0.1 -0.1)">
       <defs>
        <path id="DejaVuSans-38" d="M 2034 2216 
Q 1584 2216 1326 1975 
Q 1069 1734 1069 1313 
Q 1069 891 1326 650 
Q 1584 409 2034 409 
Q 2484 409 2743 651 
Q 3003 894 3003 1313 
Q 3003 1734 2745 1975 
Q 2488 2216 2034 2216 
z
M 1403 2484 
Q 997 2584 770 2862 
Q 544 3141 544 3541 
Q 544 4100 942 4425 
Q 1341 4750 2034 4750 
Q 2731 4750 3128 4425 
Q 3525 4100 3525 3541 
Q 3525 3141 3298 2862 
Q 3072 2584 2669 2484 
Q 3125 2378 3379 2068 
Q 3634 1759 3634 1313 
Q 3634 634 3220 271 
Q 2806 -91 2034 -91 
Q 1263 -91 848 271 
Q 434 634 434 1313 
Q 434 1759 690 2068 
Q 947 2378 1403 2484 
z
M 1172 3481 
Q 1172 3119 1398 2916 
Q 1625 2713 2034 2713 
Q 2441 2713 2670 2916 
Q 2900 3119 2900 3481 
Q 2900 3844 2670 4047 
Q 2441 4250 2034 4250 
Q 1625 4250 1398 4047 
Q 1172 3844 1172 3481 
z
" transform="scale(0.015625)"/>
       </defs>
       <use xlink:href="#DejaVuSans-38"/>
       <use xlink:href="#DejaVuSans-30" x="63.623047"/>
      </g>
     </g>
    </g>
    <g id="xtick_6">
     <g id="line2d_11">
      <path d="M 401.766612 307.584 
L 401.766612 41.472 
" clip-path="url(#p769ac61cd8)" style="fill: none; stroke: #b0b0b0; stroke-width: 0.8; stroke-linecap: square"/>
     </g>
     <g id="line2d_12">
      <g>
       <use xlink:href="#m1fc5a6a76e" x="401.766612" y="307.584" style="stroke: #000000; stroke-width: 0.8"/>
      </g>
     </g>
     <g id="text_6">
      <!-- 100 -->
      <g transform="translate(392.222862 322.182437) scale(0.1 -0.1)">
       <defs>
        <path id="DejaVuSans-31" d="M 794 531 
L 1825 531 
L 1825 4091 
L 703 3866 
L 703 4441 
L 1819 4666 
L 2450 4666 
L 2450 531 
L 3481 531 
L 3481 0 
L 794 0 
L 794 531 
z
" transform="scale(0.015625)"/>
       </defs>
       <use xlink:href="#DejaVuSans-31"/>
       <use xlink:href="#DejaVuSans-30" x="63.623047"/>
       <use xlink:href="#DejaVuSans-30" x="127.246094"/>
      </g>
     </g>
    </g>
    <g id="text_7">
     <!-- T -->
     <g transform="translate(233.106094 335.860562) scale(0.1 -0.1)">
      <defs>
       <path id="DejaVuSans-54" d="M -19 4666 
L 3928 4666 
L 3928 4134 
L 2272 4134 
L 2272 0 
L 1638 0 
L 1638 4134 
L -19 4134 
L -19 4666 
z
" transform="scale(0.015625)"/>
      </defs>
      <use xlink:href="#DejaVuSans-54"/>
     </g>
    </g>
   </g>
   <g id="matplotlib.axis_2">
    <g id="ytick_1">
     <g id="line2d_13">
      <path d="M 57.6 295.594511 
L 414.72 295.594511 
" clip-path="url(#p769ac61cd8)" style="fill: none; stroke: #b0b0b0; stroke-width: 0.8; stroke-linecap: square"/>
     </g>
     <g id="line2d_14">
      <defs>
       <path id="mb3c9dd6389" d="M 0 0 
L -3.5 0 
" style="stroke: #000000; stroke-width: 0.8"/>
      </defs>
      <g>
       <use xlink:href="#mb3c9dd6389" x="57.6" y="295.594511" style="stroke: #000000; stroke-width: 0.8"/>
      </g>
     </g>
     <g id="text_8">
      <!-- −2 -->
      <g transform="translate(35.857813 299.393729) scale(0.1 -0.1)">
       <defs>
        <path id="DejaVuSans-2212" d="M 678 2272 
L 4684 2272 
L 4684 1741 
L 678 1741 
L 678 2272 
z
" transform="scale(0.015625)"/>
       </defs>
       <use xlink:href="#DejaVuSans-2212"/>
       <use xlink:href="#DejaVuSans-32" x="83.789062"/>
      </g>
     </g>
    </g>
    <g id="ytick_2">
     <g id="line2d_15">
      <path d="M 57.6 251.589691 
L 414.72 251.589691 
" clip-path="url(#p769ac61cd8)" style="fill: none; stroke: #b0b0b0; stroke-width: 0.8; stroke-linecap: square"/>
     </g>
     <g id="line2d_16">
      <g>
       <use xlink:href="#mb3c9dd6389" x="57.6" y="251.589691" style="stroke: #000000; stroke-width: 0.8"/>
      </g>
     </g>
     <g id="text_9">
      <!-- 0 -->
      <g transform="translate(44.2375 255.388909) scale(0.1 -0.1)">
       <use xlink:href="#DejaVuSans-30"/>
      </g>
     </g>
    </g>
    <g id="ytick_3">
     <g id="line2d_17">
      <path d="M 57.6 207.58487 
L 414.72 207.58487 
" clip-path="url(#p769ac61cd8)" style="fill: none; stroke: #b0b0b0; stroke-width: 0.8; stroke-linecap: square"/>
     </g>
     <g id="line2d_18">
      <g>
       <use xlink:href="#mb3c9dd6389" x="57.6" y="207.58487" style="stroke: #000000; stroke-width: 0.8"/>
      </g>
     </g>
     <g id="text_10">
      <!-- 2 -->
      <g transform="translate(44.2375 211.384089) scale(0.1 -0.1)">
       <use xlink:href="#DejaVuSans-32"/>
      </g>
     </g>
    </g>
    <g id="ytick_4">
     <g id="line2d_19">
      <path d="M 57.6 163.58005 
L 414.72 163.58005 
" clip-path="url(#p769ac61cd8)" style="fill: none; stroke: #b0b0b0; stroke-width: 0.8; stroke-linecap: square"/>
     </g>
     <g id="line2d_20">
      <g>
       <use xlink:href="#mb3c9dd6389" x="57.6" y="163.58005" style="stroke: #000000; stroke-width: 0.8"/>
      </g>
     </g>
     <g id="text_11">
      <!-- 4 -->
      <g transform="translate(44.2375 167.379269) scale(0.1 -0.1)">
       <use xlink:href="#DejaVuSans-34"/>
      </g>
     </g>
    </g>
    <g id="ytick_5">
     <g id="line2d_21">
      <path d="M 57.6 119.57523 
L 414.72 119.57523 
" clip-path="url(#p769ac61cd8)" style="fill: none; stroke: #b0b0b0; stroke-width: 0.8; stroke-linecap: square"/>
     </g>
     <g id="line2d_22">
      <g>
       <use xlink:href="#mb3c9dd6389" x="57.6" y="119.57523" style="stroke: #000000; stroke-width: 0.8"/>
      </g>
     </g>
     <g id="text_12">
      <!-- 6 -->
      <g transform="translate(44.2375 123.374449) scale(0.1 -0.1)">
       <use xlink:href="#DejaVuSans-36"/>
      </g>
     </g>
    </g>
    <g id="ytick_6">
     <g id="line2d_23">
      <path d="M 57.6 75.57041 
L 414.72 75.57041 
" clip-path="url(#p769ac61cd8)" style="fill: none; stroke: #b0b0b0; stroke-width: 0.8; stroke-linecap: square"/>
     </g>
     <g id="line2d_24">
      <g>
       <use xlink:href="#mb3c9dd6389" x="57.6" y="75.57041" style="stroke: #000000; stroke-width: 0.8"/>
      </g>
     </g>
     <g id="text_13">
      <!-- 8 -->
      <g transform="translate(44.2375 79.369629) scale(0.1 -0.1)">
       <use xlink:href="#DejaVuSans-38"/>
      </g>
     </g>
    </g>
    <g id="text_14">
     <!-- X -->
     <g transform="translate(29.778125 177.953) rotate(-90) scale(0.1 -0.1)">
      <defs>
       <path id="DejaVuSans-58" d="M 403 4666 
L 1081 4666 
L 2241 2931 
L 3406 4666 
L 4084 4666 
L 2584 2425 
L 4184 0 
L 3506 0 
L 2194 1984 
L 872 0 
L 191 0 
L 1856 2491 
L 403 4666 
z
" transform="scale(0.015625)"/>
      </defs>
      <use xlink:href="#DejaVuSans-58"/>
     </g>
    </g>
   </g>
   <g id="line2d_25">
    <path d="M 73.832727 97.57282 
L 77.112066 106.809445 
L 80.391405 116.894705 
L 83.670744 142.469155 
L 86.950083 162.663056 
L 90.229421 192.436311 
L 93.50876 209.576699 
L 96.788099 214.12159 
L 100.067438 220.870042 
L 103.346777 226.891592 
L 106.626116 230.703949 
L 109.905455 225.994352 
L 113.184793 222.274189 
L 116.464132 219.222352 
L 119.743471 212.160895 
L 123.02281 217.185157 
L 126.302149 210.115832 
L 129.581488 203.131823 
L 132.860826 196.915427 
L 136.140165 197.010317 
L 139.419504 196.295346 
L 142.698843 202.683724 
L 145.978182 216.3478 
L 149.257521 215.628626 
L 152.53686 211.55491 
L 155.816198 219.209415 
L 159.095537 229.22441 
L 162.374876 228.037935 
L 165.654215 219.80702 
L 168.933554 211.983807 
L 172.212893 211.013729 
L 175.492231 219.284005 
L 178.77157 217.93019 
L 182.050909 230.951157 
L 185.330248 228.645846 
L 188.609587 234.843038 
L 191.888926 242.896826 
L 195.168264 251.365445 
L 198.447603 241.825566 
L 201.726942 250.563929 
L 205.006281 240.518059 
L 208.28562 230.254139 
L 211.564959 221.852635 
L 214.844298 212.478806 
L 218.123636 222.34866 
L 221.402975 220.642251 
L 224.682314 220.117845 
L 227.961653 223.745246 
L 231.240992 234.25907 
L 234.520331 231.839884 
L 237.799669 238.153957 
L 241.079008 232.938629 
L 244.358347 244.182654 
L 247.637686 245.763154 
L 250.917025 239.984135 
L 254.196364 239.082185 
L 257.475702 229.723108 
L 260.755041 235.687209 
L 264.03438 238.419865 
L 267.313719 243.525192 
L 270.593058 235.885403 
L 273.872397 230.79896 
L 277.151736 227.073069 
L 280.431074 235.26336 
L 283.710413 227.752051 
L 286.989752 225.548365 
L 290.269091 238.721194 
L 293.54843 243.789159 
L 296.827769 252.968166 
L 300.107107 242.26038 
L 303.386446 238.177718 
L 306.665785 233.748463 
L 309.945124 229.551617 
L 313.224463 238.251409 
L 316.503802 231.749006 
L 319.78314 229.910486 
L 323.062479 226.902451 
L 326.341818 217.507659 
L 329.621157 213.163492 
L 332.900496 217.461866 
L 336.179835 215.629744 
L 339.459174 220.061335 
L 342.738512 219.410834 
L 346.017851 230.191814 
L 349.29719 235.208515 
L 352.576529 237.721802 
L 355.855868 245.110371 
L 359.135207 254.46192 
L 362.414545 255.241802 
L 365.693884 249.212235 
L 368.973223 245.647478 
L 372.252562 237.168978 
L 375.531901 229.537989 
L 378.81124 228.903734 
L 382.090579 220.724707 
L 385.369917 224.408967 
L 388.649256 223.013237 
L 391.928595 223.511072 
L 395.207934 218.743526 
L 398.487273 229.254803 
" clip-path="url(#p769ac61cd8)" style="fill: none; stroke: #000000; stroke-width: 1.5; stroke-linecap: square"/>
   </g>
   <g id="line2d_26">
    <path d="M 73.832727 97.57282 
L 77.112066 106.809445 
L 80.391405 115.162444 
L 83.670744 135.125595 
L 86.950083 155.451251 
L 90.229421 185.726518 
L 93.50876 202.96246 
L 96.788099 208.032637 
L 100.067438 214.255917 
L 103.346777 218.80252 
L 106.626116 219.193945 
L 109.905455 213.644185 
L 113.184793 211.250045 
L 116.464132 213.164591 
L 119.743471 209.819908 
L 123.02281 217.339372 
L 126.302149 212.075918 
L 129.581488 206.812253 
L 132.860826 201.258534 
L 136.140165 201.573057 
L 139.419504 200.982232 
L 142.698843 207.152827 
L 145.978182 220.473942 
L 149.257521 219.365058 
L 152.53686 214.924738 
L 155.816198 222.248542 
L 159.095537 231.926004 
L 162.374876 230.19961 
L 165.654215 221.335173 
L 168.933554 212.849231 
L 172.212893 211.019312 
L 175.492231 218.533213 
L 178.77157 217.351819 
L 182.050909 230.255158 
L 185.330248 227.423739 
L 188.609587 233.012415 
L 191.888926 240.745638 
L 195.168264 248.29172 
L 198.447603 237.667027 
L 201.726942 245.72906 
L 205.006281 235.521157 
L 208.28562 224.599898 
L 211.564959 215.294402 
L 214.844298 205.296665 
L 218.123636 214.779347 
L 221.402975 213.267013 
L 224.682314 213.688183 
L 227.961653 218.082536 
L 231.240992 229.262921 
L 234.520331 227.254105 
L 237.799669 233.623776 
L 241.079008 228.109386 
L 244.358347 238.859056 
L 247.637686 240.017721 
L 250.917025 233.138732 
L 254.196364 230.942073 
L 257.475702 220.769858 
L 260.755041 227.060852 
L 264.03438 230.503403 
L 267.313719 236.544531 
L 270.593058 229.447996 
L 273.872397 224.99259 
L 277.151736 221.933084 
L 280.431074 230.799426 
L 283.710413 223.620942 
L 286.989752 221.857918 
L 290.269091 234.951861 
L 293.54843 239.811067 
L 296.827769 248.690962 
L 300.107107 238.023534 
L 303.386446 234.917863 
L 306.665785 231.502396 
L 309.945124 229.113564 
L 313.224463 239.767037 
L 316.503802 234.242776 
L 319.78314 232.96344 
L 323.062479 230.103607 
L 326.341818 221.523533 
L 329.621157 216.941947 
L 332.900496 220.944491 
L 336.179835 217.762821 
L 339.459174 220.531766 
L 342.738512 219.11248 
L 346.017851 229.341244 
L 349.29719 234.071363 
L 352.576529 237.393693 
L 355.855868 245.691489 
L 359.135207 255.553843 
L 362.414545 257.129554 
L 365.693884 252.514635 
L 368.973223 248.717654 
L 372.252562 238.772708 
L 375.531901 229.371214 
L 378.81124 227.28745 
L 382.090579 217.342463 
L 385.369917 219.859419 
L 388.649256 217.924057 
L 391.928595 218.000033 
L 395.207934 213.043495 
L 398.487273 223.199775 
" clip-path="url(#p769ac61cd8)" style="fill: none; stroke: #ff0000; stroke-width: 1.5; stroke-linecap: square"/>
   </g>
   <g id="line2d_27">
    <path d="M 73.832727 53.568 
L 77.112066 89.26858 
L 80.391405 122.266658 
L 83.670744 146.601261 
L 86.950083 146.84352 
L 90.229421 138.618917 
L 93.50876 154.080167 
L 96.788099 167.609702 
L 100.067438 177.165288 
L 103.346777 175.531921 
L 106.626116 190.587506 
L 109.905455 194.907249 
L 113.184793 207.393323 
L 116.464132 221.146259 
L 119.743471 227.681531 
L 123.02281 230.803521 
L 126.302149 226.77318 
L 129.581488 235.841162 
L 132.860826 237.799348 
L 136.140165 233.511944 
L 139.419504 241.062831 
L 142.698843 243.653233 
L 145.978182 245.066178 
L 149.257521 254.550781 
L 152.53686 260.018026 
L 155.816198 266.435226 
L 159.095537 267.726614 
L 162.374876 261.085226 
L 165.654215 257.905281 
L 168.933554 259.300518 
L 172.212893 258.505863 
L 175.492231 246.989368 
L 178.77157 250.211297 
L 182.050909 256.970083 
L 185.330248 259.78401 
L 188.609587 255.044959 
L 191.888926 264.430995 
L 195.168264 273.996348 
L 198.447603 279.72049 
L 201.726942 286.103707 
L 205.006281 278.999603 
L 208.28562 271.339382 
L 211.564959 277.90921 
L 214.844298 262.603427 
L 218.123636 255.976337 
L 221.402975 245.847995 
L 224.682314 247.246885 
L 227.961653 240.138065 
L 231.240992 245.362609 
L 234.520331 239.405263 
L 237.799669 230.977086 
L 241.079008 236.902232 
L 244.358347 246.898272 
L 247.637686 240.815144 
L 250.917025 236.349493 
L 254.196364 240.457744 
L 257.475702 252.255632 
L 260.755041 255.25546 
L 264.03438 258.359787 
L 267.313719 248.526868 
L 270.593058 247.351918 
L 273.872397 246.207863 
L 277.151736 245.585676 
L 280.431074 252.949668 
L 283.710413 249.254649 
L 286.989752 255.965 
L 290.269091 256.846714 
L 293.54843 255.661675 
L 296.827769 250.187462 
L 300.107107 240.994073 
L 303.386446 239.663564 
L 306.665785 231.872842 
L 309.945124 227.723613 
L 313.224463 236.050298 
L 316.503802 238.882387 
L 319.78314 242.032402 
L 323.062479 235.5622 
L 326.341818 244.851647 
L 329.621157 246.033363 
L 332.900496 257.993826 
L 336.179835 265.481218 
L 339.459174 252.582147 
L 342.738512 250.426466 
L 346.017851 248.148343 
L 349.29719 239.708351 
L 352.576529 238.188605 
L 355.855868 240.542644 
L 359.135207 237.915789 
L 362.414545 232.235281 
L 365.693884 242.745532 
L 368.973223 250.844121 
L 372.252562 253.219115 
L 375.531901 254.349139 
L 378.81124 264.332382 
L 382.090579 261.348607 
L 385.369917 257.062944 
L 388.649256 258.940467 
L 391.928595 258.849106 
L 395.207934 267.633383 
L 398.487273 256.172743 
" clip-path="url(#p769ac61cd8)" style="fill: none; stroke-dasharray: 5.55,2.4; stroke-dashoffset: 0; stroke: #000000; stroke-width: 1.5"/>
   </g>
   <g id="line2d_28">
    <path d="M 73.832727 53.568 
L 77.112066 83.846304 
L 80.391405 112.484744 
L 83.670744 137.296523 
L 86.950083 139.797274 
L 90.229421 135.51939 
L 93.50876 154.742788 
L 96.788099 170.747097 
L 100.067438 183.474093 
L 103.346777 188.687735 
L 106.626116 211.362763 
L 109.905455 224.095852 
L 113.184793 247.254899 
L 116.464132 254.23625 
L 119.743471 253.808249 
L 123.02281 251.029303 
L 126.302149 242.259864 
L 129.581488 247.187809 
L 132.860826 244.783223 
L 136.140165 238.198628 
L 139.419504 243.989994 
L 142.698843 245.09842 
L 145.978182 245.418132 
L 149.257521 254.071991 
L 152.53686 259.919441 
L 155.816198 266.74105 
L 159.095537 269.951151 
L 162.374876 265.748443 
L 165.654215 264.794146 
L 168.933554 267.899152 
L 172.212893 267.370118 
L 175.492231 255.966521 
L 178.77157 259.433532 
L 182.050909 265.252577 
L 185.330248 267.78383 
L 188.609587 263.710462 
L 191.888926 273.852768 
L 195.168264 284.440141 
L 198.447603 289.235332 
L 201.726942 295.488 
L 205.006281 288.849547 
L 208.28562 282.163987 
L 211.564959 288.54303 
L 214.844298 272.394415 
L 218.123636 264.585227 
L 221.402975 252.194866 
L 224.682314 251.267501 
L 227.961653 241.154361 
L 231.240992 244.073743 
L 234.520331 235.923131 
L 237.799669 225.526251 
L 241.079008 229.498944 
L 244.358347 236.343851 
L 247.637686 227.555543 
L 250.917025 221.469043 
L 254.196364 227.642784 
L 257.475702 241.235113 
L 260.755041 246.304496 
L 264.03438 252.466296 
L 267.313719 245.461198 
L 270.593058 247.09079 
L 273.872397 247.924828 
L 277.151736 248.951044 
L 280.431074 257.719316 
L 283.710413 255.076584 
L 286.989752 263.354082 
L 290.269091 265.107956 
L 293.54843 265.81676 
L 296.827769 262.416079 
L 300.107107 255.625903 
L 303.386446 255.606393 
L 306.665785 247.892036 
L 309.945124 243.775356 
L 313.224463 251.123529 
L 316.503802 253.257424 
L 319.78314 255.748632 
L 323.062479 248.844944 
L 326.341818 257.608649 
L 329.621157 257.769545 
L 332.900496 269.223646 
L 336.179835 276.864699 
L 339.459174 265.672862 
L 342.738512 264.519092 
L 346.017851 262.992932 
L 349.29719 255.098839 
L 352.576529 254.23694 
L 355.855868 256.558585 
L 359.135207 254.40512 
L 362.414545 249.93372 
L 365.693884 261.404291 
L 368.973223 269.603653 
L 372.252562 272.949209 
L 375.531901 271.959013 
L 378.81124 279.505081 
L 382.090579 274.601305 
L 385.369917 268.839591 
L 388.649256 269.04448 
L 391.928595 267.391886 
L 395.207934 274.786826 
L 398.487273 262.052909 
" clip-path="url(#p769ac61cd8)" style="fill: none; stroke-dasharray: 5.55,2.4; stroke-dashoffset: 0; stroke: #ff0000; stroke-width: 1.5"/>
   </g>
   <g id="patch_3">
    <path d="M 57.6 307.584 
L 57.6 41.472 
" style="fill: none; stroke: #000000; stroke-width: 0.8; stroke-linejoin: miter; stroke-linecap: square"/>
   </g>
   <g id="patch_4">
    <path d="M 414.72 307.584 
L 414.72 41.472 
" style="fill: none; stroke: #000000; stroke-width: 0.8; stroke-linejoin: miter; stroke-linecap: square"/>
   </g>
   <g id="patch_5">
    <path d="M 57.6 307.584 
L 414.72 307.584 
" style="fill: none; stroke: #000000; stroke-width: 0.8; stroke-linejoin: miter; stroke-linecap: square"/>
   </g>
   <g id="patch_6">
    <path d="M 57.6 41.472 
L 414.72 41.472 
" style="fill: none; stroke: #000000; stroke-width: 0.8; stroke-linejoin: miter; stroke-linecap: square"/>
   </g>
   <g id="legend_1">
    <g id="patch_7">
     <path d="M 392.72 67.472 
L 400.72 67.472 
Q 404.72 67.472 404.72 63.472 
L 404.72 55.472 
Q 404.72 51.472 400.72 51.472 
L 392.72 51.472 
Q 388.72 51.472 388.72 55.472 
L 388.72 63.472 
Q 388.72 67.472 392.72 67.472 
z
" style="fill: #ffffff; opacity: 0.8; stroke: #cccccc; stroke-linejoin: miter"/>
    </g>
   </g>
  </g>
 </g>
 <defs>
  <clipPath id="p769ac61cd8">
   <rect x="57.6" y="41.472" width="357.12" height="266.112"/>
  </clipPath>
 </defs>
</svg>
