<?xml version="1.0" encoding="utf-8" standalone="no"?>
<!DOCTYPE svg PUBLIC "-//W3C//DTD SVG 1.1//EN"
  "http://www.w3.org/Graphics/SVG/1.1/DTD/svg11.dtd">
<svg xmlns:xlink="http://www.w3.org/1999/xlink" width="460.8pt" height="345.6pt" viewBox="0 0 460.8 345.6" xmlns="http://www.w3.org/2000/svg" version="1.1">
 <metadata>
  <rdf:RDF xmlns:dc="http://purl.org/dc/elements/1.1/" xmlns:cc="http://creativecommons.org/ns#" xmlns:rdf="http://www.w3.org/1999/02/22-rdf-syntax-ns#">
   <cc:Work>
    <dc:type rdf:resource="http://purl.org/dc/dcmitype/StillImage"/>
    <dc:date>2024-06-05T10:59:52.936935</dc:date>
    <dc:format>image/svg+xml</dc:format>
    <dc:creator>
     <cc:Agent>
      <dc:title>Matplotlib v3.7.1, https://matplotlib.org/</dc:title>
     </cc:Agent>
    </dc:creator>
   </cc:Work>
  </rdf:RDF>
 </metadata>
 <defs>
  <style type="text/css">*{stroke-linejoin: round; stroke-linecap: butt}</style>
 </defs>
 <g id="figure_1">
  <g id="patch_1">
   <path d="M 0 345.6 
L 460.8 345.6 
L 460.8 0 
L 0 0 
z
" style="fill: #ffffff"/>
  </g>
  <g id="axes_1">
   <g id="patch_2">
    <path d="M 57.6 307.584 
L 414.72 307.584 
L 414.72 41.472 
L 57.6 41.472 
z
" style="fill: #ffffff"/>
   </g>
   <g id="matplotlib.axis_1">
    <g id="xtick_1">
     <g id="line2d_1">
      <path d="M 73.832727 307.584 
L 73.832727 41.472 
" clip-path="url(#p5226fed6f7)" style="fill: none; stroke: #b0b0b0; stroke-width: 0.8; stroke-linecap: square"/>
     </g>
     <g id="line2d_2">
      <defs>
       <path id="m9414abe310" d="M 0 0 
L 0 3.5 
" style="stroke: #000000; stroke-width: 0.8"/>
      </defs>
      <g>
       <use xlink:href="#m9414abe310" x="73.832727" y="307.584" style="stroke: #000000; stroke-width: 0.8"/>
      </g>
     </g>
     <g id="text_1">
      <!-- 0 -->
      <g transform="translate(70.651477 322.182437) scale(0.1 -0.1)">
       <defs>
        <path id="DejaVuSans-30" d="M 2034 4250 
Q 1547 4250 1301 3770 
Q 1056 3291 1056 2328 
Q 1056 1369 1301 889 
Q 1547 409 2034 409 
Q 2525 409 2770 889 
Q 3016 1369 3016 2328 
Q 3016 3291 2770 3770 
Q 2525 4250 2034 4250 
z
M 2034 4750 
Q 2819 4750 3233 4129 
Q 3647 3509 3647 2328 
Q 3647 1150 3233 529 
Q 2819 -91 2034 -91 
Q 1250 -91 836 529 
Q 422 1150 422 2328 
Q 422 3509 836 4129 
Q 1250 4750 2034 4750 
z
" transform="scale(0.015625)"/>
       </defs>
       <use xlink:href="#DejaVuSans-30"/>
      </g>
     </g>
    </g>
    <g id="xtick_2">
     <g id="line2d_3">
      <path d="M 139.419504 307.584 
L 139.419504 41.472 
" clip-path="url(#p5226fed6f7)" style="fill: none; stroke: #b0b0b0; stroke-width: 0.8; stroke-linecap: square"/>
     </g>
     <g id="line2d_4">
      <g>
       <use xlink:href="#m9414abe310" x="139.419504" y="307.584" style="stroke: #000000; stroke-width: 0.8"/>
      </g>
     </g>
     <g id="text_2">
      <!-- 20 -->
      <g transform="translate(133.057004 322.182437) scale(0.1 -0.1)">
       <defs>
        <path id="DejaVuSans-32" d="M 1228 531 
L 3431 531 
L 3431 0 
L 469 0 
L 469 531 
Q 828 903 1448 1529 
Q 2069 2156 2228 2338 
Q 2531 2678 2651 2914 
Q 2772 3150 2772 3378 
Q 2772 3750 2511 3984 
Q 2250 4219 1831 4219 
Q 1534 4219 1204 4116 
Q 875 4013 500 3803 
L 500 4441 
Q 881 4594 1212 4672 
Q 1544 4750 1819 4750 
Q 2544 4750 2975 4387 
Q 3406 4025 3406 3419 
Q 3406 3131 3298 2873 
Q 3191 2616 2906 2266 
Q 2828 2175 2409 1742 
Q 1991 1309 1228 531 
z
" transform="scale(0.015625)"/>
       </defs>
       <use xlink:href="#DejaVuSans-32"/>
       <use xlink:href="#DejaVuSans-30" x="63.623047"/>
      </g>
     </g>
    </g>
    <g id="xtick_3">
     <g id="line2d_5">
      <path d="M 205.006281 307.584 
L 205.006281 41.472 
" clip-path="url(#p5226fed6f7)" style="fill: none; stroke: #b0b0b0; stroke-width: 0.8; stroke-linecap: square"/>
     </g>
     <g id="line2d_6">
      <g>
       <use xlink:href="#m9414abe310" x="205.006281" y="307.584" style="stroke: #000000; stroke-width: 0.8"/>
      </g>
     </g>
     <g id="text_3">
      <!-- 40 -->
      <g transform="translate(198.643781 322.182437) scale(0.1 -0.1)">
       <defs>
        <path id="DejaVuSans-34" d="M 2419 4116 
L 825 1625 
L 2419 1625 
L 2419 4116 
z
M 2253 4666 
L 3047 4666 
L 3047 1625 
L 3713 1625 
L 3713 1100 
L 3047 1100 
L 3047 0 
L 2419 0 
L 2419 1100 
L 313 1100 
L 313 1709 
L 2253 4666 
z
" transform="scale(0.015625)"/>
       </defs>
       <use xlink:href="#DejaVuSans-34"/>
       <use xlink:href="#DejaVuSans-30" x="63.623047"/>
      </g>
     </g>
    </g>
    <g id="xtick_4">
     <g id="line2d_7">
      <path d="M 270.593058 307.584 
L 270.593058 41.472 
" clip-path="url(#p5226fed6f7)" style="fill: none; stroke: #b0b0b0; stroke-width: 0.8; stroke-linecap: square"/>
     </g>
     <g id="line2d_8">
      <g>
       <use xlink:href="#m9414abe310" x="270.593058" y="307.584" style="stroke: #000000; stroke-width: 0.8"/>
      </g>
     </g>
     <g id="text_4">
      <!-- 60 -->
      <g transform="translate(264.230558 322.182437) scale(0.1 -0.1)">
       <defs>
        <path id="DejaVuSans-36" d="M 2113 2584 
Q 1688 2584 1439 2293 
Q 1191 2003 1191 1497 
Q 1191 994 1439 701 
Q 1688 409 2113 409 
Q 2538 409 2786 701 
Q 3034 994 3034 1497 
Q 3034 2003 2786 2293 
Q 2538 2584 2113 2584 
z
M 3366 4563 
L 3366 3988 
Q 3128 4100 2886 4159 
Q 2644 4219 2406 4219 
Q 1781 4219 1451 3797 
Q 1122 3375 1075 2522 
Q 1259 2794 1537 2939 
Q 1816 3084 2150 3084 
Q 2853 3084 3261 2657 
Q 3669 2231 3669 1497 
Q 3669 778 3244 343 
Q 2819 -91 2113 -91 
Q 1303 -91 875 529 
Q 447 1150 447 2328 
Q 447 3434 972 4092 
Q 1497 4750 2381 4750 
Q 2619 4750 2861 4703 
Q 3103 4656 3366 4563 
z
" transform="scale(0.015625)"/>
       </defs>
       <use xlink:href="#DejaVuSans-36"/>
       <use xlink:href="#DejaVuSans-30" x="63.623047"/>
      </g>
     </g>
    </g>
    <g id="xtick_5">
     <g id="line2d_9">
      <path d="M 336.179835 307.584 
L 336.179835 41.472 
" clip-path="url(#p5226fed6f7)" style="fill: none; stroke: #b0b0b0; stroke-width: 0.8; stroke-linecap: square"/>
     </g>
     <g id="line2d_10">
      <g>
       <use xlink:href="#m9414abe310" x="336.179835" y="307.584" style="stroke: #000000; stroke-width: 0.8"/>
      </g>
     </g>
     <g id="text_5">
      <!-- 80 -->
      <g transform="translate(329.817335 322.182437) scale(0.1 -0.1)">
       <defs>
        <path id="DejaVuSans-38" d="M 2034 2216 
Q 1584 2216 1326 1975 
Q 1069 1734 1069 1313 
Q 1069 891 1326 650 
Q 1584 409 2034 409 
Q 2484 409 2743 651 
Q 3003 894 3003 1313 
Q 3003 1734 2745 1975 
Q 2488 2216 2034 2216 
z
M 1403 2484 
Q 997 2584 770 2862 
Q 544 3141 544 3541 
Q 544 4100 942 4425 
Q 1341 4750 2034 4750 
Q 2731 4750 3128 4425 
Q 3525 4100 3525 3541 
Q 3525 3141 3298 2862 
Q 3072 2584 2669 2484 
Q 3125 2378 3379 2068 
Q 3634 1759 3634 1313 
Q 3634 634 3220 271 
Q 2806 -91 2034 -91 
Q 1263 -91 848 271 
Q 434 634 434 1313 
Q 434 1759 690 2068 
Q 947 2378 1403 2484 
z
M 1172 3481 
Q 1172 3119 1398 2916 
Q 1625 2713 2034 2713 
Q 2441 2713 2670 2916 
Q 2900 3119 2900 3481 
Q 2900 3844 2670 4047 
Q 2441 4250 2034 4250 
Q 1625 4250 1398 4047 
Q 1172 3844 1172 3481 
z
" transform="scale(0.015625)"/>
       </defs>
       <use xlink:href="#DejaVuSans-38"/>
       <use xlink:href="#DejaVuSans-30" x="63.623047"/>
      </g>
     </g>
    </g>
    <g id="xtick_6">
     <g id="line2d_11">
      <path d="M 401.766612 307.584 
L 401.766612 41.472 
" clip-path="url(#p5226fed6f7)" style="fill: none; stroke: #b0b0b0; stroke-width: 0.8; stroke-linecap: square"/>
     </g>
     <g id="line2d_12">
      <g>
       <use xlink:href="#m9414abe310" x="401.766612" y="307.584" style="stroke: #000000; stroke-width: 0.8"/>
      </g>
     </g>
     <g id="text_6">
      <!-- 100 -->
      <g transform="translate(392.222862 322.182437) scale(0.1 -0.1)">
       <defs>
        <path id="DejaVuSans-31" d="M 794 531 
L 1825 531 
L 1825 4091 
L 703 3866 
L 703 4441 
L 1819 4666 
L 2450 4666 
L 2450 531 
L 3481 531 
L 3481 0 
L 794 0 
L 794 531 
z
" transform="scale(0.015625)"/>
       </defs>
       <use xlink:href="#DejaVuSans-31"/>
       <use xlink:href="#DejaVuSans-30" x="63.623047"/>
       <use xlink:href="#DejaVuSans-30" x="127.246094"/>
      </g>
     </g>
    </g>
    <g id="text_7">
     <!-- T -->
     <g transform="translate(233.106094 335.860562) scale(0.1 -0.1)">
      <defs>
       <path id="DejaVuSans-54" d="M -19 4666 
L 3928 4666 
L 3928 4134 
L 2272 4134 
L 2272 0 
L 1638 0 
L 1638 4134 
L -19 4134 
L -19 4666 
z
" transform="scale(0.015625)"/>
      </defs>
      <use xlink:href="#DejaVuSans-54"/>
     </g>
    </g>
   </g>
   <g id="matplotlib.axis_2">
    <g id="ytick_1">
     <g id="line2d_13">
      <path d="M 57.6 262.801767 
L 414.72 262.801767 
" clip-path="url(#p5226fed6f7)" style="fill: none; stroke: #b0b0b0; stroke-width: 0.8; stroke-linecap: square"/>
     </g>
     <g id="line2d_14">
      <defs>
       <path id="m536362d404" d="M 0 0 
L -3.5 0 
" style="stroke: #000000; stroke-width: 0.8"/>
      </defs>
      <g>
       <use xlink:href="#m536362d404" x="57.6" y="262.801767" style="stroke: #000000; stroke-width: 0.8"/>
      </g>
     </g>
     <g id="text_8">
      <!-- 0 -->
      <g transform="translate(44.2375 266.600986) scale(0.1 -0.1)">
       <use xlink:href="#DejaVuSans-30"/>
      </g>
     </g>
    </g>
    <g id="ytick_2">
     <g id="line2d_15">
      <path d="M 57.6 216.305374 
L 414.72 216.305374 
" clip-path="url(#p5226fed6f7)" style="fill: none; stroke: #b0b0b0; stroke-width: 0.8; stroke-linecap: square"/>
     </g>
     <g id="line2d_16">
      <g>
       <use xlink:href="#m536362d404" x="57.6" y="216.305374" style="stroke: #000000; stroke-width: 0.8"/>
      </g>
     </g>
     <g id="text_9">
      <!-- 2 -->
      <g transform="translate(44.2375 220.104593) scale(0.1 -0.1)">
       <use xlink:href="#DejaVuSans-32"/>
      </g>
     </g>
    </g>
    <g id="ytick_3">
     <g id="line2d_17">
      <path d="M 57.6 169.808982 
L 414.72 169.808982 
" clip-path="url(#p5226fed6f7)" style="fill: none; stroke: #b0b0b0; stroke-width: 0.8; stroke-linecap: square"/>
     </g>
     <g id="line2d_18">
      <g>
       <use xlink:href="#m536362d404" x="57.6" y="169.808982" style="stroke: #000000; stroke-width: 0.8"/>
      </g>
     </g>
     <g id="text_10">
      <!-- 4 -->
      <g transform="translate(44.2375 173.6082) scale(0.1 -0.1)">
       <use xlink:href="#DejaVuSans-34"/>
      </g>
     </g>
    </g>
    <g id="ytick_4">
     <g id="line2d_19">
      <path d="M 57.6 123.312589 
L 414.72 123.312589 
" clip-path="url(#p5226fed6f7)" style="fill: none; stroke: #b0b0b0; stroke-width: 0.8; stroke-linecap: square"/>
     </g>
     <g id="line2d_20">
      <g>
       <use xlink:href="#m536362d404" x="57.6" y="123.312589" style="stroke: #000000; stroke-width: 0.8"/>
      </g>
     </g>
     <g id="text_11">
      <!-- 6 -->
      <g transform="translate(44.2375 127.111808) scale(0.1 -0.1)">
       <use xlink:href="#DejaVuSans-36"/>
      </g>
     </g>
    </g>
    <g id="ytick_5">
     <g id="line2d_21">
      <path d="M 57.6 76.816196 
L 414.72 76.816196 
" clip-path="url(#p5226fed6f7)" style="fill: none; stroke: #b0b0b0; stroke-width: 0.8; stroke-linecap: square"/>
     </g>
     <g id="line2d_22">
      <g>
       <use xlink:href="#m536362d404" x="57.6" y="76.816196" style="stroke: #000000; stroke-width: 0.8"/>
      </g>
     </g>
     <g id="text_12">
      <!-- 8 -->
      <g transform="translate(44.2375 80.615415) scale(0.1 -0.1)">
       <use xlink:href="#DejaVuSans-38"/>
      </g>
     </g>
    </g>
    <g id="text_13">
     <!-- X -->
     <g transform="translate(38.157812 177.953) rotate(-90) scale(0.1 -0.1)">
      <defs>
       <path id="DejaVuSans-58" d="M 403 4666 
L 1081 4666 
L 2241 2931 
L 3406 4666 
L 4084 4666 
L 2584 2425 
L 4184 0 
L 3506 0 
L 2194 1984 
L 872 0 
L 191 0 
L 1856 2491 
L 403 4666 
z
" transform="scale(0.015625)"/>
      </defs>
      <use xlink:href="#DejaVuSans-58"/>
     </g>
    </g>
   </g>
   <g id="line2d_23">
    <path d="M 73.832727 100.064393 
L 77.112066 120.25656 
L 80.391405 113.921675 
L 83.670744 132.717637 
L 86.950083 157.343895 
L 90.229421 189.28704 
L 93.50876 207.77172 
L 96.788099 224.118598 
L 100.067438 231.641124 
L 103.346777 249.413622 
L 106.626116 272.557811 
L 109.905455 288.624955 
L 113.184793 287.891474 
L 116.464132 295.488 
L 119.743471 289.906469 
L 123.02281 274.017062 
L 126.302149 261.800223 
L 129.581488 264.988236 
L 132.860826 270.552552 
L 136.140165 273.77738 
L 139.419504 263.670563 
L 142.698843 256.282289 
L 145.978182 264.750025 
L 149.257521 263.693122 
L 152.53686 271.043007 
L 155.816198 265.177658 
L 159.095537 272.179406 
L 162.374876 260.25585 
L 165.654215 258.296709 
L 168.933554 264.236595 
L 172.212893 265.143053 
L 175.492231 252.518326 
L 178.77157 245.414819 
L 182.050909 249.037778 
L 185.330248 253.912604 
L 188.609587 260.402211 
L 191.888926 248.471188 
L 195.168264 244.313151 
L 198.447603 251.091763 
L 201.726942 255.957851 
L 205.006281 259.425049 
L 208.28562 250.294507 
L 211.564959 259.550197 
L 214.844298 256.859839 
L 218.123636 252.294329 
L 221.402975 261.397613 
L 224.682314 255.403068 
L 227.961653 246.009339 
L 231.240992 253.63776 
L 234.520331 246.779173 
L 237.799669 257.307841 
L 241.079008 258.728861 
L 244.358347 257.263379 
L 247.637686 264.424802 
L 250.917025 275.268909 
L 254.196364 262.583307 
L 257.475702 266.167257 
L 260.755041 274.07152 
L 264.03438 283.575948 
L 267.313719 274.474198 
L 270.593058 280.047498 
L 273.872397 286.47059 
L 277.151736 284.083275 
L 280.431074 279.055235 
L 283.710413 273.761593 
L 286.989752 273.902252 
L 290.269091 263.903069 
L 293.54843 251.87045 
L 296.827769 241.872749 
L 300.107107 247.322771 
L 303.386446 244.349064 
L 306.665785 241.555844 
L 309.945124 238.02974 
L 313.224463 244.918102 
L 316.503802 240.071567 
L 319.78314 237.779978 
L 323.062479 239.574186 
L 326.341818 247.817173 
L 329.621157 255.679162 
L 332.900496 258.350187 
L 336.179835 246.94087 
L 339.459174 255.801026 
L 342.738512 245.005819 
L 346.017851 245.487006 
L 349.29719 241.628909 
L 352.576529 236.977914 
L 355.855868 230.067973 
L 359.135207 220.981208 
L 362.414545 230.965664 
L 365.693884 243.383749 
L 368.973223 238.624389 
L 372.252562 241.089052 
L 375.531901 252.479637 
L 378.81124 243.803969 
L 382.090579 255.995055 
L 385.369917 257.057996 
L 388.649256 264.297934 
L 391.928595 271.216824 
L 395.207934 264.858992 
L 398.487273 269.174609 
" clip-path="url(#p5226fed6f7)" style="fill: none; stroke: #000000; stroke-width: 1.5; stroke-linecap: square"/>
   </g>
   <g id="line2d_24">
    <path d="M 73.832727 100.064393 
L 77.112066 120.25656 
L 80.391405 115.544706 
L 83.670744 125.732167 
L 86.950083 147.007544 
L 90.229421 178.725145 
L 93.50876 196.854038 
L 96.788099 214.065479 
L 100.067438 223.104473 
L 103.346777 242.948078 
L 106.626116 267.157365 
L 109.905455 282.14022 
L 113.184793 279.260177 
L 116.464132 285.149422 
L 119.743471 280.219436 
L 123.02281 266.143362 
L 126.302149 257.861298 
L 129.581488 264.75645 
L 132.860826 273.442362 
L 136.140165 280.563458 
L 139.419504 273.965634 
L 142.698843 269.584385 
L 145.978182 280.392172 
L 149.257521 281.159115 
L 152.53686 289.762718 
L 155.816198 284.382766 
L 159.095537 291.112628 
L 162.374876 278.240688 
L 165.654215 274.662306 
L 168.933554 278.904293 
L 172.212893 277.92626 
L 175.492231 262.99478 
L 178.77157 253.429559 
L 182.050909 254.784477 
L 185.330248 257.515064 
L 188.609587 262.23684 
L 191.888926 248.512078 
L 195.168264 243.442858 
L 198.447603 248.999985 
L 201.726942 252.978743 
L 205.006281 255.768525 
L 208.28562 246.310176 
L 211.564959 255.158686 
L 214.844298 252.344378 
L 218.123636 247.971842 
L 221.402975 257.543105 
L 224.682314 252.037617 
L 227.961653 242.933891 
L 231.240992 250.614858 
L 234.520331 243.355958 
L 237.799669 253.110402 
L 241.079008 253.739524 
L 244.358347 252.231806 
L 247.637686 259.458664 
L 250.917025 269.029312 
L 254.196364 254.821768 
L 257.475702 257.405858 
L 260.755041 265.098339 
L 264.03438 274.93631 
L 267.313719 267.185003 
L 270.593058 275.625089 
L 273.872397 285.912652 
L 277.151736 287.302859 
L 280.431074 285.267847 
L 283.710413 281.436631 
L 286.989752 283.78035 
L 290.269091 276.620617 
L 293.54843 266.415514 
L 296.827769 258.409808 
L 300.107107 264.503415 
L 303.386446 261.881381 
L 306.665785 258.243273 
L 309.945124 254.019583 
L 313.224463 259.922493 
L 316.503802 253.242067 
L 319.78314 248.54221 
L 323.062479 249.085596 
L 326.341818 257.487111 
L 329.621157 265.872602 
L 332.900496 269.673419 
L 336.179835 257.993322 
L 339.459174 266.993592 
L 342.738512 255.911747 
L 346.017851 256.484888 
L 349.29719 253.184626 
L 352.576529 249.048403 
L 355.855868 242.456885 
L 359.135207 233.333945 
L 362.414545 242.901828 
L 365.693884 254.475996 
L 368.973223 248.664114 
L 372.252562 250.301793 
L 375.531901 260.55727 
L 378.81124 251.111117 
L 382.090579 262.886768 
L 385.369917 263.885306 
L 388.649256 271.397041 
L 391.928595 278.525263 
L 395.207934 272.744662 
L 398.487273 277.585049 
" clip-path="url(#p5226fed6f7)" style="fill: none; stroke: #ff0000; stroke-width: 1.5; stroke-linecap: square"/>
   </g>
   <g id="line2d_25">
    <path d="M 73.832727 53.568 
L 77.112066 73.429291 
L 80.391405 118.576276 
L 83.670744 139.031484 
L 86.950083 143.143882 
L 90.229421 137.52949 
L 93.50876 135.623416 
L 96.788099 133.109282 
L 100.067438 131.787792 
L 103.346777 143.470638 
L 106.626116 161.486701 
L 109.905455 173.287658 
L 113.184793 193.839674 
L 116.464132 206.98049 
L 119.743471 208.791622 
L 123.02281 214.772046 
L 126.302149 209.827485 
L 129.581488 225.172464 
L 132.860826 218.859627 
L 136.140165 218.427844 
L 139.419504 218.08612 
L 142.698843 226.932462 
L 145.978182 228.029167 
L 149.257521 225.903738 
L 152.53686 226.741876 
L 155.816198 236.671418 
L 159.095537 234.446363 
L 162.374876 225.740441 
L 165.654215 226.544587 
L 168.933554 229.628487 
L 172.212893 243.981834 
L 175.492231 247.369798 
L 178.77157 240.004754 
L 182.050909 245.53396 
L 185.330248 253.782167 
L 188.609587 247.626614 
L 191.888926 259.324783 
L 195.168264 249.858376 
L 198.447603 239.823282 
L 201.726942 246.114937 
L 205.006281 255.447701 
L 208.28562 250.942137 
L 211.564959 251.915032 
L 214.844298 258.509492 
L 218.123636 266.859741 
L 221.402975 272.786511 
L 224.682314 273.700397 
L 227.961653 272.025757 
L 231.240992 278.095203 
L 234.520331 283.003813 
L 237.799669 273.757133 
L 241.079008 261.445176 
L 244.358347 258.804902 
L 247.637686 268.795377 
L 250.917025 271.300098 
L 254.196364 264.369366 
L 257.475702 258.161805 
L 260.755041 254.200105 
L 264.03438 247.982039 
L 267.313719 238.671641 
L 270.593058 229.185214 
L 273.872397 222.768145 
L 277.151736 230.46349 
L 280.431074 238.179091 
L 283.710413 233.025281 
L 286.989752 223.320716 
L 290.269091 213.379609 
L 293.54843 228.768253 
L 296.827769 238.193225 
L 300.107107 239.876859 
L 303.386446 247.786676 
L 306.665785 247.839487 
L 309.945124 250.527922 
L 313.224463 257.53009 
L 316.503802 263.372722 
L 319.78314 256.222918 
L 323.062479 247.090206 
L 326.341818 244.011862 
L 329.621157 235.310332 
L 332.900496 249.235155 
L 336.179835 245.725112 
L 339.459174 249.587808 
L 342.738512 246.125326 
L 346.017851 239.125732 
L 349.29719 235.737002 
L 352.576529 235.879777 
L 355.855868 238.009415 
L 359.135207 242.546702 
L 362.414545 251.800791 
L 365.693884 260.188601 
L 368.973223 255.804297 
L 372.252562 267.777151 
L 375.531901 260.316034 
L 378.81124 255.264763 
L 382.090579 250.837791 
L 385.369917 246.077362 
L 388.649256 246.903756 
L 391.928595 239.621637 
L 395.207934 239.737153 
L 398.487273 246.889714 
" clip-path="url(#p5226fed6f7)" style="fill: none; stroke-dasharray: 5.55,2.4; stroke-dashoffset: 0; stroke: #000000; stroke-width: 1.5"/>
   </g>
   <g id="line2d_26">
    <path d="M 73.832727 53.568 
L 77.112066 67.700003 
L 80.391405 105.547322 
L 83.670744 128.165123 
L 86.950083 137.449936 
L 90.229421 133.305917 
L 93.50876 134.950253 
L 96.788099 134.488883 
L 100.067438 134.998466 
L 103.346777 147.995644 
L 106.626116 167.519881 
L 109.905455 180.983283 
L 113.184793 205.623781 
L 116.464132 223.168411 
L 119.743471 233.162265 
L 123.02281 247.634836 
L 126.302149 251.730922 
L 129.581488 277.642337 
L 132.860826 265.934636 
L 136.140165 261.634634 
L 139.419504 257.450124 
L 142.698843 261.386993 
L 145.978182 257.076404 
L 149.257521 249.951539 
L 152.53686 245.157557 
L 155.816198 249.279749 
L 159.095537 241.319202 
L 162.374876 227.636787 
L 165.654215 225.871132 
L 168.933554 225.456312 
L 172.212893 236.482859 
L 175.492231 236.783174 
L 178.77157 228.685629 
L 182.050909 233.956879 
L 185.330248 241.555799 
L 188.609587 235.570936 
L 191.888926 248.105411 
L 195.168264 239.578291 
L 198.447603 231.659463 
L 201.726942 238.845514 
L 205.006281 248.111727 
L 208.28562 244.0999 
L 211.564959 246.756677 
L 214.844298 254.359636 
L 218.123636 263.743028 
L 221.402975 271.225382 
L 224.682314 274.27577 
L 227.961653 275.278843 
L 231.240992 283.920004 
L 234.520331 291.192472 
L 237.799669 284.694604 
L 241.079008 275.713819 
L 244.358347 275.526716 
L 247.637686 286.595829 
L 250.917025 290.231315 
L 254.196364 285.916389 
L 257.475702 281.753116 
L 260.755041 279.497902 
L 264.03438 275.257634 
L 267.313719 268.811349 
L 270.593058 260.807234 
L 273.872397 255.362893 
L 277.151736 263.019652 
L 280.431074 271.223727 
L 283.710413 266.692973 
L 286.989752 257.648639 
L 290.269091 247.614979 
L 293.54843 260.093004 
L 296.827769 265.26521 
L 300.107107 263.488726 
L 303.386446 269.443152 
L 306.665785 267.67145 
L 309.945124 269.268565 
L 313.224463 275.058148 
L 316.503802 280.618871 
L 319.78314 274.096845 
L 323.062479 265.442172 
L 326.341818 261.917987 
L 329.621157 252.398837 
L 332.900496 265.466806 
L 336.179835 260.828787 
L 339.459174 264.119578 
L 342.738512 260.386785 
L 346.017851 252.776689 
L 349.29719 248.335919 
L 352.576529 247.26669 
L 355.855868 247.021438 
L 359.135207 249.106778 
L 362.414545 256.149719 
L 365.693884 262.964594 
L 368.973223 259.042357 
L 372.252562 272.060139 
L 375.531901 266.105932 
L 378.81124 263.210547 
L 382.090579 259.71898 
L 385.369917 255.679468 
L 388.649256 256.712487 
L 391.928595 249.910691 
L 395.207934 250.111777 
L 398.487273 256.406344 
" clip-path="url(#p5226fed6f7)" style="fill: none; stroke-dasharray: 5.55,2.4; stroke-dashoffset: 0; stroke: #ff0000; stroke-width: 1.5"/>
   </g>
   <g id="patch_3">
    <path d="M 57.6 307.584 
L 57.6 41.472 
" style="fill: none; stroke: #000000; stroke-width: 0.8; stroke-linejoin: miter; stroke-linecap: square"/>
   </g>
   <g id="patch_4">
    <path d="M 414.72 307.584 
L 414.72 41.472 
" style="fill: none; stroke: #000000; stroke-width: 0.8; stroke-linejoin: miter; stroke-linecap: square"/>
   </g>
   <g id="patch_5">
    <path d="M 57.6 307.584 
L 414.72 307.584 
" style="fill: none; stroke: #000000; stroke-width: 0.8; stroke-linejoin: miter; stroke-linecap: square"/>
   </g>
   <g id="patch_6">
    <path d="M 57.6 41.472 
L 414.72 41.472 
" style="fill: none; stroke: #000000; stroke-width: 0.8; stroke-linejoin: miter; stroke-linecap: square"/>
   </g>
   <g id="legend_1">
    <g id="patch_7">
     <path d="M 392.72 67.472 
L 400.72 67.472 
Q 404.72 67.472 404.72 63.472 
L 404.72 55.472 
Q 404.72 51.472 400.72 51.472 
L 392.72 51.472 
Q 388.72 51.472 388.72 55.472 
L 388.72 63.472 
Q 388.72 67.472 392.72 67.472 
z
" style="fill: #ffffff; opacity: 0.8; stroke: #cccccc; stroke-linejoin: miter"/>
    </g>
   </g>
  </g>
 </g>
 <defs>
  <clipPath id="p5226fed6f7">
   <rect x="57.6" y="41.472" width="357.12" height="266.112"/>
  </clipPath>
 </defs>
</svg>
