<?xml version="1.0" encoding="utf-8" standalone="no"?>
<!DOCTYPE svg PUBLIC "-//W3C//DTD SVG 1.1//EN"
  "http://www.w3.org/Graphics/SVG/1.1/DTD/svg11.dtd">
<svg xmlns:xlink="http://www.w3.org/1999/xlink" width="460.8pt" height="345.6pt" viewBox="0 0 460.8 345.6" xmlns="http://www.w3.org/2000/svg" version="1.1">
 <metadata>
  <rdf:RDF xmlns:dc="http://purl.org/dc/elements/1.1/" xmlns:cc="http://creativecommons.org/ns#" xmlns:rdf="http://www.w3.org/1999/02/22-rdf-syntax-ns#">
   <cc:Work>
    <dc:type rdf:resource="http://purl.org/dc/dcmitype/StillImage"/>
    <dc:date>2024-06-05T10:59:53.817351</dc:date>
    <dc:format>image/svg+xml</dc:format>
    <dc:creator>
     <cc:Agent>
      <dc:title>Matplotlib v3.7.1, https://matplotlib.org/</dc:title>
     </cc:Agent>
    </dc:creator>
   </cc:Work>
  </rdf:RDF>
 </metadata>
 <defs>
  <style type="text/css">*{stroke-linejoin: round; stroke-linecap: butt}</style>
 </defs>
 <g id="figure_1">
  <g id="patch_1">
   <path d="M 0 345.6 
L 460.8 345.6 
L 460.8 0 
L 0 0 
z
" style="fill: #ffffff"/>
  </g>
  <g id="axes_1">
   <g id="patch_2">
    <path d="M 57.6 307.584 
L 414.72 307.584 
L 414.72 41.472 
L 57.6 41.472 
z
" style="fill: #ffffff"/>
   </g>
   <g id="matplotlib.axis_1">
    <g id="xtick_1">
     <g id="line2d_1">
      <path d="M 73.832727 307.584 
L 73.832727 41.472 
" clip-path="url(#pe15a063808)" style="fill: none; stroke: #b0b0b0; stroke-width: 0.8; stroke-linecap: square"/>
     </g>
     <g id="line2d_2">
      <defs>
       <path id="m85715cdc39" d="M 0 0 
L 0 3.5 
" style="stroke: #000000; stroke-width: 0.8"/>
      </defs>
      <g>
       <use xlink:href="#m85715cdc39" x="73.832727" y="307.584" style="stroke: #000000; stroke-width: 0.8"/>
      </g>
     </g>
     <g id="text_1">
      <!-- 0 -->
      <g transform="translate(70.651477 322.182437) scale(0.1 -0.1)">
       <defs>
        <path id="DejaVuSans-30" d="M 2034 4250 
Q 1547 4250 1301 3770 
Q 1056 3291 1056 2328 
Q 1056 1369 1301 889 
Q 1547 409 2034 409 
Q 2525 409 2770 889 
Q 3016 1369 3016 2328 
Q 3016 3291 2770 3770 
Q 2525 4250 2034 4250 
z
M 2034 4750 
Q 2819 4750 3233 4129 
Q 3647 3509 3647 2328 
Q 3647 1150 3233 529 
Q 2819 -91 2034 -91 
Q 1250 -91 836 529 
Q 422 1150 422 2328 
Q 422 3509 836 4129 
Q 1250 4750 2034 4750 
z
" transform="scale(0.015625)"/>
       </defs>
       <use xlink:href="#DejaVuSans-30"/>
      </g>
     </g>
    </g>
    <g id="xtick_2">
     <g id="line2d_3">
      <path d="M 140.088757 307.584 
L 140.088757 41.472 
" clip-path="url(#pe15a063808)" style="fill: none; stroke: #b0b0b0; stroke-width: 0.8; stroke-linecap: square"/>
     </g>
     <g id="line2d_4">
      <g>
       <use xlink:href="#m85715cdc39" x="140.088757" y="307.584" style="stroke: #000000; stroke-width: 0.8"/>
      </g>
     </g>
     <g id="text_2">
      <!-- 20 -->
      <g transform="translate(133.726257 322.182437) scale(0.1 -0.1)">
       <defs>
        <path id="DejaVuSans-32" d="M 1228 531 
L 3431 531 
L 3431 0 
L 469 0 
L 469 531 
Q 828 903 1448 1529 
Q 2069 2156 2228 2338 
Q 2531 2678 2651 2914 
Q 2772 3150 2772 3378 
Q 2772 3750 2511 3984 
Q 2250 4219 1831 4219 
Q 1534 4219 1204 4116 
Q 875 4013 500 3803 
L 500 4441 
Q 881 4594 1212 4672 
Q 1544 4750 1819 4750 
Q 2544 4750 2975 4387 
Q 3406 4025 3406 3419 
Q 3406 3131 3298 2873 
Q 3191 2616 2906 2266 
Q 2828 2175 2409 1742 
Q 1991 1309 1228 531 
z
" transform="scale(0.015625)"/>
       </defs>
       <use xlink:href="#DejaVuSans-32"/>
       <use xlink:href="#DejaVuSans-30" x="63.623047"/>
      </g>
     </g>
    </g>
    <g id="xtick_3">
     <g id="line2d_5">
      <path d="M 206.344787 307.584 
L 206.344787 41.472 
" clip-path="url(#pe15a063808)" style="fill: none; stroke: #b0b0b0; stroke-width: 0.8; stroke-linecap: square"/>
     </g>
     <g id="line2d_6">
      <g>
       <use xlink:href="#m85715cdc39" x="206.344787" y="307.584" style="stroke: #000000; stroke-width: 0.8"/>
      </g>
     </g>
     <g id="text_3">
      <!-- 40 -->
      <g transform="translate(199.982287 322.182437) scale(0.1 -0.1)">
       <defs>
        <path id="DejaVuSans-34" d="M 2419 4116 
L 825 1625 
L 2419 1625 
L 2419 4116 
z
M 2253 4666 
L 3047 4666 
L 3047 1625 
L 3713 1625 
L 3713 1100 
L 3047 1100 
L 3047 0 
L 2419 0 
L 2419 1100 
L 313 1100 
L 313 1709 
L 2253 4666 
z
" transform="scale(0.015625)"/>
       </defs>
       <use xlink:href="#DejaVuSans-34"/>
       <use xlink:href="#DejaVuSans-30" x="63.623047"/>
      </g>
     </g>
    </g>
    <g id="xtick_4">
     <g id="line2d_7">
      <path d="M 272.600816 307.584 
L 272.600816 41.472 
" clip-path="url(#pe15a063808)" style="fill: none; stroke: #b0b0b0; stroke-width: 0.8; stroke-linecap: square"/>
     </g>
     <g id="line2d_8">
      <g>
       <use xlink:href="#m85715cdc39" x="272.600816" y="307.584" style="stroke: #000000; stroke-width: 0.8"/>
      </g>
     </g>
     <g id="text_4">
      <!-- 60 -->
      <g transform="translate(266.238316 322.182437) scale(0.1 -0.1)">
       <defs>
        <path id="DejaVuSans-36" d="M 2113 2584 
Q 1688 2584 1439 2293 
Q 1191 2003 1191 1497 
Q 1191 994 1439 701 
Q 1688 409 2113 409 
Q 2538 409 2786 701 
Q 3034 994 3034 1497 
Q 3034 2003 2786 2293 
Q 2538 2584 2113 2584 
z
M 3366 4563 
L 3366 3988 
Q 3128 4100 2886 4159 
Q 2644 4219 2406 4219 
Q 1781 4219 1451 3797 
Q 1122 3375 1075 2522 
Q 1259 2794 1537 2939 
Q 1816 3084 2150 3084 
Q 2853 3084 3261 2657 
Q 3669 2231 3669 1497 
Q 3669 778 3244 343 
Q 2819 -91 2113 -91 
Q 1303 -91 875 529 
Q 447 1150 447 2328 
Q 447 3434 972 4092 
Q 1497 4750 2381 4750 
Q 2619 4750 2861 4703 
Q 3103 4656 3366 4563 
z
" transform="scale(0.015625)"/>
       </defs>
       <use xlink:href="#DejaVuSans-36"/>
       <use xlink:href="#DejaVuSans-30" x="63.623047"/>
      </g>
     </g>
    </g>
    <g id="xtick_5">
     <g id="line2d_9">
      <path d="M 338.856846 307.584 
L 338.856846 41.472 
" clip-path="url(#pe15a063808)" style="fill: none; stroke: #b0b0b0; stroke-width: 0.8; stroke-linecap: square"/>
     </g>
     <g id="line2d_10">
      <g>
       <use xlink:href="#m85715cdc39" x="338.856846" y="307.584" style="stroke: #000000; stroke-width: 0.8"/>
      </g>
     </g>
     <g id="text_5">
      <!-- 80 -->
      <g transform="translate(332.494346 322.182437) scale(0.1 -0.1)">
       <defs>
        <path id="DejaVuSans-38" d="M 2034 2216 
Q 1584 2216 1326 1975 
Q 1069 1734 1069 1313 
Q 1069 891 1326 650 
Q 1584 409 2034 409 
Q 2484 409 2743 651 
Q 3003 894 3003 1313 
Q 3003 1734 2745 1975 
Q 2488 2216 2034 2216 
z
M 1403 2484 
Q 997 2584 770 2862 
Q 544 3141 544 3541 
Q 544 4100 942 4425 
Q 1341 4750 2034 4750 
Q 2731 4750 3128 4425 
Q 3525 4100 3525 3541 
Q 3525 3141 3298 2862 
Q 3072 2584 2669 2484 
Q 3125 2378 3379 2068 
Q 3634 1759 3634 1313 
Q 3634 634 3220 271 
Q 2806 -91 2034 -91 
Q 1263 -91 848 271 
Q 434 634 434 1313 
Q 434 1759 690 2068 
Q 947 2378 1403 2484 
z
M 1172 3481 
Q 1172 3119 1398 2916 
Q 1625 2713 2034 2713 
Q 2441 2713 2670 2916 
Q 2900 3119 2900 3481 
Q 2900 3844 2670 4047 
Q 2441 4250 2034 4250 
Q 1625 4250 1398 4047 
Q 1172 3844 1172 3481 
z
" transform="scale(0.015625)"/>
       </defs>
       <use xlink:href="#DejaVuSans-38"/>
       <use xlink:href="#DejaVuSans-30" x="63.623047"/>
      </g>
     </g>
    </g>
    <g id="xtick_6">
     <g id="line2d_11">
      <path d="M 405.112876 307.584 
L 405.112876 41.472 
" clip-path="url(#pe15a063808)" style="fill: none; stroke: #b0b0b0; stroke-width: 0.8; stroke-linecap: square"/>
     </g>
     <g id="line2d_12">
      <g>
       <use xlink:href="#m85715cdc39" x="405.112876" y="307.584" style="stroke: #000000; stroke-width: 0.8"/>
      </g>
     </g>
     <g id="text_6">
      <!-- 100 -->
      <g transform="translate(395.569126 322.182437) scale(0.1 -0.1)">
       <defs>
        <path id="DejaVuSans-31" d="M 794 531 
L 1825 531 
L 1825 4091 
L 703 3866 
L 703 4441 
L 1819 4666 
L 2450 4666 
L 2450 531 
L 3481 531 
L 3481 0 
L 794 0 
L 794 531 
z
" transform="scale(0.015625)"/>
       </defs>
       <use xlink:href="#DejaVuSans-31"/>
       <use xlink:href="#DejaVuSans-30" x="63.623047"/>
       <use xlink:href="#DejaVuSans-30" x="127.246094"/>
      </g>
     </g>
    </g>
    <g id="text_7">
     <!-- T -->
     <g transform="translate(233.106094 335.860562) scale(0.1 -0.1)">
      <defs>
       <path id="DejaVuSans-54" d="M -19 4666 
L 3928 4666 
L 3928 4134 
L 2272 4134 
L 2272 0 
L 1638 0 
L 1638 4134 
L -19 4134 
L -19 4666 
z
" transform="scale(0.015625)"/>
      </defs>
      <use xlink:href="#DejaVuSans-54"/>
     </g>
    </g>
   </g>
   <g id="matplotlib.axis_2">
    <g id="ytick_1">
     <g id="line2d_13">
      <path d="M 57.6 271.249216 
L 414.72 271.249216 
" clip-path="url(#pe15a063808)" style="fill: none; stroke: #b0b0b0; stroke-width: 0.8; stroke-linecap: square"/>
     </g>
     <g id="line2d_14">
      <defs>
       <path id="m1dcd21a714" d="M 0 0 
L -3.5 0 
" style="stroke: #000000; stroke-width: 0.8"/>
      </defs>
      <g>
       <use xlink:href="#m1dcd21a714" x="57.6" y="271.249216" style="stroke: #000000; stroke-width: 0.8"/>
      </g>
     </g>
     <g id="text_8">
      <!-- −8 -->
      <g transform="translate(35.857813 275.048435) scale(0.1 -0.1)">
       <defs>
        <path id="DejaVuSans-2212" d="M 678 2272 
L 4684 2272 
L 4684 1741 
L 678 1741 
L 678 2272 
z
" transform="scale(0.015625)"/>
       </defs>
       <use xlink:href="#DejaVuSans-2212"/>
       <use xlink:href="#DejaVuSans-38" x="83.789062"/>
      </g>
     </g>
    </g>
    <g id="ytick_2">
     <g id="line2d_15">
      <path d="M 57.6 222.771648 
L 414.72 222.771648 
" clip-path="url(#pe15a063808)" style="fill: none; stroke: #b0b0b0; stroke-width: 0.8; stroke-linecap: square"/>
     </g>
     <g id="line2d_16">
      <g>
       <use xlink:href="#m1dcd21a714" x="57.6" y="222.771648" style="stroke: #000000; stroke-width: 0.8"/>
      </g>
     </g>
     <g id="text_9">
      <!-- −6 -->
      <g transform="translate(35.857813 226.570867) scale(0.1 -0.1)">
       <use xlink:href="#DejaVuSans-2212"/>
       <use xlink:href="#DejaVuSans-36" x="83.789062"/>
      </g>
     </g>
    </g>
    <g id="ytick_3">
     <g id="line2d_17">
      <path d="M 57.6 174.294081 
L 414.72 174.294081 
" clip-path="url(#pe15a063808)" style="fill: none; stroke: #b0b0b0; stroke-width: 0.8; stroke-linecap: square"/>
     </g>
     <g id="line2d_18">
      <g>
       <use xlink:href="#m1dcd21a714" x="57.6" y="174.294081" style="stroke: #000000; stroke-width: 0.8"/>
      </g>
     </g>
     <g id="text_10">
      <!-- −4 -->
      <g transform="translate(35.857813 178.093299) scale(0.1 -0.1)">
       <use xlink:href="#DejaVuSans-2212"/>
       <use xlink:href="#DejaVuSans-34" x="83.789062"/>
      </g>
     </g>
    </g>
    <g id="ytick_4">
     <g id="line2d_19">
      <path d="M 57.6 125.816513 
L 414.72 125.816513 
" clip-path="url(#pe15a063808)" style="fill: none; stroke: #b0b0b0; stroke-width: 0.8; stroke-linecap: square"/>
     </g>
     <g id="line2d_20">
      <g>
       <use xlink:href="#m1dcd21a714" x="57.6" y="125.816513" style="stroke: #000000; stroke-width: 0.8"/>
      </g>
     </g>
     <g id="text_11">
      <!-- −2 -->
      <g transform="translate(35.857813 129.615732) scale(0.1 -0.1)">
       <use xlink:href="#DejaVuSans-2212"/>
       <use xlink:href="#DejaVuSans-32" x="83.789062"/>
      </g>
     </g>
    </g>
    <g id="ytick_5">
     <g id="line2d_21">
      <path d="M 57.6 77.338945 
L 414.72 77.338945 
" clip-path="url(#pe15a063808)" style="fill: none; stroke: #b0b0b0; stroke-width: 0.8; stroke-linecap: square"/>
     </g>
     <g id="line2d_22">
      <g>
       <use xlink:href="#m1dcd21a714" x="57.6" y="77.338945" style="stroke: #000000; stroke-width: 0.8"/>
      </g>
     </g>
     <g id="text_12">
      <!-- 0 -->
      <g transform="translate(44.2375 81.138164) scale(0.1 -0.1)">
       <use xlink:href="#DejaVuSans-30"/>
      </g>
     </g>
    </g>
    <g id="text_13">
     <!-- Probability -->
     <g transform="translate(29.778125 200.956906) rotate(-90) scale(0.1 -0.1)">
      <defs>
       <path id="DejaVuSans-50" d="M 1259 4147 
L 1259 2394 
L 2053 2394 
Q 2494 2394 2734 2622 
Q 2975 2850 2975 3272 
Q 2975 3691 2734 3919 
Q 2494 4147 2053 4147 
L 1259 4147 
z
M 628 4666 
L 2053 4666 
Q 2838 4666 3239 4311 
Q 3641 3956 3641 3272 
Q 3641 2581 3239 2228 
Q 2838 1875 2053 1875 
L 1259 1875 
L 1259 0 
L 628 0 
L 628 4666 
z
" transform="scale(0.015625)"/>
       <path id="DejaVuSans-72" d="M 2631 2963 
Q 2534 3019 2420 3045 
Q 2306 3072 2169 3072 
Q 1681 3072 1420 2755 
Q 1159 2438 1159 1844 
L 1159 0 
L 581 0 
L 581 3500 
L 1159 3500 
L 1159 2956 
Q 1341 3275 1631 3429 
Q 1922 3584 2338 3584 
Q 2397 3584 2469 3576 
Q 2541 3569 2628 3553 
L 2631 2963 
z
" transform="scale(0.015625)"/>
       <path id="DejaVuSans-6f" d="M 1959 3097 
Q 1497 3097 1228 2736 
Q 959 2375 959 1747 
Q 959 1119 1226 758 
Q 1494 397 1959 397 
Q 2419 397 2687 759 
Q 2956 1122 2956 1747 
Q 2956 2369 2687 2733 
Q 2419 3097 1959 3097 
z
M 1959 3584 
Q 2709 3584 3137 3096 
Q 3566 2609 3566 1747 
Q 3566 888 3137 398 
Q 2709 -91 1959 -91 
Q 1206 -91 779 398 
Q 353 888 353 1747 
Q 353 2609 779 3096 
Q 1206 3584 1959 3584 
z
" transform="scale(0.015625)"/>
       <path id="DejaVuSans-62" d="M 3116 1747 
Q 3116 2381 2855 2742 
Q 2594 3103 2138 3103 
Q 1681 3103 1420 2742 
Q 1159 2381 1159 1747 
Q 1159 1113 1420 752 
Q 1681 391 2138 391 
Q 2594 391 2855 752 
Q 3116 1113 3116 1747 
z
M 1159 2969 
Q 1341 3281 1617 3432 
Q 1894 3584 2278 3584 
Q 2916 3584 3314 3078 
Q 3713 2572 3713 1747 
Q 3713 922 3314 415 
Q 2916 -91 2278 -91 
Q 1894 -91 1617 61 
Q 1341 213 1159 525 
L 1159 0 
L 581 0 
L 581 4863 
L 1159 4863 
L 1159 2969 
z
" transform="scale(0.015625)"/>
       <path id="DejaVuSans-61" d="M 2194 1759 
Q 1497 1759 1228 1600 
Q 959 1441 959 1056 
Q 959 750 1161 570 
Q 1363 391 1709 391 
Q 2188 391 2477 730 
Q 2766 1069 2766 1631 
L 2766 1759 
L 2194 1759 
z
M 3341 1997 
L 3341 0 
L 2766 0 
L 2766 531 
Q 2569 213 2275 61 
Q 1981 -91 1556 -91 
Q 1019 -91 701 211 
Q 384 513 384 1019 
Q 384 1609 779 1909 
Q 1175 2209 1959 2209 
L 2766 2209 
L 2766 2266 
Q 2766 2663 2505 2880 
Q 2244 3097 1772 3097 
Q 1472 3097 1187 3025 
Q 903 2953 641 2809 
L 641 3341 
Q 956 3463 1253 3523 
Q 1550 3584 1831 3584 
Q 2591 3584 2966 3190 
Q 3341 2797 3341 1997 
z
" transform="scale(0.015625)"/>
       <path id="DejaVuSans-69" d="M 603 3500 
L 1178 3500 
L 1178 0 
L 603 0 
L 603 3500 
z
M 603 4863 
L 1178 4863 
L 1178 4134 
L 603 4134 
L 603 4863 
z
" transform="scale(0.015625)"/>
       <path id="DejaVuSans-6c" d="M 603 4863 
L 1178 4863 
L 1178 0 
L 603 0 
L 603 4863 
z
" transform="scale(0.015625)"/>
       <path id="DejaVuSans-74" d="M 1172 4494 
L 1172 3500 
L 2356 3500 
L 2356 3053 
L 1172 3053 
L 1172 1153 
Q 1172 725 1289 603 
Q 1406 481 1766 481 
L 2356 481 
L 2356 0 
L 1766 0 
Q 1100 0 847 248 
Q 594 497 594 1153 
L 594 3053 
L 172 3053 
L 172 3500 
L 594 3500 
L 594 4494 
L 1172 4494 
z
" transform="scale(0.015625)"/>
       <path id="DejaVuSans-79" d="M 2059 -325 
Q 1816 -950 1584 -1140 
Q 1353 -1331 966 -1331 
L 506 -1331 
L 506 -850 
L 844 -850 
Q 1081 -850 1212 -737 
Q 1344 -625 1503 -206 
L 1606 56 
L 191 3500 
L 800 3500 
L 1894 763 
L 2988 3500 
L 3597 3500 
L 2059 -325 
z
" transform="scale(0.015625)"/>
      </defs>
      <use xlink:href="#DejaVuSans-50"/>
      <use xlink:href="#DejaVuSans-72" x="58.552734"/>
      <use xlink:href="#DejaVuSans-6f" x="97.416016"/>
      <use xlink:href="#DejaVuSans-62" x="158.597656"/>
      <use xlink:href="#DejaVuSans-61" x="222.074219"/>
      <use xlink:href="#DejaVuSans-62" x="283.353516"/>
      <use xlink:href="#DejaVuSans-69" x="346.830078"/>
      <use xlink:href="#DejaVuSans-6c" x="374.613281"/>
      <use xlink:href="#DejaVuSans-69" x="402.396484"/>
      <use xlink:href="#DejaVuSans-74" x="430.179688"/>
      <use xlink:href="#DejaVuSans-79" x="469.388672"/>
     </g>
    </g>
   </g>
   <g id="line2d_23">
    <path d="M 73.832727 295.488 
L 77.145529 295.488 
L 80.45833 295.488 
L 83.771132 213.311691 
L 87.083933 213.311691 
L 90.396735 211.038038 
L 93.709536 211.038038 
L 97.022338 195.896454 
L 100.335139 186.370731 
L 103.647941 186.370731 
L 106.960742 186.370731 
L 110.273544 186.370731 
L 113.586345 162.805149 
L 116.899147 162.805149 
L 120.211948 162.805149 
L 123.52475 135.129411 
L 126.837551 135.129411 
L 130.150353 108.101641 
L 133.463154 97.992129 
L 136.775955 104.912295 
L 140.088757 104.912295 
L 143.401558 110.554242 
L 146.71436 95.10422 
L 150.027161 82.712413 
L 153.339963 67.813797 
L 156.652764 67.813797 
L 159.965566 67.813797 
L 163.278367 67.813797 
L 166.591169 89.119661 
L 169.90397 89.119661 
L 173.216772 73.174495 
L 176.529573 73.174495 
L 179.842375 73.174495 
L 183.155176 58.833744 
L 186.467978 58.833744 
L 189.780779 75.196368 
L 193.093581 75.196368 
L 196.406382 75.196368 
L 199.719184 90.05524 
L 203.031985 99.462303 
L 206.344787 89.109898 
L 209.657588 85.564083 
L 212.97039 95.857375 
L 216.283191 101.172464 
L 219.595993 97.549547 
L 222.908794 88.09393 
L 226.221596 85.916498 
L 229.534397 85.916498 
L 232.847199 77.260599 
L 236.16 73.718125 
L 239.472801 70.162744 
L 242.785603 70.133572 
L 246.098404 79.330256 
L 249.411206 67.959806 
L 252.724007 62.310103 
L 256.036809 63.888564 
L 259.34961 63.888564 
L 262.662412 69.378829 
L 265.975213 75.496293 
L 269.288015 80.129233 
L 272.600816 80.996975 
L 275.913618 69.732322 
L 279.226419 68.945503 
L 282.539221 64.516423 
L 285.852022 60.830053 
L 289.164824 68.517309 
L 292.477625 80.898006 
L 295.790427 79.391729 
L 299.103228 70.533195 
L 302.41603 72.591386 
L 305.728831 75.04786 
L 309.041633 73.91674 
L 312.354434 65.653072 
L 315.667236 72.474825 
L 318.980037 72.515011 
L 322.292839 65.956906 
L 325.60564 59.351434 
L 328.918442 66.268841 
L 332.231243 64.539944 
L 335.544045 66.153396 
L 338.856846 69.291411 
L 342.169647 67.24089 
L 345.482449 73.957179 
L 348.79525 72.205732 
L 352.108052 68.757181 
L 355.420853 68.757181 
L 358.733655 65.398765 
L 362.046456 65.398765 
L 365.359258 56.828257 
L 368.672059 62.879991 
L 371.984861 55.709554 
L 375.297662 68.931406 
L 378.610464 62.879411 
L 381.923265 53.568 
L 385.236067 63.719263 
L 388.548868 76.389308 
L 391.86167 86.664793 
L 395.174471 85.692094 
L 398.487273 83.117738 
" clip-path="url(#pe15a063808)" style="fill: none; stroke-dasharray: 5.55,2.4; stroke-dashoffset: 0; stroke: #000000; stroke-width: 1.5"/>
   </g>
   <g id="line2d_24">
    <defs>
     <path id="m14fdf1f6a5" d="M -4.5 4.5 
L 4.5 -4.5 
M -4.5 -4.5 
L 4.5 4.5 
" style="stroke: #000000"/>
    </defs>
    <g clip-path="url(#pe15a063808)">
     <use xlink:href="#m14fdf1f6a5" x="80.45833" y="295.488" style="stroke: #000000"/>
    </g>
   </g>
   <g id="line2d_25">
    <g clip-path="url(#pe15a063808)">
     <use xlink:href="#m14fdf1f6a5" x="87.083933" y="213.311691" style="stroke: #000000"/>
    </g>
   </g>
   <g id="line2d_26">
    <g clip-path="url(#pe15a063808)">
     <use xlink:href="#m14fdf1f6a5" x="93.709536" y="211.038038" style="stroke: #000000"/>
    </g>
   </g>
   <g id="line2d_27">
    <g clip-path="url(#pe15a063808)">
     <use xlink:href="#m14fdf1f6a5" x="97.022338" y="195.896454" style="stroke: #000000"/>
    </g>
   </g>
   <g id="line2d_28">
    <g clip-path="url(#pe15a063808)">
     <use xlink:href="#m14fdf1f6a5" x="110.273544" y="186.370731" style="stroke: #000000"/>
    </g>
   </g>
   <g id="line2d_29">
    <g clip-path="url(#pe15a063808)">
     <use xlink:href="#m14fdf1f6a5" x="120.211948" y="162.805149" style="stroke: #000000"/>
    </g>
   </g>
   <g id="line2d_30">
    <g clip-path="url(#pe15a063808)">
     <use xlink:href="#m14fdf1f6a5" x="126.837551" y="135.129411" style="stroke: #000000"/>
    </g>
   </g>
   <g id="line2d_31">
    <g clip-path="url(#pe15a063808)">
     <use xlink:href="#m14fdf1f6a5" x="130.150353" y="108.101641" style="stroke: #000000"/>
    </g>
   </g>
   <g id="line2d_32">
    <g clip-path="url(#pe15a063808)">
     <use xlink:href="#m14fdf1f6a5" x="133.463154" y="97.992129" style="stroke: #000000"/>
    </g>
   </g>
   <g id="line2d_33">
    <g clip-path="url(#pe15a063808)">
     <use xlink:href="#m14fdf1f6a5" x="140.088757" y="104.912295" style="stroke: #000000"/>
    </g>
   </g>
   <g id="line2d_34">
    <g clip-path="url(#pe15a063808)">
     <use xlink:href="#m14fdf1f6a5" x="143.401558" y="110.554242" style="stroke: #000000"/>
    </g>
   </g>
   <g id="line2d_35">
    <g clip-path="url(#pe15a063808)">
     <use xlink:href="#m14fdf1f6a5" x="146.71436" y="95.10422" style="stroke: #000000"/>
    </g>
   </g>
   <g id="line2d_36">
    <g clip-path="url(#pe15a063808)">
     <use xlink:href="#m14fdf1f6a5" x="150.027161" y="82.712413" style="stroke: #000000"/>
    </g>
   </g>
   <g id="line2d_37">
    <g clip-path="url(#pe15a063808)">
     <use xlink:href="#m14fdf1f6a5" x="163.278367" y="67.813797" style="stroke: #000000"/>
    </g>
   </g>
   <g id="line2d_38">
    <g clip-path="url(#pe15a063808)">
     <use xlink:href="#m14fdf1f6a5" x="169.90397" y="89.119661" style="stroke: #000000"/>
    </g>
   </g>
   <g id="line2d_39">
    <g clip-path="url(#pe15a063808)">
     <use xlink:href="#m14fdf1f6a5" x="179.842375" y="73.174495" style="stroke: #000000"/>
    </g>
   </g>
   <g id="line2d_40">
    <g clip-path="url(#pe15a063808)">
     <use xlink:href="#m14fdf1f6a5" x="186.467978" y="58.833744" style="stroke: #000000"/>
    </g>
   </g>
   <g id="line2d_41">
    <g clip-path="url(#pe15a063808)">
     <use xlink:href="#m14fdf1f6a5" x="196.406382" y="75.196368" style="stroke: #000000"/>
    </g>
   </g>
   <g id="line2d_42">
    <g clip-path="url(#pe15a063808)">
     <use xlink:href="#m14fdf1f6a5" x="199.719184" y="90.05524" style="stroke: #000000"/>
    </g>
   </g>
   <g id="line2d_43">
    <g clip-path="url(#pe15a063808)">
     <use xlink:href="#m14fdf1f6a5" x="203.031985" y="99.462303" style="stroke: #000000"/>
    </g>
   </g>
   <g id="line2d_44">
    <g clip-path="url(#pe15a063808)">
     <use xlink:href="#m14fdf1f6a5" x="206.344787" y="89.109898" style="stroke: #000000"/>
    </g>
   </g>
   <g id="line2d_45">
    <g clip-path="url(#pe15a063808)">
     <use xlink:href="#m14fdf1f6a5" x="209.657588" y="85.564083" style="stroke: #000000"/>
    </g>
   </g>
   <g id="line2d_46">
    <g clip-path="url(#pe15a063808)">
     <use xlink:href="#m14fdf1f6a5" x="212.97039" y="95.857375" style="stroke: #000000"/>
    </g>
   </g>
   <g id="line2d_47">
    <g clip-path="url(#pe15a063808)">
     <use xlink:href="#m14fdf1f6a5" x="216.283191" y="101.172464" style="stroke: #000000"/>
    </g>
   </g>
   <g id="line2d_48">
    <g clip-path="url(#pe15a063808)">
     <use xlink:href="#m14fdf1f6a5" x="219.595993" y="97.549547" style="stroke: #000000"/>
    </g>
   </g>
   <g id="line2d_49">
    <g clip-path="url(#pe15a063808)">
     <use xlink:href="#m14fdf1f6a5" x="222.908794" y="88.09393" style="stroke: #000000"/>
    </g>
   </g>
   <g id="line2d_50">
    <g clip-path="url(#pe15a063808)">
     <use xlink:href="#m14fdf1f6a5" x="229.534397" y="85.916498" style="stroke: #000000"/>
    </g>
   </g>
   <g id="line2d_51">
    <g clip-path="url(#pe15a063808)">
     <use xlink:href="#m14fdf1f6a5" x="232.847199" y="77.260599" style="stroke: #000000"/>
    </g>
   </g>
   <g id="line2d_52">
    <g clip-path="url(#pe15a063808)">
     <use xlink:href="#m14fdf1f6a5" x="236.16" y="73.718125" style="stroke: #000000"/>
    </g>
   </g>
   <g id="line2d_53">
    <g clip-path="url(#pe15a063808)">
     <use xlink:href="#m14fdf1f6a5" x="239.472801" y="70.162744" style="stroke: #000000"/>
    </g>
   </g>
   <g id="line2d_54">
    <g clip-path="url(#pe15a063808)">
     <use xlink:href="#m14fdf1f6a5" x="242.785603" y="70.133572" style="stroke: #000000"/>
    </g>
   </g>
   <g id="line2d_55">
    <g clip-path="url(#pe15a063808)">
     <use xlink:href="#m14fdf1f6a5" x="246.098404" y="79.330256" style="stroke: #000000"/>
    </g>
   </g>
   <g id="line2d_56">
    <g clip-path="url(#pe15a063808)">
     <use xlink:href="#m14fdf1f6a5" x="249.411206" y="67.959806" style="stroke: #000000"/>
    </g>
   </g>
   <g id="line2d_57">
    <g clip-path="url(#pe15a063808)">
     <use xlink:href="#m14fdf1f6a5" x="252.724007" y="62.310103" style="stroke: #000000"/>
    </g>
   </g>
   <g id="line2d_58">
    <g clip-path="url(#pe15a063808)">
     <use xlink:href="#m14fdf1f6a5" x="259.34961" y="63.888564" style="stroke: #000000"/>
    </g>
   </g>
   <g id="line2d_59">
    <g clip-path="url(#pe15a063808)">
     <use xlink:href="#m14fdf1f6a5" x="262.662412" y="69.378829" style="stroke: #000000"/>
    </g>
   </g>
   <g id="line2d_60">
    <g clip-path="url(#pe15a063808)">
     <use xlink:href="#m14fdf1f6a5" x="265.975213" y="75.496293" style="stroke: #000000"/>
    </g>
   </g>
   <g id="line2d_61">
    <g clip-path="url(#pe15a063808)">
     <use xlink:href="#m14fdf1f6a5" x="269.288015" y="80.129233" style="stroke: #000000"/>
    </g>
   </g>
   <g id="line2d_62">
    <g clip-path="url(#pe15a063808)">
     <use xlink:href="#m14fdf1f6a5" x="272.600816" y="80.996975" style="stroke: #000000"/>
    </g>
   </g>
   <g id="line2d_63">
    <g clip-path="url(#pe15a063808)">
     <use xlink:href="#m14fdf1f6a5" x="275.913618" y="69.732322" style="stroke: #000000"/>
    </g>
   </g>
   <g id="line2d_64">
    <g clip-path="url(#pe15a063808)">
     <use xlink:href="#m14fdf1f6a5" x="279.226419" y="68.945503" style="stroke: #000000"/>
    </g>
   </g>
   <g id="line2d_65">
    <g clip-path="url(#pe15a063808)">
     <use xlink:href="#m14fdf1f6a5" x="282.539221" y="64.516423" style="stroke: #000000"/>
    </g>
   </g>
   <g id="line2d_66">
    <g clip-path="url(#pe15a063808)">
     <use xlink:href="#m14fdf1f6a5" x="285.852022" y="60.830053" style="stroke: #000000"/>
    </g>
   </g>
   <g id="line2d_67">
    <g clip-path="url(#pe15a063808)">
     <use xlink:href="#m14fdf1f6a5" x="289.164824" y="68.517309" style="stroke: #000000"/>
    </g>
   </g>
   <g id="line2d_68">
    <g clip-path="url(#pe15a063808)">
     <use xlink:href="#m14fdf1f6a5" x="292.477625" y="80.898006" style="stroke: #000000"/>
    </g>
   </g>
   <g id="line2d_69">
    <g clip-path="url(#pe15a063808)">
     <use xlink:href="#m14fdf1f6a5" x="295.790427" y="79.391729" style="stroke: #000000"/>
    </g>
   </g>
   <g id="line2d_70">
    <g clip-path="url(#pe15a063808)">
     <use xlink:href="#m14fdf1f6a5" x="299.103228" y="70.533195" style="stroke: #000000"/>
    </g>
   </g>
   <g id="line2d_71">
    <g clip-path="url(#pe15a063808)">
     <use xlink:href="#m14fdf1f6a5" x="302.41603" y="72.591386" style="stroke: #000000"/>
    </g>
   </g>
   <g id="line2d_72">
    <g clip-path="url(#pe15a063808)">
     <use xlink:href="#m14fdf1f6a5" x="305.728831" y="75.04786" style="stroke: #000000"/>
    </g>
   </g>
   <g id="line2d_73">
    <g clip-path="url(#pe15a063808)">
     <use xlink:href="#m14fdf1f6a5" x="309.041633" y="73.91674" style="stroke: #000000"/>
    </g>
   </g>
   <g id="line2d_74">
    <g clip-path="url(#pe15a063808)">
     <use xlink:href="#m14fdf1f6a5" x="312.354434" y="65.653072" style="stroke: #000000"/>
    </g>
   </g>
   <g id="line2d_75">
    <g clip-path="url(#pe15a063808)">
     <use xlink:href="#m14fdf1f6a5" x="315.667236" y="72.474825" style="stroke: #000000"/>
    </g>
   </g>
   <g id="line2d_76">
    <g clip-path="url(#pe15a063808)">
     <use xlink:href="#m14fdf1f6a5" x="318.980037" y="72.515011" style="stroke: #000000"/>
    </g>
   </g>
   <g id="line2d_77">
    <g clip-path="url(#pe15a063808)">
     <use xlink:href="#m14fdf1f6a5" x="322.292839" y="65.956906" style="stroke: #000000"/>
    </g>
   </g>
   <g id="line2d_78">
    <g clip-path="url(#pe15a063808)">
     <use xlink:href="#m14fdf1f6a5" x="325.60564" y="59.351434" style="stroke: #000000"/>
    </g>
   </g>
   <g id="line2d_79">
    <g clip-path="url(#pe15a063808)">
     <use xlink:href="#m14fdf1f6a5" x="328.918442" y="66.268841" style="stroke: #000000"/>
    </g>
   </g>
   <g id="line2d_80">
    <g clip-path="url(#pe15a063808)">
     <use xlink:href="#m14fdf1f6a5" x="332.231243" y="64.539944" style="stroke: #000000"/>
    </g>
   </g>
   <g id="line2d_81">
    <g clip-path="url(#pe15a063808)">
     <use xlink:href="#m14fdf1f6a5" x="335.544045" y="66.153396" style="stroke: #000000"/>
    </g>
   </g>
   <g id="line2d_82">
    <g clip-path="url(#pe15a063808)">
     <use xlink:href="#m14fdf1f6a5" x="338.856846" y="69.291411" style="stroke: #000000"/>
    </g>
   </g>
   <g id="line2d_83">
    <g clip-path="url(#pe15a063808)">
     <use xlink:href="#m14fdf1f6a5" x="342.169647" y="67.24089" style="stroke: #000000"/>
    </g>
   </g>
   <g id="line2d_84">
    <g clip-path="url(#pe15a063808)">
     <use xlink:href="#m14fdf1f6a5" x="345.482449" y="73.957179" style="stroke: #000000"/>
    </g>
   </g>
   <g id="line2d_85">
    <g clip-path="url(#pe15a063808)">
     <use xlink:href="#m14fdf1f6a5" x="348.79525" y="72.205732" style="stroke: #000000"/>
    </g>
   </g>
   <g id="line2d_86">
    <g clip-path="url(#pe15a063808)">
     <use xlink:href="#m14fdf1f6a5" x="355.420853" y="68.757181" style="stroke: #000000"/>
    </g>
   </g>
   <g id="line2d_87">
    <g clip-path="url(#pe15a063808)">
     <use xlink:href="#m14fdf1f6a5" x="362.046456" y="65.398765" style="stroke: #000000"/>
    </g>
   </g>
   <g id="line2d_88">
    <g clip-path="url(#pe15a063808)">
     <use xlink:href="#m14fdf1f6a5" x="365.359258" y="56.828257" style="stroke: #000000"/>
    </g>
   </g>
   <g id="line2d_89">
    <g clip-path="url(#pe15a063808)">
     <use xlink:href="#m14fdf1f6a5" x="368.672059" y="62.879991" style="stroke: #000000"/>
    </g>
   </g>
   <g id="line2d_90">
    <g clip-path="url(#pe15a063808)">
     <use xlink:href="#m14fdf1f6a5" x="371.984861" y="55.709554" style="stroke: #000000"/>
    </g>
   </g>
   <g id="line2d_91">
    <g clip-path="url(#pe15a063808)">
     <use xlink:href="#m14fdf1f6a5" x="375.297662" y="68.931406" style="stroke: #000000"/>
    </g>
   </g>
   <g id="line2d_92">
    <g clip-path="url(#pe15a063808)">
     <use xlink:href="#m14fdf1f6a5" x="378.610464" y="62.879411" style="stroke: #000000"/>
    </g>
   </g>
   <g id="line2d_93">
    <g clip-path="url(#pe15a063808)">
     <use xlink:href="#m14fdf1f6a5" x="381.923265" y="53.568" style="stroke: #000000"/>
    </g>
   </g>
   <g id="line2d_94">
    <g clip-path="url(#pe15a063808)">
     <use xlink:href="#m14fdf1f6a5" x="385.236067" y="63.719263" style="stroke: #000000"/>
    </g>
   </g>
   <g id="line2d_95">
    <g clip-path="url(#pe15a063808)">
     <use xlink:href="#m14fdf1f6a5" x="388.548868" y="76.389308" style="stroke: #000000"/>
    </g>
   </g>
   <g id="line2d_96">
    <g clip-path="url(#pe15a063808)">
     <use xlink:href="#m14fdf1f6a5" x="391.86167" y="86.664793" style="stroke: #000000"/>
    </g>
   </g>
   <g id="line2d_97">
    <g clip-path="url(#pe15a063808)">
     <use xlink:href="#m14fdf1f6a5" x="395.174471" y="85.692094" style="stroke: #000000"/>
    </g>
   </g>
   <g id="line2d_98">
    <g clip-path="url(#pe15a063808)">
     <use xlink:href="#m14fdf1f6a5" x="398.487273" y="83.117738" style="stroke: #000000"/>
    </g>
   </g>
   <g id="line2d_99">
    <path d="M 73.832727 235.753918 
L 77.145529 235.753918 
L 80.45833 235.753918 
L 83.771132 235.753918 
L 87.083933 235.753918 
L 90.396735 235.753918 
L 93.709536 235.753918 
L 97.022338 235.753918 
L 100.335139 235.753918 
L 103.647941 235.753918 
L 106.960742 235.753918 
L 110.273544 235.753918 
L 113.586345 235.753918 
L 116.899147 235.753918 
L 120.211948 87.978981 
L 123.52475 87.978981 
L 126.837551 87.978981 
L 130.150353 87.978981 
L 133.463154 87.978981 
L 136.775955 87.978981 
L 140.088757 87.978981 
L 143.401558 87.978981 
L 146.71436 87.978981 
L 150.027161 87.978981 
L 153.339963 87.978981 
L 156.652764 87.978981 
L 159.965566 87.978981 
L 163.278367 87.978981 
L 166.591169 87.978981 
L 169.90397 87.978981 
L 173.216772 87.978981 
L 176.529573 87.978981 
L 179.842375 87.978981 
L 183.155176 87.978981 
L 186.467978 87.978981 
L 189.780779 87.978981 
L 193.093581 87.978981 
L 196.406382 87.978981 
L 199.719184 87.978981 
L 203.031985 87.978981 
L 206.344787 87.978981 
L 209.657588 87.978981 
L 212.97039 87.978981 
L 216.283191 87.978981 
L 219.595993 87.978981 
L 222.908794 87.978981 
L 226.221596 87.978981 
L 229.534397 87.978981 
L 232.847199 87.978981 
L 236.16 87.978981 
L 239.472801 87.978981 
L 242.785603 87.978981 
L 246.098404 87.978981 
L 249.411206 87.978981 
L 252.724007 87.978981 
L 256.036809 87.978981 
L 259.34961 87.978981 
L 262.662412 87.978981 
L 265.975213 87.978981 
L 269.288015 87.978981 
L 272.600816 87.978981 
L 275.913618 87.978981 
L 279.226419 58.667892 
L 282.539221 58.667892 
L 285.852022 58.667892 
L 289.164824 58.667892 
L 292.477625 58.667892 
L 295.790427 58.667892 
L 299.103228 58.667892 
L 302.41603 58.667892 
L 305.728831 58.667892 
L 309.041633 58.667892 
L 312.354434 58.667892 
L 315.667236 58.667892 
L 318.980037 58.667892 
L 322.292839 58.667892 
L 325.60564 58.667892 
L 328.918442 58.667892 
L 332.231243 58.667892 
L 335.544045 58.667892 
L 338.856846 58.667892 
L 342.169647 58.667892 
L 345.482449 58.667892 
L 348.79525 58.667892 
L 352.108052 58.667892 
L 355.420853 58.667892 
L 358.733655 58.667892 
L 362.046456 58.667892 
L 365.359258 58.667892 
L 368.672059 58.667892 
L 371.984861 58.667892 
L 375.297662 58.667892 
L 378.610464 58.667892 
L 381.923265 58.667892 
L 385.236067 58.667892 
L 388.548868 96.747537 
L 391.86167 96.747537 
L 395.174471 96.747537 
L 398.487273 96.747537 
" clip-path="url(#pe15a063808)" style="fill: none; stroke: #ff0000; stroke-width: 1.5; stroke-linecap: square"/>
   </g>
   <g id="line2d_100">
    <defs>
     <path id="m52d4da9500" d="M 0 4.5 
C 1.193414 4.5 2.338109 4.025852 3.181981 3.181981 
C 4.025852 2.338109 4.5 1.193414 4.5 0 
C 4.5 -1.193414 4.025852 -2.338109 3.181981 -3.181981 
C 2.338109 -4.025852 1.193414 -4.5 0 -4.5 
C -1.193414 -4.5 -2.338109 -4.025852 -3.181981 -3.181981 
C -4.025852 -2.338109 -4.5 -1.193414 -4.5 0 
C -4.5 1.193414 -4.025852 2.338109 -3.181981 3.181981 
C -2.338109 4.025852 -1.193414 4.5 0 4.5 
z
" style="stroke: #ff0000"/>
    </defs>
    <g clip-path="url(#pe15a063808)">
     <use xlink:href="#m52d4da9500" x="73.832727" y="235.753918" style="fill: #ff0000; stroke: #ff0000"/>
    </g>
   </g>
   <g id="line2d_101">
    <g clip-path="url(#pe15a063808)">
     <use xlink:href="#m52d4da9500" x="120.211948" y="87.978981" style="fill: #ff0000; stroke: #ff0000"/>
    </g>
   </g>
   <g id="line2d_102">
    <g clip-path="url(#pe15a063808)">
     <use xlink:href="#m52d4da9500" x="279.226419" y="58.667892" style="fill: #ff0000; stroke: #ff0000"/>
    </g>
   </g>
   <g id="line2d_103">
    <g clip-path="url(#pe15a063808)">
     <use xlink:href="#m52d4da9500" x="388.548868" y="96.747537" style="fill: #ff0000; stroke: #ff0000"/>
    </g>
   </g>
   <g id="patch_3">
    <path d="M 57.6 307.584 
L 57.6 41.472 
" style="fill: none; stroke: #000000; stroke-width: 0.8; stroke-linejoin: miter; stroke-linecap: square"/>
   </g>
   <g id="patch_4">
    <path d="M 414.72 307.584 
L 414.72 41.472 
" style="fill: none; stroke: #000000; stroke-width: 0.8; stroke-linejoin: miter; stroke-linecap: square"/>
   </g>
   <g id="patch_5">
    <path d="M 57.6 307.584 
L 414.72 307.584 
" style="fill: none; stroke: #000000; stroke-width: 0.8; stroke-linejoin: miter; stroke-linecap: square"/>
   </g>
   <g id="patch_6">
    <path d="M 57.6 41.472 
L 414.72 41.472 
" style="fill: none; stroke: #000000; stroke-width: 0.8; stroke-linejoin: miter; stroke-linecap: square"/>
   </g>
   <g id="legend_1">
    <g id="patch_7">
     <path d="M 403.72 54.472 
L 407.72 54.472 
Q 409.72 54.472 409.72 52.472 
L 409.72 48.472 
Q 409.72 46.472 407.72 46.472 
L 403.72 46.472 
Q 401.72 46.472 401.72 48.472 
L 401.72 52.472 
Q 401.72 54.472 403.72 54.472 
z
" style="fill: #ffffff; opacity: 0.8; stroke: #cccccc; stroke-linejoin: miter"/>
    </g>
   </g>
  </g>
 </g>
 <defs>
  <clipPath id="pe15a063808">
   <rect x="57.6" y="41.472" width="357.12" height="266.112"/>
  </clipPath>
 </defs>
</svg>
