<?xml version="1.0" encoding="utf-8" standalone="no"?>
<!DOCTYPE svg PUBLIC "-//W3C//DTD SVG 1.1//EN"
  "http://www.w3.org/Graphics/SVG/1.1/DTD/svg11.dtd">
<svg xmlns:xlink="http://www.w3.org/1999/xlink" width="460.8pt" height="345.6pt" viewBox="0 0 460.8 345.6" xmlns="http://www.w3.org/2000/svg" version="1.1">
 <metadata>
  <rdf:RDF xmlns:dc="http://purl.org/dc/elements/1.1/" xmlns:cc="http://creativecommons.org/ns#" xmlns:rdf="http://www.w3.org/1999/02/22-rdf-syntax-ns#">
   <cc:Work>
    <dc:type rdf:resource="http://purl.org/dc/dcmitype/StillImage"/>
    <dc:date>2024-06-05T10:59:53.669052</dc:date>
    <dc:format>image/svg+xml</dc:format>
    <dc:creator>
     <cc:Agent>
      <dc:title>Matplotlib v3.7.1, https://matplotlib.org/</dc:title>
     </cc:Agent>
    </dc:creator>
   </cc:Work>
  </rdf:RDF>
 </metadata>
 <defs>
  <style type="text/css">*{stroke-linejoin: round; stroke-linecap: butt}</style>
 </defs>
 <g id="figure_1">
  <g id="patch_1">
   <path d="M 0 345.6 
L 460.8 345.6 
L 460.8 0 
L 0 0 
z
" style="fill: #ffffff"/>
  </g>
  <g id="axes_1">
   <g id="patch_2">
    <path d="M 57.6 307.584 
L 414.72 307.584 
L 414.72 41.472 
L 57.6 41.472 
z
" style="fill: #ffffff"/>
   </g>
   <g id="matplotlib.axis_1">
    <g id="xtick_1">
     <g id="line2d_1">
      <path d="M 73.832727 307.584 
L 73.832727 41.472 
" clip-path="url(#p6cc80556a4)" style="fill: none; stroke: #b0b0b0; stroke-width: 0.8; stroke-linecap: square"/>
     </g>
     <g id="line2d_2">
      <defs>
       <path id="mabe1f5fd45" d="M 0 0 
L 0 3.5 
" style="stroke: #000000; stroke-width: 0.8"/>
      </defs>
      <g>
       <use xlink:href="#mabe1f5fd45" x="73.832727" y="307.584" style="stroke: #000000; stroke-width: 0.8"/>
      </g>
     </g>
     <g id="text_1">
      <!-- 0 -->
      <g transform="translate(70.651477 322.182437) scale(0.1 -0.1)">
       <defs>
        <path id="DejaVuSans-30" d="M 2034 4250 
Q 1547 4250 1301 3770 
Q 1056 3291 1056 2328 
Q 1056 1369 1301 889 
Q 1547 409 2034 409 
Q 2525 409 2770 889 
Q 3016 1369 3016 2328 
Q 3016 3291 2770 3770 
Q 2525 4250 2034 4250 
z
M 2034 4750 
Q 2819 4750 3233 4129 
Q 3647 3509 3647 2328 
Q 3647 1150 3233 529 
Q 2819 -91 2034 -91 
Q 1250 -91 836 529 
Q 422 1150 422 2328 
Q 422 3509 836 4129 
Q 1250 4750 2034 4750 
z
" transform="scale(0.015625)"/>
       </defs>
       <use xlink:href="#DejaVuSans-30"/>
      </g>
     </g>
    </g>
    <g id="xtick_2">
     <g id="line2d_3">
      <path d="M 139.419504 307.584 
L 139.419504 41.472 
" clip-path="url(#p6cc80556a4)" style="fill: none; stroke: #b0b0b0; stroke-width: 0.8; stroke-linecap: square"/>
     </g>
     <g id="line2d_4">
      <g>
       <use xlink:href="#mabe1f5fd45" x="139.419504" y="307.584" style="stroke: #000000; stroke-width: 0.8"/>
      </g>
     </g>
     <g id="text_2">
      <!-- 20 -->
      <g transform="translate(133.057004 322.182437) scale(0.1 -0.1)">
       <defs>
        <path id="DejaVuSans-32" d="M 1228 531 
L 3431 531 
L 3431 0 
L 469 0 
L 469 531 
Q 828 903 1448 1529 
Q 2069 2156 2228 2338 
Q 2531 2678 2651 2914 
Q 2772 3150 2772 3378 
Q 2772 3750 2511 3984 
Q 2250 4219 1831 4219 
Q 1534 4219 1204 4116 
Q 875 4013 500 3803 
L 500 4441 
Q 881 4594 1212 4672 
Q 1544 4750 1819 4750 
Q 2544 4750 2975 4387 
Q 3406 4025 3406 3419 
Q 3406 3131 3298 2873 
Q 3191 2616 2906 2266 
Q 2828 2175 2409 1742 
Q 1991 1309 1228 531 
z
" transform="scale(0.015625)"/>
       </defs>
       <use xlink:href="#DejaVuSans-32"/>
       <use xlink:href="#DejaVuSans-30" x="63.623047"/>
      </g>
     </g>
    </g>
    <g id="xtick_3">
     <g id="line2d_5">
      <path d="M 205.006281 307.584 
L 205.006281 41.472 
" clip-path="url(#p6cc80556a4)" style="fill: none; stroke: #b0b0b0; stroke-width: 0.8; stroke-linecap: square"/>
     </g>
     <g id="line2d_6">
      <g>
       <use xlink:href="#mabe1f5fd45" x="205.006281" y="307.584" style="stroke: #000000; stroke-width: 0.8"/>
      </g>
     </g>
     <g id="text_3">
      <!-- 40 -->
      <g transform="translate(198.643781 322.182437) scale(0.1 -0.1)">
       <defs>
        <path id="DejaVuSans-34" d="M 2419 4116 
L 825 1625 
L 2419 1625 
L 2419 4116 
z
M 2253 4666 
L 3047 4666 
L 3047 1625 
L 3713 1625 
L 3713 1100 
L 3047 1100 
L 3047 0 
L 2419 0 
L 2419 1100 
L 313 1100 
L 313 1709 
L 2253 4666 
z
" transform="scale(0.015625)"/>
       </defs>
       <use xlink:href="#DejaVuSans-34"/>
       <use xlink:href="#DejaVuSans-30" x="63.623047"/>
      </g>
     </g>
    </g>
    <g id="xtick_4">
     <g id="line2d_7">
      <path d="M 270.593058 307.584 
L 270.593058 41.472 
" clip-path="url(#p6cc80556a4)" style="fill: none; stroke: #b0b0b0; stroke-width: 0.8; stroke-linecap: square"/>
     </g>
     <g id="line2d_8">
      <g>
       <use xlink:href="#mabe1f5fd45" x="270.593058" y="307.584" style="stroke: #000000; stroke-width: 0.8"/>
      </g>
     </g>
     <g id="text_4">
      <!-- 60 -->
      <g transform="translate(264.230558 322.182437) scale(0.1 -0.1)">
       <defs>
        <path id="DejaVuSans-36" d="M 2113 2584 
Q 1688 2584 1439 2293 
Q 1191 2003 1191 1497 
Q 1191 994 1439 701 
Q 1688 409 2113 409 
Q 2538 409 2786 701 
Q 3034 994 3034 1497 
Q 3034 2003 2786 2293 
Q 2538 2584 2113 2584 
z
M 3366 4563 
L 3366 3988 
Q 3128 4100 2886 4159 
Q 2644 4219 2406 4219 
Q 1781 4219 1451 3797 
Q 1122 3375 1075 2522 
Q 1259 2794 1537 2939 
Q 1816 3084 2150 3084 
Q 2853 3084 3261 2657 
Q 3669 2231 3669 1497 
Q 3669 778 3244 343 
Q 2819 -91 2113 -91 
Q 1303 -91 875 529 
Q 447 1150 447 2328 
Q 447 3434 972 4092 
Q 1497 4750 2381 4750 
Q 2619 4750 2861 4703 
Q 3103 4656 3366 4563 
z
" transform="scale(0.015625)"/>
       </defs>
       <use xlink:href="#DejaVuSans-36"/>
       <use xlink:href="#DejaVuSans-30" x="63.623047"/>
      </g>
     </g>
    </g>
    <g id="xtick_5">
     <g id="line2d_9">
      <path d="M 336.179835 307.584 
L 336.179835 41.472 
" clip-path="url(#p6cc80556a4)" style="fill: none; stroke: #b0b0b0; stroke-width: 0.8; stroke-linecap: square"/>
     </g>
     <g id="line2d_10">
      <g>
       <use xlink:href="#mabe1f5fd45" x="336.179835" y="307.584" style="stroke: #000000; stroke-width: 0.8"/>
      </g>
     </g>
     <g id="text_5">
      <!-- 80 -->
      <g transform="translate(329.817335 322.182437) scale(0.1 -0.1)">
       <defs>
        <path id="DejaVuSans-38" d="M 2034 2216 
Q 1584 2216 1326 1975 
Q 1069 1734 1069 1313 
Q 1069 891 1326 650 
Q 1584 409 2034 409 
Q 2484 409 2743 651 
Q 3003 894 3003 1313 
Q 3003 1734 2745 1975 
Q 2488 2216 2034 2216 
z
M 1403 2484 
Q 997 2584 770 2862 
Q 544 3141 544 3541 
Q 544 4100 942 4425 
Q 1341 4750 2034 4750 
Q 2731 4750 3128 4425 
Q 3525 4100 3525 3541 
Q 3525 3141 3298 2862 
Q 3072 2584 2669 2484 
Q 3125 2378 3379 2068 
Q 3634 1759 3634 1313 
Q 3634 634 3220 271 
Q 2806 -91 2034 -91 
Q 1263 -91 848 271 
Q 434 634 434 1313 
Q 434 1759 690 2068 
Q 947 2378 1403 2484 
z
M 1172 3481 
Q 1172 3119 1398 2916 
Q 1625 2713 2034 2713 
Q 2441 2713 2670 2916 
Q 2900 3119 2900 3481 
Q 2900 3844 2670 4047 
Q 2441 4250 2034 4250 
Q 1625 4250 1398 4047 
Q 1172 3844 1172 3481 
z
" transform="scale(0.015625)"/>
       </defs>
       <use xlink:href="#DejaVuSans-38"/>
       <use xlink:href="#DejaVuSans-30" x="63.623047"/>
      </g>
     </g>
    </g>
    <g id="xtick_6">
     <g id="line2d_11">
      <path d="M 401.766612 307.584 
L 401.766612 41.472 
" clip-path="url(#p6cc80556a4)" style="fill: none; stroke: #b0b0b0; stroke-width: 0.8; stroke-linecap: square"/>
     </g>
     <g id="line2d_12">
      <g>
       <use xlink:href="#mabe1f5fd45" x="401.766612" y="307.584" style="stroke: #000000; stroke-width: 0.8"/>
      </g>
     </g>
     <g id="text_6">
      <!-- 100 -->
      <g transform="translate(392.222862 322.182437) scale(0.1 -0.1)">
       <defs>
        <path id="DejaVuSans-31" d="M 794 531 
L 1825 531 
L 1825 4091 
L 703 3866 
L 703 4441 
L 1819 4666 
L 2450 4666 
L 2450 531 
L 3481 531 
L 3481 0 
L 794 0 
L 794 531 
z
" transform="scale(0.015625)"/>
       </defs>
       <use xlink:href="#DejaVuSans-31"/>
       <use xlink:href="#DejaVuSans-30" x="63.623047"/>
       <use xlink:href="#DejaVuSans-30" x="127.246094"/>
      </g>
     </g>
    </g>
    <g id="text_7">
     <!-- T -->
     <g transform="translate(233.106094 335.860562) scale(0.1 -0.1)">
      <defs>
       <path id="DejaVuSans-54" d="M -19 4666 
L 3928 4666 
L 3928 4134 
L 2272 4134 
L 2272 0 
L 1638 0 
L 1638 4134 
L -19 4134 
L -19 4666 
z
" transform="scale(0.015625)"/>
      </defs>
      <use xlink:href="#DejaVuSans-54"/>
     </g>
    </g>
   </g>
   <g id="matplotlib.axis_2">
    <g id="ytick_1">
     <g id="line2d_13">
      <path d="M 57.6 262.190044 
L 414.72 262.190044 
" clip-path="url(#p6cc80556a4)" style="fill: none; stroke: #b0b0b0; stroke-width: 0.8; stroke-linecap: square"/>
     </g>
     <g id="line2d_14">
      <defs>
       <path id="ma527622adc" d="M 0 0 
L -3.5 0 
" style="stroke: #000000; stroke-width: 0.8"/>
      </defs>
      <g>
       <use xlink:href="#ma527622adc" x="57.6" y="262.190044" style="stroke: #000000; stroke-width: 0.8"/>
      </g>
     </g>
     <g id="text_8">
      <!-- 0 -->
      <g transform="translate(44.2375 265.989263) scale(0.1 -0.1)">
       <use xlink:href="#DejaVuSans-30"/>
      </g>
     </g>
    </g>
    <g id="ytick_2">
     <g id="line2d_15">
      <path d="M 57.6 215.82959 
L 414.72 215.82959 
" clip-path="url(#p6cc80556a4)" style="fill: none; stroke: #b0b0b0; stroke-width: 0.8; stroke-linecap: square"/>
     </g>
     <g id="line2d_16">
      <g>
       <use xlink:href="#ma527622adc" x="57.6" y="215.82959" style="stroke: #000000; stroke-width: 0.8"/>
      </g>
     </g>
     <g id="text_9">
      <!-- 2 -->
      <g transform="translate(44.2375 219.628809) scale(0.1 -0.1)">
       <use xlink:href="#DejaVuSans-32"/>
      </g>
     </g>
    </g>
    <g id="ytick_3">
     <g id="line2d_17">
      <path d="M 57.6 169.469136 
L 414.72 169.469136 
" clip-path="url(#p6cc80556a4)" style="fill: none; stroke: #b0b0b0; stroke-width: 0.8; stroke-linecap: square"/>
     </g>
     <g id="line2d_18">
      <g>
       <use xlink:href="#ma527622adc" x="57.6" y="169.469136" style="stroke: #000000; stroke-width: 0.8"/>
      </g>
     </g>
     <g id="text_10">
      <!-- 4 -->
      <g transform="translate(44.2375 173.268355) scale(0.1 -0.1)">
       <use xlink:href="#DejaVuSans-34"/>
      </g>
     </g>
    </g>
    <g id="ytick_4">
     <g id="line2d_19">
      <path d="M 57.6 123.108681 
L 414.72 123.108681 
" clip-path="url(#p6cc80556a4)" style="fill: none; stroke: #b0b0b0; stroke-width: 0.8; stroke-linecap: square"/>
     </g>
     <g id="line2d_20">
      <g>
       <use xlink:href="#ma527622adc" x="57.6" y="123.108681" style="stroke: #000000; stroke-width: 0.8"/>
      </g>
     </g>
     <g id="text_11">
      <!-- 6 -->
      <g transform="translate(44.2375 126.9079) scale(0.1 -0.1)">
       <use xlink:href="#DejaVuSans-36"/>
      </g>
     </g>
    </g>
    <g id="ytick_5">
     <g id="line2d_21">
      <path d="M 57.6 76.748227 
L 414.72 76.748227 
" clip-path="url(#p6cc80556a4)" style="fill: none; stroke: #b0b0b0; stroke-width: 0.8; stroke-linecap: square"/>
     </g>
     <g id="line2d_22">
      <g>
       <use xlink:href="#ma527622adc" x="57.6" y="76.748227" style="stroke: #000000; stroke-width: 0.8"/>
      </g>
     </g>
     <g id="text_12">
      <!-- 8 -->
      <g transform="translate(44.2375 80.547446) scale(0.1 -0.1)">
       <use xlink:href="#DejaVuSans-38"/>
      </g>
     </g>
    </g>
    <g id="text_13">
     <!-- X -->
     <g transform="translate(38.157812 177.953) rotate(-90) scale(0.1 -0.1)">
      <defs>
       <path id="DejaVuSans-58" d="M 403 4666 
L 1081 4666 
L 2241 2931 
L 3406 4666 
L 4084 4666 
L 2584 2425 
L 4184 0 
L 3506 0 
L 2194 1984 
L 872 0 
L 191 0 
L 1856 2491 
L 403 4666 
z
" transform="scale(0.015625)"/>
      </defs>
      <use xlink:href="#DejaVuSans-58"/>
     </g>
    </g>
   </g>
   <g id="line2d_23">
    <path d="M 73.832727 99.928454 
L 77.112066 98.191162 
L 80.391405 95.515691 
L 83.670744 118.448128 
L 86.950083 147.20425 
L 90.229421 166.50701 
L 93.50876 193.961303 
L 96.788099 219.115877 
L 100.067438 224.223644 
L 103.346777 229.582791 
L 106.626116 233.453754 
L 109.905455 250.643732 
L 113.184793 251.142823 
L 116.464132 258.79626 
L 119.743471 253.600308 
L 123.02281 249.258026 
L 126.302149 253.597721 
L 129.581488 249.869595 
L 132.860826 240.9088 
L 136.140165 230.348662 
L 139.419504 223.587179 
L 142.698843 216.802285 
L 145.978182 223.337377 
L 149.257521 218.093701 
L 152.53686 219.706859 
L 155.816198 225.373491 
L 159.095537 218.115445 
L 162.374876 211.869256 
L 165.654215 215.2211 
L 168.933554 222.484733 
L 172.212893 217.557748 
L 175.492231 225.713305 
L 178.77157 220.871018 
L 182.050909 220.882895 
L 185.330248 226.219813 
L 188.609587 223.339901 
L 191.888926 225.544819 
L 195.168264 233.987325 
L 198.447603 247.30095 
L 201.726942 244.366173 
L 205.006281 251.276306 
L 208.28562 253.660106 
L 211.564959 260.699212 
L 214.844298 251.851405 
L 218.123636 240.583156 
L 221.402975 248.093751 
L 224.682314 243.54508 
L 227.961653 247.964788 
L 231.240992 250.701777 
L 234.520331 261.117162 
L 237.799669 254.7914 
L 241.079008 251.196472 
L 244.358347 247.990154 
L 247.637686 249.406098 
L 250.917025 256.805418 
L 254.196364 258.907874 
L 257.475702 264.2441 
L 260.755041 259.215928 
L 264.03438 263.198127 
L 267.313719 251.926126 
L 270.593058 254.576842 
L 273.872397 260.395458 
L 277.151736 265.311841 
L 280.431074 260.701699 
L 283.710413 257.869871 
L 286.989752 253.877971 
L 290.269091 259.889325 
L 293.54843 268.764003 
L 296.827769 261.354924 
L 300.107107 258.049891 
L 303.386446 254.071312 
L 306.665785 259.116231 
L 309.945124 250.19013 
L 313.224463 242.630756 
L 316.503802 251.544561 
L 319.78314 260.654953 
L 323.062479 265.336653 
L 326.341818 273.792783 
L 329.621157 267.904987 
L 332.900496 266.210697 
L 336.179835 262.092658 
L 339.459174 262.26606 
L 342.738512 273.443723 
L 346.017851 282.165547 
L 349.29719 283.956279 
L 352.576529 273.522884 
L 355.855868 270.304124 
L 359.135207 277.278434 
L 362.414545 263.456588 
L 365.693884 262.685638 
L 368.973223 265.09582 
L 372.252562 258.502822 
L 375.531901 265.983443 
L 378.81124 268.336348 
L 382.090579 265.114399 
L 385.369917 262.395488 
L 388.649256 257.189967 
L 391.928595 259.947737 
L 395.207934 257.273044 
L 398.487273 269.212503 
" clip-path="url(#p6cc80556a4)" style="fill: none; stroke: #000000; stroke-width: 1.5; stroke-linecap: square"/>
   </g>
   <g id="line2d_24">
    <path d="M 73.832727 99.928454 
L 77.112066 98.191162 
L 80.391405 94.903643 
L 83.670744 112.121377 
L 86.950083 137.220841 
L 90.229421 156.565618 
L 93.50876 185.016143 
L 96.788099 211.062948 
L 100.067438 216.413567 
L 103.346777 221.277232 
L 106.626116 222.409112 
L 109.905455 235.106806 
L 113.184793 230.7076 
L 116.464132 232.742284 
L 119.743471 227.970642 
L 123.02281 229.537863 
L 126.302149 239.983053 
L 129.581488 240.446894 
L 132.860826 233.705552 
L 136.140165 226.411695 
L 139.419504 222.954644 
L 142.698843 218.835754 
L 145.978182 226.440147 
L 149.257521 220.925763 
L 152.53686 221.363135 
L 155.816198 225.794461 
L 159.095537 217.743535 
L 162.374876 211.351395 
L 165.654215 215.365335 
L 168.933554 222.268436 
L 172.212893 216.921039 
L 175.492231 224.858875 
L 178.77157 219.486544 
L 182.050909 218.704914 
L 185.330248 223.577931 
L 188.609587 220.551983 
L 191.888926 222.222812 
L 195.168264 231.074532 
L 198.447603 245.339539 
L 201.726942 243.776593 
L 205.006281 251.33263 
L 208.28562 254.041544 
L 211.564959 261.826805 
L 214.844298 253.785234 
L 218.123636 243.06996 
L 221.402975 250.670473 
L 224.682314 246.067322 
L 227.961653 250.400312 
L 231.240992 252.886046 
L 234.520331 262.99233 
L 237.799669 256.240666 
L 241.079008 252.144327 
L 244.358347 248.823006 
L 247.637686 249.392289 
L 250.917025 255.73543 
L 254.196364 256.732534 
L 257.475702 260.692613 
L 260.755041 254.562844 
L 264.03438 257.856594 
L 267.313719 246.387987 
L 270.593058 248.877399 
L 273.872397 253.287783 
L 277.151736 256.914046 
L 280.431074 250.739003 
L 283.710413 246.609296 
L 286.989752 242.017716 
L 290.269091 248.889179 
L 293.54843 258.530489 
L 296.827769 251.335469 
L 300.107107 248.585865 
L 303.386446 245.352572 
L 306.665785 251.118191 
L 309.945124 242.790685 
L 313.224463 235.959365 
L 316.503802 245.552301 
L 319.78314 255.392485 
L 323.062479 260.953334 
L 326.341818 270.103937 
L 329.621157 264.905978 
L 332.900496 263.821461 
L 336.179835 260.123631 
L 339.459174 260.788992 
L 342.738512 271.980506 
L 346.017851 280.798271 
L 349.29719 282.879452 
L 352.576529 272.337941 
L 355.855868 269.580751 
L 359.135207 276.716822 
L 362.414545 264.267418 
L 365.693884 263.873604 
L 368.973223 267.620753 
L 372.252562 260.282273 
L 375.531901 268.014732 
L 378.81124 271.890283 
L 382.090579 268.511148 
L 385.369917 263.683212 
L 388.649256 255.548735 
L 391.928595 255.944703 
L 395.207934 251.508943 
L 398.487273 262.503747 
" clip-path="url(#p6cc80556a4)" style="fill: none; stroke: #ff0000; stroke-width: 1.5; stroke-linecap: square"/>
   </g>
   <g id="line2d_25">
    <path d="M 73.832727 53.568 
L 77.112066 84.386227 
L 80.391405 132.155503 
L 83.670744 134.539369 
L 86.950083 134.329861 
L 90.229421 147.448493 
L 93.50876 148.810182 
L 96.788099 157.919897 
L 100.067438 157.304607 
L 103.346777 167.799595 
L 106.626116 171.269107 
L 109.905455 180.456322 
L 113.184793 179.293456 
L 116.464132 193.635126 
L 119.743471 206.923405 
L 123.02281 218.661368 
L 126.302149 232.770818 
L 129.581488 242.438827 
L 132.860826 235.820879 
L 136.140165 229.979039 
L 139.419504 230.425327 
L 142.698843 245.200615 
L 145.978182 257.051247 
L 149.257521 271.29921 
L 152.53686 277.943864 
L 155.816198 268.580446 
L 159.095537 260.480972 
L 162.374876 250.923817 
L 165.654215 262.515984 
L 168.933554 266.172625 
L 172.212893 265.272017 
L 175.492231 271.82425 
L 178.77157 279.887086 
L 182.050909 270.976146 
L 185.330248 264.239051 
L 188.609587 267.982602 
L 191.888926 257.498557 
L 195.168264 250.029096 
L 198.447603 241.032859 
L 201.726942 250.933153 
L 205.006281 254.324115 
L 208.28562 244.480351 
L 211.564959 239.397384 
L 214.844298 242.862081 
L 218.123636 251.904751 
L 221.402975 253.987091 
L 224.682314 255.052247 
L 227.961653 262.264969 
L 231.240992 265.652736 
L 234.520331 269.052847 
L 237.799669 269.080745 
L 241.079008 260.285698 
L 244.358347 271.159578 
L 247.637686 276.562547 
L 250.917025 275.053021 
L 254.196364 277.026537 
L 257.475702 269.802527 
L 260.755041 263.952224 
L 264.03438 259.521614 
L 267.313719 258.691768 
L 270.593058 269.464471 
L 273.872397 270.216928 
L 277.151736 274.452581 
L 280.431074 277.97796 
L 283.710413 270.626422 
L 286.989752 258.786415 
L 290.269091 260.22691 
L 293.54843 268.698574 
L 296.827769 266.730268 
L 300.107107 264.381073 
L 303.386446 265.462795 
L 306.665785 273.365572 
L 309.945124 266.841739 
L 313.224463 266.803308 
L 316.503802 273.075007 
L 319.78314 279.392005 
L 323.062479 272.776694 
L 326.341818 274.430087 
L 329.621157 272.887098 
L 332.900496 269.886126 
L 336.179835 271.847097 
L 339.459174 265.424122 
L 342.738512 267.09908 
L 346.017851 270.397026 
L 349.29719 267.78912 
L 352.576529 273.608773 
L 355.855868 272.325232 
L 359.135207 281.80499 
L 362.414545 276.017547 
L 365.693884 282.874836 
L 368.973223 270.23041 
L 372.252562 276.018101 
L 375.531901 284.922864 
L 378.81124 275.214928 
L 382.090579 263.098209 
L 385.369917 253.271475 
L 388.649256 254.201695 
L 391.928595 256.663623 
L 395.207934 260.983343 
L 398.487273 261.841456 
" clip-path="url(#p6cc80556a4)" style="fill: none; stroke-dasharray: 5.55,2.4; stroke-dashoffset: 0; stroke: #000000; stroke-width: 1.5"/>
   </g>
   <g id="line2d_26">
    <path d="M 73.832727 53.568 
L 77.112066 78.673689 
L 80.391405 120.771799 
L 83.670744 124.963397 
L 86.950083 131.820491 
L 90.229421 147.494536 
L 93.50876 150.261031 
L 96.788099 160.768815 
L 100.067438 163.311485 
L 103.346777 178.067998 
L 106.626116 186.874191 
L 109.905455 202.281285 
L 113.184793 207.641604 
L 116.464132 231.592106 
L 119.743471 254.695727 
L 123.02281 259.967337 
L 126.302149 268.830988 
L 129.581488 272.637967 
L 132.860826 262.28154 
L 136.140165 253.640257 
L 139.419504 250.766211 
L 142.698843 262.132928 
L 145.978182 268.851753 
L 149.257521 280.53574 
L 152.53686 286.380718 
L 155.816198 278.026459 
L 159.095537 270.526258 
L 162.374876 261.000107 
L 165.654215 272.465865 
L 168.933554 274.050964 
L 172.212893 271.745934 
L 175.492231 278.480097 
L 178.77157 286.995867 
L 182.050909 278.566145 
L 185.330248 273.297597 
L 188.609587 278.360317 
L 191.888926 267.358977 
L 195.168264 259.509568 
L 198.447603 250.716349 
L 201.726942 260.069734 
L 205.006281 261.71272 
L 208.28562 251.423267 
L 211.564959 246.352148 
L 214.844298 248.959706 
L 218.123636 256.4303 
L 221.402975 257.135884 
L 224.682314 257.941269 
L 227.961653 265.070885 
L 231.240992 268.501959 
L 234.520331 272.835995 
L 237.799669 274.285734 
L 241.079008 267.105227 
L 244.358347 279.378908 
L 247.637686 285.226159 
L 250.917025 285.284824 
L 254.196364 289.450066 
L 257.475702 284.21999 
L 260.755041 280.499811 
L 264.03438 277.341705 
L 267.313719 277.476292 
L 270.593058 287.890777 
L 273.872397 288.349362 
L 277.151736 293.598175 
L 280.431074 295.488 
L 283.710413 286.539692 
L 286.989752 273.315362 
L 290.269091 272.810962 
L 293.54843 278.598062 
L 296.827769 274.273912 
L 300.107107 270.309497 
L 303.386446 269.675874 
L 306.665785 275.632399 
L 309.945124 267.219555 
L 313.224463 266.37088 
L 316.503802 271.271614 
L 319.78314 276.140456 
L 323.062479 268.569791 
L 326.341818 270.005782 
L 329.621157 267.426406 
L 332.900496 263.682901 
L 336.179835 264.818518 
L 339.459174 257.369989 
L 342.738512 258.260133 
L 346.017851 259.701605 
L 349.29719 254.909769 
L 352.576529 258.613944 
L 355.855868 255.674586 
L 359.135207 263.964224 
L 362.414545 256.493705 
L 365.693884 263.400606 
L 368.973223 250.316773 
L 372.252562 256.013044 
L 375.531901 264.187187 
L 378.81124 253.79342 
L 382.090579 241.474995 
L 385.369917 230.656737 
L 388.649256 233.395183 
L 391.928595 237.267462 
L 395.207934 243.144 
L 398.487273 246.072678 
" clip-path="url(#p6cc80556a4)" style="fill: none; stroke-dasharray: 5.55,2.4; stroke-dashoffset: 0; stroke: #ff0000; stroke-width: 1.5"/>
   </g>
   <g id="patch_3">
    <path d="M 57.6 307.584 
L 57.6 41.472 
" style="fill: none; stroke: #000000; stroke-width: 0.8; stroke-linejoin: miter; stroke-linecap: square"/>
   </g>
   <g id="patch_4">
    <path d="M 414.72 307.584 
L 414.72 41.472 
" style="fill: none; stroke: #000000; stroke-width: 0.8; stroke-linejoin: miter; stroke-linecap: square"/>
   </g>
   <g id="patch_5">
    <path d="M 57.6 307.584 
L 414.72 307.584 
" style="fill: none; stroke: #000000; stroke-width: 0.8; stroke-linejoin: miter; stroke-linecap: square"/>
   </g>
   <g id="patch_6">
    <path d="M 57.6 41.472 
L 414.72 41.472 
" style="fill: none; stroke: #000000; stroke-width: 0.8; stroke-linejoin: miter; stroke-linecap: square"/>
   </g>
   <g id="legend_1">
    <g id="patch_7">
     <path d="M 392.72 67.472 
L 400.72 67.472 
Q 404.72 67.472 404.72 63.472 
L 404.72 55.472 
Q 404.72 51.472 400.72 51.472 
L 392.72 51.472 
Q 388.72 51.472 388.72 55.472 
L 388.72 63.472 
Q 388.72 67.472 392.72 67.472 
z
" style="fill: #ffffff; opacity: 0.8; stroke: #cccccc; stroke-linejoin: miter"/>
    </g>
   </g>
  </g>
 </g>
 <defs>
  <clipPath id="p6cc80556a4">
   <rect x="57.6" y="41.472" width="357.12" height="266.112"/>
  </clipPath>
 </defs>
</svg>
