<?xml version="1.0" encoding="utf-8" standalone="no"?>
<!DOCTYPE svg PUBLIC "-//W3C//DTD SVG 1.1//EN"
  "http://www.w3.org/Graphics/SVG/1.1/DTD/svg11.dtd">
<svg xmlns:xlink="http://www.w3.org/1999/xlink" width="460.8pt" height="345.6pt" viewBox="0 0 460.8 345.6" xmlns="http://www.w3.org/2000/svg" version="1.1">
 <metadata>
  <rdf:RDF xmlns:dc="http://purl.org/dc/elements/1.1/" xmlns:cc="http://creativecommons.org/ns#" xmlns:rdf="http://www.w3.org/1999/02/22-rdf-syntax-ns#">
   <cc:Work>
    <dc:type rdf:resource="http://purl.org/dc/dcmitype/StillImage"/>
    <dc:date>2024-06-05T10:59:54.283439</dc:date>
    <dc:format>image/svg+xml</dc:format>
    <dc:creator>
     <cc:Agent>
      <dc:title>Matplotlib v3.7.1, https://matplotlib.org/</dc:title>
     </cc:Agent>
    </dc:creator>
   </cc:Work>
  </rdf:RDF>
 </metadata>
 <defs>
  <style type="text/css">*{stroke-linejoin: round; stroke-linecap: butt}</style>
 </defs>
 <g id="figure_1">
  <g id="patch_1">
   <path d="M 0 345.6 
L 460.8 345.6 
L 460.8 0 
L 0 0 
z
" style="fill: #ffffff"/>
  </g>
  <g id="axes_1">
   <g id="patch_2">
    <path d="M 57.6 307.584 
L 414.72 307.584 
L 414.72 41.472 
L 57.6 41.472 
z
" style="fill: #ffffff"/>
   </g>
   <g id="matplotlib.axis_1">
    <g id="xtick_1">
     <g id="line2d_1">
      <path d="M 73.832727 307.584 
L 73.832727 41.472 
" clip-path="url(#p48c85d1cd8)" style="fill: none; stroke: #b0b0b0; stroke-width: 0.8; stroke-linecap: square"/>
     </g>
     <g id="line2d_2">
      <defs>
       <path id="m45f7efa694" d="M 0 0 
L 0 3.5 
" style="stroke: #000000; stroke-width: 0.8"/>
      </defs>
      <g>
       <use xlink:href="#m45f7efa694" x="73.832727" y="307.584" style="stroke: #000000; stroke-width: 0.8"/>
      </g>
     </g>
     <g id="text_1">
      <!-- 0 -->
      <g transform="translate(70.651477 322.182437) scale(0.1 -0.1)">
       <defs>
        <path id="DejaVuSans-30" d="M 2034 4250 
Q 1547 4250 1301 3770 
Q 1056 3291 1056 2328 
Q 1056 1369 1301 889 
Q 1547 409 2034 409 
Q 2525 409 2770 889 
Q 3016 1369 3016 2328 
Q 3016 3291 2770 3770 
Q 2525 4250 2034 4250 
z
M 2034 4750 
Q 2819 4750 3233 4129 
Q 3647 3509 3647 2328 
Q 3647 1150 3233 529 
Q 2819 -91 2034 -91 
Q 1250 -91 836 529 
Q 422 1150 422 2328 
Q 422 3509 836 4129 
Q 1250 4750 2034 4750 
z
" transform="scale(0.015625)"/>
       </defs>
       <use xlink:href="#DejaVuSans-30"/>
      </g>
     </g>
    </g>
    <g id="xtick_2">
     <g id="line2d_3">
      <path d="M 139.419504 307.584 
L 139.419504 41.472 
" clip-path="url(#p48c85d1cd8)" style="fill: none; stroke: #b0b0b0; stroke-width: 0.8; stroke-linecap: square"/>
     </g>
     <g id="line2d_4">
      <g>
       <use xlink:href="#m45f7efa694" x="139.419504" y="307.584" style="stroke: #000000; stroke-width: 0.8"/>
      </g>
     </g>
     <g id="text_2">
      <!-- 20 -->
      <g transform="translate(133.057004 322.182437) scale(0.1 -0.1)">
       <defs>
        <path id="DejaVuSans-32" d="M 1228 531 
L 3431 531 
L 3431 0 
L 469 0 
L 469 531 
Q 828 903 1448 1529 
Q 2069 2156 2228 2338 
Q 2531 2678 2651 2914 
Q 2772 3150 2772 3378 
Q 2772 3750 2511 3984 
Q 2250 4219 1831 4219 
Q 1534 4219 1204 4116 
Q 875 4013 500 3803 
L 500 4441 
Q 881 4594 1212 4672 
Q 1544 4750 1819 4750 
Q 2544 4750 2975 4387 
Q 3406 4025 3406 3419 
Q 3406 3131 3298 2873 
Q 3191 2616 2906 2266 
Q 2828 2175 2409 1742 
Q 1991 1309 1228 531 
z
" transform="scale(0.015625)"/>
       </defs>
       <use xlink:href="#DejaVuSans-32"/>
       <use xlink:href="#DejaVuSans-30" x="63.623047"/>
      </g>
     </g>
    </g>
    <g id="xtick_3">
     <g id="line2d_5">
      <path d="M 205.006281 307.584 
L 205.006281 41.472 
" clip-path="url(#p48c85d1cd8)" style="fill: none; stroke: #b0b0b0; stroke-width: 0.8; stroke-linecap: square"/>
     </g>
     <g id="line2d_6">
      <g>
       <use xlink:href="#m45f7efa694" x="205.006281" y="307.584" style="stroke: #000000; stroke-width: 0.8"/>
      </g>
     </g>
     <g id="text_3">
      <!-- 40 -->
      <g transform="translate(198.643781 322.182437) scale(0.1 -0.1)">
       <defs>
        <path id="DejaVuSans-34" d="M 2419 4116 
L 825 1625 
L 2419 1625 
L 2419 4116 
z
M 2253 4666 
L 3047 4666 
L 3047 1625 
L 3713 1625 
L 3713 1100 
L 3047 1100 
L 3047 0 
L 2419 0 
L 2419 1100 
L 313 1100 
L 313 1709 
L 2253 4666 
z
" transform="scale(0.015625)"/>
       </defs>
       <use xlink:href="#DejaVuSans-34"/>
       <use xlink:href="#DejaVuSans-30" x="63.623047"/>
      </g>
     </g>
    </g>
    <g id="xtick_4">
     <g id="line2d_7">
      <path d="M 270.593058 307.584 
L 270.593058 41.472 
" clip-path="url(#p48c85d1cd8)" style="fill: none; stroke: #b0b0b0; stroke-width: 0.8; stroke-linecap: square"/>
     </g>
     <g id="line2d_8">
      <g>
       <use xlink:href="#m45f7efa694" x="270.593058" y="307.584" style="stroke: #000000; stroke-width: 0.8"/>
      </g>
     </g>
     <g id="text_4">
      <!-- 60 -->
      <g transform="translate(264.230558 322.182437) scale(0.1 -0.1)">
       <defs>
        <path id="DejaVuSans-36" d="M 2113 2584 
Q 1688 2584 1439 2293 
Q 1191 2003 1191 1497 
Q 1191 994 1439 701 
Q 1688 409 2113 409 
Q 2538 409 2786 701 
Q 3034 994 3034 1497 
Q 3034 2003 2786 2293 
Q 2538 2584 2113 2584 
z
M 3366 4563 
L 3366 3988 
Q 3128 4100 2886 4159 
Q 2644 4219 2406 4219 
Q 1781 4219 1451 3797 
Q 1122 3375 1075 2522 
Q 1259 2794 1537 2939 
Q 1816 3084 2150 3084 
Q 2853 3084 3261 2657 
Q 3669 2231 3669 1497 
Q 3669 778 3244 343 
Q 2819 -91 2113 -91 
Q 1303 -91 875 529 
Q 447 1150 447 2328 
Q 447 3434 972 4092 
Q 1497 4750 2381 4750 
Q 2619 4750 2861 4703 
Q 3103 4656 3366 4563 
z
" transform="scale(0.015625)"/>
       </defs>
       <use xlink:href="#DejaVuSans-36"/>
       <use xlink:href="#DejaVuSans-30" x="63.623047"/>
      </g>
     </g>
    </g>
    <g id="xtick_5">
     <g id="line2d_9">
      <path d="M 336.179835 307.584 
L 336.179835 41.472 
" clip-path="url(#p48c85d1cd8)" style="fill: none; stroke: #b0b0b0; stroke-width: 0.8; stroke-linecap: square"/>
     </g>
     <g id="line2d_10">
      <g>
       <use xlink:href="#m45f7efa694" x="336.179835" y="307.584" style="stroke: #000000; stroke-width: 0.8"/>
      </g>
     </g>
     <g id="text_5">
      <!-- 80 -->
      <g transform="translate(329.817335 322.182437) scale(0.1 -0.1)">
       <defs>
        <path id="DejaVuSans-38" d="M 2034 2216 
Q 1584 2216 1326 1975 
Q 1069 1734 1069 1313 
Q 1069 891 1326 650 
Q 1584 409 2034 409 
Q 2484 409 2743 651 
Q 3003 894 3003 1313 
Q 3003 1734 2745 1975 
Q 2488 2216 2034 2216 
z
M 1403 2484 
Q 997 2584 770 2862 
Q 544 3141 544 3541 
Q 544 4100 942 4425 
Q 1341 4750 2034 4750 
Q 2731 4750 3128 4425 
Q 3525 4100 3525 3541 
Q 3525 3141 3298 2862 
Q 3072 2584 2669 2484 
Q 3125 2378 3379 2068 
Q 3634 1759 3634 1313 
Q 3634 634 3220 271 
Q 2806 -91 2034 -91 
Q 1263 -91 848 271 
Q 434 634 434 1313 
Q 434 1759 690 2068 
Q 947 2378 1403 2484 
z
M 1172 3481 
Q 1172 3119 1398 2916 
Q 1625 2713 2034 2713 
Q 2441 2713 2670 2916 
Q 2900 3119 2900 3481 
Q 2900 3844 2670 4047 
Q 2441 4250 2034 4250 
Q 1625 4250 1398 4047 
Q 1172 3844 1172 3481 
z
" transform="scale(0.015625)"/>
       </defs>
       <use xlink:href="#DejaVuSans-38"/>
       <use xlink:href="#DejaVuSans-30" x="63.623047"/>
      </g>
     </g>
    </g>
    <g id="xtick_6">
     <g id="line2d_11">
      <path d="M 401.766612 307.584 
L 401.766612 41.472 
" clip-path="url(#p48c85d1cd8)" style="fill: none; stroke: #b0b0b0; stroke-width: 0.8; stroke-linecap: square"/>
     </g>
     <g id="line2d_12">
      <g>
       <use xlink:href="#m45f7efa694" x="401.766612" y="307.584" style="stroke: #000000; stroke-width: 0.8"/>
      </g>
     </g>
     <g id="text_6">
      <!-- 100 -->
      <g transform="translate(392.222862 322.182437) scale(0.1 -0.1)">
       <defs>
        <path id="DejaVuSans-31" d="M 794 531 
L 1825 531 
L 1825 4091 
L 703 3866 
L 703 4441 
L 1819 4666 
L 2450 4666 
L 2450 531 
L 3481 531 
L 3481 0 
L 794 0 
L 794 531 
z
" transform="scale(0.015625)"/>
       </defs>
       <use xlink:href="#DejaVuSans-31"/>
       <use xlink:href="#DejaVuSans-30" x="63.623047"/>
       <use xlink:href="#DejaVuSans-30" x="127.246094"/>
      </g>
     </g>
    </g>
    <g id="text_7">
     <!-- T -->
     <g transform="translate(233.106094 335.860562) scale(0.1 -0.1)">
      <defs>
       <path id="DejaVuSans-54" d="M -19 4666 
L 3928 4666 
L 3928 4134 
L 2272 4134 
L 2272 0 
L 1638 0 
L 1638 4134 
L -19 4134 
L -19 4666 
z
" transform="scale(0.015625)"/>
      </defs>
      <use xlink:href="#DejaVuSans-54"/>
     </g>
    </g>
   </g>
   <g id="matplotlib.axis_2">
    <g id="ytick_1">
     <g id="line2d_13">
      <path d="M 57.6 299.602485 
L 414.72 299.602485 
" clip-path="url(#p48c85d1cd8)" style="fill: none; stroke: #b0b0b0; stroke-width: 0.8; stroke-linecap: square"/>
     </g>
     <g id="line2d_14">
      <defs>
       <path id="ma36a91c94a" d="M 0 0 
L -3.5 0 
" style="stroke: #000000; stroke-width: 0.8"/>
      </defs>
      <g>
       <use xlink:href="#ma36a91c94a" x="57.6" y="299.602485" style="stroke: #000000; stroke-width: 0.8"/>
      </g>
     </g>
     <g id="text_8">
      <!-- −2 -->
      <g transform="translate(35.857813 303.401704) scale(0.1 -0.1)">
       <defs>
        <path id="DejaVuSans-2212" d="M 678 2272 
L 4684 2272 
L 4684 1741 
L 678 1741 
L 678 2272 
z
" transform="scale(0.015625)"/>
       </defs>
       <use xlink:href="#DejaVuSans-2212"/>
       <use xlink:href="#DejaVuSans-32" x="83.789062"/>
      </g>
     </g>
    </g>
    <g id="ytick_2">
     <g id="line2d_15">
      <path d="M 57.6 254.868942 
L 414.72 254.868942 
" clip-path="url(#p48c85d1cd8)" style="fill: none; stroke: #b0b0b0; stroke-width: 0.8; stroke-linecap: square"/>
     </g>
     <g id="line2d_16">
      <g>
       <use xlink:href="#ma36a91c94a" x="57.6" y="254.868942" style="stroke: #000000; stroke-width: 0.8"/>
      </g>
     </g>
     <g id="text_9">
      <!-- 0 -->
      <g transform="translate(44.2375 258.668161) scale(0.1 -0.1)">
       <use xlink:href="#DejaVuSans-30"/>
      </g>
     </g>
    </g>
    <g id="ytick_3">
     <g id="line2d_17">
      <path d="M 57.6 210.135399 
L 414.72 210.135399 
" clip-path="url(#p48c85d1cd8)" style="fill: none; stroke: #b0b0b0; stroke-width: 0.8; stroke-linecap: square"/>
     </g>
     <g id="line2d_18">
      <g>
       <use xlink:href="#ma36a91c94a" x="57.6" y="210.135399" style="stroke: #000000; stroke-width: 0.8"/>
      </g>
     </g>
     <g id="text_10">
      <!-- 2 -->
      <g transform="translate(44.2375 213.934618) scale(0.1 -0.1)">
       <use xlink:href="#DejaVuSans-32"/>
      </g>
     </g>
    </g>
    <g id="ytick_4">
     <g id="line2d_19">
      <path d="M 57.6 165.401857 
L 414.72 165.401857 
" clip-path="url(#p48c85d1cd8)" style="fill: none; stroke: #b0b0b0; stroke-width: 0.8; stroke-linecap: square"/>
     </g>
     <g id="line2d_20">
      <g>
       <use xlink:href="#ma36a91c94a" x="57.6" y="165.401857" style="stroke: #000000; stroke-width: 0.8"/>
      </g>
     </g>
     <g id="text_11">
      <!-- 4 -->
      <g transform="translate(44.2375 169.201075) scale(0.1 -0.1)">
       <use xlink:href="#DejaVuSans-34"/>
      </g>
     </g>
    </g>
    <g id="ytick_5">
     <g id="line2d_21">
      <path d="M 57.6 120.668314 
L 414.72 120.668314 
" clip-path="url(#p48c85d1cd8)" style="fill: none; stroke: #b0b0b0; stroke-width: 0.8; stroke-linecap: square"/>
     </g>
     <g id="line2d_22">
      <g>
       <use xlink:href="#ma36a91c94a" x="57.6" y="120.668314" style="stroke: #000000; stroke-width: 0.8"/>
      </g>
     </g>
     <g id="text_12">
      <!-- 6 -->
      <g transform="translate(44.2375 124.467533) scale(0.1 -0.1)">
       <use xlink:href="#DejaVuSans-36"/>
      </g>
     </g>
    </g>
    <g id="ytick_6">
     <g id="line2d_23">
      <path d="M 57.6 75.934771 
L 414.72 75.934771 
" clip-path="url(#p48c85d1cd8)" style="fill: none; stroke: #b0b0b0; stroke-width: 0.8; stroke-linecap: square"/>
     </g>
     <g id="line2d_24">
      <g>
       <use xlink:href="#ma36a91c94a" x="57.6" y="75.934771" style="stroke: #000000; stroke-width: 0.8"/>
      </g>
     </g>
     <g id="text_13">
      <!-- 8 -->
      <g transform="translate(44.2375 79.73399) scale(0.1 -0.1)">
       <use xlink:href="#DejaVuSans-38"/>
      </g>
     </g>
    </g>
    <g id="text_14">
     <!-- X -->
     <g transform="translate(29.778125 177.953) rotate(-90) scale(0.1 -0.1)">
      <defs>
       <path id="DejaVuSans-58" d="M 403 4666 
L 1081 4666 
L 2241 2931 
L 3406 4666 
L 4084 4666 
L 2584 2425 
L 4184 0 
L 3506 0 
L 2194 1984 
L 872 0 
L 191 0 
L 1856 2491 
L 403 4666 
z
" transform="scale(0.015625)"/>
      </defs>
      <use xlink:href="#DejaVuSans-58"/>
     </g>
    </g>
   </g>
   <g id="line2d_25">
    <path d="M 73.832727 98.301543 
L 77.112066 109.620933 
L 80.391405 109.918633 
L 83.670744 135.30847 
L 86.950083 167.477295 
L 90.229421 182.497916 
L 93.50876 209.609619 
L 96.788099 223.111201 
L 100.067438 230.984848 
L 103.346777 225.328809 
L 106.626116 222.431903 
L 109.905455 215.52623 
L 113.184793 214.58243 
L 116.464132 217.100032 
L 119.743471 221.061588 
L 123.02281 220.48035 
L 126.302149 226.095727 
L 129.581488 228.858019 
L 132.860826 223.403562 
L 136.140165 224.916107 
L 139.419504 230.54326 
L 142.698843 234.549738 
L 145.978182 242.557873 
L 149.257521 234.030273 
L 152.53686 240.651303 
L 155.816198 239.146305 
L 159.095537 247.663249 
L 162.374876 243.275916 
L 165.654215 241.044697 
L 168.933554 236.011208 
L 172.212893 242.258593 
L 175.492231 248.134437 
L 178.77157 245.597703 
L 182.050909 242.428559 
L 185.330248 250.138247 
L 188.609587 242.143331 
L 191.888926 234.505707 
L 195.168264 242.741958 
L 198.447603 248.499038 
L 201.726942 247.938652 
L 205.006281 249.917898 
L 208.28562 241.448819 
L 211.564959 233.820269 
L 214.844298 227.847982 
L 218.123636 232.151681 
L 221.402975 235.1634 
L 224.682314 227.016775 
L 227.961653 230.816771 
L 231.240992 224.163243 
L 234.520331 228.184351 
L 237.799669 224.858379 
L 241.079008 218.008093 
L 244.358347 211.591539 
L 247.637686 215.479786 
L 250.917025 210.425669 
L 254.196364 218.744722 
L 257.475702 218.773212 
L 260.755041 215.495462 
L 264.03438 221.163133 
L 267.313719 228.18337 
L 270.593058 241.409957 
L 273.872397 237.305471 
L 277.151736 229.639956 
L 280.431074 231.134415 
L 283.710413 226.090175 
L 286.989752 230.639313 
L 290.269091 239.136545 
L 293.54843 249.125139 
L 296.827769 260.048372 
L 300.107107 250.110237 
L 303.386446 260.68961 
L 306.665785 251.112938 
L 309.945124 243.398453 
L 313.224463 243.315901 
L 316.503802 251.793747 
L 319.78314 257.111905 
L 323.062479 253.34857 
L 326.341818 253.717291 
L 329.621157 245.178197 
L 332.900496 239.239276 
L 336.179835 229.768679 
L 339.459174 231.299039 
L 342.738512 226.940743 
L 346.017851 233.08373 
L 349.29719 242.66692 
L 352.576529 243.79354 
L 355.855868 250.786079 
L 359.135207 254.926633 
L 362.414545 259.21822 
L 365.693884 246.848317 
L 368.973223 249.954127 
L 372.252562 250.091638 
L 375.531901 260.469999 
L 378.81124 266.080823 
L 382.090579 264.909398 
L 385.369917 273.966366 
L 388.649256 273.094244 
L 391.928595 262.241071 
L 395.207934 260.66664 
L 398.487273 262.533745 
" clip-path="url(#p48c85d1cd8)" style="fill: none; stroke: #000000; stroke-width: 1.5; stroke-linecap: square"/>
   </g>
   <g id="line2d_26">
    <path d="M 73.832727 98.301543 
L 77.112066 109.620933 
L 80.391405 109.204849 
L 83.670744 127.728466 
L 86.950083 158.317569 
L 90.229421 173.693071 
L 93.50876 202.491035 
L 96.788099 217.469757 
L 100.067438 225.752414 
L 103.346777 219.67207 
L 106.626116 218.357173 
L 109.905455 214.780841 
L 113.184793 215.975533 
L 116.464132 220.654396 
L 119.743471 224.09043 
L 123.02281 222.989472 
L 126.302149 228.865777 
L 129.581488 231.031316 
L 132.860826 225.465735 
L 136.140165 226.476246 
L 139.419504 232.160344 
L 142.698843 236.159072 
L 145.978182 244.439702 
L 149.257521 236.147357 
L 152.53686 242.84057 
L 155.816198 241.273402 
L 159.095537 249.575596 
L 162.374876 244.997829 
L 165.654215 242.599944 
L 168.933554 237.368437 
L 172.212893 243.245554 
L 175.492231 248.61066 
L 178.77157 245.286694 
L 182.050909 241.33639 
L 185.330248 248.295335 
L 188.609587 239.14756 
L 191.888926 230.936514 
L 195.168264 239.126677 
L 198.447603 244.935386 
L 201.726942 244.841905 
L 205.006281 247.438988 
L 208.28562 239.261079 
L 211.564959 231.423675 
L 214.844298 224.998762 
L 218.123636 229.286749 
L 221.402975 232.589439 
L 224.682314 225.701713 
L 227.961653 230.875782 
L 231.240992 225.330474 
L 234.520331 229.291582 
L 237.799669 225.490233 
L 241.079008 217.391757 
L 244.358347 209.602273 
L 247.637686 211.974408 
L 250.917025 205.352311 
L 254.196364 211.964691 
L 257.475702 210.250006 
L 260.755041 205.437666 
L 264.03438 209.502774 
L 267.313719 216.235442 
L 270.593058 229.764597 
L 273.872397 226.0735 
L 277.151736 219.945321 
L 280.431074 221.725723 
L 283.710413 217.694671 
L 286.989752 223.79626 
L 290.269091 234.226928 
L 293.54843 245.412407 
L 296.827769 257.080983 
L 300.107107 246.271587 
L 303.386446 256.599237 
L 306.665785 247.965047 
L 309.945124 239.622892 
L 313.224463 237.64165 
L 316.503802 244.089596 
L 319.78314 247.904541 
L 323.062479 243.086001 
L 326.341818 242.692924 
L 329.621157 234.442737 
L 332.900496 229.156444 
L 336.179835 220.15139 
L 339.459174 222.2242 
L 342.738512 218.710011 
L 346.017851 225.818594 
L 349.29719 236.374765 
L 352.576529 238.439207 
L 355.855868 246.284347 
L 359.135207 251.2441 
L 362.414545 256.2578 
L 365.693884 244.540707 
L 368.973223 248.095061 
L 372.252562 248.909803 
L 375.531901 259.833761 
L 378.81124 265.581364 
L 382.090579 263.938254 
L 385.369917 271.7353 
L 388.649256 270.011501 
L 391.928595 258.137149 
L 395.207934 255.851388 
L 398.487273 256.982094 
" clip-path="url(#p48c85d1cd8)" style="fill: none; stroke: #ff0000; stroke-width: 1.5; stroke-linecap: square"/>
   </g>
   <g id="line2d_27">
    <path d="M 73.832727 53.568 
L 77.112066 83.949488 
L 80.391405 118.812058 
L 83.670744 140.599156 
L 86.950083 145.024636 
L 90.229421 156.443279 
L 93.50876 167.629329 
L 96.788099 185.701871 
L 100.067438 196.39698 
L 103.346777 209.876289 
L 106.626116 222.3719 
L 109.905455 230.785537 
L 113.184793 230.548658 
L 116.464132 248.235064 
L 119.743471 252.102799 
L 123.02281 244.996552 
L 126.302149 256.709338 
L 129.581488 250.887118 
L 132.860826 258.436892 
L 136.140165 248.898446 
L 139.419504 250.055724 
L 142.698843 243.29757 
L 145.978182 241.886202 
L 149.257521 243.436032 
L 152.53686 243.835191 
L 155.816198 256.130177 
L 159.095537 256.411417 
L 162.374876 265.515534 
L 165.654215 272.359085 
L 168.933554 280.216945 
L 172.212893 287.408377 
L 175.492231 285.482799 
L 178.77157 286.15956 
L 182.050909 286.720012 
L 185.330248 274.595499 
L 188.609587 260.642235 
L 191.888926 255.833257 
L 195.168264 257.259708 
L 198.447603 250.984345 
L 201.726942 239.902453 
L 205.006281 237.587614 
L 208.28562 234.814058 
L 211.564959 245.273643 
L 214.844298 257.429543 
L 218.123636 261.864944 
L 221.402975 272.157205 
L 224.682314 274.558445 
L 227.961653 273.542221 
L 231.240992 262.182934 
L 234.520331 256.675292 
L 237.799669 245.200191 
L 241.079008 236.488379 
L 244.358347 239.972222 
L 247.637686 244.55336 
L 250.917025 243.32568 
L 254.196364 242.228496 
L 257.475702 248.677443 
L 260.755041 246.956657 
L 264.03438 257.463324 
L 267.313719 260.403989 
L 270.593058 260.488866 
L 273.872397 267.904105 
L 277.151736 260.665311 
L 280.431074 264.79878 
L 283.710413 269.31143 
L 286.989752 273.798018 
L 290.269091 269.047208 
L 293.54843 266.226834 
L 296.827769 253.473924 
L 300.107107 259.09073 
L 303.386446 268.358392 
L 306.665785 259.843139 
L 309.945124 248.964762 
L 313.224463 241.017813 
L 316.503802 243.201129 
L 319.78314 244.81383 
L 323.062479 242.906696 
L 326.341818 253.233034 
L 329.621157 255.778013 
L 332.900496 249.452588 
L 336.179835 239.073215 
L 339.459174 230.644692 
L 342.738512 224.831389 
L 346.017851 227.984239 
L 349.29719 226.43225 
L 352.576529 221.759598 
L 355.855868 234.834599 
L 359.135207 231.370301 
L 362.414545 239.829145 
L 365.693884 247.346874 
L 368.973223 239.518753 
L 372.252562 244.623199 
L 375.531901 251.389416 
L 378.81124 259.349318 
L 382.090579 269.763725 
L 385.369917 266.159949 
L 388.649256 273.066047 
L 391.928595 282.814657 
L 395.207934 271.38719 
L 398.487273 259.410021 
" clip-path="url(#p48c85d1cd8)" style="fill: none; stroke-dasharray: 5.55,2.4; stroke-dashoffset: 0; stroke: #000000; stroke-width: 1.5"/>
   </g>
   <g id="line2d_28">
    <path d="M 73.832727 53.568 
L 77.112066 78.437418 
L 80.391405 107.927405 
L 83.670744 131.177345 
L 86.950083 139.177823 
L 90.229421 151.653002 
L 93.50876 165.355148 
L 96.788099 186.199182 
L 100.067438 202.871012 
L 103.346777 224.974156 
L 106.626116 246.025531 
L 109.905455 262.895323 
L 113.184793 254.829011 
L 116.464132 266.001945 
L 119.743471 264.04641 
L 123.02281 254.797669 
L 126.302149 264.584081 
L 129.581488 257.406244 
L 132.860826 264.590808 
L 136.140165 254.666863 
L 139.419504 255.432071 
L 142.698843 248.466545 
L 145.978182 246.288984 
L 149.257521 246.583781 
L 152.53686 245.529516 
L 155.816198 256.677959 
L 159.095537 256.01346 
L 162.374876 265.446291 
L 165.654215 272.707551 
L 168.933554 281.90941 
L 172.212893 291.101748 
L 175.492231 291.981855 
L 178.77157 293.829866 
L 182.050909 295.488 
L 185.330248 284.400483 
L 188.609587 271.3136 
L 191.888926 265.63611 
L 195.168264 264.516107 
L 198.447603 255.711021 
L 201.726942 242.629749 
L 205.006281 237.92425 
L 208.28562 231.718509 
L 211.564959 238.863092 
L 214.844298 247.558335 
L 218.123636 250.197514 
L 221.402975 259.880801 
L 224.682314 261.346066 
L 227.961653 261.312339 
L 231.240992 250.946041 
L 234.520331 246.797105 
L 237.799669 235.047142 
L 241.079008 225.930872 
L 244.358347 227.167978 
L 247.637686 229.307751 
L 250.917025 226.19133 
L 254.196364 223.573272 
L 257.475702 228.247878 
L 260.755041 225.63978 
L 264.03438 236.699962 
L 267.313719 240.577637 
L 270.593058 241.790805 
L 273.872397 249.406938 
L 277.151736 242.347051 
L 280.431074 248.19754 
L 283.710413 253.221621 
L 286.989752 258.250759 
L 290.269091 254.252085 
L 293.54843 251.793323 
L 296.827769 238.77872 
L 300.107107 243.326059 
L 303.386446 250.871428 
L 306.665785 240.324003 
L 309.945124 229.194221 
L 313.224463 220.700337 
L 316.503802 225.624132 
L 319.78314 229.063881 
L 323.062479 229.072536 
L 326.341818 241.734038 
L 329.621157 246.118207 
L 332.900496 242.817482 
L 336.179835 235.831838 
L 339.459174 230.186312 
L 342.738512 225.968131 
L 346.017851 229.796631 
L 349.29719 228.754515 
L 352.576529 224.537386 
L 355.855868 237.608009 
L 359.135207 233.922895 
L 362.414545 243.011061 
L 365.693884 251.062107 
L 368.973223 243.978837 
L 372.252562 250.672873 
L 375.531901 258.137353 
L 378.81124 267.559991 
L 382.090579 280.313661 
L 385.369917 275.711876 
L 388.649256 282.901285 
L 391.928595 292.262782 
L 395.207934 280.62561 
L 398.487273 269.493372 
" clip-path="url(#p48c85d1cd8)" style="fill: none; stroke-dasharray: 5.55,2.4; stroke-dashoffset: 0; stroke: #ff0000; stroke-width: 1.5"/>
   </g>
   <g id="patch_3">
    <path d="M 57.6 307.584 
L 57.6 41.472 
" style="fill: none; stroke: #000000; stroke-width: 0.8; stroke-linejoin: miter; stroke-linecap: square"/>
   </g>
   <g id="patch_4">
    <path d="M 414.72 307.584 
L 414.72 41.472 
" style="fill: none; stroke: #000000; stroke-width: 0.8; stroke-linejoin: miter; stroke-linecap: square"/>
   </g>
   <g id="patch_5">
    <path d="M 57.6 307.584 
L 414.72 307.584 
" style="fill: none; stroke: #000000; stroke-width: 0.8; stroke-linejoin: miter; stroke-linecap: square"/>
   </g>
   <g id="patch_6">
    <path d="M 57.6 41.472 
L 414.72 41.472 
" style="fill: none; stroke: #000000; stroke-width: 0.8; stroke-linejoin: miter; stroke-linecap: square"/>
   </g>
   <g id="legend_1">
    <g id="patch_7">
     <path d="M 392.72 67.472 
L 400.72 67.472 
Q 404.72 67.472 404.72 63.472 
L 404.72 55.472 
Q 404.72 51.472 400.72 51.472 
L 392.72 51.472 
Q 388.72 51.472 388.72 55.472 
L 388.72 63.472 
Q 388.72 67.472 392.72 67.472 
z
" style="fill: #ffffff; opacity: 0.8; stroke: #cccccc; stroke-linejoin: miter"/>
    </g>
   </g>
  </g>
 </g>
 <defs>
  <clipPath id="p48c85d1cd8">
   <rect x="57.6" y="41.472" width="357.12" height="266.112"/>
  </clipPath>
 </defs>
</svg>
