<?xml version="1.0" encoding="utf-8" standalone="no"?>
<!DOCTYPE svg PUBLIC "-//W3C//DTD SVG 1.1//EN"
  "http://www.w3.org/Graphics/SVG/1.1/DTD/svg11.dtd">
<svg xmlns:xlink="http://www.w3.org/1999/xlink" width="720pt" height="432pt" viewBox="0 0 720 432" xmlns="http://www.w3.org/2000/svg" version="1.1">
 <metadata>
  <rdf:RDF xmlns:dc="http://purl.org/dc/elements/1.1/" xmlns:cc="http://creativecommons.org/ns#" xmlns:rdf="http://www.w3.org/1999/02/22-rdf-syntax-ns#">
   <cc:Work>
    <dc:type rdf:resource="http://purl.org/dc/dcmitype/StillImage"/>
    <dc:date>2024-06-05T01:15:49.704898</dc:date>
    <dc:format>image/svg+xml</dc:format>
    <dc:creator>
     <cc:Agent>
      <dc:title>Matplotlib v3.8.4, https://matplotlib.org/</dc:title>
     </cc:Agent>
    </dc:creator>
   </cc:Work>
  </rdf:RDF>
 </metadata>
 <defs>
  <style type="text/css">*{stroke-linejoin: round; stroke-linecap: butt}</style>
 </defs>
 <g id="figure_1">
  <g id="patch_1">
   <path d="M 0 432 
L 720 432 
L 720 0 
L 0 0 
z
" style="fill: #ffffff"/>
  </g>
  <g id="axes_1">
   <g id="patch_2">
    <path d="M 90 384.48 
L 648 384.48 
L 648 51.84 
L 90 51.84 
z
" style="fill: #ffffff"/>
   </g>
   <g id="matplotlib.axis_1">
    <g id="xtick_1">
     <g id="line2d_1">
      <path d="M 261.498099 384.48 
L 261.498099 51.84 
" clip-path="url(#p34beba1e40)" style="fill: none; stroke: #b0b0b0; stroke-width: 0.8; stroke-linecap: square"/>
     </g>
     <g id="line2d_2">
      <defs>
       <path id="m26924f513f" d="M 0 0 
L 0 3.5 
" style="stroke: #000000; stroke-width: 0.8"/>
      </defs>
      <g>
       <use xlink:href="#m26924f513f" x="261.498099" y="384.48" style="stroke: #000000; stroke-width: 0.8"/>
      </g>
     </g>
     <g id="text_1">
      <!-- $\mathdefault{10^{-4}}$ -->
      <g transform="translate(249.748099 399.078438) scale(0.1 -0.1)">
       <defs>
        <path id="DejaVuSans-31" d="M 794 531 
L 1825 531 
L 1825 4091 
L 703 3866 
L 703 4441 
L 1819 4666 
L 2450 4666 
L 2450 531 
L 3481 531 
L 3481 0 
L 794 0 
L 794 531 
z
" transform="scale(0.015625)"/>
        <path id="DejaVuSans-30" d="M 2034 4250 
Q 1547 4250 1301 3770 
Q 1056 3291 1056 2328 
Q 1056 1369 1301 889 
Q 1547 409 2034 409 
Q 2525 409 2770 889 
Q 3016 1369 3016 2328 
Q 3016 3291 2770 3770 
Q 2525 4250 2034 4250 
z
M 2034 4750 
Q 2819 4750 3233 4129 
Q 3647 3509 3647 2328 
Q 3647 1150 3233 529 
Q 2819 -91 2034 -91 
Q 1250 -91 836 529 
Q 422 1150 422 2328 
Q 422 3509 836 4129 
Q 1250 4750 2034 4750 
z
" transform="scale(0.015625)"/>
        <path id="DejaVuSans-2212" d="M 678 2272 
L 4684 2272 
L 4684 1741 
L 678 1741 
L 678 2272 
z
" transform="scale(0.015625)"/>
        <path id="DejaVuSans-34" d="M 2419 4116 
L 825 1625 
L 2419 1625 
L 2419 4116 
z
M 2253 4666 
L 3047 4666 
L 3047 1625 
L 3713 1625 
L 3713 1100 
L 3047 1100 
L 3047 0 
L 2419 0 
L 2419 1100 
L 313 1100 
L 313 1709 
L 2253 4666 
z
" transform="scale(0.015625)"/>
       </defs>
       <use xlink:href="#DejaVuSans-31" transform="translate(0 0.684375)"/>
       <use xlink:href="#DejaVuSans-30" transform="translate(63.623047 0.684375)"/>
       <use xlink:href="#DejaVuSans-2212" transform="translate(128.203125 38.965625) scale(0.7)"/>
       <use xlink:href="#DejaVuSans-34" transform="translate(186.855469 38.965625) scale(0.7)"/>
      </g>
     </g>
    </g>
    <g id="xtick_2">
     <g id="line2d_3">
      <path d="M 442.067231 384.48 
L 442.067231 51.84 
" clip-path="url(#p34beba1e40)" style="fill: none; stroke: #b0b0b0; stroke-width: 0.8; stroke-linecap: square"/>
     </g>
     <g id="line2d_4">
      <g>
       <use xlink:href="#m26924f513f" x="442.067231" y="384.48" style="stroke: #000000; stroke-width: 0.8"/>
      </g>
     </g>
     <g id="text_2">
      <!-- $\mathdefault{10^{-3}}$ -->
      <g transform="translate(430.317231 399.078438) scale(0.1 -0.1)">
       <defs>
        <path id="DejaVuSans-33" d="M 2597 2516 
Q 3050 2419 3304 2112 
Q 3559 1806 3559 1356 
Q 3559 666 3084 287 
Q 2609 -91 1734 -91 
Q 1441 -91 1130 -33 
Q 819 25 488 141 
L 488 750 
Q 750 597 1062 519 
Q 1375 441 1716 441 
Q 2309 441 2620 675 
Q 2931 909 2931 1356 
Q 2931 1769 2642 2001 
Q 2353 2234 1838 2234 
L 1294 2234 
L 1294 2753 
L 1863 2753 
Q 2328 2753 2575 2939 
Q 2822 3125 2822 3475 
Q 2822 3834 2567 4026 
Q 2313 4219 1838 4219 
Q 1578 4219 1281 4162 
Q 984 4106 628 3988 
L 628 4550 
Q 988 4650 1302 4700 
Q 1616 4750 1894 4750 
Q 2613 4750 3031 4423 
Q 3450 4097 3450 3541 
Q 3450 3153 3228 2886 
Q 3006 2619 2597 2516 
z
" transform="scale(0.015625)"/>
       </defs>
       <use xlink:href="#DejaVuSans-31" transform="translate(0 0.765625)"/>
       <use xlink:href="#DejaVuSans-30" transform="translate(63.623047 0.765625)"/>
       <use xlink:href="#DejaVuSans-2212" transform="translate(128.203125 39.046875) scale(0.7)"/>
       <use xlink:href="#DejaVuSans-33" transform="translate(186.855469 39.046875) scale(0.7)"/>
      </g>
     </g>
    </g>
    <g id="xtick_3">
     <g id="line2d_5">
      <path d="M 622.636364 384.48 
L 622.636364 51.84 
" clip-path="url(#p34beba1e40)" style="fill: none; stroke: #b0b0b0; stroke-width: 0.8; stroke-linecap: square"/>
     </g>
     <g id="line2d_6">
      <g>
       <use xlink:href="#m26924f513f" x="622.636364" y="384.48" style="stroke: #000000; stroke-width: 0.8"/>
      </g>
     </g>
     <g id="text_3">
      <!-- $\mathdefault{10^{-2}}$ -->
      <g transform="translate(610.886364 399.078438) scale(0.1 -0.1)">
       <defs>
        <path id="DejaVuSans-32" d="M 1228 531 
L 3431 531 
L 3431 0 
L 469 0 
L 469 531 
Q 828 903 1448 1529 
Q 2069 2156 2228 2338 
Q 2531 2678 2651 2914 
Q 2772 3150 2772 3378 
Q 2772 3750 2511 3984 
Q 2250 4219 1831 4219 
Q 1534 4219 1204 4116 
Q 875 4013 500 3803 
L 500 4441 
Q 881 4594 1212 4672 
Q 1544 4750 1819 4750 
Q 2544 4750 2975 4387 
Q 3406 4025 3406 3419 
Q 3406 3131 3298 2873 
Q 3191 2616 2906 2266 
Q 2828 2175 2409 1742 
Q 1991 1309 1228 531 
z
" transform="scale(0.015625)"/>
       </defs>
       <use xlink:href="#DejaVuSans-31" transform="translate(0 0.765625)"/>
       <use xlink:href="#DejaVuSans-30" transform="translate(63.623047 0.765625)"/>
       <use xlink:href="#DejaVuSans-2212" transform="translate(128.203125 39.046875) scale(0.7)"/>
       <use xlink:href="#DejaVuSans-32" transform="translate(186.855469 39.046875) scale(0.7)"/>
      </g>
     </g>
    </g>
    <g id="xtick_4">
     <g id="line2d_7">
      <defs>
       <path id="ma02ff4c873" d="M 0 0 
L 0 2 
" style="stroke: #000000; stroke-width: 0.6"/>
      </defs>
      <g>
       <use xlink:href="#ma02ff4c873" x="135.285692" y="384.48" style="stroke: #000000; stroke-width: 0.6"/>
      </g>
     </g>
    </g>
    <g id="xtick_5">
     <g id="line2d_8">
      <g>
       <use xlink:href="#ma02ff4c873" x="167.082338" y="384.48" style="stroke: #000000; stroke-width: 0.6"/>
      </g>
     </g>
    </g>
    <g id="xtick_6">
     <g id="line2d_9">
      <g>
       <use xlink:href="#ma02ff4c873" x="189.642417" y="384.48" style="stroke: #000000; stroke-width: 0.6"/>
      </g>
     </g>
    </g>
    <g id="xtick_7">
     <g id="line2d_10">
      <g>
       <use xlink:href="#ma02ff4c873" x="207.141374" y="384.48" style="stroke: #000000; stroke-width: 0.6"/>
      </g>
     </g>
    </g>
    <g id="xtick_8">
     <g id="line2d_11">
      <g>
       <use xlink:href="#ma02ff4c873" x="221.439063" y="384.48" style="stroke: #000000; stroke-width: 0.6"/>
      </g>
     </g>
    </g>
    <g id="xtick_9">
     <g id="line2d_12">
      <g>
       <use xlink:href="#ma02ff4c873" x="233.527587" y="384.48" style="stroke: #000000; stroke-width: 0.6"/>
      </g>
     </g>
    </g>
    <g id="xtick_10">
     <g id="line2d_13">
      <g>
       <use xlink:href="#ma02ff4c873" x="243.999142" y="384.48" style="stroke: #000000; stroke-width: 0.6"/>
      </g>
     </g>
    </g>
    <g id="xtick_11">
     <g id="line2d_14">
      <g>
       <use xlink:href="#ma02ff4c873" x="253.235709" y="384.48" style="stroke: #000000; stroke-width: 0.6"/>
      </g>
     </g>
    </g>
    <g id="xtick_12">
     <g id="line2d_15">
      <g>
       <use xlink:href="#ma02ff4c873" x="315.854824" y="384.48" style="stroke: #000000; stroke-width: 0.6"/>
      </g>
     </g>
    </g>
    <g id="xtick_13">
     <g id="line2d_16">
      <g>
       <use xlink:href="#ma02ff4c873" x="347.65147" y="384.48" style="stroke: #000000; stroke-width: 0.6"/>
      </g>
     </g>
    </g>
    <g id="xtick_14">
     <g id="line2d_17">
      <g>
       <use xlink:href="#ma02ff4c873" x="370.211549" y="384.48" style="stroke: #000000; stroke-width: 0.6"/>
      </g>
     </g>
    </g>
    <g id="xtick_15">
     <g id="line2d_18">
      <g>
       <use xlink:href="#ma02ff4c873" x="387.710506" y="384.48" style="stroke: #000000; stroke-width: 0.6"/>
      </g>
     </g>
    </g>
    <g id="xtick_16">
     <g id="line2d_19">
      <g>
       <use xlink:href="#ma02ff4c873" x="402.008195" y="384.48" style="stroke: #000000; stroke-width: 0.6"/>
      </g>
     </g>
    </g>
    <g id="xtick_17">
     <g id="line2d_20">
      <g>
       <use xlink:href="#ma02ff4c873" x="414.096719" y="384.48" style="stroke: #000000; stroke-width: 0.6"/>
      </g>
     </g>
    </g>
    <g id="xtick_18">
     <g id="line2d_21">
      <g>
       <use xlink:href="#ma02ff4c873" x="424.568274" y="384.48" style="stroke: #000000; stroke-width: 0.6"/>
      </g>
     </g>
    </g>
    <g id="xtick_19">
     <g id="line2d_22">
      <g>
       <use xlink:href="#ma02ff4c873" x="433.804841" y="384.48" style="stroke: #000000; stroke-width: 0.6"/>
      </g>
     </g>
    </g>
    <g id="xtick_20">
     <g id="line2d_23">
      <g>
       <use xlink:href="#ma02ff4c873" x="496.423956" y="384.48" style="stroke: #000000; stroke-width: 0.6"/>
      </g>
     </g>
    </g>
    <g id="xtick_21">
     <g id="line2d_24">
      <g>
       <use xlink:href="#ma02ff4c873" x="528.220602" y="384.48" style="stroke: #000000; stroke-width: 0.6"/>
      </g>
     </g>
    </g>
    <g id="xtick_22">
     <g id="line2d_25">
      <g>
       <use xlink:href="#ma02ff4c873" x="550.780682" y="384.48" style="stroke: #000000; stroke-width: 0.6"/>
      </g>
     </g>
    </g>
    <g id="xtick_23">
     <g id="line2d_26">
      <g>
       <use xlink:href="#ma02ff4c873" x="568.279639" y="384.48" style="stroke: #000000; stroke-width: 0.6"/>
      </g>
     </g>
    </g>
    <g id="xtick_24">
     <g id="line2d_27">
      <g>
       <use xlink:href="#ma02ff4c873" x="582.577327" y="384.48" style="stroke: #000000; stroke-width: 0.6"/>
      </g>
     </g>
    </g>
    <g id="xtick_25">
     <g id="line2d_28">
      <g>
       <use xlink:href="#ma02ff4c873" x="594.665851" y="384.48" style="stroke: #000000; stroke-width: 0.6"/>
      </g>
     </g>
    </g>
    <g id="xtick_26">
     <g id="line2d_29">
      <g>
       <use xlink:href="#ma02ff4c873" x="605.137407" y="384.48" style="stroke: #000000; stroke-width: 0.6"/>
      </g>
     </g>
    </g>
    <g id="xtick_27">
     <g id="line2d_30">
      <g>
       <use xlink:href="#ma02ff4c873" x="614.373973" y="384.48" style="stroke: #000000; stroke-width: 0.6"/>
      </g>
     </g>
    </g>
    <g id="text_4">
     <!-- Learning Rate -->
     <g transform="translate(334.240625 412.756563) scale(0.1 -0.1)">
      <defs>
       <path id="DejaVuSans-4c" d="M 628 4666 
L 1259 4666 
L 1259 531 
L 3531 531 
L 3531 0 
L 628 0 
L 628 4666 
z
" transform="scale(0.015625)"/>
       <path id="DejaVuSans-65" d="M 3597 1894 
L 3597 1613 
L 953 1613 
Q 991 1019 1311 708 
Q 1631 397 2203 397 
Q 2534 397 2845 478 
Q 3156 559 3463 722 
L 3463 178 
Q 3153 47 2828 -22 
Q 2503 -91 2169 -91 
Q 1331 -91 842 396 
Q 353 884 353 1716 
Q 353 2575 817 3079 
Q 1281 3584 2069 3584 
Q 2775 3584 3186 3129 
Q 3597 2675 3597 1894 
z
M 3022 2063 
Q 3016 2534 2758 2815 
Q 2500 3097 2075 3097 
Q 1594 3097 1305 2825 
Q 1016 2553 972 2059 
L 3022 2063 
z
" transform="scale(0.015625)"/>
       <path id="DejaVuSans-61" d="M 2194 1759 
Q 1497 1759 1228 1600 
Q 959 1441 959 1056 
Q 959 750 1161 570 
Q 1363 391 1709 391 
Q 2188 391 2477 730 
Q 2766 1069 2766 1631 
L 2766 1759 
L 2194 1759 
z
M 3341 1997 
L 3341 0 
L 2766 0 
L 2766 531 
Q 2569 213 2275 61 
Q 1981 -91 1556 -91 
Q 1019 -91 701 211 
Q 384 513 384 1019 
Q 384 1609 779 1909 
Q 1175 2209 1959 2209 
L 2766 2209 
L 2766 2266 
Q 2766 2663 2505 2880 
Q 2244 3097 1772 3097 
Q 1472 3097 1187 3025 
Q 903 2953 641 2809 
L 641 3341 
Q 956 3463 1253 3523 
Q 1550 3584 1831 3584 
Q 2591 3584 2966 3190 
Q 3341 2797 3341 1997 
z
" transform="scale(0.015625)"/>
       <path id="DejaVuSans-72" d="M 2631 2963 
Q 2534 3019 2420 3045 
Q 2306 3072 2169 3072 
Q 1681 3072 1420 2755 
Q 1159 2438 1159 1844 
L 1159 0 
L 581 0 
L 581 3500 
L 1159 3500 
L 1159 2956 
Q 1341 3275 1631 3429 
Q 1922 3584 2338 3584 
Q 2397 3584 2469 3576 
Q 2541 3569 2628 3553 
L 2631 2963 
z
" transform="scale(0.015625)"/>
       <path id="DejaVuSans-6e" d="M 3513 2113 
L 3513 0 
L 2938 0 
L 2938 2094 
Q 2938 2591 2744 2837 
Q 2550 3084 2163 3084 
Q 1697 3084 1428 2787 
Q 1159 2491 1159 1978 
L 1159 0 
L 581 0 
L 581 3500 
L 1159 3500 
L 1159 2956 
Q 1366 3272 1645 3428 
Q 1925 3584 2291 3584 
Q 2894 3584 3203 3211 
Q 3513 2838 3513 2113 
z
" transform="scale(0.015625)"/>
       <path id="DejaVuSans-69" d="M 603 3500 
L 1178 3500 
L 1178 0 
L 603 0 
L 603 3500 
z
M 603 4863 
L 1178 4863 
L 1178 4134 
L 603 4134 
L 603 4863 
z
" transform="scale(0.015625)"/>
       <path id="DejaVuSans-67" d="M 2906 1791 
Q 2906 2416 2648 2759 
Q 2391 3103 1925 3103 
Q 1463 3103 1205 2759 
Q 947 2416 947 1791 
Q 947 1169 1205 825 
Q 1463 481 1925 481 
Q 2391 481 2648 825 
Q 2906 1169 2906 1791 
z
M 3481 434 
Q 3481 -459 3084 -895 
Q 2688 -1331 1869 -1331 
Q 1566 -1331 1297 -1286 
Q 1028 -1241 775 -1147 
L 775 -588 
Q 1028 -725 1275 -790 
Q 1522 -856 1778 -856 
Q 2344 -856 2625 -561 
Q 2906 -266 2906 331 
L 2906 616 
Q 2728 306 2450 153 
Q 2172 0 1784 0 
Q 1141 0 747 490 
Q 353 981 353 1791 
Q 353 2603 747 3093 
Q 1141 3584 1784 3584 
Q 2172 3584 2450 3431 
Q 2728 3278 2906 2969 
L 2906 3500 
L 3481 3500 
L 3481 434 
z
" transform="scale(0.015625)"/>
       <path id="DejaVuSans-20" transform="scale(0.015625)"/>
       <path id="DejaVuSans-52" d="M 2841 2188 
Q 3044 2119 3236 1894 
Q 3428 1669 3622 1275 
L 4263 0 
L 3584 0 
L 2988 1197 
Q 2756 1666 2539 1819 
Q 2322 1972 1947 1972 
L 1259 1972 
L 1259 0 
L 628 0 
L 628 4666 
L 2053 4666 
Q 2853 4666 3247 4331 
Q 3641 3997 3641 3322 
Q 3641 2881 3436 2590 
Q 3231 2300 2841 2188 
z
M 1259 4147 
L 1259 2491 
L 2053 2491 
Q 2509 2491 2742 2702 
Q 2975 2913 2975 3322 
Q 2975 3731 2742 3939 
Q 2509 4147 2053 4147 
L 1259 4147 
z
" transform="scale(0.015625)"/>
       <path id="DejaVuSans-74" d="M 1172 4494 
L 1172 3500 
L 2356 3500 
L 2356 3053 
L 1172 3053 
L 1172 1153 
Q 1172 725 1289 603 
Q 1406 481 1766 481 
L 2356 481 
L 2356 0 
L 1766 0 
Q 1100 0 847 248 
Q 594 497 594 1153 
L 594 3053 
L 172 3053 
L 172 3500 
L 594 3500 
L 594 4494 
L 1172 4494 
z
" transform="scale(0.015625)"/>
      </defs>
      <use xlink:href="#DejaVuSans-4c"/>
      <use xlink:href="#DejaVuSans-65" x="53.962891"/>
      <use xlink:href="#DejaVuSans-61" x="115.486328"/>
      <use xlink:href="#DejaVuSans-72" x="176.765625"/>
      <use xlink:href="#DejaVuSans-6e" x="216.128906"/>
      <use xlink:href="#DejaVuSans-69" x="279.507812"/>
      <use xlink:href="#DejaVuSans-6e" x="307.291016"/>
      <use xlink:href="#DejaVuSans-67" x="370.669922"/>
      <use xlink:href="#DejaVuSans-20" x="434.146484"/>
      <use xlink:href="#DejaVuSans-52" x="465.933594"/>
      <use xlink:href="#DejaVuSans-61" x="533.166016"/>
      <use xlink:href="#DejaVuSans-74" x="594.445312"/>
      <use xlink:href="#DejaVuSans-65" x="633.654297"/>
     </g>
    </g>
   </g>
   <g id="matplotlib.axis_2">
    <g id="ytick_1">
     <g id="line2d_31">
      <path d="M 90 369.163981 
L 648 369.163981 
" clip-path="url(#p34beba1e40)" style="fill: none; stroke: #b0b0b0; stroke-width: 0.8; stroke-linecap: square"/>
     </g>
     <g id="line2d_32">
      <defs>
       <path id="m7431897381" d="M 0 0 
L -3.5 0 
" style="stroke: #000000; stroke-width: 0.8"/>
      </defs>
      <g>
       <use xlink:href="#m7431897381" x="90" y="369.163981" style="stroke: #000000; stroke-width: 0.8"/>
      </g>
     </g>
     <g id="text_5">
      <!-- 6000 -->
      <g transform="translate(57.55 372.9632) scale(0.1 -0.1)">
       <defs>
        <path id="DejaVuSans-36" d="M 2113 2584 
Q 1688 2584 1439 2293 
Q 1191 2003 1191 1497 
Q 1191 994 1439 701 
Q 1688 409 2113 409 
Q 2538 409 2786 701 
Q 3034 994 3034 1497 
Q 3034 2003 2786 2293 
Q 2538 2584 2113 2584 
z
M 3366 4563 
L 3366 3988 
Q 3128 4100 2886 4159 
Q 2644 4219 2406 4219 
Q 1781 4219 1451 3797 
Q 1122 3375 1075 2522 
Q 1259 2794 1537 2939 
Q 1816 3084 2150 3084 
Q 2853 3084 3261 2657 
Q 3669 2231 3669 1497 
Q 3669 778 3244 343 
Q 2819 -91 2113 -91 
Q 1303 -91 875 529 
Q 447 1150 447 2328 
Q 447 3434 972 4092 
Q 1497 4750 2381 4750 
Q 2619 4750 2861 4703 
Q 3103 4656 3366 4563 
z
" transform="scale(0.015625)"/>
       </defs>
       <use xlink:href="#DejaVuSans-36"/>
       <use xlink:href="#DejaVuSans-30" x="63.623047"/>
       <use xlink:href="#DejaVuSans-30" x="127.246094"/>
       <use xlink:href="#DejaVuSans-30" x="190.869141"/>
      </g>
     </g>
    </g>
    <g id="ytick_2">
     <g id="line2d_33">
      <path d="M 90 305.215468 
L 648 305.215468 
" clip-path="url(#p34beba1e40)" style="fill: none; stroke: #b0b0b0; stroke-width: 0.8; stroke-linecap: square"/>
     </g>
     <g id="line2d_34">
      <g>
       <use xlink:href="#m7431897381" x="90" y="305.215468" style="stroke: #000000; stroke-width: 0.8"/>
      </g>
     </g>
     <g id="text_6">
      <!-- 8000 -->
      <g transform="translate(57.55 309.014686) scale(0.1 -0.1)">
       <defs>
        <path id="DejaVuSans-38" d="M 2034 2216 
Q 1584 2216 1326 1975 
Q 1069 1734 1069 1313 
Q 1069 891 1326 650 
Q 1584 409 2034 409 
Q 2484 409 2743 651 
Q 3003 894 3003 1313 
Q 3003 1734 2745 1975 
Q 2488 2216 2034 2216 
z
M 1403 2484 
Q 997 2584 770 2862 
Q 544 3141 544 3541 
Q 544 4100 942 4425 
Q 1341 4750 2034 4750 
Q 2731 4750 3128 4425 
Q 3525 4100 3525 3541 
Q 3525 3141 3298 2862 
Q 3072 2584 2669 2484 
Q 3125 2378 3379 2068 
Q 3634 1759 3634 1313 
Q 3634 634 3220 271 
Q 2806 -91 2034 -91 
Q 1263 -91 848 271 
Q 434 634 434 1313 
Q 434 1759 690 2068 
Q 947 2378 1403 2484 
z
M 1172 3481 
Q 1172 3119 1398 2916 
Q 1625 2713 2034 2713 
Q 2441 2713 2670 2916 
Q 2900 3119 2900 3481 
Q 2900 3844 2670 4047 
Q 2441 4250 2034 4250 
Q 1625 4250 1398 4047 
Q 1172 3844 1172 3481 
z
" transform="scale(0.015625)"/>
       </defs>
       <use xlink:href="#DejaVuSans-38"/>
       <use xlink:href="#DejaVuSans-30" x="63.623047"/>
       <use xlink:href="#DejaVuSans-30" x="127.246094"/>
       <use xlink:href="#DejaVuSans-30" x="190.869141"/>
      </g>
     </g>
    </g>
    <g id="ytick_3">
     <g id="line2d_35">
      <path d="M 90 241.266954 
L 648 241.266954 
" clip-path="url(#p34beba1e40)" style="fill: none; stroke: #b0b0b0; stroke-width: 0.8; stroke-linecap: square"/>
     </g>
     <g id="line2d_36">
      <g>
       <use xlink:href="#m7431897381" x="90" y="241.266954" style="stroke: #000000; stroke-width: 0.8"/>
      </g>
     </g>
     <g id="text_7">
      <!-- 10000 -->
      <g transform="translate(51.1875 245.066173) scale(0.1 -0.1)">
       <use xlink:href="#DejaVuSans-31"/>
       <use xlink:href="#DejaVuSans-30" x="63.623047"/>
       <use xlink:href="#DejaVuSans-30" x="127.246094"/>
       <use xlink:href="#DejaVuSans-30" x="190.869141"/>
       <use xlink:href="#DejaVuSans-30" x="254.492188"/>
      </g>
     </g>
    </g>
    <g id="ytick_4">
     <g id="line2d_37">
      <path d="M 90 177.31844 
L 648 177.31844 
" clip-path="url(#p34beba1e40)" style="fill: none; stroke: #b0b0b0; stroke-width: 0.8; stroke-linecap: square"/>
     </g>
     <g id="line2d_38">
      <g>
       <use xlink:href="#m7431897381" x="90" y="177.31844" style="stroke: #000000; stroke-width: 0.8"/>
      </g>
     </g>
     <g id="text_8">
      <!-- 12000 -->
      <g transform="translate(51.1875 181.117659) scale(0.1 -0.1)">
       <use xlink:href="#DejaVuSans-31"/>
       <use xlink:href="#DejaVuSans-32" x="63.623047"/>
       <use xlink:href="#DejaVuSans-30" x="127.246094"/>
       <use xlink:href="#DejaVuSans-30" x="190.869141"/>
       <use xlink:href="#DejaVuSans-30" x="254.492188"/>
      </g>
     </g>
    </g>
    <g id="ytick_5">
     <g id="line2d_39">
      <path d="M 90 113.369927 
L 648 113.369927 
" clip-path="url(#p34beba1e40)" style="fill: none; stroke: #b0b0b0; stroke-width: 0.8; stroke-linecap: square"/>
     </g>
     <g id="line2d_40">
      <g>
       <use xlink:href="#m7431897381" x="90" y="113.369927" style="stroke: #000000; stroke-width: 0.8"/>
      </g>
     </g>
     <g id="text_9">
      <!-- 14000 -->
      <g transform="translate(51.1875 117.169145) scale(0.1 -0.1)">
       <use xlink:href="#DejaVuSans-31"/>
       <use xlink:href="#DejaVuSans-34" x="63.623047"/>
       <use xlink:href="#DejaVuSans-30" x="127.246094"/>
       <use xlink:href="#DejaVuSans-30" x="190.869141"/>
       <use xlink:href="#DejaVuSans-30" x="254.492188"/>
      </g>
     </g>
    </g>
    <g id="text_10">
     <!-- Loss -->
     <g transform="translate(45.107813 229.127187) rotate(-90) scale(0.1 -0.1)">
      <defs>
       <path id="DejaVuSans-6f" d="M 1959 3097 
Q 1497 3097 1228 2736 
Q 959 2375 959 1747 
Q 959 1119 1226 758 
Q 1494 397 1959 397 
Q 2419 397 2687 759 
Q 2956 1122 2956 1747 
Q 2956 2369 2687 2733 
Q 2419 3097 1959 3097 
z
M 1959 3584 
Q 2709 3584 3137 3096 
Q 3566 2609 3566 1747 
Q 3566 888 3137 398 
Q 2709 -91 1959 -91 
Q 1206 -91 779 398 
Q 353 888 353 1747 
Q 353 2609 779 3096 
Q 1206 3584 1959 3584 
z
" transform="scale(0.015625)"/>
       <path id="DejaVuSans-73" d="M 2834 3397 
L 2834 2853 
Q 2591 2978 2328 3040 
Q 2066 3103 1784 3103 
Q 1356 3103 1142 2972 
Q 928 2841 928 2578 
Q 928 2378 1081 2264 
Q 1234 2150 1697 2047 
L 1894 2003 
Q 2506 1872 2764 1633 
Q 3022 1394 3022 966 
Q 3022 478 2636 193 
Q 2250 -91 1575 -91 
Q 1294 -91 989 -36 
Q 684 19 347 128 
L 347 722 
Q 666 556 975 473 
Q 1284 391 1588 391 
Q 1994 391 2212 530 
Q 2431 669 2431 922 
Q 2431 1156 2273 1281 
Q 2116 1406 1581 1522 
L 1381 1569 
Q 847 1681 609 1914 
Q 372 2147 372 2553 
Q 372 3047 722 3315 
Q 1072 3584 1716 3584 
Q 2034 3584 2315 3537 
Q 2597 3491 2834 3397 
z
" transform="scale(0.015625)"/>
      </defs>
      <use xlink:href="#DejaVuSans-4c"/>
      <use xlink:href="#DejaVuSans-6f" x="53.962891"/>
      <use xlink:href="#DejaVuSans-73" x="115.144531"/>
      <use xlink:href="#DejaVuSans-73" x="167.244141"/>
     </g>
    </g>
   </g>
   <g id="line2d_41">
    <path d="M 622.636364 165.860048 
L 620.693433 294.251794 
L 614.765917 327.39001 
L 604.536637 347.454409 
L 589.396761 345.462981 
L 568.280423 361.553937 
L 539.293886 364.752434 
L 498.785848 348.42978 
L 438.456907 350.743505 
L 331.710234 356.136895 
L 622.636364 345.367462 
L 622.152135 348.615248 
L 620.693433 345.582161 
L 618.241904 354.35177 
L 614.765917 344.16739 
L 610.218884 357.764895 
L 604.536637 323.737975 
L 597.633534 346.973058 
L 589.396761 344.01803 
L 579.67792 348.462474 
L 568.280423 351.31379 
L 554.940054 342.548484 
L 539.293886 360.953991 
L 520.828195 347.103594 
L 498.785848 362.763859 
L 471.988373 369.36 
L 438.456907 342.252999 
L 394.477487 334.242619 
L 331.710234 345.235217 
L 223.576268 356.974935 
L 622.636364 348.322933 
L 622.5154 66.96 
L 622.152135 295.683727 
L 621.545444 293.571118 
L 620.693433 273.766804 
L 619.593422 274.8558 
L 618.241904 264.985054 
L 616.634503 259.85275 
L 614.765917 224.441348 
L 612.629841 276.53174 
L 610.218884 222.473942 
L 607.524455 193.293634 
L 604.536637 225.489667 
L 601.244024 190.891642 
L 597.633534 210.388953 
L 593.690175 236.025528 
L 589.396761 198.639876 
L 584.73357 211.719023 
L 579.67792 218.849732 
L 574.20364 246.782574 
L 568.280423 219.570386 
L 561.872991 213.378006 
L 554.940054 236.54005 
L 547.432951 258.433012 
L 539.293886 252.596321 
L 530.453594 261.048976 
L 520.828195 295.33679 
L 510.314876 295.189803 
L 498.785848 291.106877 
L 486.079662 342.565465 
L 471.988373 305.136843 
L 456.23792 319.335993 
L 438.456907 330.036541 
L 418.124438 348.92859 
L 394.477487 356.371011 
L 366.333143 324.239442 
L 331.710234 332.500843 
L 286.897323 322.894315 
L 223.576268 335.103169 
L 115.363636 333.818803 
" clip-path="url(#p34beba1e40)" style="fill: none; stroke: #1f77b4; stroke-width: 1.5; stroke-linecap: square"/>
    <defs>
     <path id="m6c293ea27d" d="M 0 3 
C 0.795609 3 1.55874 2.683901 2.12132 2.12132 
C 2.683901 1.55874 3 0.795609 3 0 
C 3 -0.795609 2.683901 -1.55874 2.12132 -2.12132 
C 1.55874 -2.683901 0.795609 -3 0 -3 
C -0.795609 -3 -1.55874 -2.683901 -2.12132 -2.12132 
C -2.683901 -1.55874 -3 -0.795609 -3 0 
C -3 0.795609 -2.683901 1.55874 -2.12132 2.12132 
C -1.55874 2.683901 -0.795609 3 0 3 
z
" style="stroke: #1f77b4"/>
    </defs>
    <g clip-path="url(#p34beba1e40)">
     <use xlink:href="#m6c293ea27d" x="622.636364" y="165.860048" style="fill: #1f77b4; stroke: #1f77b4"/>
     <use xlink:href="#m6c293ea27d" x="620.693433" y="294.251794" style="fill: #1f77b4; stroke: #1f77b4"/>
     <use xlink:href="#m6c293ea27d" x="614.765917" y="327.39001" style="fill: #1f77b4; stroke: #1f77b4"/>
     <use xlink:href="#m6c293ea27d" x="604.536637" y="347.454409" style="fill: #1f77b4; stroke: #1f77b4"/>
     <use xlink:href="#m6c293ea27d" x="589.396761" y="345.462981" style="fill: #1f77b4; stroke: #1f77b4"/>
     <use xlink:href="#m6c293ea27d" x="568.280423" y="361.553937" style="fill: #1f77b4; stroke: #1f77b4"/>
     <use xlink:href="#m6c293ea27d" x="539.293886" y="364.752434" style="fill: #1f77b4; stroke: #1f77b4"/>
     <use xlink:href="#m6c293ea27d" x="498.785848" y="348.42978" style="fill: #1f77b4; stroke: #1f77b4"/>
     <use xlink:href="#m6c293ea27d" x="438.456907" y="350.743505" style="fill: #1f77b4; stroke: #1f77b4"/>
     <use xlink:href="#m6c293ea27d" x="331.710234" y="356.136895" style="fill: #1f77b4; stroke: #1f77b4"/>
     <use xlink:href="#m6c293ea27d" x="622.636364" y="345.367462" style="fill: #1f77b4; stroke: #1f77b4"/>
     <use xlink:href="#m6c293ea27d" x="622.152135" y="348.615248" style="fill: #1f77b4; stroke: #1f77b4"/>
     <use xlink:href="#m6c293ea27d" x="620.693433" y="345.582161" style="fill: #1f77b4; stroke: #1f77b4"/>
     <use xlink:href="#m6c293ea27d" x="618.241904" y="354.35177" style="fill: #1f77b4; stroke: #1f77b4"/>
     <use xlink:href="#m6c293ea27d" x="614.765917" y="344.16739" style="fill: #1f77b4; stroke: #1f77b4"/>
     <use xlink:href="#m6c293ea27d" x="610.218884" y="357.764895" style="fill: #1f77b4; stroke: #1f77b4"/>
     <use xlink:href="#m6c293ea27d" x="604.536637" y="323.737975" style="fill: #1f77b4; stroke: #1f77b4"/>
     <use xlink:href="#m6c293ea27d" x="597.633534" y="346.973058" style="fill: #1f77b4; stroke: #1f77b4"/>
     <use xlink:href="#m6c293ea27d" x="589.396761" y="344.01803" style="fill: #1f77b4; stroke: #1f77b4"/>
     <use xlink:href="#m6c293ea27d" x="579.67792" y="348.462474" style="fill: #1f77b4; stroke: #1f77b4"/>
     <use xlink:href="#m6c293ea27d" x="568.280423" y="351.31379" style="fill: #1f77b4; stroke: #1f77b4"/>
     <use xlink:href="#m6c293ea27d" x="554.940054" y="342.548484" style="fill: #1f77b4; stroke: #1f77b4"/>
     <use xlink:href="#m6c293ea27d" x="539.293886" y="360.953991" style="fill: #1f77b4; stroke: #1f77b4"/>
     <use xlink:href="#m6c293ea27d" x="520.828195" y="347.103594" style="fill: #1f77b4; stroke: #1f77b4"/>
     <use xlink:href="#m6c293ea27d" x="498.785848" y="362.763859" style="fill: #1f77b4; stroke: #1f77b4"/>
     <use xlink:href="#m6c293ea27d" x="471.988373" y="369.36" style="fill: #1f77b4; stroke: #1f77b4"/>
     <use xlink:href="#m6c293ea27d" x="438.456907" y="342.252999" style="fill: #1f77b4; stroke: #1f77b4"/>
     <use xlink:href="#m6c293ea27d" x="394.477487" y="334.242619" style="fill: #1f77b4; stroke: #1f77b4"/>
     <use xlink:href="#m6c293ea27d" x="331.710234" y="345.235217" style="fill: #1f77b4; stroke: #1f77b4"/>
     <use xlink:href="#m6c293ea27d" x="223.576268" y="356.974935" style="fill: #1f77b4; stroke: #1f77b4"/>
     <use xlink:href="#m6c293ea27d" x="622.636364" y="348.322933" style="fill: #1f77b4; stroke: #1f77b4"/>
     <use xlink:href="#m6c293ea27d" x="622.5154" y="66.96" style="fill: #1f77b4; stroke: #1f77b4"/>
     <use xlink:href="#m6c293ea27d" x="622.152135" y="295.683727" style="fill: #1f77b4; stroke: #1f77b4"/>
     <use xlink:href="#m6c293ea27d" x="621.545444" y="293.571118" style="fill: #1f77b4; stroke: #1f77b4"/>
     <use xlink:href="#m6c293ea27d" x="620.693433" y="273.766804" style="fill: #1f77b4; stroke: #1f77b4"/>
     <use xlink:href="#m6c293ea27d" x="619.593422" y="274.8558" style="fill: #1f77b4; stroke: #1f77b4"/>
     <use xlink:href="#m6c293ea27d" x="618.241904" y="264.985054" style="fill: #1f77b4; stroke: #1f77b4"/>
     <use xlink:href="#m6c293ea27d" x="616.634503" y="259.85275" style="fill: #1f77b4; stroke: #1f77b4"/>
     <use xlink:href="#m6c293ea27d" x="614.765917" y="224.441348" style="fill: #1f77b4; stroke: #1f77b4"/>
     <use xlink:href="#m6c293ea27d" x="612.629841" y="276.53174" style="fill: #1f77b4; stroke: #1f77b4"/>
     <use xlink:href="#m6c293ea27d" x="610.218884" y="222.473942" style="fill: #1f77b4; stroke: #1f77b4"/>
     <use xlink:href="#m6c293ea27d" x="607.524455" y="193.293634" style="fill: #1f77b4; stroke: #1f77b4"/>
     <use xlink:href="#m6c293ea27d" x="604.536637" y="225.489667" style="fill: #1f77b4; stroke: #1f77b4"/>
     <use xlink:href="#m6c293ea27d" x="601.244024" y="190.891642" style="fill: #1f77b4; stroke: #1f77b4"/>
     <use xlink:href="#m6c293ea27d" x="597.633534" y="210.388953" style="fill: #1f77b4; stroke: #1f77b4"/>
     <use xlink:href="#m6c293ea27d" x="593.690175" y="236.025528" style="fill: #1f77b4; stroke: #1f77b4"/>
     <use xlink:href="#m6c293ea27d" x="589.396761" y="198.639876" style="fill: #1f77b4; stroke: #1f77b4"/>
     <use xlink:href="#m6c293ea27d" x="584.73357" y="211.719023" style="fill: #1f77b4; stroke: #1f77b4"/>
     <use xlink:href="#m6c293ea27d" x="579.67792" y="218.849732" style="fill: #1f77b4; stroke: #1f77b4"/>
     <use xlink:href="#m6c293ea27d" x="574.20364" y="246.782574" style="fill: #1f77b4; stroke: #1f77b4"/>
     <use xlink:href="#m6c293ea27d" x="568.280423" y="219.570386" style="fill: #1f77b4; stroke: #1f77b4"/>
     <use xlink:href="#m6c293ea27d" x="561.872991" y="213.378006" style="fill: #1f77b4; stroke: #1f77b4"/>
     <use xlink:href="#m6c293ea27d" x="554.940054" y="236.54005" style="fill: #1f77b4; stroke: #1f77b4"/>
     <use xlink:href="#m6c293ea27d" x="547.432951" y="258.433012" style="fill: #1f77b4; stroke: #1f77b4"/>
     <use xlink:href="#m6c293ea27d" x="539.293886" y="252.596321" style="fill: #1f77b4; stroke: #1f77b4"/>
     <use xlink:href="#m6c293ea27d" x="530.453594" y="261.048976" style="fill: #1f77b4; stroke: #1f77b4"/>
     <use xlink:href="#m6c293ea27d" x="520.828195" y="295.33679" style="fill: #1f77b4; stroke: #1f77b4"/>
     <use xlink:href="#m6c293ea27d" x="510.314876" y="295.189803" style="fill: #1f77b4; stroke: #1f77b4"/>
     <use xlink:href="#m6c293ea27d" x="498.785848" y="291.106877" style="fill: #1f77b4; stroke: #1f77b4"/>
     <use xlink:href="#m6c293ea27d" x="486.079662" y="342.565465" style="fill: #1f77b4; stroke: #1f77b4"/>
     <use xlink:href="#m6c293ea27d" x="471.988373" y="305.136843" style="fill: #1f77b4; stroke: #1f77b4"/>
     <use xlink:href="#m6c293ea27d" x="456.23792" y="319.335993" style="fill: #1f77b4; stroke: #1f77b4"/>
     <use xlink:href="#m6c293ea27d" x="438.456907" y="330.036541" style="fill: #1f77b4; stroke: #1f77b4"/>
     <use xlink:href="#m6c293ea27d" x="418.124438" y="348.92859" style="fill: #1f77b4; stroke: #1f77b4"/>
     <use xlink:href="#m6c293ea27d" x="394.477487" y="356.371011" style="fill: #1f77b4; stroke: #1f77b4"/>
     <use xlink:href="#m6c293ea27d" x="366.333143" y="324.239442" style="fill: #1f77b4; stroke: #1f77b4"/>
     <use xlink:href="#m6c293ea27d" x="331.710234" y="332.500843" style="fill: #1f77b4; stroke: #1f77b4"/>
     <use xlink:href="#m6c293ea27d" x="286.897323" y="322.894315" style="fill: #1f77b4; stroke: #1f77b4"/>
     <use xlink:href="#m6c293ea27d" x="223.576268" y="335.103169" style="fill: #1f77b4; stroke: #1f77b4"/>
     <use xlink:href="#m6c293ea27d" x="115.363636" y="333.818803" style="fill: #1f77b4; stroke: #1f77b4"/>
    </g>
   </g>
   <g id="patch_3">
    <path d="M 90 384.48 
L 90 51.84 
" style="fill: none; stroke: #000000; stroke-width: 0.8; stroke-linejoin: miter; stroke-linecap: square"/>
   </g>
   <g id="patch_4">
    <path d="M 648 384.48 
L 648 51.84 
" style="fill: none; stroke: #000000; stroke-width: 0.8; stroke-linejoin: miter; stroke-linecap: square"/>
   </g>
   <g id="patch_5">
    <path d="M 90 384.48 
L 648 384.48 
" style="fill: none; stroke: #000000; stroke-width: 0.8; stroke-linejoin: miter; stroke-linecap: square"/>
   </g>
   <g id="patch_6">
    <path d="M 90 51.84 
L 648 51.84 
" style="fill: none; stroke: #000000; stroke-width: 0.8; stroke-linejoin: miter; stroke-linecap: square"/>
   </g>
   <g id="text_11">
    <!-- Loss vs. Learning Rate -->
    <g transform="translate(301.730625 45.84) scale(0.12 -0.12)">
     <defs>
      <path id="DejaVuSans-76" d="M 191 3500 
L 800 3500 
L 1894 563 
L 2988 3500 
L 3597 3500 
L 2284 0 
L 1503 0 
L 191 3500 
z
" transform="scale(0.015625)"/>
      <path id="DejaVuSans-2e" d="M 684 794 
L 1344 794 
L 1344 0 
L 684 0 
L 684 794 
z
" transform="scale(0.015625)"/>
     </defs>
     <use xlink:href="#DejaVuSans-4c"/>
     <use xlink:href="#DejaVuSans-6f" x="53.962891"/>
     <use xlink:href="#DejaVuSans-73" x="115.144531"/>
     <use xlink:href="#DejaVuSans-73" x="167.244141"/>
     <use xlink:href="#DejaVuSans-20" x="219.34375"/>
     <use xlink:href="#DejaVuSans-76" x="251.130859"/>
     <use xlink:href="#DejaVuSans-73" x="310.310547"/>
     <use xlink:href="#DejaVuSans-2e" x="362.410156"/>
     <use xlink:href="#DejaVuSans-20" x="394.197266"/>
     <use xlink:href="#DejaVuSans-4c" x="425.984375"/>
     <use xlink:href="#DejaVuSans-65" x="479.947266"/>
     <use xlink:href="#DejaVuSans-61" x="541.470703"/>
     <use xlink:href="#DejaVuSans-72" x="602.75"/>
     <use xlink:href="#DejaVuSans-6e" x="642.113281"/>
     <use xlink:href="#DejaVuSans-69" x="705.492188"/>
     <use xlink:href="#DejaVuSans-6e" x="733.275391"/>
     <use xlink:href="#DejaVuSans-67" x="796.654297"/>
     <use xlink:href="#DejaVuSans-20" x="860.130859"/>
     <use xlink:href="#DejaVuSans-52" x="891.917969"/>
     <use xlink:href="#DejaVuSans-61" x="959.150391"/>
     <use xlink:href="#DejaVuSans-74" x="1020.429688"/>
     <use xlink:href="#DejaVuSans-65" x="1059.638672"/>
    </g>
   </g>
  </g>
 </g>
 <defs>
  <clipPath id="p34beba1e40">
   <rect x="90" y="51.84" width="558" height="332.64"/>
  </clipPath>
 </defs>
</svg>
