<?xml version="1.0" encoding="utf-8" standalone="no"?>
<!DOCTYPE svg PUBLIC "-//W3C//DTD SVG 1.1//EN"
  "http://www.w3.org/Graphics/SVG/1.1/DTD/svg11.dtd">
<svg xmlns:xlink="http://www.w3.org/1999/xlink" width="460.8pt" height="345.6pt" viewBox="0 0 460.8 345.6" xmlns="http://www.w3.org/2000/svg" version="1.1">
 <metadata>
  <rdf:RDF xmlns:dc="http://purl.org/dc/elements/1.1/" xmlns:cc="http://creativecommons.org/ns#" xmlns:rdf="http://www.w3.org/1999/02/22-rdf-syntax-ns#">
   <cc:Work>
    <dc:type rdf:resource="http://purl.org/dc/dcmitype/StillImage"/>
    <dc:date>2024-06-02T21:50:02.388995</dc:date>
    <dc:format>image/svg+xml</dc:format>
    <dc:creator>
     <cc:Agent>
      <dc:title>Matplotlib v3.7.1, https://matplotlib.org/</dc:title>
     </cc:Agent>
    </dc:creator>
   </cc:Work>
  </rdf:RDF>
 </metadata>
 <defs>
  <style type="text/css">*{stroke-linejoin: round; stroke-linecap: butt}</style>
 </defs>
 <g id="figure_1">
  <g id="patch_1">
   <path d="M 0 345.6 
L 460.8 345.6 
L 460.8 0 
L 0 0 
z
" style="fill: #ffffff"/>
  </g>
  <g id="axes_1">
   <g id="patch_2">
    <path d="M 57.6 307.584 
L 414.72 307.584 
L 414.72 41.472 
L 57.6 41.472 
z
" style="fill: #ffffff"/>
   </g>
   <g id="matplotlib.axis_1">
    <g id="xtick_1">
     <g id="line2d_1">
      <path d="M 73.832727 307.584 
L 73.832727 41.472 
" clip-path="url(#p9a618736c2)" style="fill: none; stroke: #b0b0b0; stroke-width: 0.8; stroke-linecap: square"/>
     </g>
     <g id="line2d_2">
      <defs>
       <path id="me4dec39c8c" d="M 0 0 
L 0 3.5 
" style="stroke: #000000; stroke-width: 0.8"/>
      </defs>
      <g>
       <use xlink:href="#me4dec39c8c" x="73.832727" y="307.584" style="stroke: #000000; stroke-width: 0.8"/>
      </g>
     </g>
     <g id="text_1">
      <!-- 0 -->
      <g transform="translate(70.651477 322.182437) scale(0.1 -0.1)">
       <defs>
        <path id="DejaVuSans-30" d="M 2034 4250 
Q 1547 4250 1301 3770 
Q 1056 3291 1056 2328 
Q 1056 1369 1301 889 
Q 1547 409 2034 409 
Q 2525 409 2770 889 
Q 3016 1369 3016 2328 
Q 3016 3291 2770 3770 
Q 2525 4250 2034 4250 
z
M 2034 4750 
Q 2819 4750 3233 4129 
Q 3647 3509 3647 2328 
Q 3647 1150 3233 529 
Q 2819 -91 2034 -91 
Q 1250 -91 836 529 
Q 422 1150 422 2328 
Q 422 3509 836 4129 
Q 1250 4750 2034 4750 
z
" transform="scale(0.015625)"/>
       </defs>
       <use xlink:href="#DejaVuSans-30"/>
      </g>
     </g>
    </g>
    <g id="xtick_2">
     <g id="line2d_3">
      <path d="M 139.419504 307.584 
L 139.419504 41.472 
" clip-path="url(#p9a618736c2)" style="fill: none; stroke: #b0b0b0; stroke-width: 0.8; stroke-linecap: square"/>
     </g>
     <g id="line2d_4">
      <g>
       <use xlink:href="#me4dec39c8c" x="139.419504" y="307.584" style="stroke: #000000; stroke-width: 0.8"/>
      </g>
     </g>
     <g id="text_2">
      <!-- 20 -->
      <g transform="translate(133.057004 322.182437) scale(0.1 -0.1)">
       <defs>
        <path id="DejaVuSans-32" d="M 1228 531 
L 3431 531 
L 3431 0 
L 469 0 
L 469 531 
Q 828 903 1448 1529 
Q 2069 2156 2228 2338 
Q 2531 2678 2651 2914 
Q 2772 3150 2772 3378 
Q 2772 3750 2511 3984 
Q 2250 4219 1831 4219 
Q 1534 4219 1204 4116 
Q 875 4013 500 3803 
L 500 4441 
Q 881 4594 1212 4672 
Q 1544 4750 1819 4750 
Q 2544 4750 2975 4387 
Q 3406 4025 3406 3419 
Q 3406 3131 3298 2873 
Q 3191 2616 2906 2266 
Q 2828 2175 2409 1742 
Q 1991 1309 1228 531 
z
" transform="scale(0.015625)"/>
       </defs>
       <use xlink:href="#DejaVuSans-32"/>
       <use xlink:href="#DejaVuSans-30" x="63.623047"/>
      </g>
     </g>
    </g>
    <g id="xtick_3">
     <g id="line2d_5">
      <path d="M 205.006281 307.584 
L 205.006281 41.472 
" clip-path="url(#p9a618736c2)" style="fill: none; stroke: #b0b0b0; stroke-width: 0.8; stroke-linecap: square"/>
     </g>
     <g id="line2d_6">
      <g>
       <use xlink:href="#me4dec39c8c" x="205.006281" y="307.584" style="stroke: #000000; stroke-width: 0.8"/>
      </g>
     </g>
     <g id="text_3">
      <!-- 40 -->
      <g transform="translate(198.643781 322.182437) scale(0.1 -0.1)">
       <defs>
        <path id="DejaVuSans-34" d="M 2419 4116 
L 825 1625 
L 2419 1625 
L 2419 4116 
z
M 2253 4666 
L 3047 4666 
L 3047 1625 
L 3713 1625 
L 3713 1100 
L 3047 1100 
L 3047 0 
L 2419 0 
L 2419 1100 
L 313 1100 
L 313 1709 
L 2253 4666 
z
" transform="scale(0.015625)"/>
       </defs>
       <use xlink:href="#DejaVuSans-34"/>
       <use xlink:href="#DejaVuSans-30" x="63.623047"/>
      </g>
     </g>
    </g>
    <g id="xtick_4">
     <g id="line2d_7">
      <path d="M 270.593058 307.584 
L 270.593058 41.472 
" clip-path="url(#p9a618736c2)" style="fill: none; stroke: #b0b0b0; stroke-width: 0.8; stroke-linecap: square"/>
     </g>
     <g id="line2d_8">
      <g>
       <use xlink:href="#me4dec39c8c" x="270.593058" y="307.584" style="stroke: #000000; stroke-width: 0.8"/>
      </g>
     </g>
     <g id="text_4">
      <!-- 60 -->
      <g transform="translate(264.230558 322.182437) scale(0.1 -0.1)">
       <defs>
        <path id="DejaVuSans-36" d="M 2113 2584 
Q 1688 2584 1439 2293 
Q 1191 2003 1191 1497 
Q 1191 994 1439 701 
Q 1688 409 2113 409 
Q 2538 409 2786 701 
Q 3034 994 3034 1497 
Q 3034 2003 2786 2293 
Q 2538 2584 2113 2584 
z
M 3366 4563 
L 3366 3988 
Q 3128 4100 2886 4159 
Q 2644 4219 2406 4219 
Q 1781 4219 1451 3797 
Q 1122 3375 1075 2522 
Q 1259 2794 1537 2939 
Q 1816 3084 2150 3084 
Q 2853 3084 3261 2657 
Q 3669 2231 3669 1497 
Q 3669 778 3244 343 
Q 2819 -91 2113 -91 
Q 1303 -91 875 529 
Q 447 1150 447 2328 
Q 447 3434 972 4092 
Q 1497 4750 2381 4750 
Q 2619 4750 2861 4703 
Q 3103 4656 3366 4563 
z
" transform="scale(0.015625)"/>
       </defs>
       <use xlink:href="#DejaVuSans-36"/>
       <use xlink:href="#DejaVuSans-30" x="63.623047"/>
      </g>
     </g>
    </g>
    <g id="xtick_5">
     <g id="line2d_9">
      <path d="M 336.179835 307.584 
L 336.179835 41.472 
" clip-path="url(#p9a618736c2)" style="fill: none; stroke: #b0b0b0; stroke-width: 0.8; stroke-linecap: square"/>
     </g>
     <g id="line2d_10">
      <g>
       <use xlink:href="#me4dec39c8c" x="336.179835" y="307.584" style="stroke: #000000; stroke-width: 0.8"/>
      </g>
     </g>
     <g id="text_5">
      <!-- 80 -->
      <g transform="translate(329.817335 322.182437) scale(0.1 -0.1)">
       <defs>
        <path id="DejaVuSans-38" d="M 2034 2216 
Q 1584 2216 1326 1975 
Q 1069 1734 1069 1313 
Q 1069 891 1326 650 
Q 1584 409 2034 409 
Q 2484 409 2743 651 
Q 3003 894 3003 1313 
Q 3003 1734 2745 1975 
Q 2488 2216 2034 2216 
z
M 1403 2484 
Q 997 2584 770 2862 
Q 544 3141 544 3541 
Q 544 4100 942 4425 
Q 1341 4750 2034 4750 
Q 2731 4750 3128 4425 
Q 3525 4100 3525 3541 
Q 3525 3141 3298 2862 
Q 3072 2584 2669 2484 
Q 3125 2378 3379 2068 
Q 3634 1759 3634 1313 
Q 3634 634 3220 271 
Q 2806 -91 2034 -91 
Q 1263 -91 848 271 
Q 434 634 434 1313 
Q 434 1759 690 2068 
Q 947 2378 1403 2484 
z
M 1172 3481 
Q 1172 3119 1398 2916 
Q 1625 2713 2034 2713 
Q 2441 2713 2670 2916 
Q 2900 3119 2900 3481 
Q 2900 3844 2670 4047 
Q 2441 4250 2034 4250 
Q 1625 4250 1398 4047 
Q 1172 3844 1172 3481 
z
" transform="scale(0.015625)"/>
       </defs>
       <use xlink:href="#DejaVuSans-38"/>
       <use xlink:href="#DejaVuSans-30" x="63.623047"/>
      </g>
     </g>
    </g>
    <g id="xtick_6">
     <g id="line2d_11">
      <path d="M 401.766612 307.584 
L 401.766612 41.472 
" clip-path="url(#p9a618736c2)" style="fill: none; stroke: #b0b0b0; stroke-width: 0.8; stroke-linecap: square"/>
     </g>
     <g id="line2d_12">
      <g>
       <use xlink:href="#me4dec39c8c" x="401.766612" y="307.584" style="stroke: #000000; stroke-width: 0.8"/>
      </g>
     </g>
     <g id="text_6">
      <!-- 100 -->
      <g transform="translate(392.222862 322.182437) scale(0.1 -0.1)">
       <defs>
        <path id="DejaVuSans-31" d="M 794 531 
L 1825 531 
L 1825 4091 
L 703 3866 
L 703 4441 
L 1819 4666 
L 2450 4666 
L 2450 531 
L 3481 531 
L 3481 0 
L 794 0 
L 794 531 
z
" transform="scale(0.015625)"/>
       </defs>
       <use xlink:href="#DejaVuSans-31"/>
       <use xlink:href="#DejaVuSans-30" x="63.623047"/>
       <use xlink:href="#DejaVuSans-30" x="127.246094"/>
      </g>
     </g>
    </g>
    <g id="text_7">
     <!-- T -->
     <g transform="translate(233.106094 335.860562) scale(0.1 -0.1)">
      <defs>
       <path id="DejaVuSans-54" d="M -19 4666 
L 3928 4666 
L 3928 4134 
L 2272 4134 
L 2272 0 
L 1638 0 
L 1638 4134 
L -19 4134 
L -19 4666 
z
" transform="scale(0.015625)"/>
      </defs>
      <use xlink:href="#DejaVuSans-54"/>
     </g>
    </g>
   </g>
   <g id="matplotlib.axis_2">
    <g id="ytick_1">
     <g id="line2d_13">
      <path d="M 57.6 300.681049 
L 414.72 300.681049 
" clip-path="url(#p9a618736c2)" style="fill: none; stroke: #b0b0b0; stroke-width: 0.8; stroke-linecap: square"/>
     </g>
     <g id="line2d_14">
      <defs>
       <path id="m6186cc1fbd" d="M 0 0 
L -3.5 0 
" style="stroke: #000000; stroke-width: 0.8"/>
      </defs>
      <g>
       <use xlink:href="#m6186cc1fbd" x="57.6" y="300.681049" style="stroke: #000000; stroke-width: 0.8"/>
      </g>
     </g>
     <g id="text_8">
      <!-- −2 -->
      <g transform="translate(35.857813 304.480268) scale(0.1 -0.1)">
       <defs>
        <path id="DejaVuSans-2212" d="M 678 2272 
L 4684 2272 
L 4684 1741 
L 678 1741 
L 678 2272 
z
" transform="scale(0.015625)"/>
       </defs>
       <use xlink:href="#DejaVuSans-2212"/>
       <use xlink:href="#DejaVuSans-32" x="83.789062"/>
      </g>
     </g>
    </g>
    <g id="ytick_2">
     <g id="line2d_15">
      <path d="M 57.6 255.751404 
L 414.72 255.751404 
" clip-path="url(#p9a618736c2)" style="fill: none; stroke: #b0b0b0; stroke-width: 0.8; stroke-linecap: square"/>
     </g>
     <g id="line2d_16">
      <g>
       <use xlink:href="#m6186cc1fbd" x="57.6" y="255.751404" style="stroke: #000000; stroke-width: 0.8"/>
      </g>
     </g>
     <g id="text_9">
      <!-- 0 -->
      <g transform="translate(44.2375 259.550622) scale(0.1 -0.1)">
       <use xlink:href="#DejaVuSans-30"/>
      </g>
     </g>
    </g>
    <g id="ytick_3">
     <g id="line2d_17">
      <path d="M 57.6 210.821758 
L 414.72 210.821758 
" clip-path="url(#p9a618736c2)" style="fill: none; stroke: #b0b0b0; stroke-width: 0.8; stroke-linecap: square"/>
     </g>
     <g id="line2d_18">
      <g>
       <use xlink:href="#m6186cc1fbd" x="57.6" y="210.821758" style="stroke: #000000; stroke-width: 0.8"/>
      </g>
     </g>
     <g id="text_10">
      <!-- 2 -->
      <g transform="translate(44.2375 214.620977) scale(0.1 -0.1)">
       <use xlink:href="#DejaVuSans-32"/>
      </g>
     </g>
    </g>
    <g id="ytick_4">
     <g id="line2d_19">
      <path d="M 57.6 165.892113 
L 414.72 165.892113 
" clip-path="url(#p9a618736c2)" style="fill: none; stroke: #b0b0b0; stroke-width: 0.8; stroke-linecap: square"/>
     </g>
     <g id="line2d_20">
      <g>
       <use xlink:href="#m6186cc1fbd" x="57.6" y="165.892113" style="stroke: #000000; stroke-width: 0.8"/>
      </g>
     </g>
     <g id="text_11">
      <!-- 4 -->
      <g transform="translate(44.2375 169.691332) scale(0.1 -0.1)">
       <use xlink:href="#DejaVuSans-34"/>
      </g>
     </g>
    </g>
    <g id="ytick_5">
     <g id="line2d_21">
      <path d="M 57.6 120.962468 
L 414.72 120.962468 
" clip-path="url(#p9a618736c2)" style="fill: none; stroke: #b0b0b0; stroke-width: 0.8; stroke-linecap: square"/>
     </g>
     <g id="line2d_22">
      <g>
       <use xlink:href="#m6186cc1fbd" x="57.6" y="120.962468" style="stroke: #000000; stroke-width: 0.8"/>
      </g>
     </g>
     <g id="text_12">
      <!-- 6 -->
      <g transform="translate(44.2375 124.761687) scale(0.1 -0.1)">
       <use xlink:href="#DejaVuSans-36"/>
      </g>
     </g>
    </g>
    <g id="ytick_6">
     <g id="line2d_23">
      <path d="M 57.6 76.032823 
L 414.72 76.032823 
" clip-path="url(#p9a618736c2)" style="fill: none; stroke: #b0b0b0; stroke-width: 0.8; stroke-linecap: square"/>
     </g>
     <g id="line2d_24">
      <g>
       <use xlink:href="#m6186cc1fbd" x="57.6" y="76.032823" style="stroke: #000000; stroke-width: 0.8"/>
      </g>
     </g>
     <g id="text_13">
      <!-- 8 -->
      <g transform="translate(44.2375 79.832041) scale(0.1 -0.1)">
       <use xlink:href="#DejaVuSans-38"/>
      </g>
     </g>
    </g>
    <g id="text_14">
     <!-- X -->
     <g transform="translate(29.778125 177.953) rotate(-90) scale(0.1 -0.1)">
      <defs>
       <path id="DejaVuSans-58" d="M 403 4666 
L 1081 4666 
L 2241 2931 
L 3406 4666 
L 4084 4666 
L 2584 2425 
L 4184 0 
L 3506 0 
L 2194 1984 
L 872 0 
L 191 0 
L 1856 2491 
L 403 4666 
z
" transform="scale(0.015625)"/>
      </defs>
      <use xlink:href="#DejaVuSans-58"/>
     </g>
    </g>
   </g>
   <g id="line2d_25">
    <path d="M 73.832727 98.497645 
L 77.112066 107.928392 
L 80.391405 118.225608 
L 83.670744 144.337542 
L 86.950083 164.955847 
L 90.229421 195.35483 
L 93.50876 212.855448 
L 96.788099 217.495857 
L 100.067438 224.386137 
L 103.346777 230.534239 
L 106.626116 234.426717 
L 109.905455 229.618141 
L 113.184793 225.819794 
L 116.464132 222.703818 
L 119.743471 215.493955 
L 123.02281 220.623809 
L 126.302149 213.405911 
L 129.581488 206.275123 
L 132.860826 199.928081 
L 136.140165 200.024965 
L 139.419504 199.294968 
L 142.698843 205.817607 
L 145.978182 219.768854 
L 149.257521 219.034565 
L 152.53686 214.875234 
L 155.816198 222.69061 
L 159.095537 232.916084 
L 162.374876 231.704674 
L 165.654215 223.300774 
L 168.933554 215.313145 
L 172.212893 214.32268 
L 175.492231 222.766767 
L 178.77157 221.384499 
L 182.050909 234.679121 
L 185.330248 232.325361 
L 188.609587 238.652796 
L 191.888926 246.875846 
L 195.168264 255.522445 
L 198.447603 245.782072 
L 201.726942 254.704084 
L 205.006281 244.447085 
L 208.28562 233.967454 
L 211.564959 225.389381 
L 214.844298 215.818547 
L 218.123636 225.89583 
L 221.402975 224.153558 
L 224.682314 223.618132 
L 227.961653 227.321768 
L 231.240992 238.056555 
L 234.520331 235.586526 
L 237.799669 242.033298 
L 241.079008 236.708363 
L 244.358347 248.188697 
L 247.637686 249.802414 
L 250.917025 243.90194 
L 254.196364 242.981035 
L 257.475702 233.425263 
L 260.755041 239.514708 
L 264.03438 242.304795 
L 267.313719 247.517418 
L 270.593058 239.717068 
L 273.872397 234.523726 
L 277.151736 230.719529 
L 280.431074 239.081952 
L 283.710413 231.412782 
L 286.989752 229.162782 
L 290.269091 242.612457 
L 293.54843 247.786932 
L 296.827769 257.158849 
L 300.107107 246.226024 
L 303.386446 242.057559 
L 306.665785 237.535217 
L 309.945124 233.250168 
L 313.224463 242.132799 
L 316.503802 235.493738 
L 319.78314 233.616579 
L 323.062479 230.545325 
L 326.341818 220.953089 
L 329.621157 216.517622 
L 332.900496 220.906334 
L 336.179835 219.035707 
L 339.459174 223.560433 
L 342.738512 222.896262 
L 346.017851 233.90382 
L 349.29719 239.025954 
L 352.576529 241.592061 
L 355.855868 249.135911 
L 359.135207 258.683997 
L 362.414545 259.48027 
L 365.693884 253.323983 
L 368.973223 249.684307 
L 372.252562 241.027619 
L 375.531901 233.236253 
L 378.81124 232.588668 
L 382.090579 224.237748 
L 385.369917 227.999438 
L 388.649256 226.574374 
L 391.928595 227.082672 
L 395.207934 222.214929 
L 398.487273 232.947116 
" clip-path="url(#p9a618736c2)" style="fill: none; stroke: #000000; stroke-width: 1.5; stroke-linecap: square"/>
   </g>
   <g id="line2d_26">
    <path d="M 73.832727 98.497645 
L 77.112066 107.928392 
L 80.391405 117.064545 
L 83.670744 139.986915 
L 86.950083 160.934085 
L 90.229421 191.791574 
L 93.50876 210.049441 
L 96.788099 212.360891 
L 100.067438 214.222557 
L 103.346777 215.512757 
L 106.626116 214.03831 
L 109.905455 212.336362 
L 113.184793 213.169084 
L 116.464132 215.274969 
L 119.743471 211.586247 
L 123.02281 219.194828 
L 126.302149 213.964408 
L 129.581488 208.954412 
L 132.860826 203.46412 
L 136.140165 203.922931 
L 139.419504 203.385923 
L 142.698843 209.700591 
L 145.978182 223.283374 
L 149.257521 222.105649 
L 152.53686 217.653217 
L 155.816198 225.32854 
L 159.095537 235.540243 
L 162.374876 234.168413 
L 165.654215 225.432641 
L 168.933554 217.054088 
L 172.212893 215.540729 
L 175.492231 223.521809 
L 178.77157 222.209799 
L 182.050909 235.419717 
L 185.330248 232.759306 
L 188.609587 238.767709 
L 191.888926 246.818728 
L 195.168264 254.961878 
L 198.447603 244.763342 
L 201.726942 253.311622 
L 205.006281 242.78229 
L 208.28562 231.922383 
L 211.564959 222.951863 
L 214.844298 213.12577 
L 218.123636 223.266673 
L 221.402975 221.738659 
L 224.682314 221.393376 
L 227.961653 225.119798 
L 231.240992 235.320562 
L 234.520331 232.755425 
L 237.799669 239.138636 
L 241.079008 233.87872 
L 244.358347 245.604307 
L 247.637686 247.445887 
L 250.917025 241.747846 
L 254.196364 241.15715 
L 257.475702 231.935061 
L 260.755041 238.167525 
L 264.03438 241.044238 
L 267.313719 246.183171 
L 270.593058 238.593941 
L 273.872397 233.635868 
L 277.151736 230.107992 
L 280.431074 238.758238 
L 283.710413 230.793906 
L 286.989752 228.535262 
L 290.269091 241.387595 
L 293.54843 245.925748 
L 296.827769 254.937608 
L 300.107107 244.134898 
L 303.386446 240.677997 
L 306.665785 236.781011 
L 309.945124 233.00075 
L 313.224463 242.394108 
L 316.503802 236.056533 
L 319.78314 234.339838 
L 323.062479 231.344433 
L 326.341818 221.886533 
L 329.621157 217.463443 
L 332.900496 221.841083 
L 336.179835 219.760651 
L 339.459174 223.927862 
L 342.738512 223.145759 
L 346.017851 234.095335 
L 349.29719 239.26527 
L 352.576529 242.413194 
L 355.855868 250.599292 
L 359.135207 260.57019 
L 362.414545 261.903489 
L 365.693884 256.528094 
L 368.973223 252.999348 
L 372.252562 243.867862 
L 375.531901 235.452615 
L 378.81124 234.080313 
L 382.090579 224.352059 
L 385.369917 227.275555 
L 388.649256 225.462884 
L 391.928595 225.670491 
L 395.207934 220.656591 
L 398.487273 231.191296 
" clip-path="url(#p9a618736c2)" style="fill: none; stroke: #ff0000; stroke-width: 1.5; stroke-linecap: square"/>
   </g>
   <g id="line2d_27">
    <path d="M 73.832727 53.568 
L 77.112066 90.01888 
L 80.391405 123.71046 
L 83.670744 148.55649 
L 86.950083 148.80384 
L 90.229421 140.406386 
L 93.50876 156.192576 
L 96.788099 170.006454 
L 100.067438 179.762864 
L 103.346777 178.09517 
L 106.626116 193.467169 
L 109.905455 197.877698 
L 113.184793 210.626186 
L 116.464132 224.668159 
L 119.743471 231.340779 
L 123.02281 234.528382 
L 126.302149 230.413338 
L 129.581488 239.671897 
L 132.860826 241.671237 
L 136.140165 237.293727 
L 139.419504 245.003307 
L 142.698843 247.64815 
L 145.978182 249.09079 
L 149.257521 258.774726 
L 152.53686 264.356872 
L 155.816198 270.908939 
L 159.095537 272.227468 
L 162.374876 265.446501 
L 165.654215 262.199725 
L 168.933554 263.624285 
L 172.212893 262.812929 
L 175.492231 251.054399 
L 178.77157 254.344041 
L 182.050909 261.244873 
L 185.330248 264.117939 
L 188.609587 259.27929 
L 191.888926 268.862586 
L 195.168264 278.628969 
L 198.447603 284.473412 
L 201.726942 290.990782 
L 205.006281 283.737375 
L 208.28562 275.916164 
L 211.564959 282.624066 
L 214.844298 266.99661 
L 218.123636 260.230241 
L 221.402975 249.889038 
L 224.682314 251.317327 
L 227.961653 244.059106 
L 231.240992 249.393451 
L 234.520331 243.310903 
L 237.799669 234.705595 
L 241.079008 240.755266 
L 244.358347 250.961388 
L 247.637686 244.750414 
L 250.917025 240.190911 
L 254.196364 244.385503 
L 257.475702 256.431341 
L 260.755041 259.494214 
L 264.03438 262.663783 
L 267.313719 252.624211 
L 270.593058 251.424568 
L 273.872397 250.256469 
L 277.151736 249.621206 
L 280.431074 257.139963 
L 283.710413 253.367287 
L 286.989752 260.218666 
L 290.269091 261.118911 
L 293.54843 259.908967 
L 296.827769 254.319705 
L 300.107107 244.933104 
L 303.386446 243.574632 
L 306.665785 235.620177 
L 309.945124 231.383746 
L 313.224463 239.885428 
L 316.503802 242.777037 
L 319.78314 245.993255 
L 323.062479 239.387072 
L 326.341818 248.871751 
L 329.621157 250.078302 
L 332.900496 262.290131 
L 336.179835 269.934881 
L 339.459174 256.764718 
L 342.738512 254.563732 
L 346.017851 252.237731 
L 349.29719 243.620361 
L 352.576529 242.068675 
L 355.855868 244.472187 
L 359.135207 241.790125 
L 362.414545 235.990233 
L 365.693884 246.721372 
L 368.973223 254.990165 
L 372.252562 257.415073 
L 375.531901 258.568846 
L 378.81124 268.761901 
L 382.090579 265.715418 
L 385.369917 261.339685 
L 388.649256 263.256668 
L 391.928595 263.163386 
L 395.207934 272.132277 
L 398.487273 260.430776 
" clip-path="url(#p9a618736c2)" style="fill: none; stroke-dasharray: 5.55,2.4; stroke-dashoffset: 0; stroke: #000000; stroke-width: 1.5"/>
   </g>
   <g id="line2d_28">
    <path d="M 73.832727 53.568 
L 77.112066 86.726179 
L 80.391405 117.873675 
L 83.670744 142.887317 
L 86.950083 147.103396 
L 90.229421 144.609354 
L 93.50876 165.843071 
L 96.788099 185.614034 
L 100.067438 203.165847 
L 103.346777 213.580725 
L 106.626116 241.973532 
L 109.905455 256.633884 
L 113.184793 262.178421 
L 116.464132 266.619053 
L 119.743471 264.071816 
L 123.02281 259.375611 
L 126.302149 249.067166 
L 129.581488 252.995252 
L 132.860826 249.527828 
L 136.140165 241.992211 
L 139.419504 247.282436 
L 142.698843 247.907256 
L 145.978182 247.803672 
L 149.257521 256.198839 
L 152.53686 261.791628 
L 155.816198 268.452089 
L 159.095537 271.330729 
L 162.374876 266.560174 
L 165.654215 265.219971 
L 168.933554 268.219232 
L 172.212893 267.643084 
L 175.492231 256.023091 
L 178.77157 259.500453 
L 182.050909 265.419924 
L 185.330248 267.741408 
L 188.609587 263.390724 
L 191.888926 273.485915 
L 195.168264 282.341479 
L 198.447603 288.13465 
L 201.726942 295.488 
L 205.006281 287.900214 
L 208.28562 280.31134 
L 211.564959 286.322302 
L 214.844298 269.238443 
L 218.123636 261.599312 
L 221.402975 249.078935 
L 224.682314 248.07507 
L 227.961653 237.685318 
L 231.240992 244.847551 
L 234.520331 240.282417 
L 237.799669 233.084441 
L 241.079008 240.442097 
L 244.358347 250.392419 
L 247.637686 244.413741 
L 250.917025 241.146885 
L 254.196364 245.982241 
L 257.475702 258.118278 
L 260.755041 261.089321 
L 264.03438 265.827859 
L 267.313719 257.574583 
L 270.593058 258.204606 
L 273.872397 257.877255 
L 277.151736 257.73455 
L 280.431074 265.56858 
L 283.710413 262.201462 
L 286.989752 269.867369 
L 290.269091 271.076191 
L 293.54843 268.630582 
L 296.827769 262.113797 
L 300.107107 252.059468 
L 303.386446 249.241537 
L 306.665785 238.862889 
L 309.945124 234.888971 
L 313.224463 242.684522 
L 316.503802 244.875994 
L 319.78314 247.777574 
L 323.062479 241.145577 
L 326.341818 250.59436 
L 329.621157 251.683142 
L 332.900496 264.373871 
L 336.179835 272.510274 
L 339.459174 261.161538 
L 342.738512 260.454041 
L 346.017851 259.386279 
L 349.29719 251.419767 
L 352.576529 250.441497 
L 355.855868 252.600484 
L 359.135207 249.914608 
L 362.414545 244.481021 
L 365.693884 255.251139 
L 368.973223 262.890951 
L 372.252562 265.747958 
L 375.531901 267.862636 
L 378.81124 278.896998 
L 382.090579 273.869306 
L 385.369917 268.215921 
L 388.649256 268.667992 
L 391.928595 267.238844 
L 395.207934 275.025063 
L 398.487273 262.257524 
" clip-path="url(#p9a618736c2)" style="fill: none; stroke-dasharray: 5.55,2.4; stroke-dashoffset: 0; stroke: #ff0000; stroke-width: 1.5"/>
   </g>
   <g id="patch_3">
    <path d="M 57.6 307.584 
L 57.6 41.472 
" style="fill: none; stroke: #000000; stroke-width: 0.8; stroke-linejoin: miter; stroke-linecap: square"/>
   </g>
   <g id="patch_4">
    <path d="M 414.72 307.584 
L 414.72 41.472 
" style="fill: none; stroke: #000000; stroke-width: 0.8; stroke-linejoin: miter; stroke-linecap: square"/>
   </g>
   <g id="patch_5">
    <path d="M 57.6 307.584 
L 414.72 307.584 
" style="fill: none; stroke: #000000; stroke-width: 0.8; stroke-linejoin: miter; stroke-linecap: square"/>
   </g>
   <g id="patch_6">
    <path d="M 57.6 41.472 
L 414.72 41.472 
" style="fill: none; stroke: #000000; stroke-width: 0.8; stroke-linejoin: miter; stroke-linecap: square"/>
   </g>
   <g id="legend_1">
    <g id="patch_7">
     <path d="M 392.72 67.472 
L 400.72 67.472 
Q 404.72 67.472 404.72 63.472 
L 404.72 55.472 
Q 404.72 51.472 400.72 51.472 
L 392.72 51.472 
Q 388.72 51.472 388.72 55.472 
L 388.72 63.472 
Q 388.72 67.472 392.72 67.472 
z
" style="fill: #ffffff; opacity: 0.8; stroke: #cccccc; stroke-linejoin: miter"/>
    </g>
   </g>
  </g>
 </g>
 <defs>
  <clipPath id="p9a618736c2">
   <rect x="57.6" y="41.472" width="357.12" height="266.112"/>
  </clipPath>
 </defs>
</svg>
