<?xml version="1.0" encoding="utf-8" standalone="no"?>
<!DOCTYPE svg PUBLIC "-//W3C//DTD SVG 1.1//EN"
  "http://www.w3.org/Graphics/SVG/1.1/DTD/svg11.dtd">
<svg xmlns:xlink="http://www.w3.org/1999/xlink" width="460.8pt" height="345.6pt" viewBox="0 0 460.8 345.6" xmlns="http://www.w3.org/2000/svg" version="1.1">
 <metadata>
  <rdf:RDF xmlns:dc="http://purl.org/dc/elements/1.1/" xmlns:cc="http://creativecommons.org/ns#" xmlns:rdf="http://www.w3.org/1999/02/22-rdf-syntax-ns#">
   <cc:Work>
    <dc:type rdf:resource="http://purl.org/dc/dcmitype/StillImage"/>
    <dc:date>2024-06-02T21:50:04.479443</dc:date>
    <dc:format>image/svg+xml</dc:format>
    <dc:creator>
     <cc:Agent>
      <dc:title>Matplotlib v3.7.1, https://matplotlib.org/</dc:title>
     </cc:Agent>
    </dc:creator>
   </cc:Work>
  </rdf:RDF>
 </metadata>
 <defs>
  <style type="text/css">*{stroke-linejoin: round; stroke-linecap: butt}</style>
 </defs>
 <g id="figure_1">
  <g id="patch_1">
   <path d="M 0 345.6 
L 460.8 345.6 
L 460.8 0 
L 0 0 
z
" style="fill: #ffffff"/>
  </g>
  <g id="axes_1">
   <g id="patch_2">
    <path d="M 57.6 307.584 
L 414.72 307.584 
L 414.72 41.472 
L 57.6 41.472 
z
" style="fill: #ffffff"/>
   </g>
   <g id="matplotlib.axis_1">
    <g id="xtick_1">
     <g id="line2d_1">
      <path d="M 73.832727 307.584 
L 73.832727 41.472 
" clip-path="url(#p8dfa9bfb62)" style="fill: none; stroke: #b0b0b0; stroke-width: 0.8; stroke-linecap: square"/>
     </g>
     <g id="line2d_2">
      <defs>
       <path id="m7aeea303d1" d="M 0 0 
L 0 3.5 
" style="stroke: #000000; stroke-width: 0.8"/>
      </defs>
      <g>
       <use xlink:href="#m7aeea303d1" x="73.832727" y="307.584" style="stroke: #000000; stroke-width: 0.8"/>
      </g>
     </g>
     <g id="text_1">
      <!-- 0 -->
      <g transform="translate(70.651477 322.182437) scale(0.1 -0.1)">
       <defs>
        <path id="DejaVuSans-30" d="M 2034 4250 
Q 1547 4250 1301 3770 
Q 1056 3291 1056 2328 
Q 1056 1369 1301 889 
Q 1547 409 2034 409 
Q 2525 409 2770 889 
Q 3016 1369 3016 2328 
Q 3016 3291 2770 3770 
Q 2525 4250 2034 4250 
z
M 2034 4750 
Q 2819 4750 3233 4129 
Q 3647 3509 3647 2328 
Q 3647 1150 3233 529 
Q 2819 -91 2034 -91 
Q 1250 -91 836 529 
Q 422 1150 422 2328 
Q 422 3509 836 4129 
Q 1250 4750 2034 4750 
z
" transform="scale(0.015625)"/>
       </defs>
       <use xlink:href="#DejaVuSans-30"/>
      </g>
     </g>
    </g>
    <g id="xtick_2">
     <g id="line2d_3">
      <path d="M 139.419504 307.584 
L 139.419504 41.472 
" clip-path="url(#p8dfa9bfb62)" style="fill: none; stroke: #b0b0b0; stroke-width: 0.8; stroke-linecap: square"/>
     </g>
     <g id="line2d_4">
      <g>
       <use xlink:href="#m7aeea303d1" x="139.419504" y="307.584" style="stroke: #000000; stroke-width: 0.8"/>
      </g>
     </g>
     <g id="text_2">
      <!-- 20 -->
      <g transform="translate(133.057004 322.182437) scale(0.1 -0.1)">
       <defs>
        <path id="DejaVuSans-32" d="M 1228 531 
L 3431 531 
L 3431 0 
L 469 0 
L 469 531 
Q 828 903 1448 1529 
Q 2069 2156 2228 2338 
Q 2531 2678 2651 2914 
Q 2772 3150 2772 3378 
Q 2772 3750 2511 3984 
Q 2250 4219 1831 4219 
Q 1534 4219 1204 4116 
Q 875 4013 500 3803 
L 500 4441 
Q 881 4594 1212 4672 
Q 1544 4750 1819 4750 
Q 2544 4750 2975 4387 
Q 3406 4025 3406 3419 
Q 3406 3131 3298 2873 
Q 3191 2616 2906 2266 
Q 2828 2175 2409 1742 
Q 1991 1309 1228 531 
z
" transform="scale(0.015625)"/>
       </defs>
       <use xlink:href="#DejaVuSans-32"/>
       <use xlink:href="#DejaVuSans-30" x="63.623047"/>
      </g>
     </g>
    </g>
    <g id="xtick_3">
     <g id="line2d_5">
      <path d="M 205.006281 307.584 
L 205.006281 41.472 
" clip-path="url(#p8dfa9bfb62)" style="fill: none; stroke: #b0b0b0; stroke-width: 0.8; stroke-linecap: square"/>
     </g>
     <g id="line2d_6">
      <g>
       <use xlink:href="#m7aeea303d1" x="205.006281" y="307.584" style="stroke: #000000; stroke-width: 0.8"/>
      </g>
     </g>
     <g id="text_3">
      <!-- 40 -->
      <g transform="translate(198.643781 322.182437) scale(0.1 -0.1)">
       <defs>
        <path id="DejaVuSans-34" d="M 2419 4116 
L 825 1625 
L 2419 1625 
L 2419 4116 
z
M 2253 4666 
L 3047 4666 
L 3047 1625 
L 3713 1625 
L 3713 1100 
L 3047 1100 
L 3047 0 
L 2419 0 
L 2419 1100 
L 313 1100 
L 313 1709 
L 2253 4666 
z
" transform="scale(0.015625)"/>
       </defs>
       <use xlink:href="#DejaVuSans-34"/>
       <use xlink:href="#DejaVuSans-30" x="63.623047"/>
      </g>
     </g>
    </g>
    <g id="xtick_4">
     <g id="line2d_7">
      <path d="M 270.593058 307.584 
L 270.593058 41.472 
" clip-path="url(#p8dfa9bfb62)" style="fill: none; stroke: #b0b0b0; stroke-width: 0.8; stroke-linecap: square"/>
     </g>
     <g id="line2d_8">
      <g>
       <use xlink:href="#m7aeea303d1" x="270.593058" y="307.584" style="stroke: #000000; stroke-width: 0.8"/>
      </g>
     </g>
     <g id="text_4">
      <!-- 60 -->
      <g transform="translate(264.230558 322.182437) scale(0.1 -0.1)">
       <defs>
        <path id="DejaVuSans-36" d="M 2113 2584 
Q 1688 2584 1439 2293 
Q 1191 2003 1191 1497 
Q 1191 994 1439 701 
Q 1688 409 2113 409 
Q 2538 409 2786 701 
Q 3034 994 3034 1497 
Q 3034 2003 2786 2293 
Q 2538 2584 2113 2584 
z
M 3366 4563 
L 3366 3988 
Q 3128 4100 2886 4159 
Q 2644 4219 2406 4219 
Q 1781 4219 1451 3797 
Q 1122 3375 1075 2522 
Q 1259 2794 1537 2939 
Q 1816 3084 2150 3084 
Q 2853 3084 3261 2657 
Q 3669 2231 3669 1497 
Q 3669 778 3244 343 
Q 2819 -91 2113 -91 
Q 1303 -91 875 529 
Q 447 1150 447 2328 
Q 447 3434 972 4092 
Q 1497 4750 2381 4750 
Q 2619 4750 2861 4703 
Q 3103 4656 3366 4563 
z
" transform="scale(0.015625)"/>
       </defs>
       <use xlink:href="#DejaVuSans-36"/>
       <use xlink:href="#DejaVuSans-30" x="63.623047"/>
      </g>
     </g>
    </g>
    <g id="xtick_5">
     <g id="line2d_9">
      <path d="M 336.179835 307.584 
L 336.179835 41.472 
" clip-path="url(#p8dfa9bfb62)" style="fill: none; stroke: #b0b0b0; stroke-width: 0.8; stroke-linecap: square"/>
     </g>
     <g id="line2d_10">
      <g>
       <use xlink:href="#m7aeea303d1" x="336.179835" y="307.584" style="stroke: #000000; stroke-width: 0.8"/>
      </g>
     </g>
     <g id="text_5">
      <!-- 80 -->
      <g transform="translate(329.817335 322.182437) scale(0.1 -0.1)">
       <defs>
        <path id="DejaVuSans-38" d="M 2034 2216 
Q 1584 2216 1326 1975 
Q 1069 1734 1069 1313 
Q 1069 891 1326 650 
Q 1584 409 2034 409 
Q 2484 409 2743 651 
Q 3003 894 3003 1313 
Q 3003 1734 2745 1975 
Q 2488 2216 2034 2216 
z
M 1403 2484 
Q 997 2584 770 2862 
Q 544 3141 544 3541 
Q 544 4100 942 4425 
Q 1341 4750 2034 4750 
Q 2731 4750 3128 4425 
Q 3525 4100 3525 3541 
Q 3525 3141 3298 2862 
Q 3072 2584 2669 2484 
Q 3125 2378 3379 2068 
Q 3634 1759 3634 1313 
Q 3634 634 3220 271 
Q 2806 -91 2034 -91 
Q 1263 -91 848 271 
Q 434 634 434 1313 
Q 434 1759 690 2068 
Q 947 2378 1403 2484 
z
M 1172 3481 
Q 1172 3119 1398 2916 
Q 1625 2713 2034 2713 
Q 2441 2713 2670 2916 
Q 2900 3119 2900 3481 
Q 2900 3844 2670 4047 
Q 2441 4250 2034 4250 
Q 1625 4250 1398 4047 
Q 1172 3844 1172 3481 
z
" transform="scale(0.015625)"/>
       </defs>
       <use xlink:href="#DejaVuSans-38"/>
       <use xlink:href="#DejaVuSans-30" x="63.623047"/>
      </g>
     </g>
    </g>
    <g id="xtick_6">
     <g id="line2d_11">
      <path d="M 401.766612 307.584 
L 401.766612 41.472 
" clip-path="url(#p8dfa9bfb62)" style="fill: none; stroke: #b0b0b0; stroke-width: 0.8; stroke-linecap: square"/>
     </g>
     <g id="line2d_12">
      <g>
       <use xlink:href="#m7aeea303d1" x="401.766612" y="307.584" style="stroke: #000000; stroke-width: 0.8"/>
      </g>
     </g>
     <g id="text_6">
      <!-- 100 -->
      <g transform="translate(392.222862 322.182437) scale(0.1 -0.1)">
       <defs>
        <path id="DejaVuSans-31" d="M 794 531 
L 1825 531 
L 1825 4091 
L 703 3866 
L 703 4441 
L 1819 4666 
L 2450 4666 
L 2450 531 
L 3481 531 
L 3481 0 
L 794 0 
L 794 531 
z
" transform="scale(0.015625)"/>
       </defs>
       <use xlink:href="#DejaVuSans-31"/>
       <use xlink:href="#DejaVuSans-30" x="63.623047"/>
       <use xlink:href="#DejaVuSans-30" x="127.246094"/>
      </g>
     </g>
    </g>
    <g id="text_7">
     <!-- T -->
     <g transform="translate(233.106094 335.860562) scale(0.1 -0.1)">
      <defs>
       <path id="DejaVuSans-54" d="M -19 4666 
L 3928 4666 
L 3928 4134 
L 2272 4134 
L 2272 0 
L 1638 0 
L 1638 4134 
L -19 4134 
L -19 4666 
z
" transform="scale(0.015625)"/>
      </defs>
      <use xlink:href="#DejaVuSans-54"/>
     </g>
    </g>
   </g>
   <g id="matplotlib.axis_2">
    <g id="ytick_1">
     <g id="line2d_13">
      <path d="M 57.6 271.717055 
L 414.72 271.717055 
" clip-path="url(#p8dfa9bfb62)" style="fill: none; stroke: #b0b0b0; stroke-width: 0.8; stroke-linecap: square"/>
     </g>
     <g id="line2d_14">
      <defs>
       <path id="m79cb5c7902" d="M 0 0 
L -3.5 0 
" style="stroke: #000000; stroke-width: 0.8"/>
      </defs>
      <g>
       <use xlink:href="#m79cb5c7902" x="57.6" y="271.717055" style="stroke: #000000; stroke-width: 0.8"/>
      </g>
     </g>
     <g id="text_8">
      <!-- 0 -->
      <g transform="translate(44.2375 275.516274) scale(0.1 -0.1)">
       <use xlink:href="#DejaVuSans-30"/>
      </g>
     </g>
    </g>
    <g id="ytick_2">
     <g id="line2d_15">
      <path d="M 57.6 223.239487 
L 414.72 223.239487 
" clip-path="url(#p8dfa9bfb62)" style="fill: none; stroke: #b0b0b0; stroke-width: 0.8; stroke-linecap: square"/>
     </g>
     <g id="line2d_16">
      <g>
       <use xlink:href="#m79cb5c7902" x="57.6" y="223.239487" style="stroke: #000000; stroke-width: 0.8"/>
      </g>
     </g>
     <g id="text_9">
      <!-- 2 -->
      <g transform="translate(44.2375 227.038706) scale(0.1 -0.1)">
       <use xlink:href="#DejaVuSans-32"/>
      </g>
     </g>
    </g>
    <g id="ytick_3">
     <g id="line2d_17">
      <path d="M 57.6 174.761919 
L 414.72 174.761919 
" clip-path="url(#p8dfa9bfb62)" style="fill: none; stroke: #b0b0b0; stroke-width: 0.8; stroke-linecap: square"/>
     </g>
     <g id="line2d_18">
      <g>
       <use xlink:href="#m79cb5c7902" x="57.6" y="174.761919" style="stroke: #000000; stroke-width: 0.8"/>
      </g>
     </g>
     <g id="text_10">
      <!-- 4 -->
      <g transform="translate(44.2375 178.561138) scale(0.1 -0.1)">
       <use xlink:href="#DejaVuSans-34"/>
      </g>
     </g>
    </g>
    <g id="ytick_4">
     <g id="line2d_19">
      <path d="M 57.6 126.284352 
L 414.72 126.284352 
" clip-path="url(#p8dfa9bfb62)" style="fill: none; stroke: #b0b0b0; stroke-width: 0.8; stroke-linecap: square"/>
     </g>
     <g id="line2d_20">
      <g>
       <use xlink:href="#m79cb5c7902" x="57.6" y="126.284352" style="stroke: #000000; stroke-width: 0.8"/>
      </g>
     </g>
     <g id="text_11">
      <!-- 6 -->
      <g transform="translate(44.2375 130.08357) scale(0.1 -0.1)">
       <use xlink:href="#DejaVuSans-36"/>
      </g>
     </g>
    </g>
    <g id="ytick_5">
     <g id="line2d_21">
      <path d="M 57.6 77.806784 
L 414.72 77.806784 
" clip-path="url(#p8dfa9bfb62)" style="fill: none; stroke: #b0b0b0; stroke-width: 0.8; stroke-linecap: square"/>
     </g>
     <g id="line2d_22">
      <g>
       <use xlink:href="#m79cb5c7902" x="57.6" y="77.806784" style="stroke: #000000; stroke-width: 0.8"/>
      </g>
     </g>
     <g id="text_12">
      <!-- 8 -->
      <g transform="translate(44.2375 81.606003) scale(0.1 -0.1)">
       <use xlink:href="#DejaVuSans-38"/>
      </g>
     </g>
    </g>
    <g id="text_13">
     <!-- X -->
     <g transform="translate(38.157812 177.953) rotate(-90) scale(0.1 -0.1)">
      <defs>
       <path id="DejaVuSans-58" d="M 403 4666 
L 1081 4666 
L 2241 2931 
L 3406 4666 
L 4084 4666 
L 2584 2425 
L 4184 0 
L 3506 0 
L 2194 1984 
L 872 0 
L 191 0 
L 1856 2491 
L 403 4666 
z
" transform="scale(0.015625)"/>
      </defs>
      <use xlink:href="#DejaVuSans-58"/>
     </g>
    </g>
   </g>
   <g id="line2d_23">
    <path d="M 73.832727 102.045568 
L 77.112066 100.22894 
L 80.391405 97.431289 
L 83.670744 121.410968 
L 86.950083 151.480277 
L 90.229421 171.664524 
L 93.50876 200.372555 
L 96.788099 226.675847 
L 100.067438 232.016867 
L 103.346777 237.620747 
L 106.626116 241.668483 
L 109.905455 259.643465 
L 113.184793 260.165347 
L 116.464132 268.168289 
L 119.743471 262.735056 
L 123.02281 258.194478 
L 126.302149 262.732351 
L 129.581488 258.833975 
L 132.860826 249.463974 
L 136.140165 238.421592 
L 139.419504 231.351336 
L 142.698843 224.256601 
L 145.978182 231.090128 
L 149.257521 225.606991 
L 152.53686 227.293817 
L 155.816198 233.219223 
L 159.095537 225.629729 
L 162.374876 219.098298 
L 165.654215 222.603209 
L 168.933554 230.198546 
L 172.212893 225.046563 
L 175.492231 233.574555 
L 178.77157 228.511139 
L 182.050909 228.523558 
L 185.330248 234.104193 
L 188.609587 231.092767 
L 191.888926 233.398376 
L 195.168264 242.22642 
L 198.447603 256.14803 
L 201.726942 253.079232 
L 205.006281 260.304926 
L 208.28562 262.797585 
L 211.564959 270.158142 
L 214.844298 260.906287 
L 218.123636 249.123459 
L 221.402975 256.977035 
L 224.682314 252.220642 
L 227.961653 256.842182 
L 231.240992 259.70416 
L 234.520331 270.595178 
L 237.799669 263.980541 
L 241.079008 260.221446 
L 244.358347 256.868707 
L 247.637686 258.349312 
L 250.917025 266.086532 
L 254.196364 268.284999 
L 257.475702 273.864912 
L 260.755041 268.607122 
L 264.03438 272.771173 
L 267.313719 260.984421 
L 270.593058 263.756185 
L 273.872397 269.840516 
L 277.151736 274.981412 
L 280.431074 270.160742 
L 283.710413 267.199595 
L 286.989752 263.025399 
L 290.269091 269.31127 
L 293.54843 278.591222 
L 296.827769 270.843797 
L 300.107107 267.387836 
L 303.386446 263.227569 
L 306.665785 268.502871 
L 309.945124 259.169148 
L 313.224463 251.264565 
L 316.503802 260.58543 
L 319.78314 270.111861 
L 323.062479 275.007357 
L 326.341818 283.849649 
L 329.621157 277.692978 
L 332.900496 275.921316 
L 336.179835 271.615221 
L 339.459174 271.796542 
L 342.738512 283.484648 
L 346.017851 292.604766 
L 349.29719 294.477274 
L 352.576529 283.567424 
L 355.855868 280.201675 
L 359.135207 287.494477 
L 362.414545 273.041437 
L 365.693884 272.235281 
L 368.973223 274.755526 
L 372.252562 267.86145 
L 375.531901 275.683684 
L 378.81124 278.144038 
L 382.090579 274.774954 
L 385.369917 271.93188 
L 388.649256 266.488642 
L 391.928595 269.372349 
L 395.207934 266.575513 
L 398.487273 279.060203 
" clip-path="url(#p8dfa9bfb62)" style="fill: none; stroke: #000000; stroke-width: 1.5; stroke-linecap: square"/>
   </g>
   <g id="line2d_24">
    <path d="M 73.832727 102.045568 
L 77.112066 100.22894 
L 80.391405 96.911684 
L 83.670744 117.694847 
L 86.950083 145.623166 
L 90.229421 166.900671 
L 93.50876 196.031608 
L 96.788099 222.029597 
L 100.067438 224.192413 
L 103.346777 224.521844 
L 106.626116 219.951325 
L 109.905455 228.821448 
L 113.184793 225.613272 
L 116.464132 231.286139 
L 119.743471 230.302757 
L 123.02281 232.356813 
L 126.302149 243.287218 
L 129.581488 243.277338 
L 132.860826 235.874424 
L 136.140165 228.74041 
L 139.419504 225.947896 
L 142.698843 222.323084 
L 145.978182 230.686251 
L 149.257521 225.319155 
L 152.53686 226.353782 
L 155.816198 231.721451 
L 159.095537 223.951144 
L 162.374876 217.608799 
L 165.654215 221.642011 
L 168.933554 229.28623 
L 172.212893 224.16263 
L 175.492231 232.777492 
L 178.77157 227.783835 
L 182.050909 227.848888 
L 185.330248 233.485868 
L 188.609587 230.512813 
L 191.888926 232.730453 
L 195.168264 241.717255 
L 198.447603 255.865369 
L 201.726942 253.030471 
L 205.006281 260.248193 
L 208.28562 262.524721 
L 211.564959 269.367794 
L 214.844298 259.489483 
L 218.123636 247.215884 
L 221.402975 254.794138 
L 224.682314 249.920873 
L 227.961653 254.599369 
L 231.240992 257.678757 
L 234.520331 268.751809 
L 237.799669 262.136997 
L 241.079008 258.172691 
L 244.358347 254.957906 
L 247.637686 255.548235 
L 250.917025 262.52552 
L 254.196364 264.23792 
L 257.475702 269.35834 
L 260.755041 264.032445 
L 264.03438 268.456068 
L 267.313719 257.157167 
L 270.593058 260.407151 
L 273.872397 266.685264 
L 277.151736 272.122049 
L 280.431074 267.626714 
L 283.710413 265.046423 
L 286.989752 261.16979 
L 290.269091 267.583182 
L 293.54843 276.975059 
L 296.827769 269.499803 
L 300.107107 266.216602 
L 303.386446 262.077088 
L 306.665785 267.397704 
L 309.945124 258.58446 
L 313.224463 250.681782 
L 316.503802 260.009361 
L 319.78314 270.000745 
L 323.062479 275.760727 
L 326.341818 284.917272 
L 329.621157 279.168758 
L 332.900496 277.647643 
L 336.179835 273.297065 
L 339.459174 273.60524 
L 342.738512 284.750686 
L 346.017851 293.514917 
L 349.29719 295.328262 
L 352.576529 283.878958 
L 355.855868 280.698729 
L 359.135207 287.851042 
L 362.414545 274.729937 
L 365.693884 274.106795 
L 368.973223 277.952328 
L 372.252562 270.09865 
L 375.531901 278.093166 
L 378.81124 282.119463 
L 382.090579 278.559196 
L 385.369917 273.541345 
L 388.649256 265.50314 
L 391.928595 266.316907 
L 395.207934 261.98866 
L 398.487273 273.672832 
" clip-path="url(#p8dfa9bfb62)" style="fill: none; stroke: #ff0000; stroke-width: 1.5; stroke-linecap: square"/>
   </g>
   <g id="line2d_25">
    <path d="M 73.832727 53.568 
L 77.112066 85.793583 
L 80.391405 135.744309 
L 83.670744 138.237037 
L 86.950083 138.017962 
L 90.229421 151.735674 
L 93.50876 153.159546 
L 96.788099 162.685269 
L 100.067438 162.04188 
L 103.346777 173.016137 
L 106.626116 176.644089 
L 109.905455 186.250851 
L 113.184793 185.034881 
L 116.464132 200.031483 
L 119.743471 213.926589 
L 123.02281 226.200582 
L 126.302149 240.954359 
L 129.581488 251.063871 
L 132.860826 244.143705 
L 136.140165 238.03509 
L 139.419504 238.501758 
L 142.698843 253.95178 
L 145.978182 266.343587 
L 149.257521 281.242203 
L 152.53686 288.190294 
L 155.816198 278.399283 
L 159.095537 269.929935 
L 162.374876 259.936339 
L 165.654215 272.057879 
L 168.933554 275.881505 
L 172.212893 274.93977 
L 175.492231 281.79122 
L 178.77157 290.222256 
L 182.050909 280.904386 
L 185.330248 273.859632 
L 188.609587 277.774138 
L 191.888926 266.811324 
L 195.168264 259.00076 
L 198.447603 249.593697 
L 201.726942 259.946102 
L 205.006281 263.491917 
L 208.28562 253.198625 
L 211.564959 247.883536 
L 214.844298 251.506453 
L 218.123636 260.96207 
L 221.402975 263.139502 
L 224.682314 264.2533 
L 227.961653 271.795401 
L 231.240992 275.337875 
L 234.520331 278.893256 
L 237.799669 278.922428 
L 241.079008 269.725744 
L 244.358347 281.096194 
L 247.637686 286.745897 
L 250.917025 285.167436 
L 254.196364 287.231076 
L 257.475702 279.677171 
L 260.755041 273.559707 
L 264.03438 268.926767 
L 267.313719 268.059025 
L 270.593058 279.323678 
L 273.872397 280.110497 
L 277.151736 284.539577 
L 280.431074 288.225947 
L 283.710413 280.538691 
L 286.989752 268.157994 
L 290.269091 269.664271 
L 293.54843 278.522805 
L 296.827769 276.464614 
L 300.107107 274.00814 
L 303.386446 275.13926 
L 306.665785 283.402928 
L 309.945124 276.581175 
L 313.224463 276.540989 
L 316.503802 283.099094 
L 319.78314 289.704566 
L 323.062479 282.787159 
L 326.341818 284.516056 
L 329.621157 282.902604 
L 332.900496 279.764589 
L 336.179835 281.81511 
L 339.459174 275.098821 
L 342.738512 276.850268 
L 346.017851 280.298819 
L 349.29719 277.571819 
L 352.576529 283.657235 
L 355.855868 282.315079 
L 359.135207 292.227743 
L 362.414545 286.176009 
L 365.693884 293.346446 
L 368.973223 280.124594 
L 372.252562 286.176589 
L 375.531901 295.488 
L 378.81124 285.336737 
L 382.090579 272.666692 
L 385.369917 262.391207 
L 388.649256 263.363906 
L 391.928595 265.938262 
L 395.207934 270.455248 
L 398.487273 271.352547 
" clip-path="url(#p8dfa9bfb62)" style="fill: none; stroke-dasharray: 5.55,2.4; stroke-dashoffset: 0; stroke: #000000; stroke-width: 1.5"/>
   </g>
   <g id="line2d_26">
    <path d="M 73.832727 53.568 
L 77.112066 82.240871 
L 80.391405 128.78991 
L 83.670744 132.131099 
L 86.950083 139.521941 
L 90.229421 156.94668 
L 93.50876 162.403516 
L 96.788099 176.289521 
L 100.067438 182.7781 
L 103.346777 202.448028 
L 106.626116 217.35934 
L 109.905455 240.427125 
L 113.184793 251.253079 
L 116.464132 280.096598 
L 119.743471 283.879703 
L 123.02281 284.876141 
L 126.302149 290.382548 
L 129.581488 291.629009 
L 132.860826 278.299955 
L 136.140165 266.935368 
L 139.419504 262.056403 
L 142.698843 272.403618 
L 145.978182 277.894428 
L 149.257521 288.752178 
L 152.53686 293.555575 
L 155.816198 283.582048 
L 159.095537 274.885052 
L 162.374876 264.550323 
L 165.654215 276.430497 
L 168.933554 277.838878 
L 172.212893 275.029864 
L 175.492231 281.932621 
L 178.77157 290.390223 
L 182.050909 281.078068 
L 185.330248 275.492133 
L 188.609587 280.657909 
L 191.888926 269.084285 
L 195.168264 260.80682 
L 198.447603 251.109564 
L 201.726942 259.814202 
L 205.006281 260.818684 
L 208.28562 249.124329 
L 211.564959 242.762476 
L 214.844298 246.890832 
L 218.123636 256.470922 
L 221.402975 259.363796 
L 224.682314 261.98981 
L 227.961653 271.210341 
L 231.240992 276.215462 
L 234.520331 281.97683 
L 237.799669 284.556004 
L 241.079008 278.092972 
L 244.358347 292.014978 
L 247.637686 295.320525 
L 250.917025 292.662745 
L 254.196364 294.384676 
L 257.475702 286.339249 
L 260.755041 279.935154 
L 264.03438 274.438588 
L 267.313719 272.303367 
L 270.593058 281.663677 
L 273.872397 280.444794 
L 277.151736 284.087056 
L 280.431074 287.031588 
L 283.710413 279.044909 
L 286.989752 266.839309 
L 290.269091 267.871165 
L 293.54843 274.978326 
L 296.827769 271.153293 
L 300.107107 267.957528 
L 303.386446 268.245868 
L 306.665785 275.552162 
L 309.945124 267.711771 
L 313.224463 267.860044 
L 316.503802 274.19583 
L 319.78314 280.22707 
L 323.062479 273.050606 
L 326.341818 275.0014 
L 329.621157 272.600947 
L 332.900496 269.045063 
L 336.179835 270.553829 
L 339.459174 263.181715 
L 342.738512 264.419612 
L 346.017851 266.120063 
L 349.29719 261.228465 
L 352.576529 265.194611 
L 355.855868 262.373156 
L 359.135207 271.332051 
L 362.414545 263.792244 
L 365.693884 271.385319 
L 368.973223 258.10673 
L 372.252562 264.426223 
L 375.531901 273.385511 
L 378.81124 262.925424 
L 382.090579 250.451956 
L 385.369917 242.594861 
L 388.649256 245.0987 
L 391.928595 248.706294 
L 395.207934 254.375593 
L 398.487273 256.916677 
" clip-path="url(#p8dfa9bfb62)" style="fill: none; stroke-dasharray: 5.55,2.4; stroke-dashoffset: 0; stroke: #ff0000; stroke-width: 1.5"/>
   </g>
   <g id="patch_3">
    <path d="M 57.6 307.584 
L 57.6 41.472 
" style="fill: none; stroke: #000000; stroke-width: 0.8; stroke-linejoin: miter; stroke-linecap: square"/>
   </g>
   <g id="patch_4">
    <path d="M 414.72 307.584 
L 414.72 41.472 
" style="fill: none; stroke: #000000; stroke-width: 0.8; stroke-linejoin: miter; stroke-linecap: square"/>
   </g>
   <g id="patch_5">
    <path d="M 57.6 307.584 
L 414.72 307.584 
" style="fill: none; stroke: #000000; stroke-width: 0.8; stroke-linejoin: miter; stroke-linecap: square"/>
   </g>
   <g id="patch_6">
    <path d="M 57.6 41.472 
L 414.72 41.472 
" style="fill: none; stroke: #000000; stroke-width: 0.8; stroke-linejoin: miter; stroke-linecap: square"/>
   </g>
   <g id="legend_1">
    <g id="patch_7">
     <path d="M 392.72 67.472 
L 400.72 67.472 
Q 404.72 67.472 404.72 63.472 
L 404.72 55.472 
Q 404.72 51.472 400.72 51.472 
L 392.72 51.472 
Q 388.72 51.472 388.72 55.472 
L 388.72 63.472 
Q 388.72 67.472 392.72 67.472 
z
" style="fill: #ffffff; opacity: 0.8; stroke: #cccccc; stroke-linejoin: miter"/>
    </g>
   </g>
  </g>
 </g>
 <defs>
  <clipPath id="p8dfa9bfb62">
   <rect x="57.6" y="41.472" width="357.12" height="266.112"/>
  </clipPath>
 </defs>
</svg>
