<?xml version="1.0" encoding="utf-8" standalone="no"?>
<!DOCTYPE svg PUBLIC "-//W3C//DTD SVG 1.1//EN"
  "http://www.w3.org/Graphics/SVG/1.1/DTD/svg11.dtd">
<svg xmlns:xlink="http://www.w3.org/1999/xlink" width="460.8pt" height="345.6pt" viewBox="0 0 460.8 345.6" xmlns="http://www.w3.org/2000/svg" version="1.1">
 <metadata>
  <rdf:RDF xmlns:dc="http://purl.org/dc/elements/1.1/" xmlns:cc="http://creativecommons.org/ns#" xmlns:rdf="http://www.w3.org/1999/02/22-rdf-syntax-ns#">
   <cc:Work>
    <dc:type rdf:resource="http://purl.org/dc/dcmitype/StillImage"/>
    <dc:date>2024-06-02T21:50:05.476907</dc:date>
    <dc:format>image/svg+xml</dc:format>
    <dc:creator>
     <cc:Agent>
      <dc:title>Matplotlib v3.7.1, https://matplotlib.org/</dc:title>
     </cc:Agent>
    </dc:creator>
   </cc:Work>
  </rdf:RDF>
 </metadata>
 <defs>
  <style type="text/css">*{stroke-linejoin: round; stroke-linecap: butt}</style>
 </defs>
 <g id="figure_1">
  <g id="patch_1">
   <path d="M 0 345.6 
L 460.8 345.6 
L 460.8 0 
L 0 0 
z
" style="fill: #ffffff"/>
  </g>
  <g id="axes_1">
   <g id="patch_2">
    <path d="M 57.6 307.584 
L 414.72 307.584 
L 414.72 41.472 
L 57.6 41.472 
z
" style="fill: #ffffff"/>
   </g>
   <g id="matplotlib.axis_1">
    <g id="xtick_1">
     <g id="line2d_1">
      <path d="M 73.832727 307.584 
L 73.832727 41.472 
" clip-path="url(#p08f1fdd0ac)" style="fill: none; stroke: #b0b0b0; stroke-width: 0.8; stroke-linecap: square"/>
     </g>
     <g id="line2d_2">
      <defs>
       <path id="m75aaca9530" d="M 0 0 
L 0 3.5 
" style="stroke: #000000; stroke-width: 0.8"/>
      </defs>
      <g>
       <use xlink:href="#m75aaca9530" x="73.832727" y="307.584" style="stroke: #000000; stroke-width: 0.8"/>
      </g>
     </g>
     <g id="text_1">
      <!-- 0 -->
      <g transform="translate(70.651477 322.182437) scale(0.1 -0.1)">
       <defs>
        <path id="DejaVuSans-30" d="M 2034 4250 
Q 1547 4250 1301 3770 
Q 1056 3291 1056 2328 
Q 1056 1369 1301 889 
Q 1547 409 2034 409 
Q 2525 409 2770 889 
Q 3016 1369 3016 2328 
Q 3016 3291 2770 3770 
Q 2525 4250 2034 4250 
z
M 2034 4750 
Q 2819 4750 3233 4129 
Q 3647 3509 3647 2328 
Q 3647 1150 3233 529 
Q 2819 -91 2034 -91 
Q 1250 -91 836 529 
Q 422 1150 422 2328 
Q 422 3509 836 4129 
Q 1250 4750 2034 4750 
z
" transform="scale(0.015625)"/>
       </defs>
       <use xlink:href="#DejaVuSans-30"/>
      </g>
     </g>
    </g>
    <g id="xtick_2">
     <g id="line2d_3">
      <path d="M 139.419504 307.584 
L 139.419504 41.472 
" clip-path="url(#p08f1fdd0ac)" style="fill: none; stroke: #b0b0b0; stroke-width: 0.8; stroke-linecap: square"/>
     </g>
     <g id="line2d_4">
      <g>
       <use xlink:href="#m75aaca9530" x="139.419504" y="307.584" style="stroke: #000000; stroke-width: 0.8"/>
      </g>
     </g>
     <g id="text_2">
      <!-- 20 -->
      <g transform="translate(133.057004 322.182437) scale(0.1 -0.1)">
       <defs>
        <path id="DejaVuSans-32" d="M 1228 531 
L 3431 531 
L 3431 0 
L 469 0 
L 469 531 
Q 828 903 1448 1529 
Q 2069 2156 2228 2338 
Q 2531 2678 2651 2914 
Q 2772 3150 2772 3378 
Q 2772 3750 2511 3984 
Q 2250 4219 1831 4219 
Q 1534 4219 1204 4116 
Q 875 4013 500 3803 
L 500 4441 
Q 881 4594 1212 4672 
Q 1544 4750 1819 4750 
Q 2544 4750 2975 4387 
Q 3406 4025 3406 3419 
Q 3406 3131 3298 2873 
Q 3191 2616 2906 2266 
Q 2828 2175 2409 1742 
Q 1991 1309 1228 531 
z
" transform="scale(0.015625)"/>
       </defs>
       <use xlink:href="#DejaVuSans-32"/>
       <use xlink:href="#DejaVuSans-30" x="63.623047"/>
      </g>
     </g>
    </g>
    <g id="xtick_3">
     <g id="line2d_5">
      <path d="M 205.006281 307.584 
L 205.006281 41.472 
" clip-path="url(#p08f1fdd0ac)" style="fill: none; stroke: #b0b0b0; stroke-width: 0.8; stroke-linecap: square"/>
     </g>
     <g id="line2d_6">
      <g>
       <use xlink:href="#m75aaca9530" x="205.006281" y="307.584" style="stroke: #000000; stroke-width: 0.8"/>
      </g>
     </g>
     <g id="text_3">
      <!-- 40 -->
      <g transform="translate(198.643781 322.182437) scale(0.1 -0.1)">
       <defs>
        <path id="DejaVuSans-34" d="M 2419 4116 
L 825 1625 
L 2419 1625 
L 2419 4116 
z
M 2253 4666 
L 3047 4666 
L 3047 1625 
L 3713 1625 
L 3713 1100 
L 3047 1100 
L 3047 0 
L 2419 0 
L 2419 1100 
L 313 1100 
L 313 1709 
L 2253 4666 
z
" transform="scale(0.015625)"/>
       </defs>
       <use xlink:href="#DejaVuSans-34"/>
       <use xlink:href="#DejaVuSans-30" x="63.623047"/>
      </g>
     </g>
    </g>
    <g id="xtick_4">
     <g id="line2d_7">
      <path d="M 270.593058 307.584 
L 270.593058 41.472 
" clip-path="url(#p08f1fdd0ac)" style="fill: none; stroke: #b0b0b0; stroke-width: 0.8; stroke-linecap: square"/>
     </g>
     <g id="line2d_8">
      <g>
       <use xlink:href="#m75aaca9530" x="270.593058" y="307.584" style="stroke: #000000; stroke-width: 0.8"/>
      </g>
     </g>
     <g id="text_4">
      <!-- 60 -->
      <g transform="translate(264.230558 322.182437) scale(0.1 -0.1)">
       <defs>
        <path id="DejaVuSans-36" d="M 2113 2584 
Q 1688 2584 1439 2293 
Q 1191 2003 1191 1497 
Q 1191 994 1439 701 
Q 1688 409 2113 409 
Q 2538 409 2786 701 
Q 3034 994 3034 1497 
Q 3034 2003 2786 2293 
Q 2538 2584 2113 2584 
z
M 3366 4563 
L 3366 3988 
Q 3128 4100 2886 4159 
Q 2644 4219 2406 4219 
Q 1781 4219 1451 3797 
Q 1122 3375 1075 2522 
Q 1259 2794 1537 2939 
Q 1816 3084 2150 3084 
Q 2853 3084 3261 2657 
Q 3669 2231 3669 1497 
Q 3669 778 3244 343 
Q 2819 -91 2113 -91 
Q 1303 -91 875 529 
Q 447 1150 447 2328 
Q 447 3434 972 4092 
Q 1497 4750 2381 4750 
Q 2619 4750 2861 4703 
Q 3103 4656 3366 4563 
z
" transform="scale(0.015625)"/>
       </defs>
       <use xlink:href="#DejaVuSans-36"/>
       <use xlink:href="#DejaVuSans-30" x="63.623047"/>
      </g>
     </g>
    </g>
    <g id="xtick_5">
     <g id="line2d_9">
      <path d="M 336.179835 307.584 
L 336.179835 41.472 
" clip-path="url(#p08f1fdd0ac)" style="fill: none; stroke: #b0b0b0; stroke-width: 0.8; stroke-linecap: square"/>
     </g>
     <g id="line2d_10">
      <g>
       <use xlink:href="#m75aaca9530" x="336.179835" y="307.584" style="stroke: #000000; stroke-width: 0.8"/>
      </g>
     </g>
     <g id="text_5">
      <!-- 80 -->
      <g transform="translate(329.817335 322.182437) scale(0.1 -0.1)">
       <defs>
        <path id="DejaVuSans-38" d="M 2034 2216 
Q 1584 2216 1326 1975 
Q 1069 1734 1069 1313 
Q 1069 891 1326 650 
Q 1584 409 2034 409 
Q 2484 409 2743 651 
Q 3003 894 3003 1313 
Q 3003 1734 2745 1975 
Q 2488 2216 2034 2216 
z
M 1403 2484 
Q 997 2584 770 2862 
Q 544 3141 544 3541 
Q 544 4100 942 4425 
Q 1341 4750 2034 4750 
Q 2731 4750 3128 4425 
Q 3525 4100 3525 3541 
Q 3525 3141 3298 2862 
Q 3072 2584 2669 2484 
Q 3125 2378 3379 2068 
Q 3634 1759 3634 1313 
Q 3634 634 3220 271 
Q 2806 -91 2034 -91 
Q 1263 -91 848 271 
Q 434 634 434 1313 
Q 434 1759 690 2068 
Q 947 2378 1403 2484 
z
M 1172 3481 
Q 1172 3119 1398 2916 
Q 1625 2713 2034 2713 
Q 2441 2713 2670 2916 
Q 2900 3119 2900 3481 
Q 2900 3844 2670 4047 
Q 2441 4250 2034 4250 
Q 1625 4250 1398 4047 
Q 1172 3844 1172 3481 
z
" transform="scale(0.015625)"/>
       </defs>
       <use xlink:href="#DejaVuSans-38"/>
       <use xlink:href="#DejaVuSans-30" x="63.623047"/>
      </g>
     </g>
    </g>
    <g id="xtick_6">
     <g id="line2d_11">
      <path d="M 401.766612 307.584 
L 401.766612 41.472 
" clip-path="url(#p08f1fdd0ac)" style="fill: none; stroke: #b0b0b0; stroke-width: 0.8; stroke-linecap: square"/>
     </g>
     <g id="line2d_12">
      <g>
       <use xlink:href="#m75aaca9530" x="401.766612" y="307.584" style="stroke: #000000; stroke-width: 0.8"/>
      </g>
     </g>
     <g id="text_6">
      <!-- 100 -->
      <g transform="translate(392.222862 322.182437) scale(0.1 -0.1)">
       <defs>
        <path id="DejaVuSans-31" d="M 794 531 
L 1825 531 
L 1825 4091 
L 703 3866 
L 703 4441 
L 1819 4666 
L 2450 4666 
L 2450 531 
L 3481 531 
L 3481 0 
L 794 0 
L 794 531 
z
" transform="scale(0.015625)"/>
       </defs>
       <use xlink:href="#DejaVuSans-31"/>
       <use xlink:href="#DejaVuSans-30" x="63.623047"/>
       <use xlink:href="#DejaVuSans-30" x="127.246094"/>
      </g>
     </g>
    </g>
    <g id="text_7">
     <!-- T -->
     <g transform="translate(233.106094 335.860562) scale(0.1 -0.1)">
      <defs>
       <path id="DejaVuSans-54" d="M -19 4666 
L 3928 4666 
L 3928 4134 
L 2272 4134 
L 2272 0 
L 1638 0 
L 1638 4134 
L -19 4134 
L -19 4666 
z
" transform="scale(0.015625)"/>
      </defs>
      <use xlink:href="#DejaVuSans-54"/>
     </g>
    </g>
   </g>
   <g id="matplotlib.axis_2">
    <g id="ytick_1">
     <g id="line2d_13">
      <path d="M 57.6 303.025655 
L 414.72 303.025655 
" clip-path="url(#p08f1fdd0ac)" style="fill: none; stroke: #b0b0b0; stroke-width: 0.8; stroke-linecap: square"/>
     </g>
     <g id="line2d_14">
      <defs>
       <path id="m015e9abb8d" d="M 0 0 
L -3.5 0 
" style="stroke: #000000; stroke-width: 0.8"/>
      </defs>
      <g>
       <use xlink:href="#m015e9abb8d" x="57.6" y="303.025655" style="stroke: #000000; stroke-width: 0.8"/>
      </g>
     </g>
     <g id="text_8">
      <!-- −2 -->
      <g transform="translate(35.857813 306.824873) scale(0.1 -0.1)">
       <defs>
        <path id="DejaVuSans-2212" d="M 678 2272 
L 4684 2272 
L 4684 1741 
L 678 1741 
L 678 2272 
z
" transform="scale(0.015625)"/>
       </defs>
       <use xlink:href="#DejaVuSans-2212"/>
       <use xlink:href="#DejaVuSans-32" x="83.789062"/>
      </g>
     </g>
    </g>
    <g id="ytick_2">
     <g id="line2d_15">
      <path d="M 57.6 257.669717 
L 414.72 257.669717 
" clip-path="url(#p08f1fdd0ac)" style="fill: none; stroke: #b0b0b0; stroke-width: 0.8; stroke-linecap: square"/>
     </g>
     <g id="line2d_16">
      <g>
       <use xlink:href="#m015e9abb8d" x="57.6" y="257.669717" style="stroke: #000000; stroke-width: 0.8"/>
      </g>
     </g>
     <g id="text_9">
      <!-- 0 -->
      <g transform="translate(44.2375 261.468936) scale(0.1 -0.1)">
       <use xlink:href="#DejaVuSans-30"/>
      </g>
     </g>
    </g>
    <g id="ytick_3">
     <g id="line2d_17">
      <path d="M 57.6 212.31378 
L 414.72 212.31378 
" clip-path="url(#p08f1fdd0ac)" style="fill: none; stroke: #b0b0b0; stroke-width: 0.8; stroke-linecap: square"/>
     </g>
     <g id="line2d_18">
      <g>
       <use xlink:href="#m015e9abb8d" x="57.6" y="212.31378" style="stroke: #000000; stroke-width: 0.8"/>
      </g>
     </g>
     <g id="text_10">
      <!-- 2 -->
      <g transform="translate(44.2375 216.112999) scale(0.1 -0.1)">
       <use xlink:href="#DejaVuSans-32"/>
      </g>
     </g>
    </g>
    <g id="ytick_4">
     <g id="line2d_19">
      <path d="M 57.6 166.957843 
L 414.72 166.957843 
" clip-path="url(#p08f1fdd0ac)" style="fill: none; stroke: #b0b0b0; stroke-width: 0.8; stroke-linecap: square"/>
     </g>
     <g id="line2d_20">
      <g>
       <use xlink:href="#m015e9abb8d" x="57.6" y="166.957843" style="stroke: #000000; stroke-width: 0.8"/>
      </g>
     </g>
     <g id="text_11">
      <!-- 4 -->
      <g transform="translate(44.2375 170.757062) scale(0.1 -0.1)">
       <use xlink:href="#DejaVuSans-34"/>
      </g>
     </g>
    </g>
    <g id="ytick_5">
     <g id="line2d_21">
      <path d="M 57.6 121.601906 
L 414.72 121.601906 
" clip-path="url(#p08f1fdd0ac)" style="fill: none; stroke: #b0b0b0; stroke-width: 0.8; stroke-linecap: square"/>
     </g>
     <g id="line2d_22">
      <g>
       <use xlink:href="#m015e9abb8d" x="57.6" y="121.601906" style="stroke: #000000; stroke-width: 0.8"/>
      </g>
     </g>
     <g id="text_12">
      <!-- 6 -->
      <g transform="translate(44.2375 125.401125) scale(0.1 -0.1)">
       <use xlink:href="#DejaVuSans-36"/>
      </g>
     </g>
    </g>
    <g id="ytick_6">
     <g id="line2d_23">
      <path d="M 57.6 76.245969 
L 414.72 76.245969 
" clip-path="url(#p08f1fdd0ac)" style="fill: none; stroke: #b0b0b0; stroke-width: 0.8; stroke-linecap: square"/>
     </g>
     <g id="line2d_24">
      <g>
       <use xlink:href="#m015e9abb8d" x="57.6" y="76.245969" style="stroke: #000000; stroke-width: 0.8"/>
      </g>
     </g>
     <g id="text_13">
      <!-- 8 -->
      <g transform="translate(44.2375 80.045187) scale(0.1 -0.1)">
       <use xlink:href="#DejaVuSans-38"/>
      </g>
     </g>
    </g>
    <g id="text_14">
     <!-- X -->
     <g transform="translate(29.778125 177.953) rotate(-90) scale(0.1 -0.1)">
      <defs>
       <path id="DejaVuSans-58" d="M 403 4666 
L 1081 4666 
L 2241 2931 
L 3406 4666 
L 4084 4666 
L 2584 2425 
L 4184 0 
L 3506 0 
L 2194 1984 
L 872 0 
L 191 0 
L 1856 2491 
L 403 4666 
z
" transform="scale(0.015625)"/>
      </defs>
      <use xlink:href="#DejaVuSans-58"/>
     </g>
    </g>
   </g>
   <g id="line2d_25">
    <path d="M 73.832727 98.923937 
L 77.112066 110.400819 
L 80.391405 110.70266 
L 83.670744 136.445755 
L 86.950083 169.062158 
L 90.229421 184.291766 
L 93.50876 211.780684 
L 96.788099 225.470119 
L 100.067438 233.453315 
L 103.346777 227.718582 
L 106.626116 224.78137 
L 109.905455 217.779615 
L 113.184793 216.822684 
L 116.464132 219.375314 
L 119.743471 223.391989 
L 123.02281 222.802664 
L 126.302149 228.496169 
L 129.581488 231.296895 
L 132.860826 225.766548 
L 136.140165 227.300137 
L 139.419504 233.005583 
L 142.698843 237.067805 
L 145.978182 245.18736 
L 149.257521 236.541112 
L 152.53686 243.254263 
L 155.816198 241.728326 
L 159.095537 250.363768 
L 162.374876 245.915393 
L 165.654215 243.65313 
L 168.933554 238.549608 
L 172.212893 244.883916 
L 175.492231 250.841513 
L 178.77157 248.269484 
L 182.050909 245.056247 
L 185.330248 252.873203 
L 188.609587 244.76705 
L 191.888926 237.023161 
L 195.168264 245.374006 
L 198.447603 251.211186 
L 201.726942 250.643004 
L 205.006281 252.649787 
L 208.28562 244.062875 
L 211.564959 236.328187 
L 214.844298 230.272805 
L 218.123636 234.636383 
L 221.402975 237.690005 
L 224.682314 229.430033 
L 227.961653 233.282899 
L 231.240992 226.536799 
L 234.520331 230.613854 
L 237.799669 227.241606 
L 241.079008 220.296009 
L 244.358347 213.79018 
L 247.637686 217.732525 
L 250.917025 212.608089 
L 254.196364 221.042888 
L 257.475702 221.071774 
L 260.755041 217.748419 
L 264.03438 223.494946 
L 267.313719 230.612859 
L 270.593058 244.023472 
L 273.872397 239.861879 
L 277.151736 232.089711 
L 280.431074 233.604963 
L 283.710413 228.490541 
L 286.989752 233.102972 
L 290.269091 241.71843 
L 293.54843 251.845999 
L 296.827769 262.921211 
L 300.107107 252.844802 
L 303.386446 263.571371 
L 306.665785 253.861455 
L 309.945124 246.039636 
L 313.224463 245.955934 
L 316.503802 254.551736 
L 319.78314 259.943887 
L 323.062479 256.128192 
L 326.341818 256.502043 
L 329.621157 247.844141 
L 332.900496 241.82259 
L 336.179835 232.220225 
L 339.459174 233.771878 
L 342.738512 229.352943 
L 346.017851 235.5814 
L 349.29719 245.297924 
L 352.576529 246.440219 
L 355.855868 253.530048 
L 359.135207 257.728211 
L 362.414545 262.079509 
L 365.693884 249.537498 
L 368.973223 252.686521 
L 372.252562 252.825945 
L 375.531901 263.348704 
L 378.81124 269.037594 
L 382.090579 267.84987 
L 385.369917 277.032851 
L 388.649256 276.148595 
L 391.928595 265.144417 
L 395.207934 263.548081 
L 398.487273 265.441163 
" clip-path="url(#p08f1fdd0ac)" style="fill: none; stroke: #000000; stroke-width: 1.5; stroke-linecap: square"/>
   </g>
   <g id="line2d_26">
    <path d="M 73.832727 98.923937 
L 77.112066 110.400819 
L 80.391405 110.143707 
L 83.670744 131.911685 
L 86.950083 163.85599 
L 90.229421 179.566787 
L 93.50876 207.108122 
L 96.788099 218.548272 
L 100.067438 223.837498 
L 103.346777 218.302985 
L 106.626116 220.051776 
L 109.905455 216.856387 
L 113.184793 218.286512 
L 116.464132 222.789952 
L 119.743471 226.591438 
L 123.02281 225.637367 
L 126.302149 231.529546 
L 129.581488 233.766192 
L 132.860826 228.097291 
L 136.140165 229.044764 
L 139.419504 234.799556 
L 142.698843 238.831398 
L 145.978182 247.350821 
L 149.257521 239.130556 
L 152.53686 246.110979 
L 155.816198 244.752455 
L 159.095537 252.961342 
L 162.374876 248.13808 
L 165.654215 245.090612 
L 168.933554 239.256567 
L 172.212893 244.927292 
L 175.492231 250.358793 
L 178.77157 247.291455 
L 182.050909 243.608578 
L 185.330248 250.986302 
L 188.609587 242.313491 
L 191.888926 234.443673 
L 195.168264 242.969138 
L 198.447603 249.012007 
L 201.726942 248.612109 
L 205.006281 250.367878 
L 208.28562 241.71643 
L 211.564959 233.942574 
L 214.844298 227.964522 
L 218.123636 232.567287 
L 221.402975 235.881643 
L 224.682314 227.717172 
L 227.961653 231.800437 
L 231.240992 225.207613 
L 234.520331 229.383431 
L 237.799669 226.119962 
L 241.079008 219.336017 
L 244.358347 212.931768 
L 247.637686 217.062293 
L 250.917025 212.06618 
L 254.196364 220.602692 
L 257.475702 220.707734 
L 260.755041 217.430894 
L 264.03438 223.211113 
L 267.313719 230.336566 
L 270.593058 243.675525 
L 273.872397 239.33592 
L 277.151736 230.948798 
L 280.431074 232.292681 
L 283.710413 226.938795 
L 286.989752 231.374147 
L 290.269091 239.931585 
L 293.54843 250.060757 
L 296.827769 261.174229 
L 300.107107 251.296392 
L 303.386446 262.132117 
L 306.665785 252.583838 
L 309.945124 244.923917 
L 313.224463 244.876918 
L 316.503802 253.35533 
L 319.78314 258.452856 
L 323.062479 254.090656 
L 326.341818 253.93224 
L 329.621157 245.253251 
L 332.900496 239.346778 
L 336.179835 229.692248 
L 339.459174 231.192728 
L 342.738512 226.856425 
L 346.017851 233.17835 
L 349.29719 243.031165 
L 352.576529 244.364158 
L 355.855868 251.682313 
L 359.135207 256.09569 
L 362.414545 260.636969 
L 365.693884 248.358438 
L 368.973223 251.744529 
L 372.252562 252.315643 
L 375.531901 263.258674 
L 378.81124 269.044206 
L 382.090579 267.377697 
L 385.369917 275.775807 
L 388.649256 274.355354 
L 391.928595 262.570414 
L 395.207934 260.304532 
L 398.487273 261.715125 
" clip-path="url(#p08f1fdd0ac)" style="fill: none; stroke: #ff0000; stroke-width: 1.5; stroke-linecap: square"/>
   </g>
   <g id="line2d_27">
    <path d="M 73.832727 53.568 
L 77.112066 84.372197 
L 80.391405 119.719823 
L 83.670744 141.810053 
L 86.950083 146.297107 
L 90.229421 157.874621 
L 93.50876 169.216307 
L 96.788099 187.540299 
L 100.067438 198.384213 
L 103.346777 212.051065 
L 106.626116 224.720532 
L 109.905455 233.251231 
L 113.184793 233.011057 
L 116.464132 250.943539 
L 119.743471 254.865088 
L 123.02281 247.659969 
L 126.302149 259.53572 
L 129.581488 253.632493 
L 132.860826 261.28731 
L 136.140165 251.616152 
L 139.419504 252.789531 
L 142.698843 245.937348 
L 145.978182 244.506344 
L 149.257521 246.077737 
L 152.53686 246.48245 
L 155.816198 258.9485 
L 159.095537 259.233654 
L 162.374876 268.464439 
L 165.654215 275.403207 
L 168.933554 283.370396 
L 172.212893 290.661886 
L 175.492231 288.709517 
L 178.77157 289.395693 
L 182.050909 289.963944 
L 185.330248 277.670738 
L 188.609587 263.523336 
L 191.888926 258.64745 
L 195.168264 260.093747 
L 198.447603 253.731072 
L 201.726942 242.494994 
L 205.006281 240.147948 
L 208.28562 237.335803 
L 211.564959 247.940915 
L 214.844298 260.265945 
L 218.123636 264.763057 
L 221.402975 275.198519 
L 224.682314 277.633167 
L 227.961653 276.602804 
L 231.240992 265.085472 
L 234.520331 259.5012 
L 237.799669 247.866441 
L 241.079008 239.033419 
L 244.358347 242.565734 
L 247.637686 247.210611 
L 250.917025 245.965849 
L 254.196364 244.8534 
L 257.475702 251.392074 
L 260.755041 249.647346 
L 264.03438 260.300196 
L 267.313719 263.281775 
L 270.593058 263.367833 
L 273.872397 270.886243 
L 277.151736 263.546734 
L 280.431074 267.737712 
L 283.710413 272.31315 
L 286.989752 276.86216 
L 290.269091 272.045251 
L 293.54843 269.185636 
L 296.827769 256.25529 
L 300.107107 261.950244 
L 303.386446 271.346851 
L 306.665785 262.713122 
L 309.945124 251.68339 
L 313.224463 243.625873 
L 316.503802 245.839566 
L 319.78314 247.474705 
L 323.062479 245.541036 
L 326.341818 256.011048 
L 329.621157 258.591437 
L 332.900496 252.178004 
L 336.179835 241.654219 
L 339.459174 233.108427 
L 342.738512 227.21424 
L 346.017851 230.410957 
L 349.29719 228.837375 
L 352.576529 224.09971 
L 355.855868 237.356629 
L 359.135207 233.844131 
L 362.414545 242.420666 
L 365.693884 250.042992 
L 368.973223 242.105956 
L 372.252562 247.281422 
L 375.531901 254.14178 
L 378.81124 262.21243 
L 382.090579 272.771737 
L 385.369917 269.11782 
L 388.649256 276.120005 
L 391.928595 286.004251 
L 395.207934 274.41779 
L 398.487273 262.273978 
" clip-path="url(#p08f1fdd0ac)" style="fill: none; stroke-dasharray: 5.55,2.4; stroke-dashoffset: 0; stroke: #000000; stroke-width: 1.5"/>
   </g>
   <g id="line2d_28">
    <path d="M 73.832727 53.568 
L 77.112066 81.048255 
L 80.391405 113.263603 
L 83.670744 136.205427 
L 86.950083 145.247375 
L 90.229421 159.72826 
L 93.50876 176.752902 
L 96.788099 202.026327 
L 100.067438 223.442679 
L 103.346777 249.452283 
L 106.626116 254.987031 
L 109.905455 257.247483 
L 113.184793 251.333121 
L 116.464132 264.48043 
L 119.743471 263.884749 
L 123.02281 255.666378 
L 126.302149 266.608203 
L 129.581488 260.186561 
L 132.860826 268.228112 
L 136.140165 258.840382 
L 139.419504 260.191298 
L 142.698843 253.681413 
L 145.978182 252.019092 
L 149.257521 252.927377 
L 152.53686 252.308323 
L 155.816198 264.13833 
L 159.095537 263.955663 
L 162.374876 274.163839 
L 165.654215 279.938693 
L 168.933554 287.703596 
L 172.212893 295.488 
L 175.492231 293.252338 
L 178.77157 294.32736 
L 182.050909 295.232526 
L 185.330248 283.228863 
L 188.609587 269.305315 
L 191.888926 263.168802 
L 195.168264 261.900595 
L 198.447603 252.663999 
L 201.726942 238.917036 
L 205.006281 237.936802 
L 208.28562 235.34749 
L 211.564959 246.229419 
L 214.844298 258.313878 
L 218.123636 263.606023 
L 221.402975 275.89913 
L 224.682314 277.174759 
L 227.961653 276.562882 
L 231.240992 265.691098 
L 234.520331 260.734517 
L 237.799669 248.434767 
L 241.079008 239.075557 
L 244.358347 243.436706 
L 247.637686 247.882863 
L 250.917025 246.441742 
L 254.196364 245.153739 
L 257.475702 251.554207 
L 260.755041 249.672778 
L 264.03438 261.446477 
L 267.313719 265.365356 
L 270.593058 267.205798 
L 273.872397 276.791897 
L 277.151736 268.275152 
L 280.431074 271.890016 
L 283.710413 275.247325 
L 286.989752 278.638076 
L 290.269091 273.678674 
L 293.54843 270.735746 
L 296.827769 257.773 
L 300.107107 263.317225 
L 303.386446 271.167865 
L 306.665785 261.53834 
L 309.945124 250.535196 
L 313.224463 241.732016 
L 316.503802 242.149613 
L 319.78314 241.155473 
L 323.062479 239.370343 
L 326.341818 250.283804 
L 329.621157 253.051675 
L 332.900496 248.052228 
L 336.179835 239.278131 
L 339.459174 231.836405 
L 342.738512 225.910904 
L 346.017851 229.629096 
L 349.29719 228.558253 
L 352.576529 224.294067 
L 355.855868 237.580289 
L 359.135207 234.036553 
L 362.414545 243.432344 
L 365.693884 251.83452 
L 368.973223 245.053551 
L 372.252562 252.175042 
L 375.531901 260.103384 
L 378.81124 269.988778 
L 382.090579 279.518365 
L 385.369917 275.453925 
L 388.649256 283.283578 
L 391.928595 293.46082 
L 395.207934 280.692859 
L 398.487273 268.405963 
" clip-path="url(#p08f1fdd0ac)" style="fill: none; stroke-dasharray: 5.55,2.4; stroke-dashoffset: 0; stroke: #ff0000; stroke-width: 1.5"/>
   </g>
   <g id="patch_3">
    <path d="M 57.6 307.584 
L 57.6 41.472 
" style="fill: none; stroke: #000000; stroke-width: 0.8; stroke-linejoin: miter; stroke-linecap: square"/>
   </g>
   <g id="patch_4">
    <path d="M 414.72 307.584 
L 414.72 41.472 
" style="fill: none; stroke: #000000; stroke-width: 0.8; stroke-linejoin: miter; stroke-linecap: square"/>
   </g>
   <g id="patch_5">
    <path d="M 57.6 307.584 
L 414.72 307.584 
" style="fill: none; stroke: #000000; stroke-width: 0.8; stroke-linejoin: miter; stroke-linecap: square"/>
   </g>
   <g id="patch_6">
    <path d="M 57.6 41.472 
L 414.72 41.472 
" style="fill: none; stroke: #000000; stroke-width: 0.8; stroke-linejoin: miter; stroke-linecap: square"/>
   </g>
   <g id="legend_1">
    <g id="patch_7">
     <path d="M 392.72 67.472 
L 400.72 67.472 
Q 404.72 67.472 404.72 63.472 
L 404.72 55.472 
Q 404.72 51.472 400.72 51.472 
L 392.72 51.472 
Q 388.72 51.472 388.72 55.472 
L 388.72 63.472 
Q 388.72 67.472 392.72 67.472 
z
" style="fill: #ffffff; opacity: 0.8; stroke: #cccccc; stroke-linejoin: miter"/>
    </g>
   </g>
  </g>
 </g>
 <defs>
  <clipPath id="p08f1fdd0ac">
   <rect x="57.6" y="41.472" width="357.12" height="266.112"/>
  </clipPath>
 </defs>
</svg>
